<?xml version="1.0" encoding="UTF-8" standalone="no"?>
<!-- Created with Inkscape (http://www.inkscape.org/) -->

<svg
   version="1.1"
   id="svg2"
   width="63.999893"
   height="83.558609"
   viewBox="0 0 63.999894 83.558608"
   sodipodi:docname="like.svg"
   inkscape:version="1.2.2 (732a01da63, 2022-12-09)"
   xmlns:inkscape="http://www.inkscape.org/namespaces/inkscape"
   xmlns:sodipodi="http://sodipodi.sourceforge.net/DTD/sodipodi-0.dtd"
   xmlns="http://www.w3.org/2000/svg"
   xmlns:svg="http://www.w3.org/2000/svg">
  <defs
     id="defs6" />
  <sodipodi:namedview
     id="namedview4"
     pagecolor="#ffffff"
     bordercolor="#000000"
     borderopacity="0.25"
     inkscape:showpageshadow="2"
     inkscape:pageopacity="0.0"
     inkscape:pagecheckerboard="0"
     inkscape:deskcolor="#d1d1d1"
     showgrid="false"
     inkscape:zoom="0.88777256"
     inkscape:cx="630.22898"
     inkscape:cy="386.36022"
     inkscape:window-width="1920"
     inkscape:window-height="1017"
     inkscape:window-x="-8"
     inkscape:window-y="-8"
     inkscape:window-maximized="1"
     inkscape:current-layer="g8" />
  <g
     id="g8"
     inkscape:groupmode="layer"
     inkscape:label="ink_ext_XXXXXX"
     transform="matrix(1.3333333,0,0,-1.3333333,-1210.1123,4510.953)">
    <path
       d="m 925.83099,3332.371 c 0,0 -9.47901,-5.2679 -14.59402,-0.5191 -7.56423,7.0231 -0.26582,17.1795 2.57777,17.4091 1.42903,0.1153 1.42816,-3.2869 2.2896,-6.6893 1.01025,-3.9897 3.20672,-7.9796 10.28677,-6.2964 l -0.56012,-3.9043"
       style="fill:#f99b28;fill-opacity:1;fill-rule:nonzero;stroke:none;stroke-width:0.00219143"
       id="path14" />
    <path
       d="m 916.56235,3338.6144 c -0.49373,0.9432 -0.83953,1.9879 -1.10404,3.0327 -0.8472,3.3457 -0.86057,6.692 -2.22013,6.692 -0.0228,0 -0.046,0 -0.0697,0 -0.32586,-0.027 -0.71002,-0.1829 -1.12354,-0.4501 0,2e-4 2.2e-4,5e-4 4.4e-4,9e-4 0.69446,0.6412 1.34093,1.0122 1.79543,1.0488 0.0123,0 0.0241,0 0.0359,0 0.68592,0 0.9754,-1.6236 1.30982,-3.4986 0.33046,-1.8533 0.73851,-4.1422 1.7367,-6.0501 -0.1328,-0.2504 -0.25421,-0.5086 -0.36093,-0.7742"
       style="fill:#fccd94;fill-opacity:1;fill-rule:nonzero;stroke:none;stroke-width:0.00219143"
       id="path16" />
    <path
       d="m 926.05144,3333.9096 -0.22067,-1.5383 c 0,0 -9.47901,-5.2687 -14.5938,-0.5196 -6.61762,6.1443 -1.85921,14.6876 1.33874,16.8827 -2.43993,-3.5992 -3.99481,-9.6664 1.0429,-14.3435 3.58977,-3.3334 9.32934,-1.7321 12.43283,-0.4813"
       style="fill:#ffffff;fill-opacity:1;fill-rule:nonzero;stroke:none;stroke-width:0.00219143"
       id="path18" />
    <path
       d="m 917.2143,3332.5974 c -1.05977,0.2128 -2.07747,0.6189 -2.98713,1.2892 0.8185,-0.3692 1.69046,-0.5805 2.57909,-0.6738 0.12403,-0.2288 0.26056,-0.4333 0.40804,-0.6154"
       style="fill:#c9743b;fill-opacity:1;fill-rule:nonzero;stroke:none;stroke-width:0.00219143"
       id="path20" />
    <path
       d="m 917.00875,3330.4625 c -0.77752,1.0116 -1.63108,1.6031 -2.49056,1.7196 -0.10804,0.015 -0.21564,0.022 -0.3228,0.022 -0.63923,0 -1.26423,-0.2604 -1.86139,-0.7767 -0.005,0 -0.009,-0.01 -0.014,-0.012 -0.29913,0.1966 -0.58686,0.4207 -0.86101,0.6752 -4.15385,3.8567 -3.39476,8.4091 -2.57267,10.7794 0.0506,0.1459 0.10339,0.2899 0.15818,0.4319 -0.22008,-2.7224 0.58071,-5.6453 3.29413,-8.1644 0.58029,-0.5384 1.21646,-0.948 1.88857,-1.2511 0.90966,-0.6703 1.92736,-1.0764 2.98713,-1.2892 0.30066,-0.3712 0.64581,-0.65 1.01814,-0.8507 -0.47861,-0.3837 -0.91185,-0.8327 -1.22369,-1.2842"
       style="fill:#cdbfdc;fill-opacity:1;fill-rule:nonzero;stroke:none;stroke-width:0.00219143"
       id="path22" />
    <path
       d="m 925.83077,3332.371 h 10e-4 -10e-4 m -11.95401,16.5663 c -0.0118,0 -0.0237,-4e-4 -0.0359,0 -1.19564,-0.096 -3.72016,-2.5074 -4.95453,-6.0656 -0.82209,-2.3703 -1.58118,-6.9227 2.57267,-10.7794 4.55006,-4.2244 12.8869,-0.1269 14.07268,0.4904 l 0.4694,3.2727 c -2.76317,-0.5768 -5.0142,-0.3112 -6.69546,0.7915 -2.88874,1.8945 -3.59986,5.882 -4.119,8.7933 -0.33442,1.875 -0.6239,3.4986 -1.30982,3.4986 m 3.00094,-19.3912 c -2.39413,0 -4.38526,0.6951 -5.8625,2.0667 -4.42532,4.1087 -3.61936,8.9507 -2.74516,11.4712 1.27379,3.672 3.9305,6.3738 5.51841,6.502 1.30105,0.1045 1.62801,-1.7209 2.04021,-4.0327 0.52616,-2.9503 1.18096,-6.622 3.83478,-8.3624 1.61858,-1.0618 3.85691,-1.2629 6.65207,-0.5985 0.10497,0.025 0.21564,0 0.2954,-0.077 0.0798,-0.073 0.11834,-0.1801 0.103,-0.2871 l -0.56013,-3.904 c -0.0145,-0.101 -0.0754,-0.1893 -0.16435,-0.2389 -0.0986,-0.055 -2.44344,-1.3468 -5.46126,-2.0724 -1.29863,-0.3123 -2.5197,-0.4674 -3.65047,-0.4674"
       style="fill:#390075;fill-opacity:1;fill-rule:nonzero;stroke:none;stroke-width:0.00219143"
       id="path24" />
    <path
       d="m 913.81211,3340.3781 c -0.10847,0 -0.2336,0.015 -0.37692,0.048 -1.36066,0.3096 -1.51384,3.0772 -1.41435,3.6474 0.15318,0.8772 0.5483,1.1093 0.90112,1.1093 0.19701,0 0.38109,-0.072 0.50227,-0.1451 0.4201,-0.2524 0.45889,-1.6922 0.87898,-3.1745 0.21432,-0.756 0.25815,-1.4851 -0.4911,-1.4851"
       style="fill:#fbc37e;fill-opacity:1;fill-rule:nonzero;stroke:none;stroke-width:0.00219143"
       id="path26" />
    <path
       d="m 940.62639,3370.696 c -0.0574,0.024 -0.11417,0.048 -0.17071,0.071 1.89734,2.1524 5.6324,5.7415 10.27494,6.9038 -4.63114,-1.2782 -8.29411,-4.8846 -10.10423,-6.9744"
       style="fill:#eeb2fe;fill-opacity:1;fill-rule:nonzero;stroke:none;stroke-width:0.00219143"
       id="path28" />
    <path
       d="m 940.45568,3370.7666 c -0.0381,0.015 -0.0758,0.03 -0.11351,0.045 2.02904,2.3078 6.19187,6.2991 11.3358,7.1759 0.12119,0.021 0.24018,0.031 0.35633,0.031 0.11044,0 0.2187,-0.01 0.32433,-0.028 -0.10651,0 -0.21586,-0.011 -0.32806,-0.03 -0.44091,-0.075 -0.87482,-0.1731 -1.29995,-0.2904 -4.64254,-1.1623 -8.3776,-4.7514 -10.27494,-6.9038"
       style="fill:#b265d5;fill-opacity:1;fill-rule:nonzero;stroke:none;stroke-width:0.00219143"
       id="path30" />
    <path
       d="m 948.00865,3363.2272 c -0.36882,1.2456 -1.82502,2.8247 -3.0726,4.0028 -1.12595,1.0633 -1.10404,2.8572 0.0333,3.9085 2.00187,1.8502 4.29629,3.0211 5.83182,3.6675 0.90988,0.3831 1.9175,-0.277 1.93547,-1.264 0.028,-1.53 -0.18321,-3.8337 -1.29952,-6.3529 -1.20769,-2.7248 -3.26172,-3.9444 -3.26172,-3.9444 l -0.16676,-0.018"
       style="fill:#ff6c6c;fill-opacity:1;fill-rule:nonzero;stroke:none;stroke-width:0.00219143"
       id="path32" />
    <path
       d="m 948.20478,3363.1952 -0.0589,0.099 c 0.0204,0.012 2.05293,1.2429 3.23849,3.918 1.1196,2.5265 1.32209,4.8361 1.29469,6.3284 -0.008,0.4458 -0.23601,0.8571 -0.60965,1.1001 -0.37737,0.2457 -0.83165,0.2864 -1.24605,0.1118 -1.557,-0.6555 -3.82973,-1.8222 -5.81472,-3.6566 -0.53427,-0.494 -0.84305,-1.1937 -0.84699,-1.9195 -0.004,-0.7287 0.2851,-1.4054 0.81411,-1.9048 1.20025,-1.1336 2.71058,-2.7526 3.08838,-4.0285 l -0.11067,-0.033 c -0.37057,1.251 -1.86687,2.8534 -3.05682,3.9772 -0.55267,0.5218 -0.85443,1.2283 -0.85049,1.9894 0.004,0.7577 0.32631,1.4879 0.88424,2.0034 1.99727,1.846 4.2827,3.0193 5.84826,3.6785 0.44398,0.1869 0.94998,0.1413 1.35386,-0.1214 0.40563,-0.2641 0.65305,-0.7107 0.66203,-1.1948 0.0276,-1.5042 -0.17641,-3.8315 -1.30477,-6.3773 -1.20112,-2.7103 -3.26413,-3.9583 -3.28495,-3.9706"
       style="fill:#390075;fill-opacity:1;fill-rule:nonzero;stroke:none;stroke-width:0.00219143"
       id="path34" />
    <path
       d="m 947.29074,3366.774 c -0.20819,-0.4711 -0.44289,-0.8963 -0.68723,-1.2793 -0.522,0.614 -1.11588,1.214 -1.66702,1.7347 -1.12618,1.0637 -1.10404,2.8572 0.0324,3.9097 1.13779,1.0519 2.37047,1.884 3.50497,2.5252 0.0723,-0.1628 0.11439,-0.3445 0.11746,-0.5384 0.0274,-1.5297 -0.18408,-3.8328 -1.30061,-6.3519"
       style="fill:#ff6c6c;fill-opacity:1;fill-rule:nonzero;stroke:none;stroke-width:0.00219143"
       id="path36" />
    <path
       d="m 948.44562,3373.5819 c -1.29426,-0.7368 -2.45067,-1.5728 -3.43747,-2.4853 -0.53427,-0.4948 -0.84282,-1.195 -0.84633,-1.9212 -0.004,-0.7287 0.28554,-1.4047 0.81433,-1.9039 0.62587,-0.5913 1.17066,-1.1562 1.62034,-1.68 0.24413,0.3892 0.45954,0.7944 0.64165,1.206 v 0 c 1.11938,2.5251 1.32231,4.8345 1.29557,6.3273 -0.003,0.1593 -0.0322,0.3127 -0.0881,0.4571 m -1.83554,-8.1843 -0.0506,0.06 c -0.45648,0.5371 -1.01595,1.1194 -1.66242,1.7303 -0.55246,0.5214 -0.85443,1.2277 -0.85071,1.9885 0.004,0.758 0.32565,1.4889 0.88336,2.0054 1.00784,0.9318 2.19077,1.7843 3.51571,2.5333 l 0.0554,0.031 0.0256,-0.058 c 0.0782,-0.1755 0.11943,-0.3644 0.12272,-0.561 0.027,-1.5042 -0.17772,-3.8317 -1.30565,-6.3761 -0.1946,-0.4399 -0.42711,-0.8729 -0.69139,-1.2871 l -0.0421,-0.066"
       style="fill:#390075;fill-opacity:1;fill-rule:nonzero;stroke:none;stroke-width:0.00219143"
       id="path38" />
    <path
       d="m 933.56978,3371.9092 c -0.99096,2.5736 -3.21788,7.2231 -7.15084,10.001 3.98182,-2.6718 6.28238,-7.3275 7.33514,-9.9916 -0.0607,0 -0.12228,-0.01 -0.1843,-0.01"
       style="fill:#eeb2fe;fill-opacity:1;fill-rule:nonzero;stroke:none;stroke-width:0.00219143"
       id="path40" />
    <path
       d="m 933.75408,3371.9186 c -1.05276,2.6641 -3.35332,7.3198 -7.33514,9.9916 -0.36136,0.2551 -0.73675,0.4944 -1.12748,0.7151 -0.0991,0.056 -0.19877,0.1023 -0.29869,0.1393 0.21673,-0.038 0.43039,-0.1155 0.63945,-0.2334 4.55291,-2.5718 7.11972,-7.753 8.24371,-10.6076 -0.0403,0 -0.0809,0 -0.12185,-0.01"
       style="fill:#b265d5;fill-opacity:1;fill-rule:nonzero;stroke:none;stroke-width:0.00219143"
       id="path42" />
    <path
       d="m 924.08727,3367.4001 c 0.76897,1.0471 2.67376,2.04 4.24654,2.7261 1.41961,0.6193 2.00625,2.3146 1.29185,3.6889 -1.257,2.4186 -3.01935,4.2973 -4.24523,5.4255 -0.72646,0.6686 -1.89821,0.3885 -2.2495,-0.5341 -0.54435,-1.4301 -1.12552,-3.6693 -0.92785,-6.4175 0.21345,-2.9729 1.73342,-4.8159 1.73342,-4.8159 l 0.15077,-0.073"
       style="fill:#ff6c6c;fill-opacity:1;fill-rule:nonzero;stroke:none;stroke-width:0.00219143"
       id="path44" />
    <path
       d="m 924.13395,3367.3659 -0.0931,0.068 c 0.78738,1.0723 2.75659,2.0845 4.26977,2.7448 0.66685,0.2908 1.16803,0.8294 1.41106,1.5164 0.24215,0.6844 0.18846,1.4472 -0.14704,2.093 -1.2467,2.3986 -2.9902,4.2657 -4.2334,5.4096 -0.33112,0.3046 -0.77248,0.4201 -1.21032,0.3166 -0.43369,-0.1023 -0.78738,-0.4122 -0.94604,-0.8288 -0.53098,-1.3948 -1.12223,-3.6364 -0.92434,-6.393 0.20993,-2.9205 1.70536,-4.7648 1.72048,-4.7832 l -0.0892,-0.073 c -0.0151,0.019 -1.53399,1.8914 -1.74634,4.8485 -0.19964,2.7776 0.39643,5.0365 0.93157,6.4423 0.17225,0.4526 0.55618,0.789 1.02734,0.9001 0.46962,0.1104 0.96094,-0.018 1.31508,-0.3441 1.24977,-1.1503 3.00312,-3.0279 4.2575,-5.4413 0.35019,-0.6741 0.40629,-1.4704 0.15362,-2.1846 -0.25399,-0.7177 -0.7773,-1.2803 -1.47374,-1.584 -1.50025,-0.6546 -3.45084,-1.6556 -4.22287,-2.7073"
       style="fill:#390075;fill-opacity:1;fill-rule:nonzero;stroke:none;stroke-width:0.00219143"
       id="path46" />
    <path
       d="m 925.96379,3370.4944 c 0.0364,-0.5139 0.11329,-0.9934 0.21344,-1.4367 0.69928,0.4012 1.46124,0.7648 2.15592,1.0681 1.41983,0.6195 2.00625,2.3146 1.29316,3.6897 -0.71418,1.3749 -1.5925,2.5754 -2.44278,3.5628 -0.12316,-0.1286 -0.22418,-0.2855 -0.29299,-0.467 -0.54369,-1.4299 -1.12442,-3.6686 -0.92675,-6.4169"
       style="fill:#ff6c6c;fill-opacity:1;fill-rule:nonzero;stroke:none;stroke-width:0.00219143"
       id="path48" />
    <path
       d="m 927.18244,3377.2913 c -0.10168,-0.1172 -0.18167,-0.2516 -0.23799,-0.4004 -0.53055,-1.3959 -1.12135,-3.6377 -0.92303,-6.3923 v 0 c 0.0318,-0.4486 0.0975,-0.9029 0.19526,-1.3519 0.60067,0.3407 1.30455,0.6876 2.09346,1.0319 0.66642,0.2908 1.1676,0.8292 1.41084,1.516 0.2426,0.6844 0.18934,1.4479 -0.14594,2.0942 -0.61974,1.193 -1.42443,2.3709 -2.3926,3.5025 m -1.04422,-8.3226 -0.0173,0.076 c -0.10826,0.4793 -0.18057,0.9655 -0.21476,1.4452 -0.19964,2.7757 0.39577,5.0351 0.93048,6.4417 0.0695,0.1837 0.17225,0.3471 0.30527,0.4863 l 0.044,0.046 0.0414,-0.048 c 0.99294,-1.1533 1.81735,-2.3558 2.45023,-3.574 0.34997,-0.6747 0.40542,-1.4715 0.15231,-2.1859 -0.25421,-0.7173 -0.77752,-1.2796 -1.47352,-1.5831 -0.81521,-0.3559 -1.5386,-0.7142 -2.15044,-1.0653 l -0.0677,-0.039"
       style="fill:#390075;fill-opacity:1;fill-rule:nonzero;stroke:none;stroke-width:0.00219143"
       id="path50" />
    <path
       d="m 951.68827,3351.9177 c -1.20375,0.9002 -1.92232,3.3255 -2.02575,4.4935 -0.06,0.6747 -0.25618,2.0212 -0.41155,3.0397 7.12739,4.1416 7.39978,19.1719 2.75747,18.3808 -5.24233,-0.8932 -9.42817,-4.9833 -11.40396,-7.2641 -1.94599,0.8161 -3.42586,0.9631 -3.42586,0.9631 0,0 -1.47965,0.3723 -3.63141,0.2496 -1.08256,2.8101 -3.63754,8.0945 -8.27854,10.7161 -4.11528,2.3247 -8.96841,-12.0237 -3.56962,-18.2982 -0.48671,-0.8989 -1.10754,-2.0647 -1.38629,-2.6672 -0.49373,-1.0637 -1.99091,-3.1026 -3.42936,-3.5418 -0.8483,-0.259 -0.99929,-0.9015 -0.5483,-1.4827 0.28949,-0.3723 0.82814,-0.7207 1.58835,-0.9237 0.06,-0.017 0.12315,-0.032 0.18627,-0.046 0,0 -8.8e-4,2e-4 -0.004,0 l -8.7e-4,2e-4 c -0.0519,-0.022 -0.48628,-0.2049 -1.60172,-0.6911 -1.09264,-0.4773 -0.45472,-1.4768 1.04312,-2.628 1.49697,-1.1503 3.26808,-3.5297 3.65157,-3.9027 0.22463,-0.2187 1.39682,-1.55 3.82032,-2.8776 1.72421,-0.9456 4.0824,-1.8899 7.18349,-2.4307 l 8.8e-4,-2e-4 c 7.45807,-1.3011 11.66364,1.0468 12.15101,1.269 0.48737,0.2214 2.9593,1.8606 4.75824,2.4358 1.79829,0.5764 2.73687,1.3006 1.86951,2.12 -0.94582,0.8939 -1.27717,1.1959 -1.27717,1.1959 0.0625,-0.01 0.12426,-0.014 0.18452,-0.019 0.7876,-0.067 1.41522,0.078 1.8145,0.3309 0.62105,0.3942 0.69666,1.0499 -0.0147,1.5809"
       style="fill:#f99b28;fill-opacity:1;fill-rule:nonzero;stroke:none;stroke-width:0.00219143"
       id="path52" />
    <path
       d="m 954.82924,3368.8885 c 0.72887,4.1379 0.053,8.0927 -1.80771,8.8455 -0.20753,0.1299 -0.42886,0.2158 -0.6629,0.2568 0.006,0 0.0123,0 0.0184,0 2.38121,0 3.30182,-4.4556 2.45221,-9.1023 m -14.57627,1.8213 c -1.76979,0.6912 -3.07435,0.8209 -3.07435,0.8209 0,0 -1.09045,0.2744 -2.7601,0.2744 -0.15931,0 -0.32389,0 -0.49307,-0.01 -0.0162,0.042 -0.0326,0.084 -0.0495,0.1264 0.1946,0.01 0.38306,0.01 0.56451,0.01 1.6703,0 2.76119,-0.2748 2.76119,-0.2748 0,0 1.33743,-0.1328 3.14054,-0.8472 -0.03,-0.034 -0.0601,-0.068 -0.0892,-0.1021 m -20.66229,4.3515 c 0.70849,4.2323 2.73709,7.8162 4.78257,7.8162 0.20687,0 0.41352,-0.037 0.61952,-0.1129 -0.10234,0.018 -0.20512,0.027 -0.30856,0.027 -0.13302,0 -0.26691,-0.015 -0.40147,-0.044 -2.00186,-0.077 -3.97305,-3.5562 -4.69206,-7.686"
       style="fill:#f1bdfe;fill-opacity:1;fill-rule:nonzero;stroke:none;stroke-width:0.00219143"
       id="path54" />
    <path
       d="m 940.60448,3370.5676 c -0.0802,0.034 -0.15954,0.066 -0.23799,0.097 0.0294,0.034 0.0589,0.067 0.0892,0.1017 0.0565,-0.023 0.1133,-0.046 0.17071,-0.071 1.81012,2.0898 5.47309,5.6962 10.10423,6.9744 0.31797,0.08 0.64055,0.148 0.96685,0.2034 0.1133,0.019 0.22419,0.029 0.33288,0.029 0.13127,0 0.25881,-0.014 0.38284,-0.042 -0.0195,4e-4 -0.039,9e-4 -0.0585,9e-4 -0.1122,0 -0.22747,-0.01 -0.34624,-0.03 -5.24233,-0.8932 -9.42817,-4.9833 -11.40396,-7.2641"
       style="fill:#f5d1fe;fill-opacity:1;fill-rule:nonzero;stroke:none;stroke-width:0.00219143"
       id="path56" />
    <path
       d="m 940.36649,3370.6649 c -0.0381,0.015 -0.0758,0.03 -0.11352,0.045 0.0291,0.034 0.0592,0.068 0.0892,0.1021 0.0377,-0.015 0.0754,-0.03 0.11351,-0.045 -0.0302,-0.034 -0.0598,-0.068 -0.0892,-0.1017 m 10.36413,7.0055 c 0.42513,0.1173 0.85904,0.2152 1.29995,0.2904 0.1122,0.019 0.22155,0.029 0.32806,0.03 0.23404,-0.041 0.45537,-0.1269 0.6629,-0.2568 -0.19043,0.077 -0.39336,0.1203 -0.60834,0.1271 -0.12403,0.028 -0.25157,0.042 -0.38284,0.042 -0.10869,0 -0.21958,-0.01 -0.33288,-0.029 -0.3263,-0.055 -0.64888,-0.1238 -0.96685,-0.2034"
       style="fill:#d1a3e6;fill-opacity:1;fill-rule:nonzero;stroke:none;stroke-width:0.00219143"
       id="path58" />
    <path
       d="m 933.54721,3371.7803 c -1.08256,2.8101 -3.63754,8.0945 -8.27854,10.7161 -0.12316,0.07 -0.24654,0.124 -0.37057,0.1644 0.2301,-0.029 0.45669,-0.1057 0.67758,-0.2301 0.28905,-0.1633 0.57021,-0.3373 0.84326,-0.5205 3.93296,-2.7779 6.15988,-7.4274 7.15084,-10.001 0.062,0 0.1236,0.01 0.1843,0.01 0.0169,-0.043 0.0333,-0.084 0.0495,-0.1258 -0.0844,0 -0.16984,-0.01 -0.2564,-0.013"
       style="fill:#f5d1fe;fill-opacity:1;fill-rule:nonzero;stroke:none;stroke-width:0.00219143"
       id="path60" />
    <path
       d="m 933.80361,3371.7928 c -0.0162,0.041 -0.0327,0.083 -0.0495,0.1258 0.041,0 0.0815,0 0.12185,0.01 0.0169,-0.043 0.0333,-0.085 0.0495,-0.1264 -0.0403,0 -0.0809,0 -0.12184,0 m -7.38467,10.1174 c -0.27305,0.1832 -0.55421,0.3572 -0.84326,0.5205 -0.22089,0.1244 -0.44748,0.2011 -0.67758,0.2301 -0.18189,0.059 -0.3651,0.088 -0.54764,0.088 -0.0226,0 -0.0451,-4e-4 -0.0677,0 0.13456,0.029 0.26845,0.044 0.40147,0.044 0.10344,0 0.20622,-0.01 0.30856,-0.027 0.0999,-0.037 0.19963,-0.084 0.29869,-0.1393 0.39073,-0.2207 0.76612,-0.46 1.12748,-0.7151"
       style="fill:#d1a3e6;fill-opacity:1;fill-rule:nonzero;stroke:none;stroke-width:0.00219143"
       id="path62" />
    <path
       d="m 954.71309,3368.3034 c 0.58007,4.3042 -0.36881,8.1986 -2.59574,8.1986 -0.11242,0 -0.22769,-0.01 -0.34646,-0.03 -4.42515,-0.7542 -7.8407,-4.2667 -9.98677,-6.7156 -0.45603,-0.5204 -1.10754,-0.8073 -1.77659,-0.8073 -0.24018,0 -0.48255,0.037 -0.71878,0.1133 -1.3554,0.4381 -2.43029,0.6303 -2.43029,0.6303 0,0 -1.1047,0.19 -2.56485,0.2331 -0.94494,0.028 -1.78426,0.6086 -2.12897,1.4889 -1.18753,3.0316 -3.21482,7.508 -7.13287,9.7218 -0.30351,0.1714 -0.61141,0.2522 -0.91864,0.2522 -1.90369,0 -3.79117,-3.1013 -4.61536,-6.9422 0.0278,0.2064 0.0587,0.4113 0.0929,0.6149 0.71901,4.1298 2.6902,7.6091 4.69206,7.686 0.0226,9e-4 0.0452,0 0.0677,0 0.18254,0 0.36575,-0.029 0.54764,-0.088 0.12403,-0.04 0.24741,-0.095 0.37057,-0.1644 4.641,-2.6216 7.19598,-7.906 8.27854,-10.7161 0.0866,0 0.17203,0.01 0.2564,0.013 0.041,0 0.0815,0 0.12184,0 0.16918,0.01 0.33376,0.01 0.49307,0.01 1.66965,0 2.7601,-0.2744 2.7601,-0.2744 0,0 1.30456,-0.1297 3.07435,-0.8209 0.0377,-0.015 0.0754,-0.03 0.11352,-0.045 0.0784,-0.031 0.15778,-0.064 0.23799,-0.097 1.97579,2.2808 6.16163,6.3709 11.40396,7.2641 0.11877,0.02 0.23404,0.03 0.34624,0.03 0.0195,0 0.039,-5e-4 0.0585,-9e-4 0.21498,-0.01 0.41791,-0.05 0.60834,-0.1271 1.86074,-0.7528 2.53658,-4.7076 1.80771,-8.8455 -0.0355,-0.1948 -0.0743,-0.3898 -0.11615,-0.5851"
       style="fill:#fbc37e;fill-opacity:1;fill-rule:nonzero;stroke:none;stroke-width:0.00219143"
       id="path64" />
    <path
       d="m 949.11159,3346.7091 c -1.79894,-0.5752 -4.27087,-2.2144 -4.75824,-2.4358 -0.48737,-0.2222 -4.69294,-2.5701 -12.15101,-1.269 l -8.8e-4,2e-4 c -3.10109,0.5408 -5.45928,1.4851 -7.18349,2.4307 -2.4235,1.3276 -3.59569,2.6589 -3.82032,2.8776 -0.38349,0.373 -2.1546,2.7524 -3.65157,3.9027 -1.49784,1.1512 -2.13576,2.1507 -1.04312,2.628 1.11544,0.4862 1.54978,0.6688 1.60172,0.6911 l 8.7e-4,-2e-4 c 0.003,0 0.004,0 0.004,0 -0.0631,0.015 -0.12623,0.03 -0.18627,0.046 0.26034,0.04 0.54698,0.07 0.86101,0.089 1.16014,0.068 2.31962,-0.71 3.67568,-1.4887 1.61705,-0.9285 3.51395,-1.8568 6.02532,-1.349 3.54441,0.7168 3.51943,8.7412 4.75079,10.6126 0.0125,0.019 0.025,0.037 0.0375,0.056 1.29886,1.9299 4.28139,1.4095 4.85007,-0.8462 0.006,-0.022 0.0118,-0.044 0.0171,-0.066 0.52506,-2.1776 -2.21531,-9.7196 0.87613,-11.594 2.33321,-1.4141 4.56189,-1.0606 6.47983,-0.7069 1.39396,0.257 2.62379,0.5141 3.60971,0.092 0.29015,-0.1238 0.54939,-0.2504 0.7819,-0.376 -0.0603,0 -0.12206,0.011 -0.18452,0.019 0,0 0.33135,-0.302 1.27717,-1.1959 0.86736,-0.8194 -0.0712,-1.5436 -1.86951,-2.12"
       style="fill:#ffffff;fill-opacity:1;fill-rule:nonzero;stroke:none;stroke-width:0.00219143"
       id="path66" />
    <path
       d="m 940.60338,3370.105 c -0.0596,0 -0.12031,0.012 -0.1786,0.036 -1.86052,0.7819 -3.27837,0.9288 -3.2924,0.9303 -0.0228,0 -0.0454,0.01 -0.0675,0.012 -0.0136,0 -1.44547,0.3535 -3.49094,0.2362 -0.25443,-0.013 -0.47291,0.18 -0.48759,0.4346 -0.0145,0.2547 0.17991,0.4729 0.43456,0.4874 2.04503,0.117 3.49576,-0.1977 3.73638,-0.2544 0.24237,-0.028 1.67666,-0.2174 3.52534,-0.9943 0.23492,-0.099 0.34559,-0.3695 0.24676,-0.6046 -0.0743,-0.1766 -0.24566,-0.2829 -0.42602,-0.2829"
       style="fill:#390075;fill-opacity:1;fill-rule:nonzero;stroke:none;stroke-width:0.00219143"
       id="path68" />
    <path
       d="m 922.09088,3363.9843 c -0.3572,-0.6611 -0.71287,-1.3245 -1.05232,-1.9891 -0.0848,-0.1659 -0.16787,-0.3322 -0.24741,-0.497 l -0.12316,-0.2586 c -0.0456,-0.092 -0.0925,-0.1817 -0.14135,-0.2696 -0.19504,-0.3506 -0.41045,-0.6795 -0.64274,-0.9971 -0.46612,-0.6329 -0.99075,-1.2259 -1.63174,-1.731 -0.32324,-0.2485 -0.67737,-0.4773 -1.09527,-0.632 l -0.1534,-0.052 c -0.0333,-0.012 -0.0697,-0.022 -0.10103,-0.036 -0.0635,-0.027 -0.12557,-0.055 -0.17334,-0.088 -0.0506,-0.032 -0.0912,-0.067 -0.11943,-0.1008 -0.0309,-0.034 -0.0493,-0.066 -0.0598,-0.099 -0.011,-0.033 -0.0175,-0.066 -0.0156,-0.1058 0.003,-0.04 0.0131,-0.087 0.0307,-0.1368 0.0414,-0.101 0.11396,-0.2137 0.21608,-0.316 0.20205,-0.208 0.48693,-0.3787 0.79307,-0.5047 0.0769,-0.032 0.15559,-0.061 0.2358,-0.087 0.0394,-0.015 0.0809,-0.025 0.12097,-0.038 l 0.0609,-0.018 0.037,-0.012 c 0.0182,-0.01 0.0357,-0.014 0.0537,-0.022 0.0364,-0.018 0.0712,-0.039 0.10322,-0.066 0.0647,-0.052 0.11374,-0.1192 0.14507,-0.1878 0.062,-0.1381 0.064,-0.2816 0.0112,-0.4199 -0.0274,-0.069 -0.071,-0.1354 -0.1282,-0.1895 -0.0283,-0.026 -0.0598,-0.051 -0.0923,-0.07 -0.0162,-0.01 -0.0331,-0.018 -0.0502,-0.027 l -0.0184,-0.01 -0.12951,-0.056 -0.25903,-0.1119 -1.02077,-0.4431 c -0.1271,-0.057 -0.20687,-0.1326 -0.22659,-0.171 -0.0101,-0.02 -0.0147,-0.034 -0.0156,-0.064 -6.6e-4,-0.029 0.007,-0.074 0.0245,-0.1269 0.0337,-0.1065 0.11373,-0.2395 0.20752,-0.3662 0.0962,-0.1279 0.20972,-0.255 0.33157,-0.3784 0.24478,-0.2468 0.52046,-0.4808 0.80776,-0.7035 0.30636,-0.2397 0.61228,-0.5029 0.88862,-0.7718 0.55925,-0.54 1.07226,-1.1095 1.56818,-1.688 l 0.73391,-0.8694 0.36027,-0.4275 c 0.0572,-0.065 0.12119,-0.1403 0.16765,-0.1865 0.0208,-0.024 0.0609,-0.061 0.0916,-0.09 l 0.0995,-0.094 c 0.53536,-0.5001 1.11215,-0.9669 1.70383,-1.4049 0.59322,-0.4374 1.20419,-0.8494 1.83926,-1.2152 0.63223,-0.3699 1.28396,-0.7023 1.95651,-0.9743 0.16786,-0.069 0.33792,-0.1306 0.50556,-0.193 l 0.52901,-0.18 1.06722,-0.3462 c 1.42794,-0.451 2.8642,-0.8746 4.32522,-1.218 l 6.6e-4,-2e-4 c 0.0804,-0.019 0.13039,-0.099 0.11154,-0.1799 -0.0169,-0.072 -0.0831,-0.1195 -0.15449,-0.1151 -0.76131,0.045 -1.51757,0.1473 -2.2666,0.2788 -0.74924,0.1315 -1.49258,0.2921 -2.23043,0.474 -0.36947,0.089 -0.73676,0.1867 -1.10272,0.2897 l -0.55027,0.158 c -0.18934,0.058 -0.37605,0.1188 -0.55903,0.188 -0.73545,0.2678 -1.43867,0.6073 -2.10991,0.9943 -1.34137,0.7803 -2.56331,1.7222 -3.68904,2.782 l -0.10563,0.1012 c -0.0366,0.036 -0.066,0.063 -0.10869,0.1087 -0.0857,0.088 -0.14201,0.1582 -0.20907,0.2352 l -0.36487,0.44 c -0.23952,0.291 -0.47663,0.5798 -0.72032,0.8623 -0.48474,0.5661 -0.98285,1.1176 -1.50836,1.625 -0.26428,0.2566 -0.53076,0.4851 -0.81762,0.7104 -0.30833,0.2393 -0.60943,0.4931 -0.89585,0.7815 -0.14266,0.1448 -0.28182,0.2989 -0.41199,0.472 -0.12798,0.1764 -0.25399,0.366 -0.33923,0.6182 -0.0416,0.1254 -0.0728,0.2678 -0.0701,0.4273 0.002,0.1587 0.0451,0.3327 0.12623,0.4778 0.0804,0.1461 0.18868,0.2583 0.2965,0.3445 0.10869,0.087 0.21958,0.1514 0.3274,0.202 l 0.0785,0.037 0.0649,0.028 0.12995,0.056 0.26012,0.1124 0.5198,0.2248 0.25991,0.1124 0.12995,0.056 c -6.6e-4,-2e-4 10e-4,5e-4 0.003,0 0.003,0 0.007,0 -0.005,0 -0.0118,-0.01 -0.0235,-0.011 -0.0344,-0.018 -0.0221,-0.013 -0.0449,-0.03 -0.0642,-0.048 -0.0403,-0.038 -0.0706,-0.084 -0.089,-0.1317 -0.0359,-0.094 -0.0344,-0.1871 0.008,-0.2824 0.0213,-0.047 0.0565,-0.094 0.10234,-0.1322 0.0235,-0.018 0.0471,-0.035 0.0738,-0.047 0.0123,-0.01 0.0243,-0.011 0.037,-0.016 0.0125,0 0.0302,-0.01 0.0204,-0.01 l -0.0745,0.022 c -0.0498,0.015 -0.0997,0.029 -0.1488,0.046 -0.0988,0.033 -0.19701,0.069 -0.29431,0.1087 -0.38788,0.1622 -0.76919,0.3776 -1.09593,0.7101 -0.16216,0.1656 -0.30877,0.3686 -0.40804,0.6177 -0.0471,0.1269 -0.0809,0.2654 -0.0892,0.4133 -0.008,0.1484 0.0149,0.3049 0.0662,0.4495 0.0504,0.1459 0.1317,0.2779 0.22637,0.3846 0.0938,0.1093 0.20008,0.1961 0.30834,0.2651 0.10825,0.073 0.21892,0.1232 0.32915,0.1688 0.0554,0.023 0.11001,0.039 0.16501,0.059 l 0.1144,0.039 c 0.29102,0.1067 0.5805,0.2875 0.85312,0.4983 0.54522,0.4282 1.0326,0.9724 1.45839,1.5527 0.21279,0.2905 0.41089,0.5938 0.58226,0.902 0.0427,0.077 0.0831,0.1542 0.12119,0.2311 l 0.11987,0.2518 c 0.0842,0.1747 0.16983,0.3456 0.2564,0.5152 0.34646,0.6781 0.70322,1.3436 1.06262,2.0089 0.11724,0.2172 0.38854,0.2983 0.60593,0.1808 0.21739,-0.1172 0.29847,-0.3887 0.18101,-0.6059 v 0 l -2.2e-4,-7e-4"
       style="fill:#390075;fill-opacity:1;fill-rule:nonzero;stroke:none;stroke-width:0.00219143"
       id="path70" />
    <path
       d="m 949.69385,3359.516 c 0.0949,-0.5897 0.19066,-1.1794 0.27525,-1.7728 0.0421,-0.297 0.0833,-0.5941 0.11965,-0.8957 l 0.0502,-0.4501 c 0.0138,-0.1326 0.037,-0.2695 0.0605,-0.4061 0.10496,-0.5498 0.26494,-1.1023 0.46984,-1.6286 0.20292,-0.5271 0.45231,-1.0342 0.76196,-1.4681 0.0368,-0.057 0.0811,-0.103 0.12074,-0.1551 0.0408,-0.051 0.0802,-0.1037 0.12557,-0.1462 l 0.13017,-0.1361 0.13762,-0.1155 0.034,-0.029 0.0535,-0.043 c 0.0364,-0.03 0.0732,-0.057 0.10848,-0.091 0.0717,-0.063 0.14091,-0.1345 0.20665,-0.2128 0.13039,-0.1571 0.24785,-0.3552 0.30439,-0.5936 0.0607,-0.2367 0.0348,-0.5097 -0.0572,-0.7344 -0.0923,-0.2268 -0.23952,-0.4023 -0.39402,-0.5393 -0.31447,-0.2719 -0.66312,-0.406 -1.00279,-0.4948 -0.34143,-0.083 -0.68088,-0.112 -1.01288,-0.1058 -0.0835,-5e-4 -0.16589,0.01 -0.24873,0.01 l -0.0156,9e-4 -0.008,4e-4 c -0.002,3e-4 -0.0105,7e-4 0.007,-6e-4 0.046,0 0.0977,0 0.14749,0.02 0.10124,0.033 0.17904,0.1021 0.22308,0.1744 0.0443,0.073 0.0666,0.1549 0.0592,0.2485 -0.005,0.092 -0.0557,0.1961 -0.11921,0.2568 l 0.31294,-0.2934 0.65173,-0.6158 0.0813,-0.077 0.0408,-0.039 0.0511,-0.051 c 0.0677,-0.067 0.13411,-0.1459 0.19635,-0.2342 0.12228,-0.1721 0.23624,-0.4239 0.22725,-0.7061 -0.005,-0.2836 -0.13149,-0.5262 -0.26122,-0.6921 -0.13302,-0.1702 -0.27809,-0.2938 -0.42207,-0.3997 -0.28904,-0.2086 -0.58116,-0.3524 -0.87372,-0.4814 -0.29255,-0.1263 -0.58577,-0.233 -0.87985,-0.3279 l -0.10936,-0.035 -0.0993,-0.034 -0.19832,-0.068 c -0.13215,-0.051 -0.26473,-0.1012 -0.39687,-0.1554 -1.0589,-0.4461 -2.08646,-1.0286 -3.11029,-1.6256 l -0.38744,-0.2257 c -0.13237,-0.076 -0.25903,-0.1499 -0.41133,-0.2292 -0.039,-0.019 -0.0857,-0.043 -0.11922,-0.059 l -0.10256,-0.045 -0.21322,-0.092 c -0.14244,-0.059 -0.28533,-0.1152 -0.42843,-0.1702 -0.57218,-0.2185 -1.15553,-0.3947 -1.74327,-0.5486 -1.17746,-0.2986 -2.37923,-0.4867 -3.58496,-0.541 -0.12863,-0.01 -0.23755,0.094 -0.24324,0.2222 -0.005,0.1159 0.0752,0.2158 0.18517,0.2386 l 0.004,7e-4 c 0.57941,0.1207 1.15619,0.2371 1.72618,0.3791 0.56977,0.1429 1.13538,0.2967 1.692,0.4745 0.55816,0.1726 1.10645,0.3727 1.64401,0.5879 0.13368,0.055 0.26648,0.1116 0.39796,0.1698 l 0.19504,0.09 0.10037,0.048 0.0806,0.041 c 0.11154,0.059 0.24171,0.136 0.36684,0.2097 l 0.38263,0.2279 c 1.02778,0.6114 2.07155,1.2204 3.2054,1.7115 0.14288,0.06 0.28817,0.1174 0.43346,0.1746 l 0.22352,0.079 0.11199,0.039 0.10277,0.035 c 0.27196,0.091 0.538,0.1906 0.79133,0.3031 0.25113,0.1126 0.49394,0.2397 0.68657,0.3826 0.0953,0.071 0.17532,0.1468 0.22506,0.2121 0.0506,0.068 0.0601,0.1091 0.0579,0.1256 2.2e-4,0.017 -0.006,0.056 -0.0554,0.1247 -0.0243,0.033 -0.0535,0.069 -0.0923,0.1058 l -0.0278,0.028 -0.0405,0.038 -0.0815,0.076 -0.65107,0.6077 -0.33814,0.3184 c -0.0901,0.087 -0.15691,0.2266 -0.16545,0.3559 -0.0103,0.1306 0.0206,0.2504 0.085,0.355 0.0638,0.1038 0.17181,0.1985 0.30834,0.243 0.0675,0.022 0.13806,0.03 0.20249,0.028 h 0.0401 c 0.066,0 0.13214,-0.01 0.19766,-0.01 0.26319,-0.01 0.52156,0.019 0.75977,0.076 0.2347,0.059 0.45363,0.1561 0.59037,0.2773 0.0675,0.06 0.11374,0.1214 0.13324,0.1718 0.0175,0.051 0.025,0.089 0.0112,0.1413 -0.0123,0.052 -0.0449,0.1201 -0.10431,0.1915 -0.0305,0.035 -0.0647,0.072 -0.10454,0.1072 -0.0177,0.018 -0.0418,0.035 -0.0629,0.052 l -0.085,0.07 -0.20358,0.1729 -0.17948,0.1861 c -0.062,0.061 -0.11242,0.1273 -0.16501,0.1926 -0.0508,0.066 -0.10826,0.1295 -0.15296,0.1976 -0.38044,0.5385 -0.66072,1.1098 -0.87789,1.6964 -0.21958,0.5869 -0.38613,1.1852 -0.49745,1.8071 -0.0252,0.1571 -0.05,0.3142 -0.0651,0.4784 l -0.0436,0.4383 c -0.0316,0.2903 -0.0684,0.584 -0.1065,0.8772 -0.0769,0.5868 -0.15537,1.1757 -0.23887,1.7641 -0.0348,0.2445 0.13522,0.4711 0.37978,0.506 0.24149,0.034 0.46568,-0.1319 0.50468,-0.3717"
       style="fill:#390075;fill-opacity:1;fill-rule:nonzero;stroke:none;stroke-width:0.00219143"
       id="path72" />
    <path
       d="m 922.20352,3372.289 c 0.21366,-2.9723 1.73298,-4.8155 1.73298,-4.8155 l 0.15011,-0.074 c 0.42864,0.5833 1.20989,1.15 2.09062,1.6578 0.69928,0.4012 1.46124,0.7648 2.15592,1.0681 1.41983,0.6195 2.00625,2.3146 1.29316,3.6897 -0.71418,1.3749 -1.5925,2.5754 -2.44278,3.5628 -0.64537,0.7488 -1.27563,1.3756 -1.80354,1.8623 -0.72646,0.6684 -1.89756,0.389 -2.2484,-0.5336 -0.54501,-1.4312 -1.12574,-3.67 -0.92807,-6.418"
       style="fill:#ff6c6c;fill-opacity:1;fill-rule:nonzero;stroke:none;stroke-width:0.00219143"
       id="path74" />
    <path
       d="m 926.21668,3369.1467 c -0.0977,0.449 -0.16348,0.9033 -0.19526,1.3519 v 0 c -0.19832,2.7546 0.39248,4.9964 0.92303,6.3923 0.0563,0.1488 0.13631,0.2832 0.23799,0.4004 0.96817,-1.1316 1.77286,-2.3095 2.3926,-3.5025 0.33528,-0.6463 0.38854,-1.4098 0.14594,-2.0942 -0.24324,-0.6868 -0.74442,-1.2252 -1.41084,-1.516 -0.78891,-0.3443 -1.49279,-0.6912 -2.09346,-1.0319"
       style="fill:#c34b6f;fill-opacity:1;fill-rule:nonzero;stroke:none;stroke-width:0.00219143"
       id="path76" />
    <path
       d="m 926.13822,3368.9687 -0.0134,0.059 c 0.0175,0.01 0.0348,0.02 0.0524,0.03 0.69928,0.4012 1.46124,0.7648 2.15592,1.0681 1.41983,0.6195 2.00625,2.3146 1.29316,3.6897 -0.71418,1.3749 -1.5925,2.5754 -2.44278,3.5628 -0.0125,0.015 -0.0252,0.029 -0.0379,0.044 l 0.0403,0.042 0.0414,-0.048 c 0.99294,-1.1533 1.81735,-2.3558 2.45023,-3.574 0.34997,-0.6747 0.40542,-1.4715 0.15231,-2.1859 -0.25421,-0.7173 -0.77752,-1.2796 -1.47352,-1.5831 -0.81521,-0.3559 -1.5386,-0.7142 -2.15044,-1.0653 l -0.0677,-0.039"
       style="fill:#ce7333;fill-opacity:1;fill-rule:nonzero;stroke:none;stroke-width:0.00219143"
       id="path78" />
    <path
       d="m 926.12486,3369.0275 -0.004,0.017 c -0.10826,0.4793 -0.18057,0.9655 -0.21476,1.4452 -0.19964,2.7757 0.39577,5.0351 0.93048,6.4417 0.0695,0.1837 0.17225,0.3471 0.30527,0.4863 h 0.004 c 0.0127,-0.014 0.0254,-0.029 0.0379,-0.044 0.85028,-0.9874 1.7286,-2.1879 2.44278,-3.5628 0.71309,-1.3751 0.12667,-3.0702 -1.29316,-3.6897 -0.69468,-0.3033 -1.45664,-0.6669 -2.15592,-1.0681 -0.0175,-0.01 -0.0348,-0.02 -0.0524,-0.03 m 1.05758,8.2638 c -0.10168,-0.1172 -0.18167,-0.2516 -0.23799,-0.4004 -0.53055,-1.3959 -1.12135,-3.6377 -0.92303,-6.3923 v 0 c 0.0318,-0.4486 0.0975,-0.9029 0.19526,-1.3519 0.60067,0.3407 1.30455,0.6876 2.09346,1.0319 0.66642,0.2908 1.1676,0.8292 1.41084,1.516 0.2426,0.6844 0.18934,1.4479 -0.14594,2.0942 -0.61974,1.193 -1.42443,2.3709 -2.3926,3.5025"
       style="fill:#d25363;fill-opacity:1;fill-rule:nonzero;stroke:none;stroke-width:0.00219143"
       id="path80" />
    <path
       d="m 924.2262,3367.0828 c -0.0651,-0.044 -0.23974,-0.023 -0.23842,-0.015 l -0.0252,0.01 c -0.0153,0.01 -0.0362,0.013 -0.0438,0.017 -0.0206,0.01 -0.0419,0.02 -0.0609,0.031 -0.0287,0.018 -0.0627,0.039 -0.0857,0.058 l -0.0688,0.056 -0.057,0.055 c -0.0732,0.074 -0.13302,0.1464 -0.18802,0.2194 -0.11067,0.1462 -0.20161,0.293 -0.2873,0.4409 -0.17093,0.2956 -0.31184,0.5956 -0.44529,0.8976 -0.0662,0.151 -0.13127,0.3022 -0.1911,0.4547 -0.0625,0.1517 -0.1214,0.3042 -0.17794,0.4572 l -0.0863,0.2292 -0.078,0.2408 c -0.0517,0.1609 -0.10672,0.3213 -0.142,0.4857 -0.33617,1.3082 -0.3491,2.6529 -0.23032,3.9616 0.0616,0.6557 0.16151,1.3059 0.29387,1.9491 0.0666,0.3215 0.13959,0.6416 0.22353,0.9596 0.0403,0.1593 0.0846,0.3178 0.13082,0.476 l 0.0342,0.1188 0.0401,0.126 c 0.027,0.084 0.0583,0.1674 0.0909,0.2507 0.13258,0.3322 0.31469,0.6637 0.58445,0.9526 0.13587,0.1429 0.29409,0.2739 0.47466,0.3769 0.0425,0.025 0.0951,0.051 0.14946,0.076 0.0546,0.022 0.10979,0.043 0.16655,0.059 0.11351,0.033 0.23097,0.05 0.34843,0.053 0.23558,0.01 0.47072,-0.053 0.67803,-0.163 0.0522,-0.027 0.10146,-0.059 0.15011,-0.093 l 0.0699,-0.053 0.0515,-0.043 c 0.0631,-0.054 0.12798,-0.1068 0.18977,-0.1618 0.25136,-0.2169 0.4911,-0.4435 0.72734,-0.6741 0.46896,-0.4637 0.91229,-0.9519 1.3291,-1.4619 0.41659,-0.5101 0.81039,-1.0398 1.16562,-1.5957 0.0927,-0.1364 0.17685,-0.2784 0.26297,-0.4188 0.0857,-0.1409 0.17312,-0.281 0.25092,-0.4265 l 0.23996,-0.4328 0.22352,-0.4418 c 0.0763,-0.1464 0.14551,-0.2963 0.21213,-0.4472 l 0.10147,-0.226 0.0508,-0.1128 c 0.008,-0.019 0.0169,-0.036 0.0254,-0.058 l 0.0254,-0.068 c 0.14134,-0.3607 0.20183,-0.7545 0.17509,-1.1408 -0.0458,-0.7758 -0.46633,-1.5095 -1.09571,-1.9554 -0.0771,-0.058 -0.1626,-0.1032 -0.24412,-0.1541 -0.0842,-0.046 -0.17247,-0.085 -0.25881,-0.126 l -0.43851,-0.1841 c -0.29124,-0.124 -0.57875,-0.2544 -0.86342,-0.3898 -0.56933,-0.2707 -1.12376,-0.568 -1.64773,-0.8994 -0.26012,-0.1672 -0.51564,-0.3412 -0.74728,-0.5345 -0.0605,-0.046 -0.11636,-0.096 -0.17115,-0.1464 -0.0548,-0.05 -0.11373,-0.098 -0.16282,-0.152 l -0.0769,-0.079 -0.0386,-0.039 -0.0193,-0.019 -0.0305,-0.035 c -0.0826,-0.094 -0.174,-0.1834 -0.26517,-0.2621 z m -0.27765,0.6346 c 0.009,0.046 0.0189,0.082 0.037,0.1133 l 0.007,0.012 0.0219,0.024 0.044,0.048 0.0881,0.097 c 0.0576,0.067 0.12141,0.1231 0.18277,0.1838 0.0616,0.061 0.12381,0.1195 0.1889,0.1738 0.25442,0.2275 0.52441,0.4258 0.79812,0.616 0.54829,0.3785 1.1242,0.6982 1.70734,0.9967 0.29189,0.1483 0.58598,0.291 0.88292,0.4267 l 0.4453,0.2005 c 0.0572,0.03 0.1168,0.057 0.1729,0.088 0.053,0.037 0.11111,0.066 0.16129,0.1063 0.41243,0.3046 0.68614,0.799 0.70498,1.3113 0.0125,0.2549 -0.0313,0.5104 -0.12841,0.7462 l -0.0169,0.045 c -0.006,0.016 -0.0162,0.035 -0.0241,0.052 l -0.05,0.1061 -0.0999,0.2121 c -0.0662,0.1416 -0.13104,0.2838 -0.20511,0.4217 -0.27569,0.5614 -0.60002,1.0976 -0.93311,1.6269 -0.67628,1.0532 -1.46234,2.0398 -2.34176,2.931 -0.2209,0.2211 -0.44552,0.4392 -0.67825,0.6454 -0.0576,0.053 -0.1168,0.1019 -0.17509,0.1532 -0.0131,0.011 -0.0324,0.029 -0.0408,0.035 l -0.0252,0.02 c -0.018,0.012 -0.0355,0.024 -0.0546,0.035 -0.0754,0.041 -0.16151,0.065 -0.24785,0.064 -0.043,-2e-4 -0.0857,-0.01 -0.12688,-0.017 -0.0208,-0.01 -0.0408,-0.013 -0.0609,-0.02 -0.0186,-0.01 -0.0384,-0.017 -0.0653,-0.033 -0.0995,-0.055 -0.19328,-0.1291 -0.28006,-0.2176 -0.17247,-0.1793 -0.31404,-0.4162 -0.42207,-0.6787 -0.0267,-0.066 -0.0528,-0.1324 -0.0758,-0.2012 l -0.0346,-0.1032 -0.0338,-0.1124 c -0.046,-0.1497 -0.0901,-0.3 -0.13061,-0.4519 -0.0842,-0.3024 -0.158,-0.6081 -0.22593,-0.9151 -0.13478,-0.6141 -0.23843,-1.2349 -0.30505,-1.8581 -0.13017,-1.243 -0.12951,-2.5105 0.16173,-3.702 0.0298,-0.151 0.078,-0.2952 0.1225,-0.4407 l 0.0675,-0.2189 0.0806,-0.2229 c 0.0528,-0.1492 0.10782,-0.2971 0.16589,-0.4433 0.0557,-0.1477 0.11571,-0.2924 0.17663,-0.4365 0.1225,-0.2873 0.25201,-0.5716 0.39971,-0.8343 0.0734,-0.1313 0.15099,-0.2586 0.23317,-0.3697 0.0405,-0.056 0.0831,-0.1078 0.1225,-0.1486 l 0.0289,-0.029 0.0241,-0.02 c 0.008,-0.01 0.009,-0.01 0.0136,-0.011 -0.002,0 -0.005,0 -0.007,0 0.001,0 -0.01,0 -0.0158,0.01 h -0.011 c 0.006,0.01 -0.16348,0.026 -0.22375,-0.018"
       style="fill:#390075;fill-opacity:1;fill-rule:nonzero;stroke:none;stroke-width:0.00219143"
       id="path82" />
    <path
       d="m 950.92061,3366.1591 c -1.40864,-2.6258 -3.54813,-3.6879 -3.54813,-3.6879 l -0.16721,-0.01 c -0.15296,0.7078 -0.63486,1.5439 -1.23136,2.3672 -0.47444,0.6517 -1.02164,1.2947 -1.53203,1.8553 -1.04311,1.145 -0.88621,2.9319 0.32609,3.8959 1.21339,0.9635 2.50523,1.7007 3.68444,2.2552 0.89498,0.4198 1.72619,0.7345 2.40684,0.9633 0.93618,0.3136 1.89098,-0.4196 1.83445,-1.4049 -0.0868,-1.5292 -0.4705,-3.8098 -1.77309,-6.2379"
       style="fill:#ff6c6c;fill-opacity:1;fill-rule:nonzero;stroke:none;stroke-width:0.00219143"
       id="path84" />
    <path
       d="m 945.97413,3364.9295 c -0.40892,0.5557 -0.90966,1.1599 -1.48951,1.7967 -0.48979,0.5376 -0.72734,1.2336 -0.66905,1.9598 0.0581,0.7239 0.41835,1.399 0.98812,1.8522 1.05298,0.8361 2.26856,1.5827 3.61453,2.2202 0.0447,-0.1484 0.0629,-0.3038 0.0535,-0.4627 -0.0855,-1.4906 -0.46152,-3.7782 -1.76717,-6.212 v 0 c -0.21213,-0.3964 -0.45779,-0.7843 -0.7304,-1.1542"
       style="fill:#c34b6f;fill-opacity:1;fill-rule:nonzero;stroke:none;stroke-width:0.00219143"
       id="path86" />
    <path
       d="m 945.97325,3364.7351 -0.046,0.063 c -0.41484,0.5698 -0.92894,1.1922 -1.52808,1.8502 -0.51148,0.5615 -0.75955,1.2884 -0.69863,2.0468 0.0605,0.7556 0.43654,1.4604 1.03151,1.9333 1.07511,0.8538 2.31875,1.6149 3.69606,2.2622 l 0.0574,0.027 0.0195,-0.055 c -0.0175,-0.01 -0.0351,-0.016 -0.0526,-0.024 -1.17921,-0.5545 -2.47105,-1.2917 -3.68444,-2.2552 -1.2123,-0.964 -1.3692,-2.7509 -0.32609,-3.8959 0.51039,-0.5606 1.05759,-1.2036 1.53203,-1.8553 0.0118,-0.016 0.0237,-0.033 0.0353,-0.049 l -0.0359,-0.048"
       style="fill:#ce7333;fill-opacity:1;fill-rule:nonzero;stroke:none;stroke-width:0.00219143"
       id="path88" />
    <path
       d="m 946.00919,3364.7831 c -0.0116,0.016 -0.0235,0.033 -0.0353,0.049 -0.47444,0.6517 -1.02164,1.2947 -1.53203,1.8553 -1.04311,1.145 -0.88621,2.9319 0.32609,3.8959 1.21339,0.9635 2.50523,1.7007 3.68444,2.2552 0.0175,0.01 0.0351,0.016 0.0526,0.024 l 0.002,-0.01 c 0.0646,-0.1812 0.0916,-0.3725 0.08,-0.5686 -0.0861,-1.5022 -0.46502,-3.8076 -1.78075,-6.2601 v 0 c -0.22681,-0.4238 -0.49132,-0.8382 -0.78628,-1.2315 l -0.0107,-0.014 m 2.40903,7.9753 c -1.34597,-0.6375 -2.56155,-1.3841 -3.61453,-2.2202 -0.56977,-0.4532 -0.93004,-1.1283 -0.98812,-1.8522 -0.0583,-0.7262 0.17926,-1.4222 0.66905,-1.9598 0.57985,-0.6368 1.08059,-1.241 1.48951,-1.7967 0.27261,0.3699 0.51827,0.7578 0.7304,1.1542 v 0 c 1.30565,2.4338 1.6817,4.7214 1.76717,6.212 0.009,0.1589 -0.009,0.3143 -0.0535,0.4627"
       style="fill:#d25363;fill-opacity:1;fill-rule:nonzero;stroke:none;stroke-width:0.00219143"
       id="path90" />
    <path
       d="m 947.46101,3362.6984 c -0.0366,0.065 -0.19964,0.1166 -0.19679,0.1083 h -0.0112 c -0.006,9e-4 -0.0182,4e-4 -0.0169,0 -0.003,7e-4 -0.006,2e-4 -0.008,-2e-4 0.006,0 0.007,6e-4 0.0169,0 l 0.0302,0.01 0.0386,0.015 c 0.0526,0.021 0.11242,0.051 0.17246,0.085 0.12031,0.068 0.24325,0.1527 0.36378,0.2424 0.24215,0.1797 0.47641,0.3861 0.70542,0.5984 0.11461,0.1068 0.22856,0.2144 0.33945,0.3263 0.11286,0.1098 0.22331,0.2222 0.33266,0.3371 l 0.16457,0.1705 0.15077,0.1722 c 0.10015,0.1148 0.20315,0.2266 0.2919,0.3524 0.75232,0.9688 1.27037,2.1255 1.65913,3.3132 0.1935,0.5961 0.3526,1.2053 0.48014,1.8209 0.0633,0.3079 0.12075,0.6171 0.16743,0.9274 0.025,0.1551 0.046,0.3105 0.0653,0.4659 l 0.0151,0.1163 0.0105,0.1085 c 0.007,0.072 0.0105,0.1436 0.0129,0.2148 0.009,0.2835 -0.0239,0.5577 -0.10826,0.7917 -0.043,0.1162 -0.0982,0.2223 -0.16676,0.3128 -0.0182,0.025 -0.0331,0.041 -0.0462,0.056 -0.0156,0.015 -0.0305,0.03 -0.0473,0.043 -0.0333,0.027 -0.0699,0.049 -0.10891,0.067 -0.0782,0.037 -0.16699,0.05 -0.25245,0.043 -0.0217,0 -0.0427,-0.01 -0.064,-0.01 l -0.0313,-0.01 c -0.01,0 -0.0346,-0.01 -0.0513,-0.015 -0.0741,-0.023 -0.14836,-0.044 -0.22243,-0.068 -0.2965,-0.093 -0.59059,-0.2005 -0.88249,-0.3123 -1.16671,-0.4543 -2.28719,-1.0341 -3.33447,-1.7192 -0.52024,-0.3473 -1.03523,-0.7043 -1.51603,-1.1045 -0.12403,-0.095 -0.24127,-0.1987 -0.35939,-0.3008 l -0.17794,-0.1528 -0.089,-0.077 c -0.0142,-0.012 -0.0309,-0.026 -0.0429,-0.038 l -0.0338,-0.034 c -0.18495,-0.1756 -0.32937,-0.391 -0.42185,-0.6287 -0.19196,-0.4754 -0.14419,-1.0383 0.10804,-1.485 0.0294,-0.057 0.0703,-0.1078 0.10388,-0.1628 0.0381,-0.052 0.082,-0.1 0.12184,-0.1512 l 0.32433,-0.3649 c 0.21564,-0.245 0.42601,-0.4954 0.63201,-0.7501 0.41023,-0.5104 0.80556,-1.0374 1.15159,-1.6067 0.17225,-0.2854 0.33748,-0.5766 0.47707,-0.8884 0.037,-0.076 0.0699,-0.1554 0.10125,-0.2356 0.0313,-0.08 0.0664,-0.158 0.0918,-0.2424 l 0.041,-0.1247 0.0204,-0.062 0.0101,-0.031 0.002,-0.014 c 0.004,-0.035 -0.002,-0.072 -0.0125,-0.1188 z m -0.51257,-0.4657 c -0.0511,0.1089 -0.0982,0.2277 -0.135,0.3476 l -0.0134,0.044 -0.01,0.026 -0.0193,0.052 -0.0379,0.1032 c -0.023,0.069 -0.0572,0.1368 -0.0866,0.2052 -0.0296,0.069 -0.0603,0.1365 -0.0964,0.2038 -0.1328,0.2708 -0.29496,0.534 -0.46414,0.7928 -0.34274,0.5165 -0.72755,1.0142 -1.13669,1.4937 -0.20468,0.24 -0.41396,0.4764 -0.62916,0.7085 l -0.32521,0.3471 c -0.062,0.073 -0.12666,0.1442 -0.18474,0.2207 -0.0535,0.08 -0.11329,0.1558 -0.15975,0.2402 -0.39248,0.664 -0.47685,1.5055 -0.20183,2.2324 0.13324,0.3637 0.34931,0.6984 0.62543,0.9699 l 0.0513,0.052 c 0.0164,0.016 0.0311,0.028 0.0467,0.042 l 0.0925,0.082 0.18473,0.1648 c 0.12272,0.1107 0.24698,0.2194 0.37649,0.3217 l 0.38438,0.3119 0.39577,0.2973 c 0.13039,0.1011 0.26713,0.1931 0.403,0.2867 0.13609,0.093 0.27086,0.1884 0.41111,0.275 0.55137,0.3622 1.12705,0.6853 1.71567,0.9809 0.58884,0.2952 1.19257,0.5599 1.81012,0.7917 0.30986,0.114 0.62127,0.2231 0.93924,0.3182 0.0787,0.025 0.15954,0.047 0.23931,0.07 l 0.0644,0.018 0.0857,0.021 c 0.0578,0.01 0.11614,0.019 0.17487,0.023 0.23427,0.016 0.47291,-0.026 0.68548,-0.128 0.10629,-0.05 0.20622,-0.1144 0.2965,-0.1902 0.0456,-0.038 0.0872,-0.079 0.12798,-0.1221 0.0394,-0.045 0.0769,-0.09 0.10519,-0.1306 0.12294,-0.1679 0.21388,-0.352 0.27941,-0.5378 0.12841,-0.3738 0.15909,-0.7508 0.14463,-1.1082 -0.004,-0.089 -0.01,-0.1784 -0.0193,-0.266 l -0.0149,-0.1313 -0.0173,-0.1225 c -0.0224,-0.1633 -0.0467,-0.3261 -0.075,-0.488 -0.0532,-0.3244 -0.11724,-0.6465 -0.18758,-0.9673 -0.14179,-0.641 -0.316,-1.2754 -0.5277,-1.8991 -0.42579,-1.243 -0.9868,-2.4654 -1.82786,-3.5223 -0.0993,-0.1356 -0.21498,-0.2597 -0.32762,-0.3855 l -0.16984,-0.1878 -0.17224,-0.174 c -0.11396,-0.1165 -0.2301,-0.2318 -0.34932,-0.3447 -0.11658,-0.1146 -0.23777,-0.2261 -0.36005,-0.337 -0.245,-0.2211 -0.49614,-0.4374 -0.77269,-0.6375 -0.13872,-0.1001 -0.28182,-0.197 -0.44245,-0.2851 -0.08,-0.044 -0.16436,-0.086 -0.26122,-0.1236 l -0.0745,-0.027 -0.0859,-0.023 c -0.0283,-0.01 -0.0679,-0.013 -0.10147,-0.018 -0.0221,0 -0.0458,0 -0.0684,0 -0.009,-5e-4 -0.0307,8e-4 -0.0471,0 h -0.0261 c -0.002,-0.01 -0.17006,0.044 -0.21169,0.1109"
       style="fill:#390075;fill-opacity:1;fill-rule:nonzero;stroke:none;stroke-width:0.00219143"
       id="path92" />
    <path
       d="m 935.71804,3350.2669 c -0.4041,-2.3166 -1.70909,-4.0239 -2.9146,-3.8138 -1.2055,0.2104 -1.85526,2.2587 -1.45116,4.5753 l 4.36576,-0.7615"
       style="fill:#ff6c6c;fill-opacity:1;fill-rule:nonzero;stroke:none;stroke-width:0.00219143"
       id="path94" />
    <path
       d="m 933.0033,3346.3782 c -0.0701,0 -0.14003,0.01 -0.20972,0.018 -0.60527,0.1056 -1.09352,0.6515 -1.37424,1.5371 -0.277,0.8728 -0.32083,1.9755 -0.12382,3.1048 l 0.11374,-0.02 c -0.19394,-1.1114 -0.15121,-2.1947 0.12009,-3.05 0.26713,-0.8426 0.72317,-1.3606 1.28395,-1.4584 1.17001,-0.2044 2.4498,1.4852 2.84776,3.7666 l 0.11374,-0.02 c -0.38591,-2.2118 -1.59843,-3.8786 -2.7715,-3.8786"
       style="fill:#390075;fill-opacity:1;fill-rule:nonzero;stroke:none;stroke-width:0.00219143"
       id="path96" />
    <path
       d="m 935.60978,3349.7462 c -0.18123,-0.751 -0.45822,-1.4209 -0.79088,-1.9578 -0.57262,-0.9266 -1.31069,-1.4584 -2.01568,-1.3355 -0.70498,0.123 -1.22018,0.8748 -1.44371,1.9425 -0.13148,0.6167 -0.16435,1.3394 -0.0806,2.1062 l 4.33091,-0.7554"
       style="fill:#ed2e7a;fill-opacity:1;fill-rule:nonzero;stroke:none;stroke-width:0.00219143"
       id="path98" />
    <path
       d="m 933.07408,3348.0025 c -0.06,0.2172 -0.078,0.4267 -0.0901,0.6353 -0.009,0.2082 0.002,0.4128 0.0149,0.6171 0.0127,0.2042 0.0342,0.4069 0.0598,0.6092 0.0292,0.2014 0.0609,0.4023 0.11286,0.5998 0.046,0.1753 0.2255,0.2801 0.40081,0.234 0.15713,-0.041 0.2575,-0.19 0.24347,-0.3464 -0.018,-0.2034 -0.0559,-0.4032 -0.0969,-0.6027 -0.0445,-0.1987 -0.0927,-0.3968 -0.15011,-0.5934 -0.057,-0.1966 -0.11593,-0.3929 -0.19482,-0.5856 -0.082,-0.1921 -0.16984,-0.3835 -0.30001,-0.5673"
       style="fill:#390075;fill-opacity:1;fill-rule:nonzero;stroke:none;stroke-width:0.00219143"
       id="path100" />
    <path
       d="m 933.08088,3346.0379 c -0.11483,0 -0.22988,0.01 -0.34471,0.03 -1.4161,0.2469 -2.29552,2.011 -1.96045,3.9323 0.037,0.213 0.23908,0.3554 0.45275,0.3184 0.213,-0.037 0.35544,-0.24 0.31841,-0.4528 -0.25662,-1.4709 0.34953,-2.8569 1.32384,-3.0268 0.45297,-0.079 0.93618,0.109 1.35803,0.5297 0.458,0.4569 0.7819,1.1209 0.91251,1.8699 0.0372,0.2128 0.23864,0.3555 0.45296,0.3182 0.21279,-0.037 0.35523,-0.2397 0.3182,-0.4527 -0.15822,-0.9064 -0.55969,-1.7194 -1.13078,-2.2894 -0.50907,-0.5082 -1.1025,-0.7766 -1.70076,-0.7766"
       style="fill:#390075;fill-opacity:1;fill-rule:nonzero;stroke:none;stroke-width:0.00219143"
       id="path102" />
    <path
       d="m 934.72686,3348.0382 c -0.66203,0.2117 -1.02559,0.6086 -1.21734,0.9169 0.0204,0.067 0.0401,0.1335 0.0594,0.2003 0.0574,0.1966 0.10562,0.3947 0.15011,0.5934 0.0153,0.075 0.0305,0.1506 0.044,0.2262 0.20161,-0.3829 0.5678,-0.7626 1.22895,-0.9574 0.0329,-0.01 0.0657,-0.019 0.0984,-0.027 -0.0817,-0.3436 -0.20511,-0.6653 -0.36355,-0.9522 m -3.16311,0.5632 c -0.01,0 -0.0195,0 -0.0294,2e-4 -0.0517,0.3191 -0.0618,0.6629 -0.023,1.0155 0.0243,0 0.0486,0 0.0734,-0.01 0.0524,0 0.10366,0 0.15362,0 0.62982,0 1.06591,0.2377 1.36175,0.5222 -0.0153,-0.088 -0.0287,-0.1769 -0.0414,-0.2654 -0.0256,-0.2023 -0.0471,-0.405 -0.0598,-0.6092 -0.004,-0.058 -0.007,-0.1157 -0.0101,-0.1738 -0.27262,-0.2211 -0.73829,-0.4797 -1.42509,-0.4797"
       style="fill:#b72078;fill-opacity:1;fill-rule:nonzero;stroke:none;stroke-width:0.00219143"
       id="path104" />
    <path
       d="m 933.50952,3348.9551 c -0.15099,0.2426 -0.19547,0.4304 -0.19547,0.4304 h -0.0256 c 0,0 -0.096,-0.144 -0.29957,-0.309 0.003,0.058 0.007,0.1159 0.0101,0.1738 0.0127,0.2042 0.0342,0.4069 0.0598,0.6092 0.0127,0.089 0.0261,0.1773 0.0414,0.2654 0.016,0.015 0.0316,0.031 0.0467,0.046 l 0.56626,-0.099 c 0.0156,-0.034 0.0322,-0.068 0.05,-0.1021 -0.0136,-0.076 -0.0287,-0.151 -0.044,-0.2262 -0.0445,-0.1987 -0.0927,-0.3968 -0.15011,-0.5934 -0.0193,-0.067 -0.039,-0.1337 -0.0594,-0.2003"
       style="fill:#390075;fill-opacity:1;fill-rule:nonzero;stroke:none;stroke-width:0.00219143"
       id="path106" />
    <path
       d="m 934.93307,3347.9825 c -0.0364,0.01 -0.0732,0.017 -0.11023,0.027 -0.0326,0.01 -0.0647,0.019 -0.096,0.029 0.15844,0.2869 0.28181,0.6086 0.36355,0.9522 0.0934,-0.024 0.18562,-0.042 0.27612,-0.054 -0.12556,-0.346 -0.27173,-0.6659 -0.43346,-0.9535 m -3.39868,0.6191 c -0.043,5e-4 -0.087,0 -0.13171,0 -0.0294,0 -0.0565,0.01 -0.0852,0.011 -0.0543,0.3239 -0.0835,0.6727 -0.0844,1.0389 0.0894,-0.018 0.18232,-0.031 0.27831,-0.039 -0.0388,-0.3526 -0.0287,-0.6964 0.023,-1.0155"
       style="fill:#390075;fill-opacity:1;fill-rule:nonzero;stroke:none;stroke-width:0.00219143"
       id="path108" />
    <path
       d="m 937.34561,3350.4374 c -0.33967,-1.2167 -1.23224,-1.6905 -2.33715,-1.3646 -1.26161,0.3721 -1.41501,1.4472 -1.42816,1.8399 h -0.0254 c -0.14529,-0.3653 -0.6537,-1.3249 -1.9668,-1.2478 -1.15006,0.068 -1.8294,0.8154 -1.73714,2.0753 l 7.49467,-1.3074"
       style="fill:#ffffff;fill-opacity:1;fill-rule:nonzero;stroke:none;stroke-width:0.00219143"
       id="path110" />
    <path
       d="m 935.65799,3348.9154 c -0.21169,0 -0.43521,0.034 -0.66597,0.1022 -1.13275,0.3339 -1.39944,1.2096 -1.4562,1.715 -0.22462,-0.4563 -0.7727,-1.19 -1.95103,-1.1207 -0.57941,0.034 -1.05079,0.2404 -1.36307,0.5969 -0.32674,0.3728 -0.47466,0.9053 -0.4282,1.5404 l 0.11505,-0.01 c -0.0443,-0.6033 0.0942,-1.1067 0.39994,-1.4557 0.29167,-0.3327 0.73522,-0.5258 1.28307,-0.5578 1.25723,-0.074 1.75468,0.8225 1.90961,1.2115 l 0.0173,0.044 0.11811,-0.021 0.002,-0.047 c 0.0138,-0.4184 0.17684,-1.4297 1.38673,-1.7865 0.52638,-0.1554 1.00915,-0.124 1.39594,0.09 0.40585,0.2248 0.70651,0.6517 0.86934,1.2344 l 0.1111,-0.031 c -0.17115,-0.6129 -0.49088,-1.0641 -0.92456,-1.3043 -0.24281,-0.1344 -0.51937,-0.2021 -0.81872,-0.2021"
       style="fill:#390075;fill-opacity:1;fill-rule:nonzero;stroke:none;stroke-width:0.00219143"
       id="path112" />
    <path
       d="m 933.9993,3351.0212 -0.0923,0.016 0.0923,-0.016 v 0"
       style="fill:#c3b2d5;fill-opacity:1;fill-rule:nonzero;stroke:none;stroke-width:0.00219143"
       id="path114" />
    <path
       d="m 935.65799,3349.0309 c -0.20095,0 -0.4133,0.032 -0.6331,0.097 -1.20989,0.3568 -1.37293,1.3681 -1.38673,1.7865 l -0.002,0.047 -0.11811,0.021 -0.0173,-0.044 c -0.14879,-0.3737 -0.61382,-1.2158 -1.76497,-1.2158 -0.0471,0 -0.0953,0 -0.14464,0 -0.54785,0.032 -0.9914,0.2251 -1.28307,0.5578 -0.30483,0.3477 -0.44311,0.8489 -0.40038,1.4496 0.16918,-0.035 0.31053,-0.1436 0.40498,-0.2893 0.29321,-0.4512 0.79636,-0.7124 1.45335,-0.7503 0.0511,0 0.10081,0 0.14946,0 0.58467,0 0.99666,0.2126 1.2822,0.4705 l 0.70892,-0.1236 0.0923,-0.016 c 0.19636,-0.3675 0.55027,-0.7353 1.18798,-0.9228 0.22703,-0.067 0.44529,-0.1006 0.65151,-0.1006 0.36728,0 0.69643,0.1058 0.97124,0.3142 0.11614,0.088 0.25486,0.1407 0.39774,0.1407 0.0267,0 0.0537,0 0.0806,-0.01 -0.16304,-0.5796 -0.46304,-1.0043 -0.86758,-1.2285 -0.22528,-0.1247 -0.48299,-0.1876 -0.76284,-0.1876"
       style="fill:#c3b2d5;fill-opacity:1;fill-rule:nonzero;stroke:none;stroke-width:0.00219143"
       id="path116" />
    <path
       d="m 935.65997,3348.9728 c -0.20622,0 -0.42426,0.033 -0.65151,0.1004 -1.26139,0.3719 -1.41457,1.4464 -1.42838,1.8395 h -0.0256 c -0.13937,-0.3513 -0.61425,-1.2515 -1.81844,-1.2515 -0.0482,0 -0.0975,0 -0.14836,0 -1.14962,0.067 -1.82918,0.815 -1.73605,2.0749 l 0.0386,-0.01 c 0.006,0 0.0121,0 0.018,0 -0.0427,-0.6007 0.0956,-1.1019 0.40038,-1.4496 0.29167,-0.3327 0.73522,-0.5258 1.28307,-0.5578 0.0493,0 0.0975,0 0.14464,0 1.15115,0 1.61618,0.8421 1.76497,1.2158 l 0.0173,0.044 0.11811,-0.021 0.002,-0.047 c 0.0138,-0.4184 0.17684,-1.4297 1.38673,-1.7865 0.2198,-0.065 0.43215,-0.097 0.6331,-0.097 0.27985,0 0.53756,0.063 0.76284,0.1876 0.40454,0.2242 0.70454,0.6489 0.86758,1.2285 0.006,-9e-4 0.0125,0 0.0186,0 l 0.0386,-0.01 c -0.2702,-0.9667 -0.8884,-1.4646 -1.68564,-1.4646"
       style="fill:#390075;fill-opacity:1;fill-rule:nonzero;stroke:none;stroke-width:0.00219143"
       id="path118" />
    <path
       d="m 937.4085,3350.4198 c 10e-4,-0.2465 -0.0392,-0.4987 -0.13499,-0.7415 -0.092,-0.2442 -0.245,-0.4795 -0.45713,-0.6697 -0.21038,-0.1916 -0.4808,-0.3283 -0.76152,-0.3936 -0.2816,-0.065 -0.56911,-0.066 -0.83888,-0.022 -0.0688,0.01 -0.13477,0.022 -0.19985,0.04 -0.0653,0.017 -0.13105,0.031 -0.19548,0.055 -0.0644,0.022 -0.12929,0.044 -0.19306,0.068 l -0.18825,0.089 c -0.24807,0.1278 -0.47948,0.3051 -0.66729,0.5211 -0.18868,0.2161 -0.32981,0.4679 -0.42579,0.7285 -0.0473,0.1304 -0.0844,0.2634 -0.10957,0.3977 -0.0276,0.1343 -0.0443,0.2691 -0.0497,0.408 l 0.32587,-0.3747 h -0.0256 l 0.43368,0.2424 c -0.10343,-0.2564 -0.23711,-0.4949 -0.41549,-0.7109 -0.17685,-0.2152 -0.39665,-0.4059 -0.64888,-0.5455 -0.25158,-0.1413 -0.53186,-0.225 -0.8093,-0.261 -0.0693,-0.01 -0.13871,-0.013 -0.20818,-0.018 h -0.2049 c -0.0688,-8e-4 -0.13543,0.01 -0.20293,0.014 -0.0671,0.01 -0.13411,0.016 -0.20161,0.031 -0.26889,0.05 -0.5415,0.1435 -0.78606,0.3007 -0.24566,0.1531 -0.4613,0.3696 -0.59936,0.6228 -0.14003,0.2522 -0.20533,0.5301 -0.20774,0.7939 -0.002,0.2647 0.0497,0.5181 0.14945,0.7486 0.0153,0.035 0.0559,0.051 0.0909,0.036 0.0195,-0.01 0.0331,-0.025 0.0388,-0.044 h 4.4e-4 c 0.13697,-0.4646 0.28291,-0.8654 0.52682,-1.1343 0.11899,-0.1348 0.25223,-0.2437 0.40914,-0.3241 0.15734,-0.078 0.33419,-0.1302 0.52309,-0.1576 0.1889,-0.023 0.38964,-0.04 0.57131,-0.015 0.18364,0.02 0.35676,0.068 0.51564,0.1455 0.15866,0.078 0.30263,0.1898 0.42733,0.3281 0.12228,0.1385 0.22878,0.3055 0.29935,0.4799 h 0.002 c 0.0708,0.1747 0.25355,0.2702 0.43193,0.2378 h 0.0254 l 0.005,-9e-4 c 0.18517,-0.034 0.316,-0.1928 0.3206,-0.3739 0.005,-0.188 0.0416,-0.3832 0.11001,-0.5566 0.0682,-0.1742 0.16699,-0.3298 0.29146,-0.458 0.12382,-0.1291 0.27503,-0.2288 0.44157,-0.3099 0.1648,-0.082 0.35874,-0.1358 0.54523,-0.177 0.37649,-0.078 0.73259,-0.054 1.05605,0.1214 0.16326,0.086 0.3171,0.213 0.46042,0.369 0.14113,0.1576 0.27217,0.3408 0.40432,0.5402 h 0.001 c 0.0206,0.031 0.0627,0.04 0.0938,0.019 0.0195,-0.013 0.0302,-0.034 0.0305,-0.056"
       style="fill:#390075;fill-opacity:1;fill-rule:nonzero;stroke:none;stroke-width:0.00219143"
       id="path120" />
    <path
       d="m 949.25206,3358.987 c -0.15931,0 -0.31403,0.082 -0.39971,0.2299 -0.1282,0.2204 -0.0533,0.5031 0.1672,0.6313 4.94123,2.8704 6.63082,11.6052 5.11654,15.7853 -0.32564,0.8989 -0.94363,1.9311 -2.04986,1.7428 -5.0749,-0.8647 -9.1538,-4.827 -11.13375,-7.1118 -0.16677,-0.1928 -0.45823,-0.2136 -0.65129,-0.047 -0.19263,0.167 -0.21345,0.4587 -0.0465,0.6515 2.06059,2.3782 6.31766,6.5044 11.67635,7.4174 1.35233,0.2307 2.44344,-0.6 3.07325,-2.3385 0.80601,-2.225 0.76941,-5.612 -0.0953,-8.84 -1.00411,-3.7475 -2.93103,-6.6093 -5.42553,-8.0585 -0.073,-0.043 -0.15275,-0.063 -0.23142,-0.063"
       style="fill:#390075;fill-opacity:1;fill-rule:nonzero;stroke:none;stroke-width:0.00219143"
       id="path122" />
    <path
       d="m 921.69774,3363.7354 c -0.12995,0 -0.25903,0.055 -0.35019,0.1606 -1.88616,2.1919 -2.7544,5.5356 -2.44476,9.4146 0.26232,3.2854 1.39463,6.5815 2.88458,8.3971 1.18819,1.4474 2.50545,1.8704 3.70877,1.1904 4.74092,-2.6788 7.34938,-8.0114 8.48213,-10.9519 0.0918,-0.238 -0.027,-0.5051 -0.26495,-0.5969 -0.23777,-0.092 -0.50512,0.027 -0.59672,0.2649 -1.08848,2.825 -3.58474,7.9428 -8.07497,10.4801 -0.98329,0.5555 -1.92429,-0.2222 -2.5403,-0.9726 -2.53065,-3.0833 -4.42076,-12.0134 -0.45384,-16.6233 0.16633,-0.1932 0.14441,-0.4849 -0.0489,-0.6513 -0.0872,-0.075 -0.19416,-0.1117 -0.30088,-0.1117"
       style="fill:#390075;fill-opacity:1;fill-rule:nonzero;stroke:none;stroke-width:0.00219143"
       id="path124" />
    <path
       d="m 932.56524,3343.2055 c -0.33485,0.087 -0.66839,0.1786 -1.00105,0.2726 -1.5592,1.3874 -3.60161,2.1633 -5.77528,2.1633 -0.0603,0 -0.12009,-6e-4 -0.18014,0 -0.12841,0.071 -0.25617,0.1437 -0.38306,0.218 -0.63507,0.3658 -1.24604,0.7778 -1.83926,1.2152 -0.59168,0.438 -1.16847,0.9048 -1.70383,1.4049 l -0.0995,0.094 c -0.0307,0.03 -0.0708,0.067 -0.0916,0.09 -0.0465,0.046 -0.11045,0.1216 -0.16765,0.1865 l -0.36027,0.4275 -0.73391,0.8694 c -0.49592,0.5785 -1.00893,1.148 -1.56818,1.688 -0.27634,0.2689 -0.58226,0.5321 -0.88862,0.7718 -0.2873,0.2227 -0.56298,0.4567 -0.80776,0.7035 -0.12185,0.1234 -0.23536,0.2505 -0.33157,0.3784 -0.0938,0.1267 -0.17378,0.2597 -0.20752,0.3662 -0.018,0.053 -0.0252,0.098 -0.0245,0.1269 8.8e-4,0.03 0.005,0.044 0.0156,0.064 0.0197,0.038 0.0995,0.1135 0.22659,0.171 l 0.6491,0.2816 c 3.12936,-3.3786 8.51216,-8.0864 15.33056,-9.2757 1.01353,-0.1768 2.02312,-0.2698 3.02175,-0.293 -1.15312,-0.4124 -2.20325,-1.0641 -3.07982,-1.9227 m 10.73382,1.0968 c -0.90243,0.5697 -1.92539,0.9795 -3.02308,1.1864 3.88189,0.6708 7.35706,2.1478 9.87128,3.4482 l 0.37583,-0.3506 0.0815,-0.076 0.0405,-0.038 0.0278,-0.028 c 0.0388,-0.037 0.0679,-0.073 0.0923,-0.1058 0.0493,-0.069 0.0557,-0.1076 0.0554,-0.1247 0.002,-0.016 -0.007,-0.058 -0.0579,-0.1256 -0.0497,-0.065 -0.12973,-0.1413 -0.22506,-0.2121 -0.19263,-0.1429 -0.43544,-0.27 -0.68657,-0.3826 -0.25333,-0.1125 -0.51937,-0.2126 -0.79133,-0.3031 l -0.10277,-0.035 -0.11199,-0.039 -0.22352,-0.079 c -0.14529,-0.057 -0.29058,-0.1144 -0.43346,-0.1746 -1.13385,-0.4911 -2.17762,-1.1001 -3.2054,-1.7115 l -0.38263,-0.2279 c -0.12513,-0.074 -0.2553,-0.1504 -0.36684,-0.2097 l -0.0806,-0.041 -0.10037,-0.048 -0.19504,-0.09 c -0.13148,-0.058 -0.26428,-0.1146 -0.39796,-0.1698 -0.0533,-0.021 -0.10672,-0.043 -0.16019,-0.064"
       style="fill:#c3b2d5;fill-opacity:1;fill-rule:nonzero;stroke:none;stroke-width:0.00219143"
       id="path126" />
    <path
       d="m 932.34368,3342.98 c -0.0467,0.01 -0.094,0.016 -0.14091,0.024 l -10e-4,2e-4 c -0.0594,0.01 -0.11834,0.021 -0.17729,0.031 -0.14814,0.1537 -0.30176,0.3011 -0.4602,0.4423 0.33266,-0.094 0.6662,-0.1852 1.00105,-0.2726 -0.0752,-0.074 -0.14902,-0.1488 -0.22156,-0.2255 m -7.58715,2.6018 c -2.24621,1.2772 -3.3428,2.5204 -3.55931,2.7308 -0.38306,0.3727 -2.15439,2.7524 -3.65158,3.9025 -1.49696,1.1513 -2.1351,2.1515 -1.04224,2.6288 0.17203,0.075 0.3285,0.1422 0.46919,0.2025 0.10387,-0.1148 0.21059,-0.2312 0.32016,-0.3495 l -0.6491,-0.2816 c -0.1271,-0.057 -0.20687,-0.1326 -0.22659,-0.171 -0.0101,-0.02 -0.0147,-0.034 -0.0156,-0.064 -6.6e-4,-0.029 0.007,-0.074 0.0245,-0.1269 0.0337,-0.1065 0.11373,-0.2395 0.20752,-0.3662 0.0962,-0.1279 0.20972,-0.255 0.33157,-0.3784 0.24478,-0.2468 0.52046,-0.4808 0.80776,-0.7035 0.30636,-0.2397 0.61228,-0.5029 0.88862,-0.7718 0.55925,-0.54 1.07226,-1.1095 1.56818,-1.688 l 0.73391,-0.8694 0.36027,-0.4275 c 0.0572,-0.065 0.12119,-0.1403 0.16765,-0.1865 0.0208,-0.024 0.0609,-0.061 0.0916,-0.09 l 0.0995,-0.094 c 0.53536,-0.5001 1.11215,-0.9669 1.70383,-1.4049 0.59322,-0.4374 1.20419,-0.8494 1.83926,-1.2152 0.12689,-0.074 0.25465,-0.147 0.38306,-0.218 -0.28773,-0.01 -0.57218,-0.025 -0.85224,-0.058"
       style="fill:#390075;fill-opacity:1;fill-rule:nonzero;stroke:none;stroke-width:0.00219143"
       id="path128" />
    <path
       d="m 943.75728,3343.9917 c -0.14901,0.1083 -0.30176,0.2119 -0.45822,0.3106 0.0535,0.021 0.10694,0.042 0.16019,0.064 0.13368,0.055 0.26648,0.1116 0.39796,0.1698 l 0.19504,0.09 0.10037,0.048 0.0806,0.041 c 0.11154,0.059 0.24171,0.136 0.36684,0.2097 l 0.38263,0.2279 c 1.02778,0.6114 2.07155,1.2204 3.2054,1.7115 0.14288,0.06 0.28817,0.1174 0.43346,0.1746 l 0.22352,0.079 0.11199,0.039 0.10277,0.035 c 0.27196,0.091 0.538,0.1906 0.79133,0.3031 0.25113,0.1126 0.49394,0.2397 0.68657,0.3826 0.0953,0.071 0.17532,0.1468 0.22506,0.2121 0.0506,0.068 0.0601,0.1091 0.0579,0.1256 2.2e-4,0.017 -0.006,0.056 -0.0554,0.1247 -0.0243,0.033 -0.0535,0.069 -0.0923,0.1058 l -0.0278,0.028 -0.0405,0.038 -0.0815,0.076 -0.37583,0.3506 c 0.158,0.082 0.3125,0.1628 0.46261,0.2428 0.11198,-0.1054 0.23514,-0.2213 0.37145,-0.3502 0.86692,-0.8191 -0.071,-1.5445 -1.86951,-2.1211 -1.79938,-0.575 -4.27174,-2.2142 -4.75846,-2.4353 -0.0855,-0.039 -0.28489,-0.1429 -0.59607,-0.2814"
       style="fill:#390075;fill-opacity:1;fill-rule:nonzero;stroke:none;stroke-width:0.00219143"
       id="path130" />
    <path
       d="m 933.67475,3351.1356 c -0.0224,0 -0.0449,0 -0.0677,0.01 -0.21279,0.037 -0.35545,0.2399 -0.3182,0.4529 l 0.22112,1.2673 c 0.037,0.2128 0.23974,0.3555 0.45253,0.3182 0.213,-0.037 0.35567,-0.2397 0.31841,-0.4527 l -0.22111,-1.2673 c -0.0331,-0.1902 -0.19833,-0.3241 -0.38504,-0.3241"
       style="fill:#390075;fill-opacity:1;fill-rule:nonzero;stroke:none;stroke-width:0.00219143"
       id="path132" />
    <path
       d="m 936.25318,3352.7338 c -0.1306,-0.7482 -1.37468,-1.5654 -2.6937,-1.3353 -1.31879,0.2301 -2.2129,1.4203 -2.08251,2.1685 0.13061,0.7481 1.21077,0.6245 2.52957,0.3944 1.31901,-0.2301 2.37725,-0.4795 2.24664,-1.2276"
       style="fill:#390075;fill-opacity:1;fill-rule:nonzero;stroke:none;stroke-width:0.00219143"
       id="path134" />
    <path
       d="m 934.93504,3353.1845 c -0.0287,-0.1641 -0.5312,-0.3032 -1.1036,-0.2033 -0.5724,0.1 -0.99819,0.4008 -0.96949,0.5649 0.0285,0.1642 0.49505,0.097 1.06767,0 0.5724,-0.1 1.03413,-0.1948 1.00542,-0.3588"
       style="fill:#ffffff;fill-opacity:1;fill-rule:nonzero;stroke:none;stroke-width:0.00219143"
       id="path136" />
    <path
       d="m 933.12251,3353.593 c -0.18364,0 -0.20643,-0.042 -0.20906,-0.056 -0.008,-0.046 0.0622,-0.1455 0.23536,-0.2531 0.1889,-0.1172 0.43456,-0.2064 0.69162,-0.2513 0.25727,-0.045 0.51871,-0.044 0.73588,0 0.19942,0.043 0.29913,0.1118 0.30723,0.1584 v 0 c 0.003,0.016 -0.007,0.072 -0.24127,0.1444 -0.17159,0.053 -0.41265,0.1 -0.72164,0.1537 -0.30921,0.054 -0.5518,0.092 -0.73128,0.1 -0.0243,0 -0.0467,0 -0.0668,0 z m 1.09418,-0.6982 c -0.12885,0 -0.26209,0.012 -0.39423,0.035 -0.27021,0.047 -0.5288,0.1413 -0.72887,0.2656 -0.19855,0.1231 -0.30176,0.2544 -0.28313,0.36 0.0243,0.1409 0.23031,0.1482 0.38371,0.1409 0.18496,-0.01 0.43128,-0.047 0.74443,-0.1012 0.31294,-0.055 0.55772,-0.1021 0.73457,-0.1569 0.14638,-0.045 0.33813,-0.1216 0.31337,-0.2626 -0.0184,-0.1056 -0.15997,-0.1941 -0.38832,-0.2428 -0.11768,-0.025 -0.24719,-0.038 -0.38153,-0.038"
       style="fill:#390075;fill-opacity:1;fill-rule:nonzero;stroke:none;stroke-width:0.00219143"
       id="path138" />
    <path
       d="m 930.07906,3357.4727 c -0.23886,-1.6648 -1.38366,-2.8778 -2.55695,-2.7094 -1.17351,0.1685 -1.93087,1.6545 -1.69222,3.3191 0.23886,1.6646 1.38388,2.8778 2.55717,2.7092 1.17329,-0.1683 1.93087,-1.6543 1.692,-3.3189"
       style="fill:#390075;fill-opacity:1;fill-rule:nonzero;stroke:none;stroke-width:0.00219143"
       id="path140" />
    <path
       d="m 929.20731,3358.0824 c -0.0802,-0.559 -0.43258,-0.971 -0.78716,-0.9202 -0.35457,0.051 -0.577,0.5454 -0.49679,1.1043 0.0802,0.559 0.4328,0.971 0.78716,0.9201 0.35457,-0.051 0.577,-0.5452 0.49679,-1.1042"
       style="fill:#ffffff;fill-opacity:1;fill-rule:nonzero;stroke:none;stroke-width:0.00219143"
       id="path142" />
    <path
       d="m 944.08468,3355.9843 c -0.35523,-0.039 -0.71879,-0.095 -1.06043,-0.1727 -0.34405,-0.078 -0.6743,-0.1812 -0.98746,-0.3087 -0.15865,-0.06 -0.30701,-0.1383 -0.45778,-0.2093 l -0.21586,-0.1245 c -0.0351,-0.022 -0.073,-0.039 -0.10716,-0.062 l -0.10212,-0.07 c -0.28072,-0.176 -0.51981,-0.4056 -0.75714,-0.6388 l -0.48167,0.7926 c 0.0337,0.01 0.0548,0.011 0.0776,0.015 0.0232,0 0.0454,0.01 0.0664,0.011 0.0432,0.01 0.0864,0.011 0.12798,0.015 0.0844,0.01 0.16721,0.012 0.25026,0.016 0.16546,0.01 0.32981,0 0.49285,-0.017 0.32609,-0.031 0.64735,-0.1049 0.95174,-0.2204 0.30351,-0.116 0.59388,-0.2656 0.8483,-0.4602 0.26012,-0.1856 0.47817,-0.4199 0.66817,-0.6629 0.057,-0.073 0.044,-0.178 -0.0287,-0.235 -0.0537,-0.042 -0.12491,-0.046 -0.18145,-0.016 l -0.0175,0.01 c -0.1282,0.068 -0.24369,0.1469 -0.36838,0.2093 -0.12579,0.061 -0.24544,0.126 -0.37408,0.1725 -0.24872,0.1074 -0.50665,0.1797 -0.7648,0.229 -0.2575,0.053 -0.51959,0.074 -0.77928,0.072 -0.0646,6e-4 -0.12951,0 -0.19394,-0.01 l -0.19218,-0.016 c -0.0633,-0.01 -0.12667,-0.015 -0.18759,-0.026 -0.0313,0 -0.0603,-0.011 -0.0896,-0.017 -0.0151,0 -0.0292,-0.01 -0.0416,-0.01 l -0.0302,-0.01 h -0.0114 c -0.25991,-0.062 -0.52069,0.099 -0.58248,0.359 -0.0379,0.1599 0.0103,0.3225 0.1122,0.4365 0.2794,0.3085 0.58226,0.6075 0.94231,0.8264 0.17093,0.1236 0.36487,0.2066 0.55005,0.3026 0.1946,0.075 0.38613,0.1578 0.58774,0.2051 0.3984,0.1094 0.8071,0.1611 1.21054,0.1521 0.40519,-0.012 0.79724,-0.07 1.1849,-0.2145 0.087,-0.033 0.13127,-0.1295 0.0988,-0.2165 -0.023,-0.062 -0.078,-0.1017 -0.13916,-0.1085 h -0.0177"
       style="fill:#390075;fill-opacity:1;fill-rule:nonzero;stroke:none;stroke-width:0.00219143"
       id="path144" />
    <path
       d="m 952.6915,3324.2091 c -1.58374,-2.6433 -2.98033,-3.0731 -3.28889,-3.1734 -0.90681,-0.2959 -3.08487,0.015 -3.08487,0.015 0,0 -6.07024,0.612 -10.59882,0.6199 h -6.27537 c -0.13894,0 -0.27875,-9e-4 -0.41966,0 -4.48848,-0.035 -10.26989,-0.6179 -10.26989,-0.6179 0,0 -2.17806,-0.3106 -3.08487,-0.015 -0.30834,0.1003 -1.70493,0.5301 -3.28889,3.1734 -1.9495,3.2534 -1.04553,5.8761 0.19021,6.9455 1.71896,1.4862 3.33338,0.348 4.46766,-1.3543 0.18233,0.3855 0.48606,0.7836 0.85159,1.1522 0.68109,0.6871 1.57585,1.2684 2.29442,1.4567 1.98587,0.5193 3.99563,-0.403 5.06592,-2.3023 h 14.57188 c 1.07029,1.8993 3.07983,2.8216 5.0657,2.3023 1.10492,-0.2889 2.62467,-1.5071 3.14601,-2.6089 1.1345,1.7023 2.74892,2.8405 4.46766,1.3543 1.23596,-1.0694 2.13971,-3.6921 0.19021,-6.9455"
       style="fill:#f99b28;fill-opacity:1;fill-rule:nonzero;stroke:none;stroke-width:0.00219143"
       id="path146" />
    <path
       d="m 952.6915,3324.2095 c -1.58352,-2.6433 -2.98012,-3.073 -3.28889,-3.1743 -0.90659,-0.2951 -3.08487,0.016 -3.08487,0.016 0,0 -6.07046,0.6121 -10.59904,0.6193 h -6.27537 c -0.13915,0 -0.27897,0 -0.41988,0 -4.48782,-0.035 -10.26945,-0.6173 -10.26945,-0.6173 0,0 -2.1785,-0.3107 -3.08487,-0.016 -0.30877,0.1013 -1.70537,0.531 -3.28889,3.1743 -1.94906,3.253 -1.04553,5.8757 0.19043,6.9453 1.71896,1.486 3.33316,0.3478 4.46722,-1.3541 0.18233,0.3855 0.4865,0.7837 0.85225,1.1518 0.7258,0.099 1.29535,-0.1705 1.83093,-0.6011 0.91361,-0.7341 1.72794,-1.9383 3.05047,-2.5946 2.20917,-1.0962 4.56737,-0.5906 4.56737,-0.5906 0,0 -1.04904,1.3569 -1.83905,2.9404 h 14.0729 c -0.79089,-1.5835 -1.83905,-2.9404 -1.83905,-2.9404 0,0 2.35732,-0.5056 4.56649,0.5906 0.0289,0.014 0.0568,0.029 0.0848,0.043 2.03671,1.0637 2.85915,3.4144 4.79747,3.1525 0.36575,-0.3681 0.66904,-0.7663 0.85137,-1.1518 1.13384,1.7019 2.74914,2.8401 4.467,1.3541 1.23596,-1.0696 2.13971,-3.6923 0.19065,-6.9453"
       style="fill:#ffffff;fill-opacity:1;fill-rule:nonzero;stroke:none;stroke-width:0.00219143"
       id="path148" />
    <path
       d="m 923.97288,3327.306 c -0.39534,0.1059 -0.80097,0.252 -1.20134,0.4508 -1.32253,0.6563 -2.13686,1.8605 -3.05047,2.5946 v 0 c -0.25727,0.3533 -0.49614,0.7111 -0.71331,1.073 0.007,0 0.014,0.01 0.021,0.015 0.28949,-0.073 0.58687,-0.1115 0.88621,-0.1207 1.15773,-1.4494 2.58873,-2.8059 4.05787,-4.0123"
       style="fill:#bf6c3f;fill-opacity:1;fill-rule:nonzero;stroke:none;stroke-width:0.00219143"
       id="path150" />
    <path
       d="m 916.82072,3321.2691 c -0.41067,0 -0.79088,0.029 -1.03939,0.1098 h -0.0107 c -1.30872,0.4249 -2.39764,1.8728 -3.08049,3.0125 -0.74355,1.241 -1.0613,2.4099 -1.08125,3.4265 0.1797,-0.5239 0.43281,-1.0718 0.77226,-1.6392 1.58353,-2.6435 2.98385,-3.0614 3.28889,-3.1734 0.49921,-0.1829 0.94254,-0.2599 1.34028,-0.2599 2.01348,0 2.86573,1.9712 3.961,2.1557 0.15603,0.027 0.31118,0.039 0.46546,0.039 1.415,0 2.76908,-1.0085 4.1659,-1.1941 0.004,-4e-4 0.007,-9e-4 0.011,0 0.0191,0 0.0379,0 0.0561,0 0.36575,0 0.54062,0.4841 0.229,0.7139 -2.21904,1.6375 -4.55992,3.672 -6.17763,5.8934 v 0 0 c 0.91361,-0.7341 1.72794,-1.9383 3.05047,-2.5946 0.40037,-0.1988 0.806,-0.3449 1.20134,-0.4508 3.18501,-2.615 6.55039,-4.5251 7.70417,-5.1512 0.1168,-0.063 0.24128,-0.1043 0.36794,-0.1231 h -2.601 c -4.5047,0 -10.66435,-0.6156 -10.72593,-0.6217 -0.005,-7e-4 -0.01,0 -0.0147,0 -0.36947,-0.053 -1.17175,-0.1389 -1.88265,-0.1389"
       style="fill:#c3b2d5;fill-opacity:1;fill-rule:nonzero;stroke:none;stroke-width:0.00219143"
       id="path152" />
    <path
       d="m 940.1136,3327.1138 c 1.5546,1.2586 3.0864,2.6836 4.31952,4.2032 0.31819,0.01 0.63463,0.044 0.94209,0.1225 -0.77094,-1.257 -1.80727,-2.4741 -2.96215,-3.6124 -0.009,-0.01 -0.0191,-0.018 -0.0281,-0.027 v 0 c -0.0281,-0.014 -0.0559,-0.029 -0.0848,-0.043 -0.74399,-0.3691 -1.50485,-0.5566 -2.1866,-0.643"
       style="fill:#bf6c3f;fill-opacity:1;fill-rule:nonzero;stroke:none;stroke-width:0.00219143"
       id="path154" />
    <path
       d="m 948.2519,3321.2693 c -0.7109,0 -1.51384,0.086 -1.88332,0.1387 -0.005,9e-4 -0.01,0 -0.0149,0 -0.0616,0.01 -6.22102,0.6217 -10.72571,0.6217 h -3.2604 c 0.13039,0.019 0.25837,0.062 0.3778,0.1286 1.11346,0.6189 4.28577,2.4584 7.36823,4.9535 0.68175,0.086 1.44261,0.2739 2.1866,0.643 0.0289,0.014 0.0568,0.029 0.0848,0.043 v 0 0 c -1.273,-1.2507 -2.68756,-2.4043 -4.04712,-3.4082 -0.30877,-0.2281 -0.14201,-0.7133 0.23404,-0.7133 0.007,0 0.0136,0 0.0206,5e-4 0.3377,0.016 0.63661,0.038 0.87723,0.07 1.39681,0.1856 2.75133,1.1941 4.16612,1.1941 0.15449,0 0.30943,-0.012 0.46546,-0.039 1.09527,-0.1845 1.94773,-2.1557 3.96078,-2.1557 0.39796,0 0.84107,0.077 1.34049,0.2599 0.30505,0.112 1.70537,0.5299 3.28889,3.1734 0.33902,0.5665 0.59169,1.1137 0.77139,1.6368 -0.0204,-1.0161 -0.33814,-2.184 -1.08103,-3.4241 -0.68285,-1.1395 -1.77177,-2.5874 -3.08049,-3.0125 h -0.0107 c -0.24807,-0.081 -0.62806,-0.1096 -1.03873,-0.1096"
       style="fill:#c3b2d5;fill-opacity:1;fill-rule:nonzero;stroke:none;stroke-width:0.00219143"
       id="path156" />
    <path
       d="m 917.32628,3330.0181 c 0.0572,-0.06 0.0938,-0.1054 0.13587,-0.1593 0.0386,-0.053 0.0778,-0.105 0.11133,-0.1598 0.071,-0.1076 0.13148,-0.2195 0.18758,-0.3335 0.11461,-0.2266 0.19592,-0.4668 0.27086,-0.7065 0.0736,-0.2404 0.13214,-0.4843 0.17751,-0.7304 0.0436,-0.2468 0.0743,-0.4953 0.0824,-0.7475 8.7e-4,-0.03 -0.0224,-0.054 -0.0517,-0.055 -0.0193,-7e-4 -0.0364,0.01 -0.0465,0.024 l -4.4e-4,6e-4 c -0.13872,0.2097 -0.26056,0.421 -0.387,0.6283 l -0.36926,0.6162 c -0.12294,0.2025 -0.25136,0.3993 -0.36597,0.5998 -0.0592,0.099 -0.11658,0.1988 -0.17115,0.2985 l -0.0809,0.1488 c -0.0243,0.047 -0.0541,0.1032 -0.0688,0.1407 l -0.0215,0.055 c -0.0728,0.1856 0.0188,0.3951 0.20446,0.4678 0.14047,0.055 0.29497,0.016 0.39314,-0.087"
       style="fill:#390075;fill-opacity:1;fill-rule:nonzero;stroke:none;stroke-width:0.00219143"
       id="path158" />
    <path
       d="m 948.3218,3329.5827 c -0.0147,-0.037 -0.0447,-0.093 -0.069,-0.1407 l -0.0806,-0.1488 c -0.0548,-0.1 -0.11198,-0.1994 -0.17115,-0.2985 -0.11461,-0.2005 -0.24303,-0.3973 -0.36597,-0.5998 l -0.36948,-0.6162 c -0.12622,-0.2073 -0.24828,-0.4186 -0.387,-0.6283 l -4.4e-4,-6e-4 c -0.0162,-0.025 -0.0495,-0.031 -0.0741,-0.015 -0.016,0.01 -0.0245,0.028 -0.0239,0.046 0.008,0.2522 0.0388,0.5007 0.0822,0.7475 0.0454,0.2461 0.1041,0.49 0.17751,0.7304 0.0749,0.2397 0.15647,0.4799 0.27108,0.7065 0.0561,0.114 0.11658,0.2259 0.18758,0.3335 0.0335,0.055 0.0725,0.107 0.11133,0.1598 0.0418,0.054 0.0787,0.099 0.13587,0.1593 0.1374,0.1444 0.36596,0.1501 0.51038,0.013 0.10935,-0.1041 0.13915,-0.2603 0.0874,-0.3929 l -0.0217,-0.055"
       style="fill:#390075;fill-opacity:1;fill-rule:nonzero;stroke:none;stroke-width:0.00219143"
       id="path160" />
    <path
       d="m 916.84505,3320.5459 c -0.48015,0 -0.9513,0.037 -1.28725,0.1462 -1.5318,0.4974 -2.74081,2.086 -3.48721,3.3318 -1.94599,3.2475 -1.22764,6.1143 0.26341,7.4037 0.69731,0.6029 1.43253,0.8567 2.18419,0.7545 0.85948,-0.1165 1.71304,-0.708 2.49056,-1.7196 0.70125,1.0149 2.0137,2.0161 3.08355,2.2958 0.19328,0.051 0.39029,-0.065 0.4407,-0.258 0.0506,-0.1928 -0.0651,-0.3903 -0.25794,-0.4407 -1.03763,-0.2713 -2.45198,-1.4441 -2.91043,-2.4136 -0.0557,-0.1177 -0.17027,-0.1963 -0.3,-0.2058 -0.12864,-0.01 -0.25487,0.052 -0.32696,0.16 -0.51871,0.7784 -1.34181,1.7339 -2.31656,1.8662 -0.53799,0.073 -1.08125,-0.1238 -1.61464,-0.5851 -1.26993,-1.0981 -1.84803,-3.5963 -0.11637,-6.4864 0.68285,-1.1397 1.77177,-2.5876 3.08049,-3.0125 h 0.0107 c 0.67846,-0.2212 2.33934,-0.054 2.92204,0.029 0.005,9e-4 0.01,0 0.0147,0 0.0616,0.01 6.22123,0.6217 10.72593,0.6217 h 6.18398 c 4.50469,0 10.66413,-0.6156 10.72571,-0.6217 0.005,-5e-4 0.01,0 0.0149,0 0.58314,-0.083 2.24468,-0.2498 2.92205,-0.029 h 0.0107 c 1.30872,0.4251 2.39764,1.873 3.08049,3.0125 1.73166,2.8901 1.15334,5.3883 -0.11659,6.4864 -0.53339,0.4613 -1.07665,0.6585 -1.61442,0.5851 -0.97475,-0.1321 -1.79785,-1.0878 -2.31678,-1.8662 -0.0721,-0.1085 -0.1981,-0.1689 -0.32674,-0.16 -0.12973,0.01 -0.24434,0.088 -0.3,0.2058 -0.45867,0.9695 -1.87301,2.1423 -2.91065,2.4136 -0.19285,0.05 -0.30834,0.2479 -0.25794,0.4407 0.0504,0.1929 0.24742,0.3086 0.4407,0.258 1.06985,-0.2797 2.3823,-1.2809 3.08377,-2.2958 0.77752,1.0116 1.63108,1.6031 2.49056,1.7196 0.75253,0.1022 1.48688,-0.1516 2.18397,-0.7545 1.49105,-1.2894 2.20962,-4.1562 0.26363,-7.4037 -0.7464,-1.2456 -1.95541,-2.8342 -3.47691,-3.3285 -0.95875,-0.3123 -2.98494,-0.041 -3.25033,0 -0.24368,0.024 -6.24753,0.6175 -10.64616,0.6175 h -6.18398 c -4.39841,0 -10.40204,-0.5932 -10.64638,-0.6175 -0.17115,-0.024 -1.07687,-0.1462 -1.95256,-0.1462"
       style="fill:#390075;fill-opacity:1;fill-rule:nonzero;stroke:none;stroke-width:0.00219143"
       id="path162" />
    <path
       d="m 934.27959,3321.6701 h -4.18278 c -0.0125,0.01 -0.0252,0.015 -0.0388,0.023 h 4.25947 c -0.0127,-0.01 -0.0252,-0.016 -0.0379,-0.023"
       style="fill:#390075;fill-opacity:1;fill-rule:nonzero;stroke:none;stroke-width:0.00219143"
       id="path164" />
    <path
       d="m 946.76085,3337.5259 c 0,-0.2057 -0.0107,-0.4115 -0.0324,-0.6175 -0.25815,-2.5313 -2.06104,-5.0539 -4.31536,-7.2755 -3.65727,-3.6032 -8.499,-6.4091 -9.84344,-7.1568 -0.22375,-0.1245 -0.49461,-0.1262 -0.72032,0 -2.24534,1.2178 -14.19036,8.0287 -14.19036,15.0533 0,4.283 3.64105,7.7542 8.12975,7.7542 2.61086,0 4.93487,-1.1735 6.42175,-2.9981 1.48776,1.8246 3.81067,2.9981 6.42066,2.9981 4.49067,0 8.12975,-3.4712 8.12975,-7.7542"
       style="fill:#f9266c;fill-opacity:1;fill-rule:nonzero;stroke:none;stroke-width:0.00219143"
       id="path166" />
    <path
       d="m 918.31462,3339.4079 c -0.009,0.018 -0.0167,0.036 -0.0241,0.054 0.89607,3.1405 3.91827,5.4568 7.4984,5.4568 2.41846,0 4.65722,-1.0442 6.14191,-2.865 0.0688,-0.084 0.17159,-0.133 0.28006,-0.133 0.10848,0 0.21126,0.049 0.27985,0.133 1.48403,1.8208 3.72213,2.865 6.14059,2.865 3.24682,0 6.03497,-1.9052 7.19423,-4.6028 -0.0103,-0.094 -0.0226,-0.1887 -0.037,-0.2829 -1.37402,2.4252 -4.06356,4.0732 -7.15741,4.0732 -2.32203,0 -4.41704,-0.929 -5.89866,-2.4189 -0.0956,-0.096 0.54326,-0.8216 0.522,-0.9553 -0.0399,-0.2531 -0.13105,-0.3467 -0.24391,-0.3467 -0.28116,-2e-4 -0.69775,0.5795 -0.80009,0.7226 -1.48688,1.8245 -3.81089,2.9983 -6.42175,2.9983 -3.35135,0 -6.23066,-1.9355 -7.47407,-4.6987"
       style="fill:#fc93b6;fill-opacity:1;fill-rule:nonzero;stroke:none;stroke-width:0.00219143"
       id="path168" />
    <path
       d="m 945.51042,3338.8802 c 0.12491,0.3831 0.21871,0.7679 0.27809,1.1532 0.11155,-0.1973 0.21454,-0.3993 0.30834,-0.6064 -0.11067,-0.2441 -0.31469,-0.4183 -0.58643,-0.5468"
       style="fill:#bf1b6f;fill-opacity:1;fill-rule:nonzero;stroke:none;stroke-width:0.00219143"
       id="path170" />
    <path
       d="m 946.09685,3339.427 c -0.0938,0.2071 -0.19679,0.4091 -0.30834,0.6064 0.0145,0.094 0.0267,0.1886 0.037,0.2829 0.11527,-0.2683 0.21476,-0.5448 0.29672,-0.8277 -0.008,-0.021 -0.0164,-0.041 -0.0254,-0.062"
       style="fill:#c167a2;fill-opacity:1;fill-rule:nonzero;stroke:none;stroke-width:0.00219143"
       id="path172" />
    <path
       d="m 925.78891,3344.9191 c -4.28358,0 -7.7686,-3.3165 -7.7686,-7.3927 0,-6.7965 11.6632,-13.4681 14.00123,-14.7367 0.11702,-0.064 0.2564,-0.063 0.37298,0 1.0223,0.568 4.6112,2.6354 7.8784,5.3865 4.06575,3.4234 6.127,6.5686 6.127,9.3482 0,4.0762 -3.48502,7.3927 -7.7686,7.3927 -2.41846,0 -4.65656,-1.0442 -6.14059,-2.865 -0.0686,-0.084 -0.17137,-0.133 -0.27985,-0.133 -0.10847,0 -0.21125,0.049 -0.28006,0.133 -1.48469,1.8208 -3.72345,2.865 -6.14191,2.865 m 6.41737,-22.8992 c -0.18145,0 -0.36312,0.045 -0.52923,0.1349 -2.40114,1.3028 -14.37904,8.166 -14.37904,15.3716 0,4.4746 3.80892,8.115 8.4909,8.115 2.48902,0 4.80536,-1.0172 6.42175,-2.805 1.61596,1.788 3.93186,2.805 6.42066,2.805 4.68176,0 8.4909,-3.6404 8.4909,-8.115 0,-7.0205 -11.97592,-14.0317 -14.37685,-15.3661 -0.1683,-0.094 -0.3537,-0.1404 -0.53909,-0.1404"
       style="fill:#390075;fill-opacity:1;fill-rule:nonzero;stroke:none;stroke-width:0.00219143"
       id="path174" />
    <path
       d="m 932.20628,3322.7426 c -0.0633,0 -0.12688,0.016 -0.18474,0.047 -1.6096,0.8733 -7.63821,4.3068 -11.23894,8.5792 1.4573,0.2073 2.80765,0.9879 3.29349,1.6699 0.609,0.8551 0.86277,1.6637 0.85663,2.3821 0,4e-4 0,8e-4 0,0 0,0 0,0 0,0 0,2e-4 0,4e-4 0,6e-4 0.67584,-0.9189 0.68592,-2.2905 -0.5117,-3.8324 -0.14529,-0.1878 -0.36662,-0.3937 -0.62565,-0.6039 2.30713,-1.4282 4.93378,-2.1452 7.5591,-2.1452 2.99831,0 5.99508,0.9351 8.51435,2.814 -1.18359,1.5636 -1.12574,2.9464 -0.39687,3.8521 -0.0289,-0.7405 0.22002,-1.5811 0.85444,-2.4719 0.47904,-0.6726 1.79916,-1.4411 3.23323,-1.6609 -0.88885,-1.0361 -1.98522,-2.1038 -3.2867,-3.1997 -3.2672,-2.7511 -6.8561,-4.8185 -7.8784,-5.3865 -0.0587,-0.033 -0.12359,-0.049 -0.18824,-0.049"
       style="fill:#bf1b6f;fill-opacity:1;fill-rule:nonzero;stroke:none;stroke-width:0.00219143"
       id="path176" />
    <path
       d="m 932.20606,3322.3817 c -0.1225,0 -0.24522,0.03 -0.35676,0.091 -1.48798,0.8071 -7.23434,4.0699 -10.94201,8.2227 -0.0145,0.015 -0.0281,0.031 -0.0416,0.046 -0.17115,0.1928 -0.33813,0.3879 -0.49986,0.5845 0.13959,0.01 0.27853,0.023 0.41681,0.043 3.60073,-4.2724 9.62934,-7.7059 11.23894,-8.5792 0.0579,-0.031 0.12141,-0.047 0.18474,-0.047 0.0647,0 0.12951,0.016 0.18824,0.049 1.0223,0.568 4.6112,2.6354 7.8784,5.3865 1.30148,1.0959 2.39785,2.1636 3.2867,3.1997 0.14069,-0.022 0.28247,-0.038 0.42447,-0.048 -0.48496,-0.581 -1.01441,-1.1483 -1.57103,-1.6968 -3.65727,-3.6032 -8.499,-6.4091 -9.84344,-7.1568 -0.11308,-0.063 -0.23821,-0.094 -0.36356,-0.094"
       style="fill:#390075;fill-opacity:1;fill-rule:nonzero;stroke:none;stroke-width:0.00219143"
       id="path178" />
    <path
       d="m 920.86565,3330.7415 c -0.17356,0.1928 -0.34273,0.3877 -0.50687,0.584 0.002,2e-4 0.005,5e-4 0.007,5e-4 0.16173,-0.1966 0.32871,-0.3917 0.49986,-0.5845"
       style="fill:#390075;fill-opacity:1;fill-rule:nonzero;stroke:none;stroke-width:0.00219143"
       id="path180" />
    <path
       d="m 943.38343,3343.8094 c 0,0 5.37753,-3.5337 4.90594,-8.1199 -0.66707,-6.4868 -6.79846,-4.2855 -7.96298,-2.6507 -2.00143,2.81 -0.16633,5.1205 2.12371,5.3617 1.88024,0.1981 3.76246,0.1298 3.7401,1.5209 -0.0226,1.3913 -2.80677,3.888 -2.80677,3.888"
       style="fill:#ffffff;fill-opacity:1;fill-rule:nonzero;stroke:none;stroke-width:0.00219143"
       id="path182" />
    <path
       d="m 948.21924,3335.1557 c 0.0276,0.1711 0.0511,0.3489 0.0701,0.5338 0.002,0.017 0.004,0.035 0.005,0.052 -0.002,-0.017 -0.003,-0.035 -0.005,-0.052 -0.0191,-0.1849 -0.0425,-0.3629 -0.0701,-0.534"
       style="fill:#bb6ddc;fill-opacity:1;fill-rule:nonzero;stroke:none;stroke-width:0.00219143"
       id="path184" />
    <path
       d="m 944.34568,3331.3163 c -1.71457,0 -3.45303,0.9283 -4.01907,1.7227 -0.90462,1.2704 -1.02559,2.4386 -0.67431,3.3594 0.13806,-0.4117 0.3583,-0.8423 0.67431,-1.2857 0.56604,-0.7937 2.30494,-1.722 4.01929,-1.722 1.72334,0 3.42191,0.9373 3.88123,3.8907 0.0883,-0.4966 0.11637,-1.0111 0.0673,-1.5399 -0.002,-0.017 -0.003,-0.035 -0.005,-0.052 -0.0191,-0.1849 -0.0425,-0.3627 -0.0701,-0.5338 -0.47115,-2.9126 -2.1603,-3.8394 -3.87356,-3.8394"
       style="fill:#cdbfdc;fill-opacity:1;fill-rule:nonzero;stroke:none;stroke-width:0.00219143"
       id="path186" />
    <path
       d="m 946.50905,3340.2584 c 0.0259,-0.1141 0.0406,-0.2248 0.0421,-0.3311 0.0248,-1.5318 -1.65496,-1.6751 -3.27947,-1.8138 -0.25661,-0.022 -0.522,-0.044 -0.78365,-0.072 -1.10404,-0.1164 -2.04066,-0.7445 -2.4441,-1.6394 -0.41725,-0.9259 -0.21235,-2.046 0.57657,-3.1537 0.56889,-0.7986 2.78442,-1.9563 4.69819,-1.4505 1.48447,0.392 2.38756,1.7505 2.61152,3.9285 0.17444,1.698 -0.5163,3.2602 -1.42114,4.5321 z m -2.15219,-9.3017 c -1.83751,0 -3.69869,0.9938 -4.32456,1.8726 -0.94429,1.3256 -1.17395,2.6998 -0.64669,3.8694 0.50841,1.1281 1.66811,1.9179 3.02658,2.061 0.2691,0.028 0.53799,0.051 0.79811,0.073 1.78952,0.1528 2.63125,0.3092 2.61876,1.0826 -0.0145,0.8974 -1.65563,2.6998 -2.68669,3.625 -0.14069,0.126 -0.16019,0.3395 -0.0449,0.4892 0.11505,0.1496 0.32653,0.1851 0.48431,0.081 0.22703,-0.1492 5.55526,-3.709 5.06679,-8.4589 -0.3252,-3.1622 -1.88988,-4.2214 -3.14535,-4.5529 -0.3732,-0.099 -0.75933,-0.1429 -1.14633,-0.1429"
       style="fill:#390075;fill-opacity:1;fill-rule:nonzero;stroke:none;stroke-width:0.00219143"
       id="path188" />
    <path
       d="m 921.01905,3343.8094 c 0,0 -5.37753,-3.5337 -4.90594,-8.1199 0.66707,-6.4868 6.79846,-4.2855 7.96298,-2.6507 2.00143,2.81 0.16633,5.1205 -2.12371,5.3617 -1.88024,0.1981 -3.76246,0.1298 -3.7401,1.5209 0.0226,1.3913 2.80677,3.888 2.80677,3.888"
       style="fill:#ffffff;fill-opacity:1;fill-rule:nonzero;stroke:none;stroke-width:0.00219143"
       id="path190" />
    <path
       d="m 924.93272,3335.4209 c 0,4e-4 0,8e-4 0,0 0,-5e-4 0,-9e-4 0,0"
       style="fill:#9d1471;fill-opacity:1;fill-rule:nonzero;stroke:none;stroke-width:0.00219143"
       id="path192" />
    <path
       d="m 924.93272,3335.4261 v 0 c -0.004,0.352 -0.0697,0.6822 -0.18693,0.9853 0,2e-4 2.2e-4,4e-4 2.2e-4,6e-4 0.11702,-0.3035 0.1832,-0.6337 0.18671,-0.9859"
       style="fill:#c91c6e;fill-opacity:1;fill-rule:nonzero;stroke:none;stroke-width:0.00219143"
       id="path194" />
    <path
       d="m 924.93272,3335.4255 c 0,2e-4 0,4e-4 0,6e-4 v 0 c 0,-2e-4 0,-4e-4 0,-6e-4"
       style="fill:#9d1471;fill-opacity:1;fill-rule:nonzero;stroke:none;stroke-width:0.00219143"
       id="path196" />
    <path
       d="m 916.09251,3336.5738 c 0.0134,0.2447 0.0423,0.486 0.085,0.7229 0,-4e-4 0,-4e-4 0,-9e-4 -0.0425,-0.2366 -0.0717,-0.4777 -0.085,-0.722"
       style="fill:#c9743b;fill-opacity:1;fill-rule:nonzero;stroke:none;stroke-width:0.00219143"
       id="path198" />
    <path
       d="m 920.05702,3331.3163 c -1.81406,0 -3.60073,1.0385 -3.94369,4.3734 -0.0309,0.2994 -0.0368,0.5944 -0.0208,0.8841 0.0134,0.2443 0.0425,0.4854 0.085,0.722 0.46195,-2.9428 2.15855,-3.8781 3.87904,-3.8781 1.71479,0 3.45347,0.9283 4.01951,1.7222 0.31228,0.4376 0.53055,0.8637 0.6697,1.2715 0.11724,-0.3031 0.1832,-0.6333 0.18693,-0.9853 0,-2e-4 0,-4e-4 0,-6e-4 0,0 0,0 0,0 0,-5e-4 0,-9e-4 0,0 0.006,-0.7184 -0.24763,-1.5268 -0.85663,-2.3819 -0.56582,-0.7944 -2.30472,-1.7227 -4.01907,-1.7227"
       style="fill:#cdbfdc;fill-opacity:1;fill-rule:nonzero;stroke:none;stroke-width:0.00219143"
       id="path200" />
    <path
       d="m 917.89342,3340.2584 c -0.90484,-1.2719 -1.59557,-2.8341 -1.42114,-4.5321 0.22397,-2.178 1.12727,-3.5365 2.61175,-3.9285 1.91333,-0.5054 4.12908,0.6519 4.69775,1.4505 0.78935,1.1077 0.99403,2.2278 0.57679,3.1537 -0.40344,0.8949 -1.33984,1.523 -2.4441,1.6394 -0.26166,0.028 -0.52704,0.05 -0.78365,0.072 -1.62429,0.1387 -3.30423,0.282 -3.27947,1.8138 0.002,0.1063 0.0162,0.217 0.0421,0.3311 z m 2.1522,-9.3017 c -0.387,0 -0.77291,0.044 -1.14611,0.1427 -1.25547,0.3317 -2.82037,1.3906 -3.14557,4.5531 -0.48825,4.7499 4.83976,8.3097 5.06679,8.4589 0.15778,0.1036 0.36925,0.068 0.4843,-0.081 0.11549,-0.1497 0.0958,-0.3632 -0.0447,-0.4892 -1.03107,-0.9252 -2.67244,-2.7276 -2.68691,-3.625 -0.0125,-0.7734 0.82946,-0.9298 2.61898,-1.0826 0.26012,-0.022 0.52901,-0.045 0.79789,-0.073 1.35847,-0.1431 2.51817,-0.9329 3.02658,-2.061 0.52726,-1.1696 0.2976,-2.5438 -0.64669,-3.8694 -0.62587,-0.8786 -2.48727,-1.8726 -4.32456,-1.8726"
       style="fill:#390075;fill-opacity:1;fill-rule:nonzero;stroke:none;stroke-width:0.00219143"
       id="path202" />
    <path
       d="m 932.48525,3342.5167 c 0.0719,-0.054 0.12776,-0.1098 0.18167,-0.1718 0.0548,-0.06 0.10278,-0.1254 0.14792,-0.1926 0.0909,-0.1344 0.16304,-0.2823 0.22966,-0.4322 0.12929,-0.3018 0.2347,-0.6219 0.25618,-0.9649 0.002,-0.031 -0.0213,-0.057 -0.0522,-0.059 -0.0147,0 -0.0283,0 -0.0388,0.012 h -0.002 c -0.13105,0.1074 -0.24632,0.2159 -0.36378,0.322 l -0.33835,0.3199 c -0.11001,0.1072 -0.22024,0.2128 -0.31732,0.3276 -0.0962,0.1138 -0.19,0.2363 -0.25245,0.3686 l -0.008,0.016 c -0.0872,0.1843 -0.008,0.4045 0.17597,0.4919 0.12864,0.061 0.2748,0.041 0.38087,-0.039"
       style="fill:#390075;fill-opacity:1;fill-rule:nonzero;stroke:none;stroke-width:0.00219143"
       id="path204" />
    <path
       d="m 941.12801,3340.4081 c -0.53778,0 -1.16452,0.045 -1.74196,0.078 -1.53751,0.089 -4.61931,0.1033 -3.44558,1.2391 0.5816,0.5627 1.71917,0.8919 2.90561,0.8919 1.20704,0 2.46491,-0.3406 3.24068,-1.1218 0.88775,-0.8937 0.15603,-1.0874 -0.95875,-1.0874"
       style="fill:#fb6898;fill-opacity:1;fill-rule:nonzero;stroke:none;stroke-width:0.00219143"
       id="path206" />
    <path
       d="m 942.6482,3333.472 c -0.17794,-0.1503 -0.3767,-0.2485 -0.57897,-0.3342 -0.20359,-0.083 -0.41506,-0.1369 -0.63048,-0.1812 -0.21563,-0.043 -0.43653,-0.067 -0.66137,-0.075 -0.22506,0 -0.45603,0.015 -0.68394,0.075 -0.18123,0.047 -0.28971,0.2325 -0.24215,0.4137 0.0423,0.1617 0.19438,0.2654 0.35523,0.2523 h 0.016 c 0.18474,-0.015 0.37255,-0.035 0.56627,-0.046 0.1946,-0.011 0.39248,-0.017 0.59431,-0.022 0.20205,0 0.40585,0 0.61514,-0.012 0.21037,-0.013 0.4225,-0.026 0.64997,-0.069"
       style="fill:#390075;fill-opacity:1;fill-rule:nonzero;stroke:none;stroke-width:0.00219143"
       id="path208" />
    <path
       d="m 942.21759,3336.0086 c -0.23251,-0.086 -0.45604,-0.1396 -0.67847,-0.1926 -0.22199,-0.051 -0.44179,-0.088 -0.65918,-0.1309 -0.21739,-0.042 -0.43215,-0.085 -0.6445,-0.131 -0.21366,-0.041 -0.42097,-0.095 -0.63244,-0.133 h -0.0131 c -0.1843,-0.033 -0.36071,0.089 -0.3938,0.2735 -0.03,0.1663 0.0671,0.3261 0.22155,0.38 0.22813,0.08 0.46393,0.133 0.69972,0.1652 0.23646,0.03 0.47313,0.048 0.70937,0.044 0.23602,0 0.47116,-0.014 0.70432,-0.056 0.23273,-0.045 0.4648,-0.1034 0.68658,-0.2169"
       style="fill:#390075;fill-opacity:1;fill-rule:nonzero;stroke:none;stroke-width:0.00219143"
       id="path210" />
    <path
       d="m 921.67188,3333.472 c 0.22725,0.043 0.4396,0.057 0.64976,0.069 0.20928,0.01 0.4133,0.01 0.61513,0.012 0.20183,0.01 0.39994,0.011 0.59431,0.022 0.19395,0.011 0.38153,0.031 0.56627,0.046 h 0.016 c 0.18649,0.015 0.35019,-0.1239 0.36531,-0.3106 0.0136,-0.1665 -0.0958,-0.3147 -0.25224,-0.3554 -0.2279,-0.06 -0.45866,-0.076 -0.68394,-0.075 -0.22462,0.01 -0.44574,0.032 -0.66137,0.075 -0.2152,0.044 -0.42667,0.099 -0.63026,0.1812 -0.20248,0.086 -0.40103,0.1839 -0.57897,0.3342"
       style="fill:#390075;fill-opacity:1;fill-rule:nonzero;stroke:none;stroke-width:0.00219143"
       id="path212" />
    <path
       d="m 922.10228,3336.0086 c 0.22177,0.1135 0.45384,0.1718 0.68657,0.2169 0.23317,0.042 0.46831,0.054 0.70432,0.056 0.23624,0 0.47313,-0.014 0.70959,-0.044 0.23557,-0.032 0.47159,-0.086 0.6995,-0.1652 0.17685,-0.062 0.26976,-0.2553 0.20797,-0.432 -0.0559,-0.1595 -0.21871,-0.2509 -0.38,-0.2217 h -0.0134 c -0.21147,0.038 -0.41878,0.092 -0.63244,0.133 -0.21213,0.046 -0.42711,0.089 -0.6445,0.131 -0.21739,0.043 -0.43697,0.08 -0.65896,0.1309 -0.22243,0.053 -0.44596,0.1067 -0.67868,0.1926"
       style="fill:#390075;fill-opacity:1;fill-rule:nonzero;stroke:none;stroke-width:0.00219143"
       id="path214" />
    <path
       d="m 913.59779,3325.4781 c 0.17444,-0.8057 0.82551,-1.3488 1.45379,-1.2127 0.6285,0.1361 0.99644,0.8998 0.82179,1.7058 -0.17466,0.806 -0.82551,1.3491 -1.45401,1.2127 -0.62828,-0.136 -0.99622,-0.8998 -0.82157,-1.7058"
       style="fill:#ff6c6c;fill-opacity:1;fill-rule:nonzero;stroke:none;stroke-width:0.00219143"
       id="path216" />
    <path
       d="m 915.07109,3327.8076 c 0.0686,-0.4135 0.41199,-0.7008 0.767,-0.6421 0.35501,0.059 0.5873,0.4418 0.51871,0.8553 -0.0686,0.4136 -0.41199,0.7009 -0.767,0.6421 -0.35501,-0.059 -0.5873,-0.4418 -0.51871,-0.8553"
       style="fill:#ff6c6c;fill-opacity:1;fill-rule:nonzero;stroke:none;stroke-width:0.00219143"
       id="path218" />
    <path
       d="m 913.32847,3328.5674 c 0.0451,-0.4563 0.39971,-0.7946 0.79242,-0.7558 0.3927,0.039 0.67452,0.4398 0.62959,0.896 -0.0449,0.4561 -0.39971,0.7944 -0.79242,0.7559 -0.3927,-0.039 -0.67452,-0.4401 -0.62959,-0.8961"
       style="fill:#ff6c6c;fill-opacity:1;fill-rule:nonzero;stroke:none;stroke-width:0.00219143"
       id="path220" />
    <path
       d="m 912.47973,3327.3779 c 0.05,-0.3005 0.30767,-0.5078 0.57568,-0.4633 0.26823,0.044 0.4453,0.3239 0.39534,0.6241 -0.0498,0.3005 -0.30746,0.5078 -0.57569,0.4633 -0.26801,-0.044 -0.44508,-0.3239 -0.39533,-0.6241"
       style="fill:#ff6c6c;fill-opacity:1;fill-rule:nonzero;stroke:none;stroke-width:0.00219143"
       id="path222" />
    <path
       d="m 951.37731,3325.5439 c -0.21674,-0.7957 -0.8952,-1.3037 -1.51559,-1.135 -0.6204,0.169 -0.94779,0.9509 -0.73106,1.7466 0.21651,0.7957 0.89498,1.3039 1.51537,1.1349 0.62039,-0.1687 0.94779,-0.9508 0.73128,-1.7465"
       style="fill:#ff6c6c;fill-opacity:1;fill-rule:nonzero;stroke:none;stroke-width:0.00219143"
       id="path224" />
    <path
       d="m 949.91541,3327.9534 c -0.0903,-0.4094 -0.44815,-0.6785 -0.79965,-0.6009 -0.35151,0.077 -0.56342,0.4718 -0.47335,0.8811 0.0903,0.4094 0.44814,0.6783 0.79965,0.6009 0.3515,-0.077 0.56341,-0.472 0.47335,-0.8811"
       style="fill:#ff6c6c;fill-opacity:1;fill-rule:nonzero;stroke:none;stroke-width:0.00219143"
       id="path226" />
    <path
       d="m 951.69528,3328.6206 c -0.0688,-0.4531 -0.44091,-0.7724 -0.83099,-0.7133 -0.39007,0.059 -0.65041,0.4747 -0.5816,0.9279 0.0688,0.4532 0.44069,0.7725 0.83077,0.7133 0.39007,-0.059 0.65063,-0.4747 0.58182,-0.9279"
       style="fill:#ff6c6c;fill-opacity:1;fill-rule:nonzero;stroke:none;stroke-width:0.00219143"
       id="path228" />
    <path
       d="m 952.48047,3327.3882 c -0.0655,-0.2972 -0.33375,-0.4909 -0.59914,-0.4324 -0.26538,0.058 -0.42754,0.3469 -0.36202,0.6441 0.0655,0.2974 0.33375,0.4909 0.59914,0.4323 0.26538,-0.058 0.42754,-0.3466 0.36202,-0.644"
       style="fill:#ff6c6c;fill-opacity:1;fill-rule:nonzero;stroke:none;stroke-width:0.00219143"
       id="path230" />
  </g>
</svg>
