<?xml version="1.0" encoding="UTF-8" standalone="no"?>
<!-- Created with Inkscape (http://www.inkscape.org/) -->

<svg
   version="1.1"
   id="svg2"
   width="63.999794"
   height="84.289787"
   viewBox="0 0 63.999794 84.289787"
   sodipodi:docname="normal.svg"
   inkscape:version="1.2.2 (732a01da63, 2022-12-09)"
   xmlns:inkscape="http://www.inkscape.org/namespaces/inkscape"
   xmlns:sodipodi="http://sodipodi.sourceforge.net/DTD/sodipodi-0.dtd"
   xmlns="http://www.w3.org/2000/svg"
   xmlns:svg="http://www.w3.org/2000/svg">
  <defs
     id="defs6" />
  <sodipodi:namedview
     id="namedview4"
     pagecolor="#ffffff"
     bordercolor="#000000"
     borderopacity="0.25"
     inkscape:showpageshadow="2"
     inkscape:pageopacity="0.0"
     inkscape:pagecheckerboard="0"
     inkscape:deskcolor="#d1d1d1"
     showgrid="false"
     inkscape:zoom="3.5510902"
     inkscape:cx="47.591018"
     inkscape:cy="50.407055"
     inkscape:window-width="1920"
     inkscape:window-height="1017"
     inkscape:window-x="1912"
     inkscape:window-y="-8"
     inkscape:window-maximized="1"
     inkscape:current-layer="g8" />
  <g
     id="g8"
     inkscape:groupmode="layer"
     inkscape:label="ink_ext_XXXXXX"
     transform="matrix(1.3333333,0,0,-1.3333333,-1306.8416,4362.9584)">
    <path
       d="m 999.91831,3223.8959 c 0,0 -7.69081,-7.5714 -13.85792,-4.3762 -9.12079,4.7251 -4.82025,16.405 -2.15438,17.3809 1.26279,0.4621 2.13775,-2.4097 3.68275,-5.2814 2.01667,-3.7488 5.17529,-7.4976 11.8293,-3.8305 l 0.50025,-3.8928"
       style="fill:#f99b28;fill-opacity:1;fill-rule:nonzero;stroke:none;stroke-width:0.00234197"
       id="path14" />
    <path
       d="m 991.99565,3225.5996 c -2.20567,0.8216 -3.66753,2.8914 -4.7809,4.961 -1.43376,2.6652 -2.29045,5.3304 -3.41577,5.3304 -0.0874,0 -0.17588,-0.016 -0.26675,-0.049 -0.22764,-0.083 -0.46676,-0.2443 -0.70868,-0.4721 0.4253,0.618 0.85716,1.0253 1.21899,1.1578 0.0391,0.014 0.0789,0.021 0.11921,0.021 0.58198,0 1.27708,-1.4506 2.01011,-2.9806 1.2361,-2.5802 2.91412,-6.0831 6.0156,-7.266 -0.0658,-0.2365 -0.12975,-0.4707 -0.19181,-0.7024"
       style="fill:#fccd94;fill-opacity:1;fill-rule:nonzero;stroke:none;stroke-width:0.00234197"
       id="path16" />
    <path
       d="m 999.72088,3225.4301 0.19719,-1.5342 c 0,0 -7.69057,-7.5716 -13.85768,-4.3765 -7.97934,4.1341 -5.68624,13.5919 -3.20265,16.5468 -1.38364,-4.1001 -1.26232,-10.3319 4.81182,-13.4788 4.32843,-2.2427 9.40747,0.8183 12.05132,2.8427"
       style="fill:#ffffff;fill-opacity:1;fill-rule:nonzero;stroke:none;stroke-width:0.00234197"
       id="path18" />
    <path
       d="m 990.98368,3221.8007 c -0.87145,0 -1.745,0.1398 -2.59631,0.4649 0.38853,-0.06 0.77941,-0.088 1.16958,-0.088 0.55083,-3e-4 1.10096,0.056 1.64477,0.1555 -0.0391,-0.1797 -0.077,-0.3567 -0.11382,-0.5317 -0.0347,-4e-4 -0.0696,-7e-4 -0.10422,-7e-4"
       style="fill:#c9743b;fill-opacity:1;fill-rule:nonzero;stroke:none;stroke-width:0.00234197"
       id="path20" />
    <path
       d="m 989.5155,3219.4016 c -0.35364,0.4471 -0.76512,0.8593 -1.25951,1.1982 -0.34381,0.2304 -0.73632,0.4194 -1.17029,0.5042 -0.15761,0.032 -0.31944,0.047 -0.48151,0.047 -0.28267,0 -0.56605,-0.047 -0.82882,-0.1375 -0.20633,-0.072 -0.40001,-0.166 -0.58245,-0.2733 -0.0649,-0.04 -0.12857,-0.082 -0.19064,-0.1246 -3.81226,2.6352 -4.19494,6.5908 -4.05184,8.8412 0.005,0.071 0.01,0.1415 0.0152,0.212 0.5595,-2.5807 2.10824,-5.0634 5.27787,-6.7053 0.69955,-0.3623 1.41853,-0.5862 2.14384,-0.6982 0.85131,-0.3251 1.72486,-0.4649 2.59631,-0.4649 0.0347,0 0.0696,3e-4 0.10422,7e-4 -0.0803,-0.3819 -0.1548,-0.7527 -0.22389,-1.111 -0.0567,-0.039 -0.11289,-0.078 -0.16862,-0.1183 -0.3054,-0.2285 -0.59299,-0.4831 -0.85342,-0.7719 -0.11499,-0.1257 -0.22389,-0.2585 -0.32647,-0.3986"
       style="fill:#cdbfdc;fill-opacity:1;fill-rule:nonzero;stroke:none;stroke-width:0.00234197"
       id="path22" />
    <path
       d="m 984.16175,3236.5486 c -0.0403,0 -0.0801,-0.01 -0.11921,-0.021 -1.10307,-0.4037 -2.8558,-3.3588 -3.0921,-7.0704 -0.15738,-2.4741 0.32085,-7.0088 5.29262,-9.5845 5.39473,-2.7947 12.19465,3.19 13.25533,4.1731 l -0.40141,3.1235 c -2.47758,-1.2576 -4.69402,-1.5867 -6.59476,-0.9775 -3.30382,1.0588 -5.05304,4.7102 -6.33036,7.3763 -0.73303,1.53 -1.42813,2.9806 -2.01011,2.9806 m 5.20691,-18.2058 c -1.25788,0 -2.4291,0.2738 -3.49118,0.8241 -5.37239,2.7833 -5.88985,7.6735 -5.72001,10.3408 0.24733,3.8879 2.10213,7.2133 3.612,7.766 1.28293,0.4698 2.09325,-1.2216 3.11904,-3.3624 1.28246,-2.6769 2.87875,-6.0086 5.85634,-6.9629 1.81479,-0.5815 3.9954,-0.1817 6.4814,1.1885 0.11523,0.063 0.25434,0.066 0.37168,0.01 0.11709,-0.059 0.19742,-0.173 0.21429,-0.3035 l 0.50028,-3.8931 c 0.016,-0.1231 -0.027,-0.2468 -0.1155,-0.3339 -0.08,-0.079 -1.99231,-1.9481 -4.70221,-3.4504 -2.18272,-1.2101 -4.25045,-1.8193 -6.12613,-1.8193"
       style="fill:#390075;fill-opacity:1;fill-rule:nonzero;stroke:none;stroke-width:0.00234197"
       id="path24" />
    <path
       d="m 985.84797,3228.4988 c -1.35811,2e-4 -2.21972,2.5572 -2.27499,3.1235 -0.10703,1.0937 0.40656,1.3349 0.81149,1.3349 0.10398,0 0.20071,-0.016 0.27799,-0.037 0.47004,-0.1304 0.88995,-1.5007 1.68669,-2.8106 0.46512,-0.7649 0.70681,-1.5551 -0.45059,-1.6092 -0.0169,-7e-4 -0.0337,0 -0.0506,0"
       style="fill:#fbc37e;fill-opacity:1;fill-rule:nonzero;stroke:none;stroke-width:0.00234197"
       id="path26" />
    <path
       d="m 1021.0755,3211.1914 h -30.87802 c 0,0 -0.10234,8.5215 3.85419,19.7177 0.74029,2.094 1.62298,4.2819 2.67476,6.5257 0.33256,0.7106 0.68222,1.4267 1.05061,2.1478 h 15.71766 c 0.263,-0.5164 0.5176,-1.0295 0.7626,-1.5405 0.9672,-2.0127 1.7972,-3.9842 2.5099,-5.887 4.4181,-11.8043 4.3083,-20.9637 4.3083,-20.9637"
       style="fill:#f99b28;fill-opacity:1;fill-rule:nonzero;stroke:none;stroke-width:0.00234197"
       id="path28" />
    <path
       d="m 1009.5506,3226.2865 c -2.2115,-1.9883 -1.5551,-9.0191 -1.5551,-9.0191 h -4.4331 c 0,0 0.1696,7.0308 -2.0408,9.0191 -3.93332,3.5357 -8.59478,3.9336 -6.59966,7.6534 h 21.22836 c 1.0187,-2.8577 -2.6661,-4.1177 -6.5997,-7.6534"
       style="fill:#ffffff;fill-opacity:1;fill-rule:nonzero;stroke:none;stroke-width:0.00234197"
       id="path30" />
    <path
       d="m 1021.075,3210.7939 h -30.87799 c -0.21757,0 -0.39462,0.175 -0.39743,0.3925 -10e-4,0.1368 -0.0293,3.4062 0.8944,8.5871 0.85107,4.7741 2.70966,12.1176 6.72942,19.9899 0.10001,0.1956 0.33936,0.2731 0.53468,0.1731 0.19532,-0.1 0.27284,-0.3391 0.1733,-0.5344 -3.97081,-7.7759 -5.80856,-15.0292 -6.65097,-19.7447 -0.7328,-4.1027 -0.86044,-7.048 -0.88175,-8.0688 h 30.07494 c -0.022,1.0208 -0.1492,3.9661 -0.882,8.0688 -0.8424,4.7155 -2.6802,11.9688 -6.651,19.7447 -0.099,0.1953 -0.022,0.4346 0.1733,0.5344 0.1958,0.1 0.4349,0.022 0.5347,-0.1731 4.0198,-7.8723 5.8783,-15.2158 6.7294,-19.9899 0.9237,-5.1809 0.8961,-8.4503 0.8944,-8.5871 0,-0.2175 -0.1798,-0.3925 -0.3974,-0.3925"
       style="fill:#390075;fill-opacity:1;fill-rule:nonzero;stroke:none;stroke-width:0.00234197"
       id="path32" />
    <path
       d="m 1026.5627,3212.8298 c -1.6445,-2.7446 -3.0945,-3.1907 -3.4148,-3.2949 -0.9413,-0.307 -3.2029,0.015 -3.2029,0.015 0,0 -6.3023,0.6356 -11.0042,0.6438 h -6.5154 c -0.1443,0 -0.2895,0 -0.4359,0 -4.66001,-0.037 -10.66248,-0.6417 -10.66248,-0.6417 0,0 -2.26165,-0.3222 -3.20289,-0.015 -0.32038,0.1042 -1.77029,0.5503 -3.41483,3.2949 -2.02393,3.3778 -1.08574,6.1008 0.19767,7.2112 1.78458,1.5431 3.46073,0.3611 4.63851,-1.4061 0.18923,0.4 0.50446,0.8136 0.88409,1.1962 0.70704,0.7132 1.6361,1.3169 2.38226,1.5125 2.06187,0.5391 4.14833,-0.4185 5.2596,-2.3905 h 15.12917 c 1.1112,1.972 3.1977,2.9296 5.2598,2.3905 1.1471,-0.2998 2.7249,-1.5647 3.2661,-2.7087 1.1778,1.7672 2.854,2.9492 4.6385,1.4061 1.2834,-1.1104 2.2216,-3.8334 0.1977,-7.2112"
       style="fill:#f99b28;fill-opacity:1;fill-rule:nonzero;stroke:none;stroke-width:0.00234197"
       id="path34" />
    <path
       d="m 1026.5632,3212.8303 c -1.6453,-2.7443 -3.095,-3.1912 -3.4149,-3.2956 -0.9419,-0.3073 -3.2026,0.016 -3.2026,0.016 0,0 -2.5059,0.2522 -5.5364,0.4412 -1.7762,0.1098 -3.7308,0.1986 -5.4688,0.2019 h -6.5151 c -0.1447,0 -0.2895,0 -0.4361,0 -1.6178,-0.013 -3.39795,-0.094 -5.03171,-0.1956 -3.07267,-0.1878 -5.63011,-0.4454 -5.63011,-0.4454 0,0 -2.26187,-0.3232 -3.20382,-0.016 -0.31991,0.1044 -1.76982,0.5513 -3.41389,3.2956 -2.02417,3.3769 -1.08644,6.1001 0.19743,7.2109 1.78458,1.5429 3.4605,0.3614 4.63781,-1.4063 0.18993,0.4002 0.50469,0.8131 0.8848,1.1962 2.04009,0.2757 1.7635,-2.2363 3.94177,-3.3188 1.18597,-0.588 2.71388,-0.7307 3.91226,-0.7328 1.12158,0 1.95576,0.1204 1.95576,0.1204 0,0 -0.44893,0.5808 -0.98735,1.4319 -0.29977,0.474 -0.62835,1.0316 -0.9218,1.6209 h 14.61105 c -0.2768,-0.5565 -0.585,-1.0855 -0.8723,-1.5418 -0.5595,-0.8944 -1.0368,-1.511 -1.0368,-1.511 0,0 0.8869,-0.13 2.0611,-0.1192 1.1816,0.01 2.6558,0.1614 3.8067,0.7316 2.1785,1.0825 1.9017,3.5945 3.942,3.3188 0.3801,-0.3831 0.6946,-0.796 0.8848,-1.1962 1.1773,1.7677 2.8532,2.9492 4.6376,1.4063 1.2841,-1.1108 2.2218,-3.834 0.1986,-7.2109"
       style="fill:#ffffff;fill-opacity:1;fill-rule:nonzero;stroke:none;stroke-width:0.00234197"
       id="path36" />
    <path
       d="m 989.33376,3209.8007 c -0.15223,0 -0.30305,0 -0.45106,0.013 -0.17448,0.01 -0.34146,0.032 -0.49556,0.062 -0.0712,0.021 -0.13865,0.033 -0.22507,0.065 -0.0773,0.027 -0.15269,0.056 -0.2274,0.091 -0.30118,0.1323 -0.58901,0.326 -0.86021,0.5417 -0.2712,0.2176 -0.52718,0.4623 -0.76395,0.7286 -0.47917,0.5272 -0.8958,1.1234 -1.26841,1.7471 -0.36301,0.6197 -0.66348,1.2724 -0.86021,1.9511 -0.12764,0.4394 -0.20961,0.8904 -0.23654,1.3413 0.18385,-0.5111 0.43514,-1.0436 0.76442,-1.5935 1.64407,-2.7443 3.09398,-3.1912 3.41389,-3.2956 0.13092,-0.042 0.28713,-0.073 0.45927,-0.094 0.17096,-0.021 0.34216,-0.031 0.51195,-0.031 1.18668,0 2.33167,0.4932 3.17853,1.3467 0.5513,0.5574 1.31478,1.1108 2.20801,1.1803 0.0878,0.01 0.17682,0.01 0.26698,0.01 0.37472,0 0.76981,-0.056 1.17965,-0.1487 0.0272,-0.095 0.055,-0.1904 0.0834,-0.2857 -0.0129,-0.01 -0.0258,-0.013 -0.0386,-0.02 -0.11991,-0.063 -0.23678,-0.132 -0.35083,-0.207 -0.22694,-0.151 -0.4431,-0.3253 -0.63561,-0.533 -0.19298,-0.2066 -0.3602,-0.4487 -0.48034,-0.7197 -0.11921,-0.271 -0.18431,-0.5698 -0.19228,-0.8649 -0.001,-0.1473 0.007,-0.2937 0.0298,-0.4361 l 0.0185,-0.1061 c 0.004,-0.019 0.005,-0.032 0.0108,-0.056 0.007,-0.029 0.0157,-0.057 0.0246,-0.085 0.0225,-0.065 0.0515,-0.1248 0.0843,-0.1782 -0.77051,-0.059 -1.54055,-0.1241 -2.31012,-0.1939 l -0.5595,-0.052 -0.28361,-0.027 -0.28291,-0.035 c -0.36254,-0.043 -0.72765,-0.076 -1.09042,-0.096 -0.20797,-0.011 -0.41594,-0.018 -0.62133,-0.018"
       style="fill:#c3b2d5;fill-opacity:1;fill-rule:nonzero;stroke:none;stroke-width:0.00234197"
       id="path38" />
    <path
       d="m 1021.9382,3209.8007 c -0.2051,0 -0.4133,0.01 -0.6213,0.018 -0.3628,0.02 -0.7279,0.053 -1.0904,0.096 l -0.2829,0.035 -0.2836,0.027 -0.5595,0.052 c -0.686,0.062 -1.3724,0.1204 -2.0589,0.1742 0.038,0.058 0.071,0.1248 0.096,0.1979 0.01,0.028 0.017,0.057 0.025,0.085 0.01,0.024 0.01,0.037 0.011,0.056 l 0.018,0.1061 c 0.023,0.1424 0.031,0.2888 0.03,0.4361 -0.01,0.2951 -0.073,0.5939 -0.1922,0.8649 -0.1202,0.271 -0.2876,0.5131 -0.4804,0.7197 -0.1925,0.2077 -0.4087,0.382 -0.6356,0.533 -0.114,0.075 -0.2309,0.1438 -0.3508,0.207 -0.013,0.01 -0.026,0.013 -0.039,0.02 0.024,0.08 0.047,0.1601 0.07,0.2402 0.4733,0.1096 0.9241,0.1783 1.3497,0.1783 0.1051,0 0.2089,0 0.311,-0.013 0.4721,-0.04 1.093,-0.5627 1.6188,-1.1075 0.8567,-0.8845 2.0255,-1.4033 3.2495,-1.4033 0.078,0 0.1557,0 0.2339,0.01 0.3033,0.016 0.5799,0.053 0.7911,0.1214 0.3199,0.1044 1.7696,0.5513 3.4149,3.2956 0.329,0.5489 0.5798,1.0808 0.7634,1.5914 -0.027,-0.4504 -0.1089,-0.9005 -0.2365,-1.3392 -0.1967,-0.6787 -0.4972,-1.3314 -0.8602,-1.9511 -0.3726,-0.6237 -0.7892,-1.2199 -1.2684,-1.7471 -0.2368,-0.2663 -0.4928,-0.511 -0.764,-0.7286 -0.2712,-0.2157 -0.559,-0.4094 -0.8599,-0.5417 -0.075,-0.035 -0.1504,-0.063 -0.2277,-0.091 -0.086,-0.032 -0.1538,-0.044 -0.225,-0.065 -0.1541,-0.03 -0.3211,-0.052 -0.4956,-0.062 -0.148,-0.01 -0.2988,-0.013 -0.4511,-0.013"
       style="fill:#c3b2d5;fill-opacity:1;fill-rule:nonzero;stroke:none;stroke-width:0.00234197"
       id="path40" />
    <path
       d="m 989.86235,3218.8744 c 0.0607,-0.063 0.0991,-0.1096 0.14332,-0.166 0.0405,-0.055 0.0815,-0.1091 0.1164,-0.1661 0.0745,-0.1119 0.13654,-0.229 0.19602,-0.347 0.11734,-0.2368 0.20165,-0.4869 0.27776,-0.7373 0.0747,-0.2506 0.13349,-0.5052 0.17823,-0.7618 0.0426,-0.2574 0.0717,-0.5167 0.0759,-0.7799 7e-4,-0.033 -0.0255,-0.059 -0.0581,-0.06 -0.0204,-4e-4 -0.0386,0.01 -0.0494,0.025 h -9.4e-4 c -0.14801,0.2162 -0.27752,0.4344 -0.41125,0.6483 l -0.38923,0.6363 c -0.12952,0.2089 -0.26324,0.4124 -0.38385,0.619 -0.06,0.1032 -0.12038,0.2061 -0.17635,0.3091 l -0.0829,0.1543 c -0.0246,0.049 -0.0555,0.1073 -0.0696,0.1455 l -0.0248,0.068 c -0.0749,0.2059 0.0312,0.4338 0.23701,0.5087 0.15199,0.055 0.3164,0.012 0.42179,-0.098"
       style="fill:#390075;fill-opacity:1;fill-rule:nonzero;stroke:none;stroke-width:0.00234197"
       id="path42" />
    <path
       d="m 1022.0436,3218.3953 c -0.014,-0.038 -0.045,-0.097 -0.069,-0.1455 l -0.083,-0.1543 c -0.056,-0.103 -0.1162,-0.2059 -0.1764,-0.3091 -0.1206,-0.2066 -0.2543,-0.4101 -0.3836,-0.619 l -0.3895,-0.6363 c -0.1337,-0.2139 -0.2632,-0.4321 -0.4112,-0.6483 l -7e-4,-9e-4 c -0.018,-0.027 -0.055,-0.034 -0.082,-0.015 -0.017,0.012 -0.026,0.031 -0.026,0.05 0,0.2632 0.033,0.5225 0.076,0.7799 0.045,0.2566 0.1035,0.5112 0.1785,0.7618 0.076,0.2504 0.1602,0.5005 0.2777,0.7373 0.059,0.118 0.1214,0.2351 0.1958,0.347 0.035,0.057 0.076,0.1113 0.1164,0.1661 0.044,0.056 0.083,0.103 0.1434,0.166 0.1519,0.1581 0.4032,0.1628 0.5611,0.011 0.1166,-0.1122 0.1496,-0.2787 0.098,-0.4215 l -0.025,-0.068"
       style="fill:#390075;fill-opacity:1;fill-rule:nonzero;stroke:none;stroke-width:0.00234197"
       id="path44" />
    <path
       d="m 1018.4944,3221.4715 c 0.3808,-0.053 0.7405,-0.1879 1.0827,-0.3483 0.1707,-0.082 0.336,-0.1738 0.4988,-0.2705 0.1611,-0.099 0.3169,-0.2061 0.471,-0.3169 0.3056,-0.2241 0.5904,-0.4784 0.8543,-0.7604 0.2586,-0.2864 0.5031,-0.5972 0.6881,-0.9689 l -0.6965,0.051 c 0.4232,0.6524 0.926,1.2808 1.6106,1.7607 0.3445,0.233 0.7389,0.4264 1.1775,0.5133 0.4373,0.088 0.9078,0.052 1.3232,-0.096 0.2075,-0.074 0.4021,-0.1703 0.5848,-0.2797 0.1794,-0.1124 0.349,-0.2358 0.5042,-0.3702 0.3181,-0.2773 0.5837,-0.6038 0.8019,-0.9511 l 0.1509,-0.2677 c 0.053,-0.088 0.087,-0.1843 0.1316,-0.2761 0.09,-0.1834 0.148,-0.3782 0.2152,-0.5693 0.1112,-0.3886 0.1939,-0.7855 0.2201,-1.1855 0.063,-0.8001 -0.04,-1.6008 -0.2587,-2.3561 -0.2195,-0.7564 -0.5497,-1.4698 -0.9417,-2.1387 -0.3937,-0.658 -0.8357,-1.2939 -1.3619,-1.8733 -0.2597,-0.2916 -0.545,-0.5658 -0.8562,-0.8157 -0.3129,-0.248 -0.6495,-0.4768 -1.0326,-0.6466 -0.095,-0.044 -0.1942,-0.082 -0.2928,-0.1164 -0.089,-0.033 -0.2042,-0.061 -0.3131,-0.09 -0.2122,-0.043 -0.4164,-0.068 -0.615,-0.079 -0.3981,-0.024 -0.7838,-0.015 -1.1674,0 -0.3832,0.021 -0.7624,0.056 -1.1415,0.1007 l -0.2733,0.034 -0.274,0.026 -0.5563,0.052 c -1.4841,0.1347 -2.9708,0.2499 -4.4579,0.345 -1.4869,0.095 -2.9748,0.1667 -4.4603,0.1986 -0.7422,0.017 -1.4839,0.015 -2.2328,0.015 h -2.2413 -2.241 c -0.7492,0 -1.4909,0 -2.2329,-0.015 -1.48572,-0.032 -2.97357,-0.1035 -4.46049,-0.1986 -1.48692,-0.095 -2.97384,-0.2103 -4.45795,-0.345 l -0.55622,-0.052 -0.27401,-0.026 -0.2733,-0.034 c -0.37917,-0.045 -0.75834,-0.08 -1.14172,-0.1007 -0.38338,-0.02 -0.7691,-0.029 -1.16724,0 -0.19859,0.012 -0.40281,0.036 -0.61476,0.079 -0.10914,0.029 -0.22413,0.057 -0.31336,0.09 -0.0986,0.035 -0.19813,0.073 -0.29275,0.1164 -0.38314,0.1698 -0.71968,0.3986 -1.03234,0.6466 -0.31148,0.2499 -0.59673,0.5241 -0.85646,0.8157 -0.526,0.5794 -0.96817,1.2153 -1.36185,1.8733 -0.39205,0.6689 -0.72203,1.3823 -0.94148,2.1387 -0.21921,0.7553 -0.32202,1.556 -0.25902,2.3561 0.007,0.2004 0.0478,0.3986 0.0778,0.5972 0.0119,0.1 0.0436,0.1967 0.0663,0.2948 0.0262,0.098 0.0457,0.1967 0.0782,0.2928 0.0684,0.1908 0.12647,0.385 0.21757,0.5679 0.0445,0.092 0.0789,0.1878 0.13233,0.2754 l 0.15175,0.2665 c 0.21921,0.3462 0.48573,0.6708 0.80494,0.9443 0.15598,0.1328 0.32554,0.2543 0.50493,0.3651 0.18244,0.1073 0.37612,0.2017 0.58245,0.2733 0.41336,0.1422 0.87777,0.1776 1.31033,0.09 0.43397,-0.085 0.82648,-0.2738 1.17029,-0.5042 0.68479,-0.4694 1.21033,-1.0797 1.64406,-1.7284 l -0.74006,-0.054 c 0.0485,0.091 0.0944,0.1845 0.14637,0.2721 0.0553,0.084 0.10703,0.1722 0.16581,0.252 0.11523,0.1623 0.23842,0.3153 0.3698,0.4588 0.26043,0.2888 0.54802,0.5434 0.85342,0.7719 0.15503,0.1113 0.31312,0.2174 0.47565,0.3164 0.16417,0.097 0.33233,0.1862 0.5054,0.2663 0.34731,0.1558 0.71547,0.2818 1.10119,0.3167 0.074,0.01 0.13912,-0.048 0.14591,-0.1216 0.005,-0.057 -0.0258,-0.1084 -0.0735,-0.1323 h -0.005 c -0.31383,-0.1557 -0.6054,-0.3429 -0.88363,-0.5494 -0.14052,-0.101 -0.27565,-0.2096 -0.40797,-0.3204 -0.1342,-0.1087 -0.26207,-0.2248 -0.38783,-0.3417 -0.25387,-0.2316 -0.48877,-0.4817 -0.70259,-0.7403 -0.21125,-0.2597 -0.39931,-0.534 -0.5321,-0.8106 -0.10234,-0.2128 -0.35785,-0.3025 -0.57074,-0.2002 -0.0703,0.034 -0.12834,0.086 -0.16932,0.1461 -0.3972,0.5869 -0.84569,1.1471 -1.39231,1.5329 -0.27307,0.1883 -0.56605,0.3314 -0.86676,0.3932 -0.30118,0.059 -0.60563,0.036 -0.89955,-0.063 -0.14661,-0.052 -0.29017,-0.1208 -0.42975,-0.2026 -0.13818,-0.086 -0.27331,-0.1817 -0.40189,-0.2913 -0.24848,-0.2138 -0.46043,-0.471 -0.6417,-0.7553 l -0.12506,-0.2204 c -0.0452,-0.071 -0.0726,-0.1534 -0.11007,-0.2295 -0.077,-0.1515 -0.12436,-0.3168 -0.18314,-0.4773 -0.0279,-0.081 -0.0433,-0.1658 -0.0661,-0.2485 -0.019,-0.084 -0.0473,-0.1651 -0.0567,-0.251 -0.0246,-0.1707 -0.0621,-0.3394 -0.0665,-0.5131 -0.0541,-0.6905 0.0337,-1.3952 0.23068,-2.0727 0.19673,-0.6787 0.4972,-1.3314 0.86021,-1.9511 0.37261,-0.6237 0.78924,-1.2199 1.26841,-1.7471 0.23677,-0.2663 0.49275,-0.511 0.76395,-0.7286 0.2712,-0.2157 0.55903,-0.4094 0.86021,-0.5417 0.0747,-0.035 0.15012,-0.063 0.2274,-0.091 0.0864,-0.032 0.15387,-0.044 0.22507,-0.065 0.1541,-0.03 0.32108,-0.052 0.49556,-0.062 0.34755,-0.021 0.71008,-0.014 1.07239,0.01 0.36277,0.02 0.72788,0.053 1.09042,0.096 l 0.28291,0.035 0.28361,0.027 0.5595,0.052 c 1.49184,0.1353 2.98438,0.251 4.47973,0.3468 1.49511,0.096 2.99257,0.1677 4.49447,0.2 0.6813,0.016 1.3635,0.015 2.0401,0.015 0.07,0 0.1394,0 0.2092,0 h 2.241 2.2413 c 0.07,0 0.1393,0 0.2091,0 0.6764,0 1.3583,2e-4 2.0399,-0.015 1.5019,-0.032 2.9996,-0.1044 4.4944,-0.2 1.4954,-0.096 2.9879,-0.2115 4.4798,-0.3468 l 0.5595,-0.052 0.2836,-0.027 0.2829,-0.035 c 0.3625,-0.043 0.7276,-0.076 1.0904,-0.096 0.3623,-0.019 0.7249,-0.027 1.0724,-0.01 0.1745,0.01 0.3415,0.032 0.4956,0.062 0.071,0.021 0.1386,0.033 0.225,0.065 0.077,0.027 0.1527,0.056 0.2277,0.091 0.3009,0.1323 0.5887,0.326 0.8599,0.5417 0.2712,0.2176 0.5272,0.4623 0.764,0.7286 0.4792,0.5272 0.8958,1.1234 1.2684,1.7471 0.363,0.6197 0.6635,1.2724 0.8602,1.9511 0.197,0.6775 0.285,1.3822 0.2307,2.0727 0,0.1737 -0.042,0.3424 -0.066,0.5131 -0.01,0.086 -0.038,0.1672 -0.058,0.2508 -0.023,0.082 -0.039,0.1675 -0.067,0.248 -0.06,0.16 -0.1075,0.3251 -0.1852,0.4761 -0.038,0.076 -0.066,0.1574 -0.1108,0.2286 l -0.126,0.2195 c -0.182,0.2829 -0.3951,0.5384 -0.6447,0.7482 -0.1289,0.108 -0.2645,0.2019 -0.4024,0.286 -0.1396,0.08 -0.2822,0.1471 -0.4276,0.1965 -0.2916,0.094 -0.59,0.1161 -0.8865,0.057 -0.2962,-0.06 -0.5873,-0.1986 -0.8597,-0.3841 -0.2719,-0.1879 -0.5293,-0.4162 -0.7649,-0.6729 -0.237,-0.2555 -0.4572,-0.5344 -0.6609,-0.8276 l -0.01,-0.01 c -0.1257,-0.181 -0.3745,-0.2258 -0.5553,-0.1 -0.06,0.042 -0.1058,0.099 -0.1346,0.1604 -0.13,0.2813 -0.3127,0.5633 -0.526,0.8246 -0.2103,0.2654 -0.4483,0.5157 -0.7014,0.7518 -0.127,0.1176 -0.2572,0.2326 -0.3926,0.3412 -0.1339,0.1108 -0.2716,0.2176 -0.4147,0.3162 -0.2834,0.2019 -0.5834,0.3796 -0.9021,0.5178 v 0 c -0.067,0.03 -0.098,0.1079 -0.069,0.1754 0.024,0.056 0.083,0.087 0.1406,0.079"
       style="fill:#390075;fill-opacity:1;fill-rule:nonzero;stroke:none;stroke-width:0.00234197"
       id="path46" />
    <path
       d="m 996.51776,3229.6932 c -0.73374,0.3138 -1.43867,0.6564 -2.10894,1.019 0.0459,0.1297 0.0923,0.2606 0.13911,0.3913 0.16815,-0.1129 0.35013,-0.2082 0.54357,-0.2824 0.35903,-0.3932 0.84967,-0.7558 1.42626,-1.1279"
       style="fill:#bf6c3f;fill-opacity:1;fill-rule:nonzero;stroke:none;stroke-width:0.00234197"
       id="path48" />
    <path
       d="m 1005.1163,3227.8198 c -3.0143,0 -5.98583,0.7551 -8.59854,1.8734 -0.57659,0.3721 -1.06723,0.7347 -1.42626,1.1279 0.18572,-0.071 0.38174,-0.123 0.58667,-0.153 0.13677,-0.02 0.27237,-0.03 0.40633,-0.03 0.10492,0 0.20867,0.01 0.31078,0.018 l 0.42811,-0.167 c 0.15972,-0.063 0.32671,-0.1096 0.489,-0.1647 0.32367,-0.1142 0.66255,-0.1859 0.99347,-0.27 0.011,0 0.0222,0 0.0335,0 0.0532,0 0.10398,0.031 0.126,0.083 10e-4,0 0.002,0.01 0.003,0.01 1.42931,-0.4993 3.09634,-0.931 5.02124,-1.2134 v -2e-4 c 1.3909,-0.2043 2.6747,-0.2954 3.8511,-0.3045 0.068,-7e-4 0.1361,-9e-4 0.2035,-9e-4 0.9277,0 1.7867,0.051 2.5759,0.1363 0.01,-0.069 0.067,-0.1216 0.1361,-0.1216 0,0 0.01,3e-4 0.01,3e-4 0.073,0 0.1466,0.01 0.2199,0.014 0.01,0 0.011,-0.01 0.017,-0.01 -1.5068,-0.4771 -3.1649,-0.7766 -4.9685,-0.8187 -0.1393,0 -0.2787,0 -0.4178,0"
       style="fill:#c3b2d5;fill-opacity:1;fill-rule:nonzero;stroke:none;stroke-width:0.00234197"
       id="path50" />
    <path
       d="m 994.40882,3230.7122 c -0.12015,0.065 -0.23912,0.1307 -0.35715,0.1969 0.0539,0.152 0.1082,0.3045 0.16347,0.4574 0.10351,-0.095 0.21475,-0.1836 0.33279,-0.263 -0.0468,-0.1307 -0.0932,-0.2616 -0.13911,-0.3913"
       style="fill:#390075;fill-opacity:1;fill-rule:nonzero;stroke:none;stroke-width:0.00234197"
       id="path52" />
    <path
       d="m 1007.6517,3218.9531 h -0.5663 c 0.2996,0.9511 0.6249,1.7366 0.8661,2.268 -0.1719,-0.7117 -0.2321,-1.4349 -0.2923,-2.1574 0,-0.037 -0.01,-0.074 -0.01,-0.1106 m -3.3586,0 h -0.4094 c 0,0.037 0,0.074 -0.01,0.1106 -0.041,0.4967 -0.083,0.9937 -0.1604,1.4869 0.1839,-0.4494 0.386,-0.9895 0.5773,-1.5975"
       style="fill:#c3b2d5;fill-opacity:1;fill-rule:nonzero;stroke:none;stroke-width:0.00234197"
       id="path54" />
    <path
       d="m 1007.6517,3218.9527 h -0.5665 c 0,0 2e-4,2e-4 2e-4,4e-4 h 0.5663 c 0,-2e-4 0,-4e-4 0,-4e-4 m -3.3584,0 h -0.4096 c 0,0 0,2e-4 0,4e-4 h 0.4094 c 0,-2e-4 2e-4,-4e-4 2e-4,-4e-4"
       style="fill:#bf6c3f;fill-opacity:1;fill-rule:nonzero;stroke:none;stroke-width:0.00234197"
       id="path56" />
    <path
       d="m 1007.8773,3210.5916 h -4.4823 c -0.017,0 -0.034,0 -0.051,0 0.048,0.069 0.092,0.1431 0.1309,0.2222 0.017,0.037 0.035,0.078 0.049,0.1132 l 0.034,0.098 c 0.021,0.065 0.047,0.1314 0.064,0.196 0.033,0.1286 0.072,0.2588 0.095,0.3858 0.1066,0.5107 0.1593,1.0126 0.1972,1.5131 0.073,1.0005 0.075,1.9919 0.058,2.9816 -0.026,0.9515 -0.027,1.9028 -0.088,2.8509 h 0.4096 v 0 c 0.5872,-1.8659 1.0759,-4.3695 0.6357,-6.8414 h 1.5194 c -0.4403,2.4708 0.049,4.9755 0.6368,6.8414 v 0 h 0.5665 c -0.061,-0.9481 -0.062,-1.8994 -0.088,-2.8509 -0.017,-0.9897 -0.015,-1.9811 0.058,-2.9816 0.038,-0.5005 0.091,-1.0024 0.1972,-1.5131 0.023,-0.127 0.062,-0.2572 0.095,-0.3858 0.018,-0.065 0.043,-0.1309 0.064,-0.196 l 0.034,-0.098 c 0.014,-0.036 0.033,-0.076 0.049,-0.1132 0.039,-0.079 0.083,-0.1531 0.1309,-0.2222 -0.035,0 -0.07,0 -0.1054,0 -0.07,0 -0.1396,0 -0.2091,0"
       style="fill:#c3b2d5;fill-opacity:1;fill-rule:nonzero;stroke:none;stroke-width:0.00234197"
       id="path58" />
    <path
       d="m 1008.5672,3210.1937 h -5.5989 c 0.136,0.1103 0.2662,0.2417 0.3754,0.3979 0.017,0 0.034,0 0.051,0 h 2.241 2.2413 c 0.07,0 0.1393,0 0.2091,0 0.035,0 0.07,0 0.1054,0 0.1091,-0.1562 0.2393,-0.2876 0.3754,-0.3979"
       style="fill:#390075;fill-opacity:1;fill-rule:nonzero;stroke:none;stroke-width:0.00234197"
       id="path60" />
    <path
       d="m 1016.7768,3210.578 c -0.2895,-1.3665 -7.585,-1.5872 -8.3927,0.4857 -0.5366,1.378 -0.4773,4.7823 -0.3305,7.4243 v 0 c 0.1077,1.9492 0.2639,3.4846 0.2639,3.4846 l 8.5067,3.5689 c 0.1225,-4.9872 -1.0454,-9.7421 -1.5532,-11.5571 -0.1395,-0.4975 -0.2292,-0.7741 -0.2292,-0.7741 0,0 2.1288,-0.7667 1.734,-2.6335"
       style="fill:#f99b28;fill-opacity:1;fill-rule:nonzero;stroke:none;stroke-width:0.00234197"
       id="path62" />
    <path
       d="m 1016.7768,3210.578 c -0.2895,-1.3665 -7.585,-1.5872 -8.3927,0.4857 -0.5366,1.378 -0.4773,4.7823 -0.3305,7.4243 v 0 c 0,0 0.1616,-2.8322 2.0843,-3.7254 1.5164,-0.7045 3.1933,-0.393 5.1331,-0.7782 -0.1395,-0.4975 -0.2292,-0.7741 -0.2292,-0.7741 0,0 2.1288,-0.7667 1.734,-2.6335"
       style="fill:#ffffff;fill-opacity:1;fill-rule:nonzero;stroke:none;stroke-width:0.00234197"
       id="path64" />
    <path
       d="m 1008.4503,3221.9605 c 0.1731,-0.9991 0.1043,-1.9729 0.063,-2.9498 -0.054,-0.9754 -0.1419,-1.9494 -0.1548,-2.9241 -0.017,-0.9738 -0.014,-1.9486 0.056,-2.9076 0.036,-0.4782 0.088,-0.9551 0.1817,-1.4059 0.02,-0.115 0.053,-0.2201 0.081,-0.3295 0.014,-0.054 0.034,-0.1021 0.051,-0.1536 l 0.025,-0.076 0.024,-0.055 c 0.069,-0.1424 0.1948,-0.281 0.3587,-0.3997 0.3286,-0.2406 0.7649,-0.4047 1.2087,-0.5242 0.4474,-0.1196 0.915,-0.196 1.3867,-0.2445 0.9436,-0.094 1.9099,-0.086 2.8457,0.037 0.4645,0.064 0.9315,0.1569 1.334,0.3161 0.099,0.04 0.193,0.085 0.2733,0.1331 0.08,0.048 0.1457,0.1021 0.1771,0.1416 0.018,0.02 0.022,0.034 0.024,0.039 v 0 c 0,0.01 0,0.023 0.01,0.034 l 0.013,0.075 c 0.016,0.1003 0.021,0.1993 0.021,0.2977 -0.01,0.1956 -0.047,0.3848 -0.1255,0.5637 -0.079,0.1782 -0.193,0.3464 -0.3351,0.4986 -0.1412,0.153 -0.3094,0.2895 -0.4909,0.4103 -0.091,0.06 -0.1862,0.116 -0.2831,0.1673 -0.049,0.025 -0.098,0.05 -0.1469,0.072 -0.047,0.022 -0.104,0.046 -0.1375,0.059 -0.2002,0.075 -0.3049,0.2946 -0.2433,0.4965 0.2998,0.971 0.5558,1.982 0.7782,2.9881 0.2246,1.0087 0.4094,2.0263 0.5621,3.0476 0.081,0.5101 0.1394,1.023 0.2031,1.5352 0.029,0.2564 0.05,0.5134 0.076,0.77 l 0.037,0.3853 c 0.01,0.1286 0.015,0.2571 0.023,0.3859 l 0.028,0.7727 c 0,0.2573 0.011,0.5143 0.03,0.7712 0.013,0.1283 0.023,0.2569 0.039,0.3855 0.01,0.1283 0.027,0.2569 0.047,0.3857 0.021,0.1288 0.046,0.2578 0.08,0.3876 0.032,0.1295 0.071,0.2595 0.1246,0.3904 v 0 c 0.03,0.073 0.1133,0.1075 0.1859,0.077 0.036,-0.015 0.063,-0.043 0.077,-0.076 0.055,-0.1295 0.095,-0.2599 0.1283,-0.3911 0.036,-0.1309 0.062,-0.2623 0.084,-0.3941 0.022,-0.1319 0.039,-0.2637 0.051,-0.396 0.01,-0.1319 0.01,-0.2637 0.014,-0.3958 0,-0.2642 0,-0.5282 -0.02,-0.7914 l -0.073,-0.7876 -0.029,-0.3941 -0.037,-0.393 c -0.026,-0.2619 -0.048,-0.5244 -0.077,-0.786 -0.065,-0.522 -0.1241,-1.045 -0.2068,-1.5644 -0.1555,-1.0401 -0.3436,-2.075 -0.5719,-3.1013 -0.2281,-1.029 -0.4832,-2.041 -0.7984,-3.0621 l -0.2431,0.4965 c 0.081,-0.031 0.1365,-0.055 0.2012,-0.085 0.062,-0.029 0.1232,-0.059 0.1836,-0.091 0.1199,-0.063 0.2368,-0.132 0.3508,-0.207 0.2269,-0.151 0.4431,-0.3253 0.6356,-0.533 0.1928,-0.2066 0.3602,-0.4487 0.4804,-0.7197 0.1192,-0.271 0.1843,-0.5698 0.1922,-0.8649 10e-4,-0.1473 -0.01,-0.2937 -0.03,-0.4361 l -0.018,-0.1061 c 0,-0.019 0,-0.032 -0.011,-0.056 -0.01,-0.029 -0.016,-0.057 -0.025,-0.085 -0.038,-0.1098 -0.095,-0.2051 -0.1559,-0.2794 -0.1237,-0.1515 -0.2577,-0.2466 -0.3869,-0.3258 -0.1303,-0.078 -0.2593,-0.1377 -0.3876,-0.1901 -0.5127,-0.201 -1.0181,-0.2951 -1.5244,-0.3665 -1.0118,-0.1324 -2.0228,-0.1399 -3.0331,-0.04 -0.5047,0.052 -1.0096,0.1337 -1.5113,0.2674 -0.4998,0.138 -1.0049,0.3136 -1.4745,0.652 -0.2314,0.1694 -0.4569,0.3944 -0.6035,0.6951 -0.017,0.037 -0.035,0.078 -0.049,0.1132 l -0.034,0.098 c -0.021,0.065 -0.047,0.1314 -0.064,0.196 -0.033,0.1286 -0.072,0.2588 -0.095,0.3858 -0.1066,0.5107 -0.1595,1.0126 -0.1972,1.5131 -0.073,1.0005 -0.075,1.9919 -0.058,2.9816 0.027,0.9885 0.027,1.9773 0.096,2.9619 0.082,0.9834 0.164,1.9679 0.5274,2.9237 0.027,0.071 0.1064,0.1063 0.1771,0.079 0.047,-0.018 0.078,-0.059 0.086,-0.1047 h 4e-4"
       style="fill:#390075;fill-opacity:1;fill-rule:nonzero;stroke:none;stroke-width:0.00234197"
       id="path66" />
    <path
       d="m 1025.0371,3214.2994 c -0.3407,-0.7661 -1.1012,-1.1715 -1.6984,-0.9059 -0.5972,0.2658 -0.8049,1.1022 -0.4641,1.868 0.3407,0.766 1.1012,1.1714 1.6984,0.9059 0.5969,-0.2659 0.8049,-1.1022 0.4641,-1.868"
       style="fill:#ff6c6c;fill-opacity:1;fill-rule:nonzero;stroke:none;stroke-width:0.00234197"
       id="path68" />
    <path
       d="m 1023.883,3217.0053 c -0.1541,-0.3972 -0.5553,-0.6122 -0.8965,-0.4799 -0.3412,0.1321 -0.493,0.5614 -0.3391,0.9586 0.1539,0.3974 0.5553,0.6122 0.8965,0.4801 0.3412,-0.1323 0.493,-0.5616 0.3391,-0.9588"
       style="fill:#ff6c6c;fill-opacity:1;fill-rule:nonzero;stroke:none;stroke-width:0.00234197"
       id="path70" />
    <path
       d="m 1025.7746,3217.4004 c -0.1393,-0.4447 -0.5625,-0.708 -0.9452,-0.5881 -0.3829,0.1199 -0.5803,0.5776 -0.441,1.0223 0.1394,0.4445 0.5626,0.708 0.9452,0.5881 0.3829,-0.1199 0.5804,-0.5776 0.441,-1.0223"
       style="fill:#ff6c6c;fill-opacity:1;fill-rule:nonzero;stroke:none;stroke-width:0.00234197"
       id="path72" />
    <path
       d="m 1026.3728,3216.0407 c -0.1117,-0.2888 -0.4113,-0.4417 -0.6689,-0.3417 -0.2576,0.1 -0.3759,0.4145 -0.2642,0.703 0.112,0.2885 0.4113,0.4417 0.6691,0.3417 0.2576,-0.1 0.3757,-0.4145 0.264,-0.703"
       style="fill:#ff6c6c;fill-opacity:1;fill-rule:nonzero;stroke:none;stroke-width:0.00234197"
       id="path74" />
    <path
       d="m 986.12666,3214.4235 c 0.34076,-0.766 1.1012,-1.1714 1.6984,-0.9059 0.59721,0.2659 0.80494,1.1022 0.46418,1.8682 -0.34075,0.7659 -1.10119,1.1715 -1.6984,0.9057 -0.5972,-0.2656 -0.80493,-1.1019 -0.46418,-1.868"
       style="fill:#ff6c6c;fill-opacity:1;fill-rule:nonzero;stroke:none;stroke-width:0.00234197"
       id="path76" />
    <path
       d="m 987.28079,3217.1294 c 0.15387,-0.3972 0.55528,-0.6122 0.89651,-0.4798 0.34122,0.1321 0.49298,0.5613 0.33911,0.9585 -0.1541,0.3975 -0.55528,0.6122 -0.8965,0.4801 -0.34123,-0.1323 -0.49299,-0.5613 -0.33912,-0.9588"
       style="fill:#ff6c6c;fill-opacity:1;fill-rule:nonzero;stroke:none;stroke-width:0.00234197"
       id="path78" />
    <path
       d="m 985.38918,3217.5245 c 0.13934,-0.4447 0.56254,-0.708 0.94522,-0.588 0.38268,0.1199 0.5801,0.5775 0.44099,1.0222 -0.13935,0.4448 -0.56254,0.708 -0.94545,0.5881 -0.38268,-0.1199 -0.58011,-0.5775 -0.44076,-1.0223"
       style="fill:#ff6c6c;fill-opacity:1;fill-rule:nonzero;stroke:none;stroke-width:0.00234197"
       id="path80" />
    <path
       d="m 984.79104,3216.1648 c 0.11171,-0.2886 0.41125,-0.4417 0.66887,-0.3417 0.25761,0.1 0.37588,0.4145 0.26417,0.703 -0.11195,0.2886 -0.41148,0.4417 -0.6691,0.3417 -0.25762,-0.1 -0.37589,-0.4145 -0.26394,-0.703"
       style="fill:#ff6c6c;fill-opacity:1;fill-rule:nonzero;stroke:none;stroke-width:0.00234197"
       id="path82" />
    <path
       d="m 1003.1507,3211.0637 c -0.8066,-2.0729 -8.10206,-1.8522 -8.39152,-0.4857 -0.39486,1.8668 1.73282,2.6335 1.73282,2.6335 0,0 -0.0876,0.2691 -0.22272,0.7539 -0.50493,1.7994 -1.68224,6.5723 -1.55858,11.5773 l 8.5065,-3.5689 c 0,0 0.1869,-1.8363 0.2937,-4.0443 0.1234,-2.5448 0.1393,-5.5828 -0.3602,-6.8658"
       style="fill:#f99b28;fill-opacity:1;fill-rule:nonzero;stroke:none;stroke-width:0.00234197"
       id="path84" />
    <path
       d="m 1003.1507,3211.0637 c -0.8066,-2.0729 -8.10206,-1.8522 -8.39152,-0.4857 -0.39486,1.8668 1.73282,2.6335 1.73282,2.6335 0,0 -0.0876,0.2691 -0.22272,0.7539 1.98084,0.416 3.68837,0.082 5.23012,0.7984 1.3853,0.644 1.8562,2.2935 2.0115,3.1657 0.1234,-2.5448 0.1393,-5.5828 -0.3602,-6.8658"
       style="fill:#ffffff;fill-opacity:1;fill-rule:nonzero;stroke:none;stroke-width:0.00234197"
       id="path86" />
    <path
       d="m 1003.3486,3221.9874 c 0.3637,-0.9558 0.4457,-1.9403 0.5276,-2.9237 0.069,-0.9846 0.069,-1.9734 0.096,-2.9619 0.017,-0.9897 0.015,-1.9811 -0.058,-2.9816 -0.038,-0.5005 -0.091,-1.0024 -0.1972,-1.5131 -0.023,-0.127 -0.062,-0.2572 -0.095,-0.3858 -0.018,-0.065 -0.043,-0.1309 -0.064,-0.196 l -0.034,-0.098 c -0.014,-0.036 -0.033,-0.076 -0.049,-0.1132 -0.1466,-0.3007 -0.3721,-0.5257 -0.6035,-0.6951 -0.4696,-0.3384 -0.9748,-0.514 -1.4745,-0.652 -0.5019,-0.1337 -1.0066,-0.2154 -1.51155,-0.2674 -1.01009,-0.1 -2.02112,-0.092 -3.03285,0.04 -0.50634,0.071 -1.01174,0.1655 -1.52439,0.3665 -0.12834,0.052 -0.25739,0.1119 -0.3876,0.1901 -0.12928,0.079 -0.26347,0.1743 -0.38689,0.3258 -0.0611,0.074 -0.11804,0.1696 -0.15598,0.2794 -0.009,0.028 -0.0171,0.057 -0.0246,0.085 -0.006,0.024 -0.007,0.037 -0.0108,0.056 l -0.0185,0.1061 c -0.0225,0.1424 -0.0309,0.2888 -0.0298,0.4361 0.008,0.2951 0.0731,0.5939 0.19228,0.8649 0.12014,0.271 0.28736,0.5131 0.48034,0.7197 0.19251,0.2077 0.40867,0.382 0.63561,0.533 0.11405,0.075 0.23092,0.1438 0.35083,0.207 0.0604,0.032 0.12108,0.062 0.18337,0.091 0.0649,0.03 0.12015,0.054 0.20141,0.085 l -0.24309,-0.4965 c -0.31523,1.0211 -0.57027,2.0331 -0.79838,3.0621 -0.22858,1.0263 -0.41641,2.0612 -0.57191,3.1013 -0.0827,0.5194 -0.14216,1.0424 -0.20703,1.5644 -0.029,0.2616 -0.0513,0.5241 -0.077,0.786 l -0.0377,0.393 -0.029,0.3941 -0.0735,0.7876 c -0.0152,0.2632 -0.0223,0.5272 -0.0197,0.7914 0.005,0.1321 0.005,0.2639 0.0143,0.3958 0.0119,0.1323 0.0293,0.2641 0.0513,0.396 0.0222,0.1318 0.0482,0.2632 0.0838,0.3941 0.0335,0.1312 0.0731,0.2616 0.12834,0.3911 0.0309,0.072 0.11452,0.1061 0.18689,0.075 0.0356,-0.015 0.0618,-0.043 0.0756,-0.076 l 0.002,-0.01 c 0.0539,-0.1309 0.0923,-0.2609 0.1246,-0.3904 0.0342,-0.1298 0.059,-0.2588 0.0799,-0.3876 0.0208,-0.1288 0.0368,-0.2574 0.0475,-0.3857 0.0157,-0.1286 0.0258,-0.2572 0.0386,-0.3855 0.019,-0.2569 0.029,-0.5139 0.0302,-0.7712 l 0.0279,-0.7727 c 0.008,-0.1288 0.0133,-0.2573 0.023,-0.3859 l 0.037,-0.3853 c 0.0255,-0.2566 0.0471,-0.5136 0.0756,-0.77 0.0637,-0.5122 0.12179,-1.0251 0.20305,-1.5352 0.1527,-1.0213 0.33748,-2.0389 0.56208,-3.0476 0.22248,-1.0061 0.47846,-2.0171 0.77823,-2.9881 0.063,-0.2045 -0.0459,-0.4216 -0.24333,-0.4965 -0.0337,-0.013 -0.0909,-0.037 -0.13747,-0.059 -0.0492,-0.023 -0.0981,-0.047 -0.14684,-0.072 -0.097,-0.051 -0.19181,-0.1071 -0.28315,-0.1673 -0.1815,-0.1208 -0.34965,-0.2573 -0.49087,-0.4103 -0.14216,-0.1522 -0.25598,-0.3204 -0.33537,-0.4986 -0.078,-0.1789 -0.11898,-0.3681 -0.1253,-0.5637 2.3e-4,-0.098 0.005,-0.1974 0.0211,-0.2977 l 0.0131,-0.075 c 0.002,-0.011 0.004,-0.029 0.006,-0.034 h 10e-4 c 0.003,-0.01 0.007,-0.019 0.0244,-0.039 0.0314,-0.039 0.097,-0.094 0.17706,-0.1416 0.0803,-0.048 0.17447,-0.093 0.2733,-0.1331 0.40259,-0.1592 0.86958,-0.2524 1.33399,-0.3161 0.93585,-0.123 1.90215,-0.1309 2.84573,-0.037 0.47169,0.048 0.93939,0.1249 1.38649,0.2445 0.444,0.1195 0.8803,0.2836 1.2089,0.5242 0.164,0.1187 0.2897,0.2573 0.3588,0.3997 l 0.024,0.055 0.026,0.076 c 0.016,0.052 0.036,0.1 0.051,0.1536 0.027,0.1094 0.06,0.2145 0.081,0.3295 0.094,0.4508 0.1459,0.9277 0.1817,1.4059 0.07,0.959 0.073,1.9338 0.056,2.9076 -0.013,0.9747 -0.101,1.9487 -0.1548,2.9241 -0.041,0.9769 -0.1103,1.9507 0.063,2.9498 h 3e-4 c 0.013,0.075 0.084,0.1248 0.1585,0.1117 0.049,-0.01 0.088,-0.043 0.1047,-0.086"
       style="fill:#390075;fill-opacity:1;fill-rule:nonzero;stroke:none;stroke-width:0.00234197"
       id="path88" />
    <path
       d="m 1002.6718,3215.7725 c -0.086,1.1312 -0.2897,2.2717 -0.1628,3.4813 0.089,0.8488 0.2433,1.6434 0.5178,2.2959 -0.096,-0.8563 -0.04,-1.6966 0,-2.539 0.043,-0.7752 0.1072,-1.5492 0.1381,-2.3237 -0.1239,-0.3084 -0.2833,-0.6232 -0.4887,-0.9145"
       style="fill:#c9743b;fill-opacity:1;fill-rule:nonzero;stroke:none;stroke-width:0.00234197"
       id="path90" />
    <path
       d="m 998.52718,3209.9265 c -0.52625,0 -1.05202,0.033 -1.56866,0.1007 -0.46441,0.064 -0.9314,0.1569 -1.33399,0.3161 -0.0988,0.04 -0.19297,0.085 -0.2733,0.1331 -0.0801,0.048 -0.14567,0.1021 -0.17706,0.1416 -0.0176,0.02 -0.0218,0.034 -0.0244,0.039 h -10e-4 c -0.002,0.01 -0.004,0.023 -0.006,0.034 l -0.0131,0.075 c -0.0162,0.1003 -0.0208,0.1993 -0.0211,0.2977 4.7e-4,0.012 9.4e-4,0.024 0.002,0.036 0.64615,-0.1534 1.4546,-0.2342 2.29326,-0.2342 2.02299,0 4.22237,0.4698 4.74647,1.5199 0.5775,1.1574 0.6073,2.2661 0.5223,3.3842 0.2054,0.2913 0.3648,0.6061 0.4887,0.9145 0.01,-0.2 0.014,-0.4002 0.017,-0.6004 0.017,-0.9738 0.014,-1.9486 -0.056,-2.9076 -0.036,-0.4782 -0.088,-0.9551 -0.1817,-1.4059 -0.021,-0.115 -0.054,-0.2201 -0.081,-0.3295 -0.014,-0.054 -0.034,-0.1021 -0.051,-0.1536 l -0.026,-0.076 -0.024,-0.055 c -0.069,-0.1424 -0.1948,-0.281 -0.3588,-0.3997 -0.3286,-0.2406 -0.7649,-0.4047 -1.2089,-0.5242 -0.4471,-0.1196 -0.9148,-0.196 -1.38645,-0.2445 -0.42272,-0.042 -0.85013,-0.063 -1.27707,-0.063"
       style="fill:#cdbfdc;fill-opacity:1;fill-rule:nonzero;stroke:none;stroke-width:0.00234197"
       id="path92" />
    <path
       d="m 998.53327,3209.5293 c -1.8778,0 -3.63475,0.392 -3.77386,1.0492 -0.0475,0.2274 -0.0585,0.4379 -0.0408,0.6325 0.12225,-0.039 0.25293,-0.075 0.39111,-0.1084 -7e-4,-0.012 -0.001,-0.024 -0.002,-0.036 2.3e-4,-0.098 0.005,-0.1974 0.0211,-0.2977 l 0.0131,-0.075 c 0.002,-0.011 0.004,-0.029 0.006,-0.034 h 10e-4 c 0.003,-0.01 0.007,-0.019 0.0244,-0.039 0.0314,-0.039 0.097,-0.094 0.17706,-0.1416 0.0803,-0.048 0.17447,-0.093 0.2733,-0.1331 0.40259,-0.1592 0.86958,-0.2524 1.33399,-0.3161 0.51664,-0.068 1.04241,-0.1007 1.56866,-0.1007 0.42694,0 0.85435,0.021 1.27707,0.063 0.4716,0.048 0.9393,0.1249 1.3864,0.2445 0.444,0.1195 0.8803,0.2836 1.2089,0.5242 0.164,0.1187 0.2897,0.2573 0.3588,0.3997 l 0.024,0.055 0.026,0.076 c 0.016,0.052 0.036,0.1 0.051,0.1536 0.027,0.1094 0.06,0.2145 0.081,0.3295 0.094,0.4508 0.1459,0.9277 0.1817,1.4059 0.07,0.959 0.073,1.9338 0.056,2.9076 0,0.2002 -0.01,0.4004 -0.017,0.6004 -0.031,0.7745 -0.095,1.5485 -0.1381,2.3237 -0.036,0.8424 -0.092,1.6827 0,2.539 0.059,0.1391 0.1225,0.2719 0.1925,0.3972 0.024,-0.2333 0.1928,-1.9649 0.2911,-4.0172 0.1241,-2.5453 0.1401,-5.583 -0.3595,-6.8655 -0.4189,-1.0768 -2.5888,-1.5349 -4.61758,-1.5349"
       style="fill:#390075;fill-opacity:1;fill-rule:nonzero;stroke:none;stroke-width:0.00234197"
       id="path94" />
    <path
       d="m 1008.8787,3215.9022 c -0.215,0.3333 -0.3747,0.6909 -0.493,1.0305 0.034,0.6925 0.089,1.3848 0.1274,2.078 0.036,0.8476 0.092,1.6928 -0.01,2.5542 0.2787,-0.6553 0.4344,-1.4558 0.5244,-2.3111 0.1222,-1.1635 -0.062,-2.2628 -0.1525,-3.3516"
       style="fill:#c9743b;fill-opacity:1;fill-rule:nonzero;stroke:none;stroke-width:0.00234197"
       id="path96" />
    <path
       d="m 1013.0083,3209.9265 c -0.4269,0 -0.8544,0.021 -1.2771,0.063 -0.4717,0.048 -0.9393,0.1249 -1.3867,0.2445 -0.4438,0.1195 -0.8801,0.2836 -1.2087,0.5242 -0.1639,0.1187 -0.2897,0.2573 -0.3587,0.3997 l -0.024,0.055 -0.025,0.076 c -0.017,0.052 -0.036,0.1 -0.051,0.1536 -0.027,0.1094 -0.06,0.2145 -0.081,0.3295 -0.094,0.4508 -0.1459,0.9277 -0.1817,1.4059 -0.07,0.959 -0.073,1.9338 -0.056,2.9076 0,0.2819 0.014,0.5639 0.027,0.8461 0.1183,-0.3396 0.278,-0.6972 0.493,-1.0305 -0.097,-1.1618 -0.088,-2.3117 0.512,-3.5139 0.5241,-1.0501 2.7234,-1.5199 4.7464,-1.5199 0.8366,0 1.6432,0.08 2.2888,0.2333 5e-4,-0.012 0,-0.023 0,-0.035 -2e-4,-0.098 0,-0.1974 -0.021,-0.2977 l -0.013,-0.075 c 0,-0.011 0,-0.029 -0.01,-0.034 v 0 c 0,-0.01 -0.01,-0.019 -0.024,-0.039 -0.031,-0.039 -0.097,-0.094 -0.1771,-0.1416 -0.08,-0.048 -0.1744,-0.093 -0.2733,-0.1331 -0.4025,-0.1592 -0.8695,-0.2524 -1.334,-0.3161 -0.5166,-0.068 -1.0424,-0.1007 -1.5686,-0.1007"
       style="fill:#cdbfdc;fill-opacity:1;fill-rule:nonzero;stroke:none;stroke-width:0.00234197"
       id="path98" />
    <path
       d="m 1013.0069,3209.5293 c -2.0289,0 -4.1987,0.4581 -4.6177,1.5349 -0.4995,1.2825 -0.4836,4.3202 -0.3595,6.8655 0.098,2.0523 0.2672,3.7839 0.2911,4.0172 0.067,-0.1206 0.1293,-0.2483 0.186,-0.382 0.099,-0.8614 0.042,-1.7066 0.01,-2.5542 -0.038,-0.6932 -0.094,-1.3855 -0.1274,-2.078 -0.014,-0.2822 -0.024,-0.5642 -0.027,-0.8461 -0.017,-0.9738 -0.014,-1.9486 0.056,-2.9076 0.036,-0.4782 0.088,-0.9551 0.1817,-1.4059 0.02,-0.115 0.053,-0.2201 0.081,-0.3295 0.014,-0.054 0.034,-0.1021 0.051,-0.1536 l 0.025,-0.076 0.024,-0.055 c 0.069,-0.1424 0.1948,-0.281 0.3587,-0.3997 0.3286,-0.2406 0.7649,-0.4047 1.2087,-0.5242 0.4474,-0.1196 0.915,-0.196 1.3867,-0.2445 0.4227,-0.042 0.8502,-0.063 1.2771,-0.063 0.5262,0 1.052,0.033 1.5686,0.1007 0.4645,0.064 0.9315,0.1569 1.334,0.3161 0.099,0.04 0.193,0.085 0.2733,0.1331 0.08,0.048 0.1457,0.1021 0.1771,0.1416 0.018,0.02 0.022,0.034 0.024,0.039 v 0 c 0,0.01 0,0.023 0.01,0.034 l 0.013,0.075 c 0.016,0.1003 0.021,0.1993 0.021,0.2977 -4e-4,0.012 -9e-4,0.023 0,0.035 0.1399,0.033 0.2722,0.07 0.3956,0.1093 0.018,-0.1946 0.01,-0.4051 -0.041,-0.6325 -0.1391,-0.6572 -1.896,-1.0492 -3.7738,-1.0492"
       style="fill:#390075;fill-opacity:1;fill-rule:nonzero;stroke:none;stroke-width:0.00234197"
       id="path100" />
    <path
       d="m 999.41947,3212.2017 c 0.0325,-0.2623 0.0482,-0.5014 0.0667,-0.7326 0.0183,-0.23 0.034,-0.4496 0.0747,-0.6525 0.0405,-0.2021 0.10258,-0.3845 0.18806,-0.5257 0.0408,-0.072 0.0906,-0.1321 0.14122,-0.1895 0.0546,-0.054 0.11375,-0.1035 0.18005,-0.1546 l 0.032,-0.025 c 0.1738,-0.1337 0.2061,-0.3831 0.072,-0.5566 -0.1164,-0.1511 -0.32001,-0.1951 -0.48535,-0.1162 -0.14146,0.067 -0.27565,0.1602 -0.39018,0.2754 -0.11499,0.115 -0.20351,0.2522 -0.27354,0.3916 -0.13583,0.2838 -0.1733,0.5794 -0.16628,0.8525 0.009,0.274 0.0585,0.5337 0.15176,0.7754 0.0464,0.1206 0.10164,0.237 0.17003,0.3473 0.066,0.1106 0.14262,0.2164 0.23818,0.3101"
       style="fill:#390075;fill-opacity:1;fill-rule:nonzero;stroke:none;stroke-width:0.00234197"
       id="path102" />
    <path
       d="m 997.1063,3212.2752 c -0.0344,-0.1374 -0.0417,-0.2625 -0.0499,-0.3883 l -0.005,-0.1869 9.4e-4,-0.1845 c 0.004,-0.2438 0.009,-0.4834 0.0384,-0.7127 0.0269,-0.2271 0.0768,-0.4508 0.15246,-0.6108 0.0344,-0.081 0.0796,-0.1379 0.10867,-0.1653 0.0323,-0.026 0.0426,-0.038 0.0911,-0.054 l 0.0766,-0.025 c 0.20656,-0.068 0.31898,-0.2914 0.25059,-0.4979 -0.0536,-0.1628 -0.20375,-0.2668 -0.36558,-0.2708 -0.20937,0 -0.45013,0.088 -0.60751,0.2363 -0.16394,0.1452 -0.24989,0.3183 -0.31031,0.4755 -0.11218,0.3213 -0.11944,0.6189 -0.0991,0.9049 0.0243,0.2857 0.0841,0.5614 0.19461,0.8211 0.0269,0.065 0.059,0.1283 0.0937,0.1902 0.034,0.062 0.0714,0.1227 0.11452,0.1801 0.0834,0.1143 0.1876,0.225 0.31617,0.288"
       style="fill:#390075;fill-opacity:1;fill-rule:nonzero;stroke:none;stroke-width:0.00234197"
       id="path104" />
    <path
       d="m 1012.2109,3212.2017 c 0.096,-0.094 0.1723,-0.1995 0.2384,-0.3101 0.068,-0.1103 0.1236,-0.2267 0.1698,-0.3473 0.093,-0.2417 0.1424,-0.5014 0.1517,-0.7754 0.01,-0.2731 -0.03,-0.5687 -0.1663,-0.8525 -0.07,-0.1394 -0.1585,-0.2766 -0.2735,-0.3916 -0.1143,-0.1152 -0.2487,-0.208 -0.3902,-0.2754 -0.1979,-0.094 -0.4346,-0.01 -0.529,0.1876 -0.082,0.1719 -0.029,0.3735 0.1159,0.485 l 0.032,0.025 c 0.066,0.051 0.1258,0.1005 0.1801,0.1546 0.051,0.057 0.1005,0.1173 0.1412,0.1895 0.086,0.1412 0.1476,0.3236 0.1883,0.5257 0.041,0.2029 0.056,0.4225 0.074,0.6525 0.019,0.2312 0.034,0.4703 0.067,0.7326"
       style="fill:#390075;fill-opacity:1;fill-rule:nonzero;stroke:none;stroke-width:0.00234197"
       id="path106" />
    <path
       d="m 1014.524,3212.2752 c 0.1286,-0.063 0.2328,-0.1737 0.3162,-0.288 0.043,-0.057 0.081,-0.1181 0.1147,-0.1801 0.035,-0.062 0.067,-0.1253 0.094,-0.1902 0.1106,-0.2597 0.17,-0.5354 0.1944,-0.8211 0.02,-0.286 0.013,-0.5836 -0.099,-0.9049 -0.06,-0.1572 -0.1463,-0.3303 -0.31,-0.4755 -0.1574,-0.148 -0.3982,-0.2407 -0.6075,-0.2363 -0.2178,0.01 -0.3905,0.1853 -0.3855,0.4029 0,0.1714 0.1159,0.3145 0.2698,0.3658 l 0.077,0.025 c 0.049,0.016 0.059,0.028 0.091,0.054 0.029,0.027 0.074,0.084 0.1085,0.1653 0.076,0.16 0.1257,0.3837 0.1527,0.6108 0.03,0.2293 0.035,0.4689 0.038,0.7127 v 0.1845 l -0.01,0.1869 c -0.01,0.1258 -0.015,0.2509 -0.05,0.3883"
       style="fill:#390075;fill-opacity:1;fill-rule:nonzero;stroke:none;stroke-width:0.00234197"
       id="path108" />
    <path
       d="m 1020.0377,3251.3166 c -0.4363,1.3401 -2.0614,3.0097 -3.4483,4.2505 -1.252,1.1201 -1.2806,3.0656 -0.078,4.2387 2.1165,2.0647 4.5699,3.4012 6.2158,4.1472 0.9752,0.4419 2.0872,-0.2443 2.1357,-1.3141 0.075,-1.6581 -0.087,-4.1622 -1.2237,-6.9262 -1.2295,-2.9897 -3.4211,-4.372 -3.4211,-4.372 l -0.1804,-0.024"
       style="fill:#ff6c6c;fill-opacity:1;fill-rule:nonzero;stroke:none;stroke-width:0.00234197"
       id="path110" />
    <path
       d="m 1020.2464,3251.296 -0.056,0.09 c 0.022,0.014 2.1918,1.4091 3.4003,4.3474 1.141,2.7738 1.293,5.2853 1.2197,6.9036 -0.022,0.4862 -0.2827,0.9284 -0.6977,1.1827 -0.419,0.2572 -0.9162,0.2883 -1.3633,0.086 -1.67,-0.7567 -4.1012,-2.0888 -6.2008,-4.1366 -0.5668,-0.5532 -0.8822,-1.3232 -0.8651,-2.1129 0.017,-0.7933 0.3513,-1.5207 0.9414,-2.0488 1.3338,-1.193 3.0174,-2.9031 3.4638,-4.2732 l -0.1007,-0.033 c -0.4391,1.3481 -2.1094,3.0429 -3.4336,4.2275 -0.6121,0.5476 -0.959,1.3024 -0.9768,2.1251 -0.018,0.819 0.3094,1.6176 0.8972,2.1909 2.1106,2.0589 4.5533,3.3971 6.2308,4.1573 0.4729,0.2143 1.0195,0.1801 1.4624,-0.092 0.4449,-0.2728 0.7246,-0.7469 0.748,-1.2682 0.074,-1.6291 -0.079,-4.157 -1.2274,-6.9486 -1.2221,-2.971 -3.4198,-4.3828 -3.4418,-4.3966"
       style="fill:#390075;fill-opacity:1;fill-rule:nonzero;stroke:none;stroke-width:0.00234197"
       id="path112" />
    <path
       d="m 1019.1557,3255.1415 c -0.2119,-0.5168 -0.4538,-0.9848 -0.7077,-1.4073 -0.5839,0.6506 -1.2455,1.2839 -1.8581,1.8322 -1.2523,1.1204 -1.2806,3.0658 -0.079,4.2401 1.2029,1.1738 2.5153,2.112 3.7266,2.8406 0.083,-0.1745 0.1339,-0.3705 0.1431,-0.5806 0.074,-1.6579 -0.088,-4.1612 -1.2247,-6.925"
       style="fill:#ff6c6c;fill-opacity:1;fill-rule:nonzero;stroke:none;stroke-width:0.00234197"
       id="path114" />
    <path
       d="m 1020.2136,3262.571 c -1.3862,-0.8387 -2.6195,-1.7813 -3.6659,-2.8024 -0.5667,-0.5539 -0.8817,-1.3249 -0.8644,-2.1148 0.018,-0.793 0.352,-1.5202 0.9417,-2.0479 0.6998,-0.6262 1.3099,-1.2258 1.8143,-1.7831 0.2562,0.4335 0.4808,0.8836 0.6677,1.3389 v 0 c 1.1403,2.7719 1.2933,5.2835 1.2207,6.9022 -0.01,0.1775 -0.046,0.3478 -0.1141,0.5071 m -1.7572,-8.9255 -0.048,0.053 c -0.5111,0.5693 -1.135,1.1845 -1.854,1.8281 -0.6119,0.5476 -0.959,1.3019 -0.977,2.1244 -0.018,0.8192 0.3084,1.6186 0.896,2.1928 1.0651,1.0394 2.3223,1.9977 3.7364,2.8481 l 0.05,0.03 0.025,-0.052 c 0.089,-0.1874 0.1392,-0.3895 0.1483,-0.6012 0.073,-1.6293 -0.081,-4.1572 -1.2284,-6.9472 v 0 c -0.1979,-0.4818 -0.4372,-0.9577 -0.7115,-1.4146 l -0.037,-0.061"
       style="fill:#390075;fill-opacity:1;fill-rule:nonzero;stroke:none;stroke-width:0.00234197"
       id="path116" />
    <path
       d="m 993.97906,3255.1422 c 0.80307,1.1579 2.83941,2.29 4.5247,3.08 1.52114,0.7129 2.10754,2.5682 1.293,4.0375 -1.43376,2.5856 -3.39961,4.5711 -4.7617,5.7585 -0.80728,0.7035 -2.06937,0.366 -2.42324,-0.6448 -0.54849,-1.5668 -1.11314,-4.0113 -0.81875,-6.9856 0.31851,-3.217 2.02018,-5.1709 2.02018,-5.1709 l 0.16581,-0.075"
       style="fill:#ff6c6c;fill-opacity:1;fill-rule:nonzero;stroke:none;stroke-width:0.00234197"
       id="path118" />
    <path
       d="m 994.02263,3255.112 -0.0869,0.06 c 0.82109,1.1839 2.92512,2.338 4.54553,3.0975 0.71688,0.3361 1.2464,0.9368 1.49067,1.6916 0.24337,0.7516 0.16257,1.5799 -0.22155,2.2725 -1.42228,2.5651 -3.36823,4.5396 -4.75022,5.7443 -0.37027,0.3225 -0.85506,0.4359 -1.33048,0.3099 -0.47027,-0.1244 -0.84709,-0.4729 -1.00798,-0.9324 -0.53538,-1.529 -1.1115,-3.9783 -0.81595,-6.9626 0.31289,-3.1617 1.99044,-5.1222 2.00754,-5.1416 l -0.0799,-0.069 c -0.0173,0.02 -1.71643,2.0035 -2.03283,5.2003 -0.29743,3.0038 0.28244,5.469 0.82109,7.0084 0.17261,0.4925 0.5766,0.866 1.08106,0.9995 0.50188,0.1328 1.03585,0.01 1.42696,-0.3325 1.38832,-1.2101 3.3434,-3.1942 4.77318,-5.7728 0.39815,-0.718 0.48205,-1.577 0.22955,-2.3562 -0.25344,-0.7829 -0.80263,-1.4061 -1.54645,-1.7549 -1.60846,-0.7541 -3.69563,-1.8972 -4.50337,-3.0621"
       style="fill:#390075;fill-opacity:1;fill-rule:nonzero;stroke:none;stroke-width:0.00234197"
       id="path120" />
    <path
       d="m 995.92314,3258.5521 c 0.0546,-0.5559 0.15176,-1.0738 0.27354,-1.5513 0.74639,0.4553 1.56186,0.8717 2.30637,1.2209 1.52135,0.7131 2.10755,2.5682 1.29441,4.0382 -0.81477,1.4701 -1.80215,2.746 -2.75275,3.7917 -0.12998,-0.1431 -0.2349,-0.3159 -0.30423,-0.5148 -0.54755,-1.5663 -1.11196,-4.0106 -0.81734,-6.9847"
       style="fill:#ff6c6c;fill-opacity:1;fill-rule:nonzero;stroke:none;stroke-width:0.00234197"
       id="path122" />
    <path
       d="m 997.04541,3265.972 c -0.11101,-0.1328 -0.19649,-0.2848 -0.25481,-0.4525 -0.5349,-1.5298 -1.11033,-3.9795 -0.815,-6.9622 0.0485,-0.4902 0.13396,-0.9857 0.2548,-1.4743 0.64334,0.389 1.40003,0.7879 2.25017,1.1865 0.71664,0.3358 1.24593,0.9363 1.49067,1.6906 0.24376,0.7518 0.16346,1.5809 -0.22015,2.2743 -0.70868,1.2785 -1.61877,2.5359 -2.70568,3.7376 m -0.88246,-9.0539 -0.0176,0.07 c -0.13138,0.5157 -0.22389,1.0405 -0.27495,1.5593 v 0 c -0.29743,3.0019 0.28174,5.4676 0.82016,7.0072 0.0696,0.2 0.17541,0.3794 0.31476,0.533 l 0.0391,0.043 0.0393,-0.043 c 1.10986,-1.2211 2.03845,-2.5001 2.75978,-3.8017 0.3977,-0.719 0.481,-1.5783 0.2281,-2.3579 -0.25363,-0.7825 -0.80282,-1.4054 -1.54616,-1.7539 -0.87403,-0.4096 -1.64805,-0.8195 -2.30123,-1.2183 l -0.0614,-0.037"
       style="fill:#390075;fill-opacity:1;fill-rule:nonzero;stroke:none;stroke-width:0.00234197"
       id="path124" />
    <path
       d="m 1024.358,3239.162 c -1.3317,0.9408 -2.1816,3.5495 -2.3277,4.8128 -0.085,0.73 -0.337,2.1841 -0.5349,3.2839 7.6067,4.6989 7.4627,21.0035 2.4525,20.01 -5.658,-1.1218 -10.0771,-5.6788 -12.1527,-8.2093 -2.1336,0.8279 -3.7425,0.9441 -3.7425,0.9441 0,0 -1.6153,0.3606 -3.9446,0.1644 -1.256,3.0153 -4.18066,8.6702 -9.2892,11.377 -4.53008,2.4006 -9.37281,-13.2989 -3.33591,-19.9442 -0.50118,-0.9888 -1.14031,-2.2708 -1.42509,-2.9322 -0.50423,-1.1679 -2.06796,-3.4223 -3.61483,-3.9406 -0.91197,-0.3056 -1.05694,-1.0068 -0.55107,-1.6234 0.3246,-0.3956 0.91899,-0.7574 1.74922,-0.9553 0.0656,-0.017 0.13443,-0.031 0.20328,-0.045 0,0 -0.001,0 -0.004,0 h -9.3e-4 c -0.0557,-0.026 -0.52133,-0.236 -1.71644,-0.796 -1.17075,-0.5494 -0.44989,-1.6146 1.20776,-2.819 1.65671,-1.2034 3.64645,-3.7315 4.07339,-4.125 0.24989,-0.2304 1.55952,-1.6396 4.22609,-3.0082 1.89723,-0.975 4.48153,-1.9298 7.85963,-2.4256 v -2e-4 c 8.1245,-1.1928 12.6157,1.4761 13.1377,1.7311 0.5218,0.2541 3.1542,2.1036 5.088,2.78 1.9328,0.6773 2.9293,1.4902 1.9651,2.3532 -1.0518,0.9417 -1.4197,1.2595 -1.4197,1.2595 0.068,-0.01 0.1351,-0.012 0.2005,-0.015 0.856,-0.05 1.5321,0.1258 1.9579,0.412 0.6619,0.4454 0.7246,1.1586 -0.062,1.7136"
       style="fill:#f99b28;fill-opacity:1;fill-rule:nonzero;stroke:none;stroke-width:0.00234197"
       id="path126" />
    <path
       d="m 1011.3982,3259.2077 c -1.9331,0.6936 -3.3455,0.7958 -3.3455,0.7958 0,0 -0.9986,0.2229 -2.5575,0.2229 -0.3018,0 -0.6243,-0.01 -0.9648,-0.028 0,0.044 -0.013,0.089 -0.031,0.1325 -7e-4,0 0,0 0,0 0.3602,0.022 0.7007,0.031 1.018,0.031 1.5598,0 2.5589,-0.2232 2.5589,-0.2232 0,0 1.4372,-0.104 3.3954,-0.8143 -8e-4,-7e-4 0,0 0,0 -0.03,-0.037 -0.053,-0.077 -0.069,-0.1192"
       style="fill:#b1e5ff;fill-opacity:1;fill-rule:nonzero;stroke:none;stroke-width:0.00234197"
       id="path128" />
    <path
       d="m 1011.127,3257.2861 c -0.2382,-3e-4 -0.4785,0.034 -0.7145,0.1028 -1.4823,0.4351 -2.6533,0.6122 -2.6533,0.6122 0,0 -1.2033,0.1735 -2.7879,0.1777 -1.0253,0 -1.9522,0.6078 -2.3518,1.5521 -1.3761,3.2525 -3.70496,8.0467 -8.0177,10.3325 -0.31711,0.1682 -0.63608,0.2475 -0.95248,0.2475 -1.15624,0 -2.28155,-1.0602 -3.1886,-2.7262 0.39509,0.9773 0.85131,1.8119 1.33633,2.4365 0.51336,0.661 1.24452,1.3448 2.07218,1.3448 0.24333,0 0.49486,-0.059 0.75154,-0.1951 4.96381,-2.631 7.83013,-8.125 9.09693,-11.1658 0.067,-0.1625 0.2248,-0.2604 0.3906,-0.2604 0.054,0 0.1094,0.01 0.1626,0.032 0.1723,0.072 0.2721,0.2443 0.2595,0.4209 0.3405,0.02 0.663,0.028 0.9648,0.028 1.5589,0 2.5575,-0.2229 2.5575,-0.2229 0,0 1.4124,-0.1022 3.3455,-0.7958 -0.062,-0.1652 -0.016,-0.3584 0.1279,-0.4764 0.079,-0.064 0.1735,-0.096 0.2679,-0.096 0.1225,0 0.2438,0.053 0.3276,0.1548 2.0865,2.5434 6.4079,6.9727 11.909,8.0634 0.1173,0.023 0.2299,0.034 0.3384,0.034 1.0391,0 1.6689,-1.0127 2.0223,-1.9118 0.3325,-0.8457 0.5468,-1.8693 0.6407,-2.9958 -0.429,2.2839 -1.4145,3.8507 -2.8719,3.8507 -0.1391,0 -0.2825,-0.014 -0.43,-0.044 -4.776,-0.9469 -8.3768,-4.8551 -10.6319,-7.573 -0.4944,-0.5958 -1.2215,-0.9281 -1.9712,-0.9281"
       style="fill:#fbc37e;fill-opacity:1;fill-rule:nonzero;stroke:none;stroke-width:0.00234197"
       id="path130" />
    <path
       d="m 1021.7165,3233.4392 c -1.9338,-0.6764 -4.5662,-2.5259 -5.088,-2.78 -0.522,-0.255 -5.0132,-2.9239 -13.1377,-1.7311 v 2e-4 c -3.3781,0.4958 -5.96245,1.4506 -7.85968,2.4256 -2.66657,1.3686 -3.9762,2.7778 -4.22609,3.0082 -0.42694,0.3935 -2.41668,2.9216 -4.07339,4.125 -1.65765,1.2044 -2.37851,2.2696 -1.20776,2.819 1.19511,0.56 1.6607,0.7703 1.71644,0.796 h 9.3e-4 c 0.003,0 0.004,0 0.004,0 -0.0688,0.014 -0.13771,0.028 -0.20328,0.045 0.28104,0.051 0.59088,0.092 0.93093,0.1211 1.24804,0.1075 2.51973,-0.6921 4.00103,-1.4916 1.78669,-0.9645 3.87807,-1.9289 6.60015,-1.3017 3.82212,0.8808 3.56082,9.5805 4.84092,11.6457 0.013,0.021 0.026,0.041 0.039,0.062 1.352,2.1305 4.601,1.6536 5.2835,-0.7757 0.01,-0.024 0.014,-0.047 0.021,-0.071 0.6328,-2.3457 -2.1181,-10.6032 1.2885,-12.5452 2.559,-1.4581 4.9547,-1.0206 7.0171,-0.5834 1.5162,0.3218 2.8523,0.6433 3.9406,0.2117 0.3182,-0.1257 0.603,-0.2553 0.8588,-0.3848 -0.065,0 -0.1326,0.01 -0.2005,0.015 0,0 0.3678,-0.3178 1.4197,-1.2595 0.9642,-0.863 -0.032,-1.6759 -1.9651,-2.3532"
       style="fill:#ffffff;fill-opacity:1;fill-rule:nonzero;stroke:none;stroke-width:0.00234197"
       id="path132" />
    <path
       d="m 1011.7942,3258.6353 c -0.051,0 -0.1026,0.01 -0.1531,0.029 -2.0415,0.7939 -3.6046,0.9164 -3.62,0.9173 -0.021,0 -0.042,0 -0.062,0.01 -0.015,0 -1.5871,0.344 -3.8155,0.1557 -0.2354,-0.019 -0.4375,0.1532 -0.4572,0.386 -0.02,0.2328 0.1532,0.4377 0.3862,0.4574 2.2188,0.1873 3.7966,-0.1155 4.0406,-0.1666 0.2448,-0.021 1.8027,-0.1801 3.8346,-0.9702 0.2178,-0.085 0.3257,-0.33 0.2409,-0.5478 -0.065,-0.1675 -0.225,-0.2698 -0.3946,-0.2698"
       style="fill:#390075;fill-opacity:1;fill-rule:nonzero;stroke:none;stroke-width:0.00234197"
       id="path134" />
    <path
       d="m 998.30586,3230.0543 c -0.33092,0.084 -0.6698,0.1558 -0.99347,0.27 -0.16229,0.055 -0.32928,0.1019 -0.489,0.1647 l -0.48057,0.1876 c -0.63397,0.2658 -1.25507,0.567 -1.85063,0.9105 -1.19159,0.69 -2.31246,1.4886 -3.34293,2.4162 -0.0576,0.053 -0.14918,0.1434 -0.20235,0.2029 -0.0616,0.066 -0.12108,0.1316 -0.17705,0.1953 l -0.33724,0.3838 -0.66489,0.7586 c -0.44404,0.5012 -0.89323,0.9953 -1.36514,1.4602 -0.2349,0.2335 -0.47635,0.4574 -0.72132,0.674 -0.1253,0.1028 -0.24708,0.2136 -0.37495,0.3101 l -0.19111,0.1469 -0.20726,0.1541 c -0.27846,0.2098 -0.55154,0.4311 -0.81337,0.6766 -0.26019,0.2484 -0.51477,0.5135 -0.72484,0.863 -0.10211,0.1759 -0.19649,0.381 -0.226,0.6372 -0.034,0.2534 0.0497,0.5684 0.2185,0.7684 0.16301,0.2094 0.35786,0.3253 0.54077,0.4199 0.0499,0.026 0.0836,0.04 0.12295,0.059 l 0.11523,0.054 0.22998,0.1067 0.92063,0.4279 0.11499,0.053 0.0143,0.01 h 0.007 l -0.0194,-0.01 c -0.0323,-0.018 -0.0642,-0.043 -0.0899,-0.074 -0.0525,-0.062 -0.0754,-0.1353 -0.0763,-0.2019 -4.6e-4,-0.067 0.019,-0.1367 0.0703,-0.2023 0.0255,-0.033 0.0602,-0.061 0.0967,-0.082 0.0192,-0.01 0.0377,-0.018 0.0555,-0.024 0.007,0 0.0239,-0.01 0.0227,-0.01 h -0.008 l -0.13279,0.036 c -0.17682,0.049 -0.352,0.1075 -0.52437,0.1787 -0.34427,0.1412 -0.68081,0.3267 -0.98175,0.5897 -0.14942,0.1323 -0.28994,0.2853 -0.40727,0.4684 -0.11569,0.1834 -0.20773,0.4031 -0.23373,0.652 -0.0246,0.2476 0.0328,0.5242 0.16862,0.7368 0.13233,0.2157 0.31477,0.3733 0.49955,0.485 l 0.14005,0.077 0.14169,0.065 0.14215,0.053 c 0.0459,0.017 0.0698,0.028 0.10586,0.043 0.066,0.029 0.13373,0.048 0.19907,0.085 l 0.19672,0.1044 c 0.51945,0.3113 0.99487,0.7544 1.41666,1.2427 0.42484,0.4871 0.804,1.025 1.12977,1.5831 l 0.11851,0.2106 0.10937,0.2124 c 0.0356,0.071 0.066,0.1417 0.0993,0.2124 l 0.10469,0.2351 c 0.14192,0.3153 0.28923,0.6211 0.43748,0.9275 0.2972,0.6112 0.60072,1.2164 0.90658,1.8206 0.10211,0.2019 0.34872,0.2827 0.55083,0.1806 0.20188,-0.1024 0.28268,-0.349 0.18057,-0.5509 l -2.4e-4,-2e-4 c -0.30445,-0.6014 -0.6068,-1.2042 -0.90025,-1.8082 -0.14614,-0.3019 -0.29181,-0.605 -0.42741,-0.9059 l -0.10141,-0.2276 c -0.0384,-0.082 -0.0749,-0.1666 -0.11522,-0.2467 l -0.12272,-0.2381 -0.12975,-0.2312 c -0.35551,-0.6084 -0.75856,-1.1796 -1.22134,-1.7115 -0.46137,-0.5309 -0.98152,-1.0277 -1.62298,-1.4131 l -0.2506,-0.1331 c -0.0827,-0.045 -0.17775,-0.076 -0.26651,-0.114 l -0.12951,-0.051 -0.0953,-0.036 -0.0888,-0.041 -0.0817,-0.045 c -0.10398,-0.062 -0.17963,-0.1372 -0.22436,-0.21 -0.0466,-0.073 -0.0588,-0.1457 -0.0534,-0.2331 0.01,-0.088 0.0459,-0.1897 0.1103,-0.2915 0.0651,-0.1017 0.15387,-0.2012 0.25715,-0.2923 0.2082,-0.1827 0.4698,-0.3319 0.7499,-0.4457 0.13982,-0.058 0.28572,-0.1068 0.43444,-0.148 l 0.11171,-0.03 h 0.007 l 0.0377,-0.011 c 0.0281,-0.01 0.0562,-0.021 0.0846,-0.037 0.0555,-0.03 0.10562,-0.074 0.14473,-0.1222 0.0782,-0.099 0.11007,-0.211 0.10914,-0.3202 -7.1e-4,-0.1086 -0.0387,-0.2246 -0.11874,-0.3185 -0.0391,-0.047 -0.0876,-0.085 -0.13888,-0.1133 l -0.0333,-0.017 h -0.007 l -0.0143,-0.01 -0.11476,-0.053 -0.91758,-0.4264 -0.44966,-0.2103 c -0.11593,-0.058 -0.2157,-0.1277 -0.25855,-0.189 -0.0251,-0.03 -0.037,-0.056 -0.0438,-0.083 -0.007,-0.027 -0.0129,-0.056 -0.007,-0.097 0.008,-0.081 0.0499,-0.1936 0.11827,-0.3079 0.13747,-0.2317 0.35036,-0.4644 0.57917,-0.6804 0.23092,-0.2166 0.48315,-0.4218 0.74428,-0.6183 l 0.1993,-0.1482 0.21148,-0.1609 c 0.14286,-0.1061 0.27214,-0.2218 0.40891,-0.3326 0.263,-0.2285 0.51898,-0.4623 0.76536,-0.7028 0.49298,-0.4813 0.96536,-0.9766 1.42415,-1.4806 0.22951,-0.2513 0.45411,-0.5073 0.67683,-0.7607 l 0.33279,-0.3765 c 0.0555,-0.063 0.11008,-0.1223 0.16371,-0.1799 0.0607,-0.065 0.089,-0.093 0.15574,-0.1553 0.97332,-0.8859 2.03025,-1.7063 3.13332,-2.4434 0.55247,-0.3691 1.12321,-0.7084 1.7059,-1.0297 0.58479,-0.3181 1.18902,-0.5963 1.8073,-0.8581 h 0.007 c 0.0693,-0.029 0.10187,-0.1096 0.0726,-0.1791 -0.0267,-0.063 -0.0951,-0.096 -0.15949,-0.079"
       style="fill:#390075;fill-opacity:1;fill-rule:nonzero;stroke:none;stroke-width:0.00234197"
       id="path136" />
    <path
       d="m 1021.8994,3247.3289 c 0.1142,-0.6374 0.226,-1.2752 0.3313,-1.9162 0.053,-0.3206 0.1038,-0.6414 0.1499,-0.9665 l 0.065,-0.4855 c 0.018,-0.1468 0.047,-0.297 0.076,-0.4468 0.1281,-0.6019 0.3157,-1.2024 0.5523,-1.7755 0.2339,-0.5742 0.525,-1.1239 0.8817,-1.5984 0.042,-0.062 0.093,-0.1126 0.1394,-0.1698 0.047,-0.056 0.093,-0.1133 0.1452,-0.1606 l 0.1515,-0.1497 0.1606,-0.1283 0.04,-0.033 0.056,-0.043 c 0.038,-0.03 0.078,-0.057 0.1146,-0.091 0.075,-0.063 0.1482,-0.1342 0.2173,-0.212 0.1365,-0.1562 0.2588,-0.3518 0.3208,-0.5855 0.066,-0.2323 0.048,-0.4995 -0.037,-0.7239 -0.085,-0.2262 -0.2274,-0.4063 -0.3803,-0.5492 -0.3115,-0.2848 -0.6696,-0.4349 -1.0223,-0.5365 -0.3548,-0.096 -0.7117,-0.1368 -1.0635,-0.1394 -0.088,0 -0.1756,0 -0.2632,0 l -0.017,4e-4 -0.01,3e-4 c 0,0 -0.01,2e-4 0,-5e-4 0.036,-7e-4 0.077,0.01 0.1153,0.019 0.079,0.028 0.1384,0.084 0.1709,0.1412 0.033,0.058 0.048,0.1214 0.041,0.1942 -0.01,0.072 -0.048,0.1527 -0.099,0.1986 l 0.351,-0.3124 0.726,-0.6459 0.091,-0.081 0.045,-0.041 0.054,-0.051 c 0.072,-0.067 0.1417,-0.1452 0.207,-0.2323 0.1291,-0.1701 0.2467,-0.4139 0.2459,-0.6881 0,-0.2754 -0.1124,-0.5178 -0.2386,-0.6902 -0.1295,-0.1759 -0.2752,-0.3087 -0.422,-0.4241 -0.2958,-0.2277 -0.6021,-0.3909 -0.9101,-0.5384 -0.3089,-0.1445 -0.6197,-0.271 -0.9326,-0.3844 l -0.1164,-0.042 -0.1075,-0.041 -0.2152,-0.082 c -0.1426,-0.061 -0.2855,-0.1216 -0.4276,-0.186 -0.5689,-0.2611 -1.1247,-0.5695 -1.6748,-0.8906 -0.5501,-0.3225 -1.0956,-0.656 -1.6408,-1.001 l -0.4133,-0.2555 c -0.1415,-0.085 -0.2773,-0.1691 -0.4378,-0.2576 l -0.1255,-0.065 -0.1098,-0.052 -0.2279,-0.104 c -0.1525,-0.067 -0.3054,-0.1316 -0.4588,-0.1944 -0.615,-0.2447 -1.2394,-0.456 -1.8731,-0.63 -1.2661,-0.3501 -2.5631,-0.5724 -3.8654,-0.6482 -0.075,0 -0.1403,0.053 -0.1448,0.129 0,0.067 0.041,0.1253 0.1036,0.141 v 5e-4 c 0.6267,0.1564 1.2492,0.3105 1.8645,0.4871 0.6145,0.1777 1.2232,0.3695 1.823,0.5813 0.5988,0.2138 1.1906,0.4438 1.766,0.7016 0.1438,0.065 0.2865,0.1305 0.4275,0.1986 l 0.2093,0.1042 0.1078,0.055 c 0.037,0.019 0.058,0.033 0.088,0.048 0.1215,0.07 0.2597,0.1572 0.3932,0.2415 l 0.4082,0.2585 c 1.0981,0.6893 2.2216,1.3623 3.4349,1.9113 0.1525,0.068 0.3076,0.1321 0.4628,0.1963 l 0.2382,0.089 0.1192,0.044 0.1115,0.039 c 0.2953,0.1043 0.585,0.2185 0.8611,0.3488 0.2743,0.1304 0.5399,0.2763 0.7565,0.444 0.1072,0.083 0.1998,0.1733 0.2616,0.2581 0.063,0.086 0.086,0.1555 0.083,0.2058 4e-4,0.05 -0.021,0.1185 -0.085,0.2043 -0.032,0.042 -0.069,0.085 -0.1156,0.1281 l -0.034,0.032 -0.045,0.04 -0.09,0.08 -0.7223,0.6424 -0.3728,0.3323 c -0.08,0.073 -0.1412,0.1925 -0.1518,0.3045 -0.012,0.1129 0.012,0.218 0.066,0.3105 0.053,0.092 0.1445,0.1764 0.2616,0.2178 0.058,0.021 0.1185,0.03 0.1745,0.029 l 0.04,-9e-4 c 0.074,0 0.1477,-0.01 0.221,0 0.2944,0 0.5841,0.037 0.8535,0.1096 0.2658,0.075 0.5164,0.1921 0.6826,0.3473 0.082,0.077 0.1427,0.1595 0.1708,0.2368 0.026,0.078 0.034,0.1483 0.011,0.2279 -0.021,0.079 -0.07,0.1679 -0.1454,0.2539 -0.038,0.043 -0.081,0.085 -0.1295,0.1257 -0.022,0.021 -0.05,0.04 -0.075,0.059 l -0.095,0.074 -0.2176,0.1745 -0.1939,0.1904 c -0.067,0.062 -0.1223,0.1309 -0.1796,0.1983 -0.056,0.068 -0.1181,0.1335 -0.1677,0.2047 -0.4202,0.5593 -0.7347,1.1635 -0.9888,1.7846 -0.2562,0.6216 -0.456,1.259 -0.597,1.9216 -0.033,0.1672 -0.064,0.3347 -0.086,0.5084 l -0.063,0.475 c -0.044,0.3147 -0.095,0.6321 -0.1471,0.9489 -0.1042,0.6345 -0.2157,1.2694 -0.3295,1.9041 -0.04,0.2227 0.1082,0.4358 0.3309,0.4759 0.223,0.04 0.4359,-0.108 0.4759,-0.3307 l 3e-4,-3e-4"
       style="fill:#390075;fill-opacity:1;fill-rule:nonzero;stroke:none;stroke-width:0.00234197"
       id="path138" />
    <path
       d="m 1021.4963,3246.8331 c -0.1419,0 -0.2806,0.072 -0.3604,0.201 -0.1227,0.1988 -0.061,0.4595 0.1377,0.5824 5.3041,3.2755 6.8912,12.8476 5.1177,17.3594 -0.3902,0.9928 -1.1172,2.1242 -2.3607,1.8776 -5.5011,-1.0907 -9.8225,-5.52 -11.909,-8.0634 -0.1485,-0.1808 -0.4152,-0.2068 -0.5955,-0.059 -0.1806,0.1482 -0.2071,0.415 -0.059,0.5956 2.1581,2.6307 6.6388,7.2149 12.3984,8.3568 1.4192,0.2815 2.5949,-0.5705 3.3132,-2.3982 0.9194,-2.3384 0.9789,-6.0835 0.1517,-9.5407 -0.9742,-4.0727 -2.9675,-7.2151 -5.6125,-8.8484 -0.069,-0.043 -0.1459,-0.063 -0.2218,-0.063"
       style="fill:#390075;fill-opacity:1;fill-rule:nonzero;stroke:none;stroke-width:0.00234197"
       id="path140" />
    <path
       d="m 991.48159,3251.1766 c -0.11523,0 -0.22999,0.047 -0.31336,0.1386 -2.09513,2.3059 -3.127,5.8859 -2.90592,10.0801 0.18783,3.5551 1.31268,7.1446 2.86634,9.1449 1.22017,1.5715 2.60099,2.0607 3.88861,1.3785 5.19704,-2.7546 8.17114,-8.4426 9.48174,-11.5881 0.09,-0.2157 -0.012,-0.4634 -0.2281,-0.5534 -0.2157,-0.09 -0.4635,0.012 -0.5532,0.2279 -1.2668,3.0408 -4.13312,8.5348 -9.09693,11.1658 -1.13024,0.5991 -2.15954,-0.2944 -2.82372,-1.1497 -2.66774,-3.4352 -4.46404,-13.2262 -0.003,-18.1369 0.15715,-0.1731 0.1445,-0.4408 -0.0286,-0.5979 -0.081,-0.073 -0.18291,-0.1098 -0.28431,-0.1098"
       style="fill:#390075;fill-opacity:1;fill-rule:nonzero;stroke:none;stroke-width:0.00234197"
       id="path142" />
    <path
       d="m 1007.5454,3228.6227 c -0.067,0 -0.1351,2e-4 -0.2035,9e-4 0.068,-7e-4 0.1358,-9e-4 0.203,-9e-4 0.4895,0 0.9605,0.014 1.4115,0.04 0.4038,0.023 0.7921,0.056 1.1647,0.096 h 2e-4 c -0.7892,-0.086 -1.6482,-0.1363 -2.5759,-0.1363"
       style="fill:#997cb8;fill-opacity:1;fill-rule:nonzero;stroke:none;stroke-width:0.00234197"
       id="path144" />
    <path
       d="m 1008.9564,3228.6627 c 0.4038,0.023 0.7921,0.056 1.1647,0.097 v -2e-4 c -0.3726,-0.04 -0.7609,-0.073 -1.1647,-0.096"
       style="fill:#bf6c3f;fill-opacity:1;fill-rule:nonzero;stroke:none;stroke-width:0.00234197"
       id="path146" />
    <path
       d="m 1007.5449,3228.6227 c -0.067,0 -0.1351,2e-4 -0.203,9e-4 -1.1759,0.01 -2.4602,0.1002 -3.8507,0.3045 v 2e-4 c -1.9256,0.2827 -3.59264,0.7141 -5.02171,1.2136 0.0237,0.068 -0.009,0.1426 -0.0756,0.1707 h -0.007 c -0.41008,0.1735 -0.81384,0.3543 -1.20987,0.5492 0.70822,0.3082 1.27029,0.911 1.51409,1.6841 l 2.13639,-0.3122 c 0.9862,-0.292 2.0035,-0.5223 3.0504,-0.6759 1.0567,-0.1553 2.1082,-0.2272 3.1462,-0.2293 l 1.9426,-0.2838 c 0.018,-0.8975 0.4703,-1.7059 1.1792,-2.1954 -0.017,-0.024 -0.026,-0.054 -0.024,-0.086 0,0 3e-4,-0.01 5e-4,-0.01 -0.3726,-0.041 -0.7609,-0.073 -1.1647,-0.097 -0.451,-0.026 -0.922,-0.04 -1.4115,-0.04 m 6.718,1.4808 c 0.076,0.1927 0.1311,0.397 0.1623,0.6105 0.082,0.5633 -0.01,1.1228 -0.2553,1.6158 3.4296,0.9307 6.4533,2.36 8.7192,3.6188 l 0.3843,-0.3417 0.09,-0.08 0.045,-0.04 0.034,-0.032 c 0.047,-0.043 0.084,-0.087 0.1156,-0.1281 0.064,-0.086 0.086,-0.1539 0.085,-0.2043 0,-0.05 -0.021,-0.1194 -0.083,-0.2058 -0.062,-0.085 -0.1544,-0.1747 -0.2616,-0.2581 -0.2166,-0.1677 -0.4822,-0.3136 -0.7565,-0.444 -0.2761,-0.1303 -0.5658,-0.2445 -0.8611,-0.3488 l -0.1115,-0.039 -0.1192,-0.044 -0.2382,-0.089 c -0.1552,-0.064 -0.3103,-0.1286 -0.4628,-0.1963 -1.2133,-0.549 -2.3368,-1.222 -3.4349,-1.9113 l -0.4082,-0.2585 c -0.1335,-0.084 -0.2717,-0.1719 -0.3932,-0.2415 -0.03,-0.016 -0.052,-0.03 -0.088,-0.048 l -0.1078,-0.055 -0.2093,-0.1042 c -0.141,-0.068 -0.2837,-0.1339 -0.4275,-0.1986 -0.4632,-0.2075 -0.937,-0.397 -1.4166,-0.5747 m -20.93186,3.2083 c -0.54989,0.4253 -1.08246,0.8712 -1.59207,1.3351 -0.0667,0.062 -0.0951,0.09 -0.15574,0.1553 -0.0536,0.058 -0.1082,0.1169 -0.16371,0.1799 l -0.33279,0.3765 c -0.22272,0.2534 -0.44732,0.5094 -0.67683,0.7607 -0.45879,0.504 -0.93117,0.9993 -1.42415,1.4806 -0.24638,0.2405 -0.50236,0.4743 -0.76536,0.7028 -0.13677,0.1108 -0.26605,0.2265 -0.40891,0.3326 l -0.21148,0.1609 -0.1993,0.1482 c -0.26113,0.1965 -0.51336,0.4017 -0.74428,0.6183 -0.22881,0.216 -0.4417,0.4487 -0.57917,0.6804 -0.0684,0.1143 -0.10984,0.2274 -0.11827,0.3079 -0.006,0.041 2.3e-4,0.07 0.007,0.097 0.007,0.027 0.0187,0.053 0.0438,0.083 0.0428,0.061 0.14262,0.1309 0.25855,0.189 l 0.44966,0.2103 0.20914,0.097 c 1.78692,-1.8343 4.23522,-4.0416 7.20437,-5.9049 -0.41312,-0.4119 -0.68502,-0.9473 -0.77191,-1.5424 -0.0232,-0.1578 -0.0321,-0.3145 -0.0283,-0.4688"
       style="fill:#c3b2d5;fill-opacity:1;fill-rule:nonzero;stroke:none;stroke-width:0.00234197"
       id="path148" />
    <path
       d="m 998.46839,3230.1419 c -0.56301,0.1967 -1.08901,0.4042 -1.57942,0.6171 0.0979,0.03 0.19344,0.065 0.28665,0.1059 0.39603,-0.1949 0.79979,-0.3757 1.20987,-0.5492 h 0.007 c 0.0667,-0.028 0.0993,-0.1032 0.0756,-0.1707 m -5.04578,2.5368 c -1.20822,0.8457 -1.8518,1.5291 -2.01925,1.6834 -0.42624,0.3928 -2.41644,2.9212 -4.07339,4.1245 -1.65695,1.2047 -2.3778,2.2705 -1.20682,2.82 0.18432,0.086 0.35177,0.1637 0.50259,0.2332 0.0981,-0.1026 0.1986,-0.2068 0.30118,-0.3119 l -0.20914,-0.097 -0.44966,-0.2103 c -0.11593,-0.058 -0.2157,-0.1277 -0.25855,-0.189 -0.0251,-0.03 -0.037,-0.056 -0.0438,-0.083 -0.007,-0.027 -0.0129,-0.056 -0.007,-0.097 0.008,-0.081 0.0499,-0.1936 0.11827,-0.3079 0.13747,-0.2317 0.35036,-0.4644 0.57917,-0.6804 0.23092,-0.2166 0.48315,-0.4218 0.74428,-0.6183 l 0.1993,-0.1482 0.21148,-0.1609 c 0.14286,-0.1061 0.27214,-0.2218 0.40891,-0.3326 0.263,-0.2285 0.51898,-0.4623 0.76536,-0.7028 0.49298,-0.4813 0.96536,-0.9766 1.42415,-1.4806 0.22951,-0.2513 0.45411,-0.5073 0.67683,-0.7607 l 0.33279,-0.3765 c 0.0555,-0.063 0.11008,-0.1223 0.16371,-0.1799 0.0607,-0.065 0.089,-0.093 0.15574,-0.1553 0.50961,-0.4639 1.04218,-0.9098 1.59207,-1.3351 0.006,-0.2169 0.037,-0.4291 0.0916,-0.6331"
       style="fill:#390075;fill-opacity:1;fill-rule:nonzero;stroke:none;stroke-width:0.00234197"
       id="path150" />
    <path
       d="m 1010.1213,3228.759 h -2e-4 v 2e-4 c -2e-4,0 -5e-4,0 -5e-4,0.01 0,0.032 0.01,0.061 0.024,0.086 0.039,-0.027 0.078,-0.053 0.1188,-0.078 -0.047,-0.01 -0.094,-0.011 -0.142,-0.016 m 3.8432,0.788 c 0.1195,0.1715 0.2199,0.3579 0.2984,0.5565 0.4796,0.1777 0.9534,0.3672 1.4166,0.5747 0.1438,0.065 0.2865,0.1305 0.4275,0.1986 l 0.2093,0.1042 0.1078,0.055 c 0.037,0.019 0.058,0.033 0.088,0.048 0.1215,0.07 0.2597,0.1572 0.3932,0.2415 l 0.4082,0.2585 c 1.0981,0.6893 2.2216,1.3623 3.4349,1.9113 0.1525,0.068 0.3076,0.1321 0.4628,0.1963 l 0.2382,0.089 0.1192,0.044 0.1115,0.039 c 0.2953,0.1043 0.585,0.2185 0.8611,0.3488 0.2743,0.1304 0.5399,0.2763 0.7565,0.444 0.1072,0.083 0.1998,0.1733 0.2616,0.2581 0.063,0.086 0.086,0.1555 0.083,0.2058 4e-4,0.05 -0.021,0.1185 -0.085,0.2043 -0.032,0.042 -0.069,0.085 -0.1156,0.1281 l -0.034,0.032 -0.045,0.04 -0.09,0.08 -0.3843,0.3417 c 0.129,0.072 0.2557,0.1428 0.3796,0.2133 0.1244,-0.1112 0.2614,-0.2332 0.4131,-0.3691 0.9638,-0.8627 -0.032,-1.6766 -1.9651,-2.3541 -1.9342,-0.6761 -4.5671,-2.5258 -5.0882,-2.7797 -0.2164,-0.1056 -1.112,-0.6244 -2.664,-1.112"
       style="fill:#390075;fill-opacity:1;fill-rule:nonzero;stroke:none;stroke-width:0.00234197"
       id="path152" />
    <path
       d="m 992.00947,3259.429 c 0.31452,-3.38 2.08904,-5.4425 2.08904,-5.4425 l 0.17283,-0.081 c 0.47402,0.675 1.35038,1.3389 2.34127,1.9384 0.78667,0.4738 1.64571,0.9059 2.4298,1.268 1.60219,0.7396 2.22929,2.6844 1.38429,4.2331 -0.84657,1.549 -1.8754,2.8949 -2.86746,3.9994 -0.75295,0.8373 -1.48575,1.5359 -2.09888,2.0776 -0.84334,0.7438 -2.17054,0.3974 -2.54783,-0.6616 -0.5862,-1.6432 -1.19417,-4.2067 -0.90306,-7.3318"
       style="fill:#ff6c6c;fill-opacity:1;fill-rule:nonzero;stroke:none;stroke-width:0.00234197"
       id="path154" />
    <path
       d="m 996.64681,3255.9266 c -0.12436,0.5145 -0.21148,1.0367 -0.25926,1.5536 v 0 c -0.29181,3.135 0.32764,5.7044 0.89885,7.3079 0.063,0.1773 0.1548,0.3375 0.27307,0.4771 1.13492,-1.2696 2.08389,-2.5966 2.82093,-3.9451 0.3988,-0.7311 0.4782,-1.6031 0.2171,-2.3918 -0.2616,-0.7914 -0.82182,-1.4193 -1.57734,-1.768 -0.89697,-0.4143 -1.69512,-0.8291 -2.37335,-1.2337"
       style="fill:#c34b6f;fill-opacity:1;fill-rule:nonzero;stroke:none;stroke-width:0.00234197"
       id="path156" />
    <path
       d="m 996.57842,3255.7621 -0.0134,0.053 c 0.0159,0.01 0.0316,0.019 0.0475,0.029 0.78667,0.4738 1.64571,0.9059 2.4298,1.268 1.60218,0.7396 2.22928,2.6844 1.38428,4.2331 -0.84656,1.549 -1.87539,2.8949 -2.86745,3.9994 -0.012,0.013 -0.0239,0.026 -0.0356,0.039 l 0.0361,0.039 0.0389,-0.044 c 1.15788,-1.2888 2.12488,-2.6377 2.87455,-4.009 0.4129,-0.7571 0.4949,-1.6593 0.2249,-2.4757 -0.271,-0.8197 -0.85115,-1.4698 -1.63361,-1.8309 -0.92086,-0.4253 -1.73657,-0.8511 -2.42464,-1.2654 l -0.0614,-0.037"
       style="fill:#ce7333;fill-opacity:1;fill-rule:nonzero;stroke:none;stroke-width:0.00234197"
       id="path158" />
    <path
       d="m 996.56507,3255.8155 -0.004,0.016 c -0.13466,0.5421 -0.22858,1.0934 -0.27893,1.6391 -0.29368,3.1539 0.32975,5.7395 0.90447,7.3531 0.0745,0.2094 0.18666,0.3967 0.3335,0.5567 h 0.004 c 0.0117,-0.013 0.0236,-0.026 0.0356,-0.039 0.99206,-1.1045 2.02089,-2.4504 2.86749,-3.9994 0.845,-1.5487 0.2179,-3.4935 -1.38432,-4.2331 -0.78409,-0.3621 -1.64313,-0.7942 -2.4298,-1.268 -0.0159,-0.01 -0.0316,-0.019 -0.0475,-0.029 m 0.9944,9.4497 c -0.11827,-0.1396 -0.21007,-0.2998 -0.27307,-0.4771 -0.57121,-1.6035 -1.19066,-4.1729 -0.89885,-7.3079 v 0 c 0.0478,-0.5169 0.1349,-1.0391 0.25926,-1.5536 0.67823,0.4046 1.47638,0.8194 2.37335,1.2337 0.75552,0.3487 1.31573,0.9766 1.57733,1.768 0.2611,0.7887 0.1817,1.6607 -0.2171,2.3918 -0.73703,1.3485 -1.686,2.6755 -2.82092,3.9451"
       style="fill:#d25363;fill-opacity:1;fill-rule:nonzero;stroke:none;stroke-width:0.00234197"
       id="path160" />
    <path
       d="m 994.40554,3253.6183 c -0.0595,-0.041 -0.22038,-0.026 -0.21991,-0.018 l -0.0248,0.01 c -0.0152,0 -0.0356,0.012 -0.0436,0.016 -0.0211,0.01 -0.0426,0.019 -0.0625,0.03 -0.0304,0.019 -0.066,0.039 -0.0906,0.059 l -0.0747,0.059 -0.0632,0.059 c -0.0813,0.078 -0.14918,0.1576 -0.21194,0.2377 -0.12624,0.1597 -0.23186,0.3227 -0.33163,0.4873 -0.19883,0.3291 -0.36535,0.6656 -0.52319,1.0047 -0.0785,0.1696 -0.15575,0.3396 -0.22694,0.511 -0.0745,0.1708 -0.14474,0.3424 -0.21218,0.515 l -0.10329,0.2584 -0.0934,0.2698 c -0.0618,0.1805 -0.12764,0.3599 -0.17096,0.5449 -0.40891,1.4689 -0.45435,2.9917 -0.34919,4.4777 0.055,0.7447 0.15387,1.4843 0.28947,2.2166 0.0684,0.3661 0.14403,0.731 0.23209,1.0933 0.0422,0.1817 0.0888,0.3623 0.13747,0.5426 l 0.0361,0.1356 0.0421,0.1417 c 0.0283,0.094 0.0614,0.1885 0.096,0.2822 0.14052,0.3738 0.33561,0.745 0.62531,1.0682 0.1459,0.1597 0.31593,0.3063 0.51031,0.4222 0.0459,0.029 0.10165,0.058 0.15902,0.085 0.0579,0.025 0.11617,0.049 0.17659,0.067 0.12061,0.037 0.24544,0.059 0.3712,0.064 0.2513,0.012 0.50376,-0.046 0.72789,-0.1595 0.0562,-0.028 0.1096,-0.061 0.1623,-0.096 l 0.0759,-0.056 c 0.0255,-0.019 0.0386,-0.031 0.0585,-0.047 0.0726,-0.06 0.14708,-0.1178 0.21828,-0.1789 0.28923,-0.2396 0.56605,-0.4914 0.83889,-0.7471 0.54193,-0.515 1.05553,-1.0584 1.53961,-1.627 0.48386,-0.5686 0.94218,-1.1605 1.35577,-1.7832 0.10797,-0.1524 0.2061,-0.3117 0.3068,-0.4691 0.0995,-0.1581 0.20282,-0.314 0.29485,-0.4768 l 0.28344,-0.4839 0.2653,-0.4943 c 0.09,-0.1638 0.1728,-0.3317 0.2522,-0.5012 l 0.1209,-0.2532 c 0.04,-0.088 0.081,-0.1595 0.1201,-0.2656 0.1644,-0.3937 0.2405,-0.8253 0.2206,-1.2513 -0.031,-0.8553 -0.4768,-1.674 -1.15902,-2.1808 -0.0834,-0.066 -0.17682,-0.1176 -0.26511,-0.1759 -0.0918,-0.053 -0.18806,-0.097 -0.28221,-0.1452 l -0.49603,-0.222 c -0.32905,-0.1495 -0.65435,-0.3064 -0.97613,-0.4689 -0.64311,-0.3248 -1.26982,-0.6794 -1.86117,-1.0745 -0.29368,-0.1993 -0.58198,-0.4066 -0.84381,-0.6358 -0.0682,-0.055 -0.13139,-0.1143 -0.19345,-0.1741 -0.0618,-0.06 -0.12834,-0.1168 -0.18384,-0.1808 l -0.0869,-0.093 -0.0436,-0.047 -0.0218,-0.023 -0.0314,-0.038 c -0.0848,-0.1023 -0.17776,-0.2 -0.2705,-0.2878 z m -0.26675,0.5759 c 0.0187,0.057 0.0375,0.1044 0.0644,0.1471 l 0.0108,0.016 0.0241,0.027 0.0482,0.055 0.097,0.1103 c 0.0632,0.076 0.13396,0.1407 0.20164,0.2101 0.0679,0.069 0.13677,0.137 0.20891,0.1995 0.28197,0.2614 0.58315,0.4909 0.88878,0.7115 0.61289,0.4389 1.25881,0.8143 1.91409,1.1649 0.32834,0.1747 0.65927,0.3428 0.99346,0.503 l 0.50166,0.2373 c 0.0677,0.037 0.13794,0.07 0.20422,0.1091 0.0628,0.045 0.13115,0.081 0.19016,0.1305 0.48643,0.373 0.80189,0.9695 0.81359,1.5829 0.01,0.3054 -0.049,0.6106 -0.1702,0.8907 -0.023,0.066 -0.073,0.1548 -0.1097,0.2327 l -0.11916,0.2408 c -0.0789,0.1604 -0.15621,0.322 -0.24403,0.4782 l -0.25457,0.4731 -0.27261,0.463 c -0.0881,0.156 -0.18782,0.3049 -0.28361,0.4565 -0.0967,0.1508 -0.19087,0.3033 -0.29486,0.4494 -0.80353,1.1867 -1.72626,2.297 -2.7565,3.2942 -0.25855,0.2476 -0.52132,0.4916 -0.79346,0.7218 -0.0672,0.059 -0.13654,0.1141 -0.20469,0.1714 -0.0157,0.013 -0.037,0.031 -0.0482,0.039 l -0.0342,0.026 c -0.0244,0.015 -0.0482,0.031 -0.0738,0.044 -0.10164,0.052 -0.21733,0.082 -0.33209,0.077 -0.0574,0 -0.11405,-0.011 -0.16885,-0.027 -0.0276,-0.01 -0.0539,-0.019 -0.0803,-0.029 -0.0248,-0.013 -0.0511,-0.024 -0.0829,-0.044 -0.12085,-0.07 -0.23303,-0.1637 -0.33514,-0.2726 -0.20258,-0.2209 -0.36253,-0.5047 -0.48174,-0.8139 -0.0295,-0.077 -0.0583,-0.1562 -0.0831,-0.2368 l -0.0375,-0.1208 -0.0358,-0.1295 c -0.0487,-0.1726 -0.0953,-0.3459 -0.13795,-0.5204 -0.0883,-0.3483 -0.1651,-0.6998 -0.2349,-1.0527 -0.13841,-0.7057 -0.24098,-1.4185 -0.30141,-2.1336 -0.1171,-1.4262 -0.0843,-2.878 0.28127,-4.241 0.0379,-0.1726 0.0972,-0.3375 0.15223,-0.504 l 0.0831,-0.2501 0.0979,-0.2527 c 0.0642,-0.1691 0.13091,-0.3368 0.20094,-0.5024 0.0675,-0.1674 0.14005,-0.3314 0.21335,-0.4949 0.14755,-0.3257 0.30329,-0.6482 0.48034,-0.9475 0.0883,-0.1494 0.18127,-0.2949 0.2808,-0.4234 0.0492,-0.065 0.10071,-0.1246 0.15059,-0.1738 l 0.0368,-0.036 0.033,-0.026 c 0.011,-0.01 0.0162,-0.01 0.0239,-0.017 h -9.4e-4 c 0.002,0 -0.007,0 -0.0115,0 h -0.008 c 0.006,0.01 -0.14942,0.021 -0.20305,-0.022"
       style="fill:#390075;fill-opacity:1;fill-rule:nonzero;stroke:none;stroke-width:0.00234197"
       id="path162" />
    <path
       d="m 1024.0943,3255.7069 c -1.0799,-3.2181 -3.2795,-4.8198 -3.2795,-4.8198 l -0.1867,-0.039 c -0.307,0.7655 -1.0082,1.6124 -1.8354,2.4227 -0.6571,0.6413 -1.3946,1.2588 -2.075,1.7907 -1.3904,1.0867 -1.5557,3.1235 -0.3784,4.4376 1.1785,1.314 2.4883,2.3888 3.7069,3.2366 0.9246,0.6426 1.7979,1.155 2.5187,1.5419 0.9912,0.5312 2.2038,-0.1098 2.3287,-1.2272 0.1946,-1.7337 0.1995,-4.3682 -0.7993,-7.3439"
       style="fill:#ff6c6c;fill-opacity:1;fill-rule:nonzero;stroke:none;stroke-width:0.00234197"
       id="path164" />
    <path
       d="m 1018.7782,3253.3593 c -0.5681,0.5496 -1.2501,1.1361 -2.0279,1.7443 -0.6555,0.5124 -1.0572,1.2518 -1.1307,2.0822 -0.073,0.8275 0.2033,1.6579 0.759,2.2783 1.026,1.1441 2.2535,2.2186 3.6491,3.1947 0.083,-0.163 0.1358,-0.3401 0.1564,-0.527 0.1892,-1.6913 0.2042,-4.334 -0.7979,-7.3196 v 0 c -0.1644,-0.4913 -0.3689,-0.9798 -0.608,-1.4529"
       style="fill:#c34b6f;fill-opacity:1;fill-rule:nonzero;stroke:none;stroke-width:0.00234197"
       id="path166" />
    <path
       d="m 1018.807,3253.1834 -0.051,0.05 c -0.5757,0.5614 -1.2724,1.1626 -2.0708,1.7867 -0.6789,0.5305 -1.0946,1.2963 -1.171,2.1563 -0.076,0.8564 0.2103,1.7162 0.7855,2.3583 1.0436,1.1633 2.294,2.2549 3.7162,3.2448 l 0.048,0.033 0.026,-0.047 c -0.014,-0.01 -0.029,-0.02 -0.043,-0.03 -1.2186,-0.8478 -2.5284,-1.9226 -3.7069,-3.2366 -1.1773,-1.3141 -1.012,-3.3509 0.3784,-4.4376 0.6804,-0.5319 1.4179,-1.1494 2.075,-1.7907 0.013,-0.013 0.027,-0.026 0.04,-0.039 l -0.025,-0.049"
       style="fill:#ce7333;fill-opacity:1;fill-rule:nonzero;stroke:none;stroke-width:0.00234197"
       id="path168" />
    <path
       d="m 1018.8323,3253.2326 c -0.013,0.013 -0.027,0.026 -0.04,0.039 -0.6571,0.6413 -1.3946,1.2588 -2.075,1.7907 -1.3904,1.0867 -1.5557,3.1235 -0.3784,4.4376 1.1785,1.314 2.4883,2.3888 3.7069,3.2366 0.014,0.01 0.029,0.02 0.043,0.03 v 0 c 0.1063,-0.1895 0.1726,-0.3977 0.197,-0.6185 0.1901,-1.702 0.2053,-4.3613 -0.8026,-7.3648 v 0 c -0.1736,-0.5186 -0.3911,-1.0338 -0.6469,-1.5317 l -0.01,-0.015 m 1.1954,9.4262 c -1.3956,-0.9761 -2.6231,-2.0506 -3.6491,-3.1947 -0.5557,-0.6204 -0.8323,-1.4508 -0.759,-2.2783 0.073,-0.8304 0.4752,-1.5698 1.1307,-2.0822 0.7778,-0.6082 1.4598,-1.1947 2.0279,-1.7443 0.2391,0.4731 0.4436,0.9616 0.608,1.4529 v 0 c 1.0021,2.9856 0.9871,5.6283 0.7979,7.3196 -0.021,0.1869 -0.073,0.364 -0.1564,0.527"
       style="fill:#d25363;fill-opacity:1;fill-rule:nonzero;stroke:none;stroke-width:0.00234197"
       id="path170" />
    <path
       d="m 1020.8232,3251.0988 c -0.043,0.053 -0.1972,0.074 -0.193,0.067 h -0.01 c 0,3e-4 -0.014,0 -0.012,0 h -9e-4 c 0.01,0 0.014,0 0.027,0.011 l 0.038,0.018 0.044,0.026 c 0.06,0.036 0.1236,0.083 0.1864,0.1346 0.1262,0.1024 0.2499,0.2227 0.37,0.3478 0.241,0.2511 0.4663,0.5293 0.6846,0.8127 0.1089,0.1421 0.2171,0.2852 0.3208,0.4328 0.1064,0.1452 0.2096,0.2932 0.3108,0.4431 l 0.1532,0.2236 0.1382,0.2242 c 0.091,0.1496 0.1871,0.2964 0.2637,0.4557 0.6677,1.2434 1.0318,2.6492 1.2447,4.0643 0.1047,0.7096 0.1679,1.4272 0.1949,2.1459 0.013,0.3593 0.019,0.7192 0.012,1.0785 0,0.1796 -0.01,0.359 -0.015,0.5379 l -0.01,0.1345 -0.01,0.1262 c -0.01,0.084 -0.016,0.1672 -0.027,0.2494 -0.045,0.3284 -0.1359,0.6413 -0.2827,0.9026 -0.074,0.1293 -0.1621,0.2459 -0.2637,0.3419 -0.026,0.026 -0.049,0.044 -0.07,0.062 -0.024,0.016 -0.047,0.033 -0.072,0.047 -0.05,0.028 -0.103,0.05 -0.1583,0.065 -0.1105,0.031 -0.2297,0.029 -0.3407,9e-4 -0.028,-0.01 -0.055,-0.017 -0.082,-0.026 l -0.039,-0.018 c -0.013,-0.01 -0.038,-0.019 -0.056,-0.027 -0.08,-0.04 -0.1598,-0.078 -0.2384,-0.1199 -0.3178,-0.1618 -0.6293,-0.3391 -0.9378,-0.5211 -1.2311,-0.7349 -2.3834,-1.6045 -3.4373,-2.5757 -0.1346,-0.1183 -0.2613,-0.2452 -0.3899,-0.37 -0.1281,-0.1253 -0.259,-0.2476 -0.3808,-0.3792 l -0.3712,-0.3885 -0.3562,-0.4022 c -0.1211,-0.1318 -0.2333,-0.2714 -0.3471,-0.4098 l -0.171,-0.207 c -0.054,-0.067 -0.1222,-0.1422 -0.1599,-0.2014 -0.1822,-0.2448 -0.3089,-0.5286 -0.3696,-0.8279 -0.1293,-0.5998 0.041,-1.2527 0.4295,-1.7272 0.046,-0.062 0.1045,-0.1129 0.1553,-0.1705 0.055,-0.053 0.1164,-0.1012 0.1738,-0.153 l 0.4339,-0.3459 c 0.2888,-0.2325 0.5724,-0.4719 0.8518,-0.7171 0.5576,-0.4913 1.1005,-1.0047 1.5968,-1.5721 0.247,-0.2846 0.4876,-0.5771 0.7021,-0.8961 0.056,-0.077 0.1077,-0.159 0.1578,-0.2419 0.05,-0.083 0.104,-0.1623 0.148,-0.2508 l 0.069,-0.1298 0.034,-0.065 0.017,-0.032 0.01,-0.018 c 0.017,-0.048 0.024,-0.098 0.029,-0.1579 z m -0.3916,-0.4998 c -0.07,0.1068 -0.1384,0.2232 -0.1974,0.3422 l -0.022,0.044 -0.016,0.028 -0.032,0.055 -0.063,0.1108 c -0.039,0.075 -0.091,0.1456 -0.1374,0.218 -0.047,0.072 -0.095,0.1443 -0.1485,0.2136 -0.2024,0.2831 -0.4356,0.5511 -0.6759,0.8122 -0.485,0.5201 -1.0139,1.0087 -1.5659,1.4722 -0.2758,0.2318 -0.5566,0.459 -0.8428,0.6798 l -0.4319,0.3298 c -0.081,0.068 -0.1642,0.1335 -0.2415,0.2058 -0.073,0.077 -0.1517,0.1488 -0.2178,0.2319 -0.548,0.6494 -0.7944,1.5485 -0.629,2.3881 0.078,0.4195 0.251,0.822 0.5012,1.1677 0.062,0.094 0.1187,0.1544 0.1777,0.2312 l 0.1757,0.2187 c 0.1159,0.1469 0.2346,0.2914 0.3604,0.43 l 0.3712,0.4206 0.3867,0.4061 c 0.1269,0.1375 0.263,0.2656 0.3962,0.3965 0.134,0.1305 0.2661,0.2628 0.4059,0.3867 0.5454,0.5115 1.1269,0.9824 1.7281,1.4253 0.6015,0.4429 1.2256,0.8543 1.8713,1.2314 0.3241,0.1864 0.651,0.3682 0.9876,0.5351 0.083,0.043 0.1691,0.083 0.2534,0.1242 0.023,0.011 0.038,0.019 0.068,0.032 l 0.087,0.037 c 0.059,0.021 0.1188,0.041 0.1799,0.056 0.244,0.059 0.503,0.058 0.7452,-0.012 0.1208,-0.034 0.2377,-0.083 0.3466,-0.1468 0.055,-0.031 0.1061,-0.068 0.1565,-0.1056 0.05,-0.04 0.097,-0.081 0.1353,-0.1195 0.1628,-0.1576 0.2946,-0.3391 0.4,-0.5279 0.2082,-0.3808 0.3131,-0.7871 0.3644,-1.1829 0.012,-0.099 0.023,-0.1984 0.029,-0.2967 l 0.01,-0.1478 v -0.1401 c 0.01,-0.1866 0.01,-0.3733 0.01,-0.5597 0,-0.3728 -0.01,-0.7452 -0.024,-1.1173 -0.036,-0.7441 -0.1089,-1.4865 -0.2257,-2.2242 -0.2377,-1.4705 -0.6305,-2.9422 -1.3649,-4.2788 -0.085,-0.17 -0.1897,-0.3297 -0.2911,-0.4911 l -0.153,-0.2412 -0.1595,-0.2279 c -0.1051,-0.1525 -0.2131,-0.3035 -0.3246,-0.4527 -0.1084,-0.1508 -0.2224,-0.2986 -0.3377,-0.4457 -0.2316,-0.2939 -0.4705,-0.5834 -0.7396,-0.8583 -0.1346,-0.1373 -0.2749,-0.2717 -0.4344,-0.3984 -0.079,-0.064 -0.1635,-0.1251 -0.2607,-0.1829 l -0.075,-0.043 -0.086,-0.04 c -0.028,-0.013 -0.068,-0.025 -0.1016,-0.036 -0.022,-0.01 -0.045,-0.011 -0.068,-0.015 -0.01,0 -0.03,0 -0.046,-0.01 h -0.025 c 0,-0.01 -0.1618,0.014 -0.2101,0.068"
       style="fill:#390075;fill-opacity:1;fill-rule:nonzero;stroke:none;stroke-width:0.00234197"
       id="path172" />
    <path
       d="m 1011.7122,3228.6833 c -0.1175,0 -0.2365,0.01 -0.3536,0.026 -1.281,0.1871 -2.1799,1.3288 -2.0668,2.6118 l -10.83816,1.5834 c -0.22717,-1.1319 -1.2183,-1.9481 -2.3757,-1.9481 -0.11757,0 -0.23677,0.01 -0.35387,0.026 -1.32415,0.1934 -2.24431,1.4281 -2.05087,2.7525 0.1068,0.7312 0.52952,1.3602 1.1635,1.7361 -0.49978,0.5417 -0.72485,1.2654 -0.61805,1.9963 0.17307,1.1839 1.20424,2.0767 2.39888,2.0767 0.11757,0 0.23654,-0.01 0.35364,-0.026 1.28691,-0.1881 2.18506,-1.3345 2.06562,-2.6228 l 10.83721,-1.5834 c 0.2228,1.1382 1.2148,1.9591 2.3778,1.9591 0.1176,0 0.2366,-0.01 0.3539,-0.026 1.3242,-0.1935 2.2441,-1.4282 2.0509,-2.7525 -0.1071,-0.7312 -0.5298,-1.3603 -1.1635,-1.7362 0.5,-0.5417 0.7248,-1.2653 0.618,-1.9965 -0.173,-1.1836 -1.2042,-2.0764 -2.3986,-2.0764 h -3e-4"
       style="fill:#ffffff;fill-opacity:1;fill-rule:nonzero;stroke:none;stroke-width:0.00234197"
       id="path174" />
    <path
       d="m 996.61753,3239.5967 c -1.22063,0 -2.27452,-0.9122 -2.45111,-2.1218 -0.10609,-0.7258 0.10773,-1.4443 0.58831,-1.9921 -0.61735,-0.3874 -1.02766,-1.0148 -1.13375,-1.7406 -0.19767,-1.3529 0.74217,-2.6148 2.09536,-2.8125 0.11968,-0.017 0.24146,-0.026 0.3616,-0.026 1.16607,0 2.16656,0.8103 2.41715,1.9413 l 10.74031,-1.5691 c -0.088,-1.2907 0.8232,-2.4301 2.1155,-2.6191 0.1197,-0.017 0.2414,-0.026 0.3613,-0.026 1.2207,0 2.2746,0.9122 2.4512,2.1218 0.106,0.7256 -0.1078,1.4443 -0.5883,1.9921 0.6171,0.3874 1.0276,1.0145 1.1337,1.7403 0.1977,1.3532 -0.7424,2.6151 -2.0954,2.8127 -0.1199,0.018 -0.2414,0.026 -0.3613,0.026 -1.1717,0 -2.1734,-0.815 -2.4198,-1.9523 l -10.73884,1.5691 c 0.0946,1.2958 -0.81641,2.4404 -2.11456,2.63 -0.11968,0.017 -0.24146,0.026 -0.36137,0.026 m 0,-0.1056 c 0.11406,0 0.22975,-0.01 0.34614,-0.025 1.27146,-0.186 2.15907,-1.3478 2.01527,-2.6156 l 10.93776,-1.5981 c 0.2,1.1469 1.1976,1.9658 2.3354,1.9658 0.114,0 0.2295,-0.01 0.3459,-0.025 1.2974,-0.1897 2.1956,-1.3951 2.0061,-2.6925 -0.1112,-0.7609 -0.5719,-1.3841 -1.1956,-1.7314 0.4982,-0.5113 0.7614,-1.2404 0.6502,-2.0013 -0.1724,-1.181 -1.1869,-2.0314 -2.3465,-2.0314 -0.114,0 -0.2297,0.01 -0.3461,0.025 -1.2679,0.1853 -2.1539,1.341 -2.0167,2.6045 l -10.93839,1.5982 c -0.20445,-1.141 -1.19909,-1.9549 -2.33307,-1.9549 -0.11429,0 -0.22998,0.01 -0.34614,0.025 -1.29769,0.1897 -2.1956,1.3951 -2.00614,2.6926 0.11125,0.7609 0.57191,1.3841 1.19558,1.7314 -0.49814,0.5113 -0.76137,1.2403 -0.65013,2.0012 0.1726,1.1811 1.18691,2.0315 2.34642,2.0315"
       style="fill:#390075;fill-opacity:1;fill-rule:nonzero;stroke:none;stroke-width:0.00234197"
       id="path176" />
    <path
       d="m 998.41055,3233.3342 c 0.018,0 0.0361,0 0.0541,0 l 10.93845,-1.5982 c 0.1969,-0.029 0.336,-0.2082 0.3145,-0.4063 -0.1171,-1.0759 0.6307,-2.0415 1.7021,-2.198 1.0928,-0.1597 2.113,0.5998 2.2727,1.6933 0.091,0.622 -0.1094,1.2377 -0.5492,1.689 -0.081,0.083 -0.1178,0.1979 -0.1012,0.312 0.017,0.114 0.086,0.2138 0.1862,0.27 0.5506,0.3065 0.9185,0.8393 1.0096,1.4616 0.1595,1.0932 -0.6,2.1127 -1.6932,2.2724 -1.0811,0.1579 -2.0755,-0.5613 -2.2631,-1.6375 -0.034,-0.1976 -0.2208,-0.3316 -0.4182,-0.3028 l -10.93799,1.5979 c -0.19766,0.029 -0.33677,0.2096 -0.31429,0.4082 0.12248,1.0806 -0.62461,2.05 -1.70098,2.2073 -1.09393,0.16 -2.11292,-0.5997 -2.27265,-1.6932 -0.0909,-0.622 0.10914,-1.2377 0.54896,-1.6893 0.0806,-0.082 0.11804,-0.1976 0.10141,-0.3117 -0.0169,-0.114 -0.0857,-0.2138 -0.18619,-0.27 -0.5506,-0.3068 -0.91852,-0.8394 -1.00939,-1.4614 -0.15995,-1.0935 0.59978,-2.1129 1.69301,-2.2727 1.07591,-0.1576 2.06961,0.5579 2.26141,1.6284 0.0321,0.1787 0.1876,0.3049 0.36395,0.3049 m 13.30075,-4.9682 c -0.1318,0 -0.2646,0.01 -0.3986,0.029 -1.3476,0.1968 -2.3211,1.3279 -2.3474,2.6528 l -10.27559,1.5012 c -0.40024,-1.2689 -1.65742,-2.0788 -3.01154,-1.8809 -1.49746,0.2188 -2.53753,1.6151 -2.31879,3.1125 0.10305,0.7052 0.46558,1.3265 1.01524,1.7577 -0.40328,0.5705 -0.57308,1.2696 -0.47003,1.9747 0.21874,1.4975 1.61456,2.538 3.11248,2.319 1.35366,-0.1976 2.32722,-1.3337 2.34736,-2.6639 l 10.27237,-1.5008 c 0.3958,1.2759 1.6555,2.0902 3.0148,1.8916 1.4972,-0.2187 2.5375,-1.615 2.3188,-3.1125 -0.103,-0.7054 -0.4658,-1.3264 -1.0152,-1.7576 0.403,-0.5705 0.573,-1.2696 0.47,-1.9748 -0.1993,-1.3635 -1.375,-2.348 -2.7139,-2.348"
       style="fill:#390075;fill-opacity:1;fill-rule:nonzero;stroke:none;stroke-width:0.00234197"
       id="path178" />
    <path
       d="m 1011.7104,3229.1065 c -0.096,0 -0.193,0.01 -0.2907,0.021 -1.0714,0.1565 -1.8192,1.1221 -1.7021,2.198 0.022,0.1981 -0.1176,0.3775 -0.3145,0.4063 l -10.93845,1.5982 c -0.018,0 -0.0361,0 -0.0541,0 -0.17635,0 -0.33186,-0.1262 -0.36395,-0.3049 -0.17401,-0.9712 -1.00798,-1.6501 -1.96468,-1.6501 -0.0979,0 -0.19696,0.01 -0.29673,0.022 -1.09323,0.1598 -1.85296,1.1792 -1.69301,2.2727 0.0909,0.622 0.45879,1.1546 1.00939,1.4614 0.0852,0.047 0.14778,0.1267 0.17495,0.219 0.0384,-0.5029 -0.0792,-1.1586 -0.15785,-1.4792 v 0 c 0.11803,-0.7787 0.54872,-1.1331 1.04522,-1.1331 0.44029,0 0.93187,0.2787 1.30237,0.7874 0.21195,0.1475 0.47776,0.789 1.03281,0.789 0.0333,0 0.0675,0 0.10258,-0.01 l 11.17615,-1.5026 c 0.2295,-0.031 0.4192,-0.1941 0.4873,-0.4157 0.1656,-0.5367 0.4143,-0.8543 0.6464,-1.0419 0.1804,-0.1459 0.4045,-0.2216 0.6274,-0.2216 0.1986,0 0.3963,0.06 0.5614,0.1839 0.433,0.3253 0.3614,0.874 0.2089,1.3024 -0.1145,0.3224 0.023,0.6759 0.3241,0.8386 1.0666,0.5776 1.2464,1.9624 1.2748,2.52 0.2747,-0.4012 0.4051,-0.9024 0.3297,-1.4202 -0.091,-0.6223 -0.459,-1.1551 -1.0096,-1.4616 -0.1007,-0.056 -0.1696,-0.156 -0.1862,-0.27 -0.017,-0.1141 0.021,-0.2293 0.1012,-0.312 0.4398,-0.4513 0.6401,-1.067 0.5492,-1.689 -0.1455,-0.9958 -1.0043,-1.7146 -1.982,-1.7146 m -16.48868,6.5683 c -0.0105,0.015 -0.0225,0.029 -0.0354,0.042 -0.089,0.092 -0.16815,0.1895 -0.23701,0.293 l 0.0351,-0.015 c 0.11546,-0.05 0.19087,-0.1656 0.23725,-0.3199"
       style="fill:#c3b2d5;fill-opacity:1;fill-rule:nonzero;stroke:none;stroke-width:0.00234197"
       id="path180" />
    <path
       d="m 1011.3717,3228.781 -0.8677,0.2838 -0.9775,1.1125 -0.1829,1.3042 -10.75577,1.4567 -0.33794,-0.5051 -1.02649,-1.1265 -0.99745,-0.2923 -1.17192,0.2253 -1.08152,1.0422 -0.27214,1.1042 0.4698,1.4153 0.70025,1.2426 0.0789,-0.034 c 0.0689,-0.1035 0.14802,-0.2014 0.23701,-0.293 0.0129,-0.013 0.0248,-0.027 0.0354,-0.042 0.0283,-0.094 0.0459,-0.2035 0.0548,-0.3208 -0.0272,-0.092 -0.0897,-0.1715 -0.17495,-0.219 -0.5506,-0.3068 -0.91852,-0.8394 -1.00939,-1.4614 -0.15995,-1.0935 0.59978,-2.1129 1.69301,-2.2727 0.0998,-0.015 0.19884,-0.022 0.29673,-0.022 0.9567,0 1.79067,0.6789 1.96468,1.6501 0.0321,0.1787 0.1876,0.3049 0.36395,0.3049 0.018,0 0.0361,0 0.0541,0 l 10.93844,-1.5982 c 0.1969,-0.029 0.336,-0.2082 0.3145,-0.4063 -0.1171,-1.0759 0.6307,-2.0415 1.7021,-2.198 0.098,-0.014 0.1949,-0.021 0.2907,-0.021 0.9777,0 1.8365,0.7188 1.982,1.7146 0.091,0.622 -0.1094,1.2377 -0.5492,1.689 -0.081,0.083 -0.1178,0.1979 -0.1012,0.312 0.017,0.114 0.086,0.2138 0.1862,0.27 0.5506,0.3065 0.9185,0.8393 1.0096,1.4616 0.075,0.5178 -0.055,1.019 -0.3297,1.4202 0.01,0.1489 0,0.2386 0,0.2386 1.4823,-1.9733 0.035,-3.0333 0.035,-3.0333 l -0.4661,-0.4902 0.4335,-0.373 0.16,-0.9998 v -0.5071 l -0.8562,-1.4553 -0.727,-0.5461 -1.1171,-0.027"
       style="fill:#390075;fill-opacity:1;fill-rule:nonzero;stroke:none;stroke-width:0.00234197"
       id="path182" />
    <path
       d="m 1000.1466,3237.5781 c 0.3052,-1.4443 1.3027,-2.6199 2.5519,-2.5839 1.426,0.041 1.8843,1.1263 2.0066,1.5345 h 0.028 -0.02 0.028 c 0.026,-0.4255 0.2232,-1.5867 1.6021,-1.9532 1.2078,-0.3211 2.4479,0.5951 3.0753,1.931 l -0.5951,2.1197 -6.7695,1.2803 -1.9071,-2.3244"
       style="fill:#ffffff;fill-opacity:1;fill-rule:nonzero;stroke:none;stroke-width:0.00234197"
       id="path184" />
    <path
       d="m 1000.2061,3237.5905 c 0.219,-0.232 0.3661,-0.4527 0.5113,-0.6674 0.074,-0.1059 0.1377,-0.2138 0.2073,-0.3171 0.03,-0.054 0.065,-0.1052 0.1016,-0.1548 0.036,-0.05 0.069,-0.1021 0.1089,-0.1476 0.3002,-0.3831 0.6775,-0.6784 1.0878,-0.8019 0.1019,-0.034 0.2073,-0.051 0.3129,-0.063 l 0.1612,-0.01 0.1735,0.01 c 0.2283,0.021 0.445,0.077 0.6382,0.1766 0.1932,0.098 0.3646,0.2391 0.5028,0.4173 0.137,0.1773 0.2464,0.3897 0.3134,0.6082 h 9e-4 c 0.056,0.182 0.2307,0.2946 0.4129,0.2789 h 0.028 l -0.079,-0.7893 h -0.02 l 0.1032,0.7867 h 0.028 c 0.1883,-0.028 0.3262,-0.1836 0.3384,-0.366 v 0 c 0.031,-0.4614 0.2178,-0.9122 0.5476,-1.1989 0.1637,-0.1464 0.3618,-0.2578 0.581,-0.3377 l 0.1689,-0.052 c 0.055,-0.012 0.1082,-0.021 0.1623,-0.031 0.1086,-0.011 0.2178,-0.017 0.3269,0 0.2178,0.023 0.4319,0.09 0.6427,0.1816 0.2119,0.09 0.4224,0.207 0.6248,0.3501 0.203,0.1421 0.4026,0.3037 0.5965,0.4836 0.1939,0.1803 0.3773,0.3789 0.5759,0.5874 v 0 c 0.024,0.025 0.064,0.026 0.09,0 0.015,-0.015 0.022,-0.036 0.019,-0.055 -0.042,-0.2909 -0.1398,-0.571 -0.2695,-0.8403 -0.1345,-0.2663 -0.3096,-0.5166 -0.5216,-0.741 -0.211,-0.2248 -0.4656,-0.4197 -0.7567,-0.5616 -0.2911,-0.1408 -0.6197,-0.2241 -0.9548,-0.2335 -0.1675,-0.01 -0.3358,0.01 -0.5007,0.036 -0.081,0.019 -0.1649,0.034 -0.2441,0.054 l -0.2271,0.074 c -0.301,0.1084 -0.5949,0.2705 -0.8441,0.4942 -0.2492,0.222 -0.4506,0.5007 -0.5808,0.8014 -0.1335,0.3012 -0.208,0.6157 -0.229,0.9405 l 0.3384,-0.3688 h -0.028 c -0.2169,0.032 -0.3667,0.2332 -0.3349,0.4501 0.031,0.2127 0.2262,0.3609 0.4382,0.3365 h 0.02 c 0.2178,-0.025 0.3738,-0.2222 0.3485,-0.4398 -0.025,-0.2136 -0.2154,-0.3675 -0.4279,-0.3497 h -0.028 l 0.4139,0.2815 c -0.094,-0.3115 -0.2368,-0.6019 -0.4347,-0.8656 -0.1923,-0.2665 -0.4506,-0.4953 -0.7438,-0.6609 -0.293,-0.1668 -0.6185,-0.2642 -0.9394,-0.3071 l -0.2407,-0.022 c -0.083,0 -0.1694,0 -0.2541,0 -0.1694,0.013 -0.3394,0.039 -0.5019,0.088 -0.3246,0.098 -0.6239,0.2595 -0.8745,0.4658 -0.2527,0.2045 -0.4661,0.4441 -0.6338,0.7059 -0.1688,0.26 -0.3178,0.5314 -0.3901,0.8284 -0.067,0.2972 -0.0836,0.607 0.015,0.9157 0.012,0.037 0.051,0.057 0.088,0.045 0.011,0 0.022,-0.01 0.029,-0.019 v 0"
       style="fill:#390075;fill-opacity:1;fill-rule:nonzero;stroke:none;stroke-width:0.00234197"
       id="path186" />
    <path
       d="m 1004.7477,3236.1652 c -0.016,0 -0.033,0 -0.049,0 -0.1962,0.027 -0.3335,0.2077 -0.3066,0.404 l 0.2804,2.0499 c 0.027,0.1965 0.2077,0.3338 0.4037,0.3068 0.1963,-0.027 0.3338,-0.2077 0.3068,-0.404 l -0.2803,-2.0499 c -0.025,-0.1796 -0.1785,-0.3101 -0.3548,-0.3101"
       style="fill:#390075;fill-opacity:1;fill-rule:nonzero;stroke:none;stroke-width:0.00234197"
       id="path188" />
    <path
       d="m 1007.5857,3238.5772 c -0.1197,-0.8152 -1.445,-1.7375 -2.8816,-1.5265 -1.4368,0.211 -2.441,1.4752 -2.3213,2.2902 0.1196,0.815 1.2944,0.7127 2.7312,0.5017 1.4368,-0.2108 2.5914,-0.4504 2.4717,-1.2654"
       style="fill:#390075;fill-opacity:1;fill-rule:nonzero;stroke:none;stroke-width:0.00234197"
       id="path190" />
    <path
       d="m 1006.1433,3239.0273 c -0.026,-0.1786 -0.567,-0.3442 -1.1907,-0.2527 -0.6237,0.092 -1.0939,0.4054 -1.0677,0.5844 0.026,0.1787 0.534,0.1194 1.1576,0.028 0.6237,-0.091 1.127,-0.1808 1.1008,-0.3595"
       style="fill:#ffffff;fill-opacity:1;fill-rule:nonzero;stroke:none;stroke-width:0.00234197"
       id="path192" />
    <path
       d="m 1004.1952,3239.4269 c -0.1489,0 -0.2546,-0.02 -0.2628,-0.075 -0.019,-0.1269 0.4024,-0.4381 1.0272,-0.5297 0.2813,-0.042 0.5656,-0.033 0.8012,0.024 0.2202,0.053 0.327,0.1328 0.3349,0.1881 0.022,0.1461 -0.6822,0.2494 -1.0602,0.3051 -0.2349,0.034 -0.5955,0.087 -0.8403,0.087 z m 1.1136,-0.7265 c -0.1192,0 -0.2417,0.01 -0.3632,0.027 -0.5937,0.087 -1.1427,0.4035 -1.1082,0.6387 0.033,0.2241 0.5232,0.1698 1.2122,0.069 0.689,-0.1012 1.174,-0.19 1.1412,-0.4141 -0.016,-0.1112 -0.1649,-0.2086 -0.4075,-0.2674 -0.1445,-0.035 -0.3063,-0.052 -0.4745,-0.052"
       style="fill:#390075;fill-opacity:1;fill-rule:nonzero;stroke:none;stroke-width:0.00234197"
       id="path194" />
    <path
       d="m 1006.7864,3234.9179 c -0.063,0 -0.1265,0 -0.1897,0.011 -0.054,0.01 -0.1073,0.019 -0.1623,0.031 l -0.1689,0.052 c -0.2192,0.08 -0.4173,0.1913 -0.581,0.3377 -0.3298,0.2867 -0.5169,0.7375 -0.5476,1.1989 v 0 c 0,0.027 -0.01,0.053 -0.013,0.078 v 0.034 l 0.064,-0.01 c 0.2236,-0.3928 0.6182,-0.7811 1.315,-0.9661 0.2557,-0.068 0.5536,-0.104 0.8557,-0.104 0.504,0 1.0207,0.099 1.3766,0.3124 -0.1786,-0.162 -0.3618,-0.3089 -0.5482,-0.4393 -0.2024,-0.1431 -0.4129,-0.2604 -0.6248,-0.3501 -0.2108,-0.092 -0.4249,-0.1588 -0.6427,-0.1816 -0.046,-0.01 -0.091,-0.01 -0.1372,-0.01"
       style="fill:#c3b2d5;fill-opacity:1;fill-rule:nonzero;stroke:none;stroke-width:0.00234197"
       id="path196" />
    <path
       d="m 1007.0428,3234.4781 c -0.2297,0 -0.4651,0.031 -0.6998,0.094 -1.0855,0.2886 -1.4386,1.0692 -1.5527,1.5961 0.1581,0.019 0.2895,0.1424 0.3122,0.3075 l 0.021,0.1543 c 0.01,-0.025 0.011,-0.052 0.013,-0.078 v 0 c 0.031,-0.4614 0.2178,-0.9122 0.5476,-1.1989 0.1637,-0.1464 0.3618,-0.2578 0.581,-0.3377 l 0.1689,-0.052 c 0.055,-0.012 0.1082,-0.021 0.1623,-0.031 0.063,-0.01 0.1264,-0.011 0.1897,-0.011 0.046,0 0.091,0 0.1372,0.01 0.2178,0.023 0.4319,0.09 0.6427,0.1816 0.2119,0.09 0.4224,0.207 0.6248,0.3501 0.1864,0.1304 0.3696,0.2773 0.5482,0.4393 0.1033,0.062 0.193,0.1331 0.2649,0.2143 l 0.1129,-0.024 c -0.2684,-1.071 -1.1211,-1.6087 -2.0743,-1.6087"
       style="fill:#390075;fill-opacity:1;fill-rule:nonzero;stroke:none;stroke-width:0.00234197"
       id="path198" />
    <path
       d="m 1002.6971,3235.4317 -0.1612,0.01 c -0.1056,0.012 -0.211,0.029 -0.3129,0.063 -0.4103,0.1235 -0.7876,0.4188 -1.0878,0.8019 -0.04,0.045 -0.073,0.098 -0.1089,0.1476 -0.036,0.05 -0.071,0.1004 -0.1016,0.1548 -0.07,0.1033 -0.1331,0.2112 -0.2073,0.3171 -0.011,0.016 -0.022,0.032 -0.033,0.049 0.5035,-0.4367 1.4344,-0.7164 2.0963,-0.7365 0.03,0 0.06,0 0.09,0 0.6726,0 1.135,0.2496 1.4483,0.5485 l 0.072,-0.011 c -0.029,-0.037 -0.051,-0.08 -0.066,-0.1269 h -9e-4 c -0.067,-0.2185 -0.1764,-0.4309 -0.3134,-0.6082 -0.1382,-0.1782 -0.3096,-0.3189 -0.5028,-0.4173 -0.1932,-0.099 -0.4099,-0.1553 -0.6382,-0.1766 l -0.1735,-0.01"
       style="fill:#c3b2d5;fill-opacity:1;fill-rule:nonzero;stroke:none;stroke-width:0.00234197"
       id="path200" />
    <path
       d="m 1002.7057,3235.1174 c -0.029,0 -0.059,5e-4 -0.089,0 -1.2485,0.039 -2.4581,0.8825 -2.3939,2.2511 l 0.1693,-0.031 c 0.061,-0.1317 0.1623,-0.2546 0.2923,-0.3673 0.011,-0.016 0.022,-0.033 0.033,-0.049 0.074,-0.1059 0.1377,-0.2138 0.2073,-0.3171 0.03,-0.054 0.065,-0.1052 0.1016,-0.1548 0.036,-0.05 0.069,-0.1021 0.1089,-0.1476 0.3002,-0.3831 0.6775,-0.6784 1.0878,-0.8019 0.1019,-0.034 0.2073,-0.051 0.3129,-0.063 l 0.1612,-0.01 0.1735,0.01 c 0.2283,0.021 0.445,0.077 0.6382,0.1766 0.1932,0.098 0.3646,0.2391 0.5028,0.4173 0.137,0.1773 0.2464,0.3897 0.3134,0.6082 h 9e-4 c 0.014,0.047 0.037,0.09 0.066,0.1269 h 0.027 l -0.027,-0.1955 c -0.021,-0.1492 0.054,-0.2897 0.1773,-0.3602 -0.2506,-0.4602 -0.7906,-1.0949 -1.8635,-1.0949"
       style="fill:#390075;fill-opacity:1;fill-rule:nonzero;stroke:none;stroke-width:0.00234197"
       id="path202" />
    <path
       d="m 1004.7903,3236.1678 c -0.031,0.1424 -0.044,0.2663 -0.05,0.3567 h -0.028 c -0.03,-0.083 -0.077,-0.1932 -0.1436,-0.3164 -0.1232,0.07 -0.1979,0.211 -0.1773,0.3602 l 0.027,0.1955 0.7097,-0.1042 v -0.034 l -0.021,-0.1543 c -0.023,-0.1651 -0.1541,-0.2883 -0.3122,-0.3075"
       style="fill:#390075;fill-opacity:1;fill-rule:nonzero;stroke:none;stroke-width:0.00234197"
       id="path204" />
    <path
       d="m 1000.664,3244.1668 c -0.4272,-1.7586 -1.77803,-2.9399 -3.01764,-2.6389 -1.23937,0.3011 -1.89793,1.9707 -1.47076,3.7291 0.42718,1.7586 1.77826,2.9401 3.01763,2.6389 1.23937,-0.3011 1.89797,-1.9707 1.47077,-3.7291"
       style="fill:#390075;fill-opacity:1;fill-rule:nonzero;stroke:none;stroke-width:0.00234197"
       id="path206" />
    <path
       d="m 999.79301,3244.9094 c -0.14356,-0.5904 -0.56324,-0.9953 -0.93796,-0.9044 -0.37448,0.091 -0.5616,0.6435 -0.41827,1.234 0.14356,0.5904 0.56324,0.9953 0.93772,0.9044 0.37448,-0.091 0.56184,-0.6433 0.41851,-1.234"
       style="fill:#ffffff;fill-opacity:1;fill-rule:nonzero;stroke:none;stroke-width:0.00234197"
       id="path208" />
    <path
       d="m 1015.3039,3243.312 c -0.3424,-0.056 -0.6921,-0.1288 -1.0192,-0.2218 -0.3295,-0.094 -0.6445,-0.2103 -0.9417,-0.3499 -0.1509,-0.066 -0.2904,-0.1496 -0.4331,-0.2262 l -0.2028,-0.1319 c -0.033,-0.023 -0.069,-0.042 -0.1009,-0.066 l -0.095,-0.073 c -0.2633,-0.1848 -0.4834,-0.4197 -0.7015,-0.6581 l -0.5075,0.744 c 0.033,0.01 0.053,0.014 0.074,0.019 0.023,0.01 0.044,0.01 0.064,0.014 0.042,0.01 0.083,0.016 0.1232,0.021 0.082,0.013 0.1616,0.021 0.242,0.029 0.1599,0.014 0.3199,0.014 0.4787,0.01 0.3178,-0.013 0.6328,-0.069 0.9339,-0.1648 0.3,-0.097 0.5897,-0.2265 0.8453,-0.4043 0.2627,-0.1641 0.4854,-0.3817 0.6824,-0.6072 0.059,-0.068 0.052,-0.1703 -0.016,-0.2293 -0.05,-0.044 -0.1187,-0.051 -0.1749,-0.025 l -0.018,0.01 c -0.1279,0.059 -0.2438,0.1298 -0.368,0.1839 -0.1252,0.052 -0.244,0.1101 -0.3707,0.1494 -0.2478,0.089 -0.5009,0.1476 -0.7539,0.1817 -0.2524,0.038 -0.5075,0.046 -0.759,0.03 -0.126,-0.01 -0.2506,-0.023 -0.3735,-0.041 -0.061,-0.011 -0.1221,-0.021 -0.1804,-0.035 -0.03,-0.01 -0.058,-0.014 -0.086,-0.021 -0.014,0 -0.028,-0.01 -0.04,-0.011 l -0.029,-0.01 h -0.011 c -0.2489,-0.073 -0.5101,0.069 -0.5831,0.3182 -0.045,0.1532 -0.01,0.3134 0.086,0.4291 0.2553,0.3133 0.5335,0.6185 0.8714,0.8492 0.1593,0.1285 0.3431,0.2189 0.5178,0.3215 0.1848,0.083 0.3663,0.1729 0.5595,0.2291 0.3804,0.1262 0.7743,0.1972 1.1656,0.2091 0.3935,0.01 0.7766,-0.027 1.1598,-0.1475 0.086,-0.027 0.1339,-0.1188 0.1068,-0.205 -0.019,-0.061 -0.07,-0.1023 -0.1293,-0.1121 h -0.017"
       style="fill:#390075;fill-opacity:1;fill-rule:nonzero;stroke:none;stroke-width:0.00234197"
       id="path210" />
  </g>
</svg>
