<?xml version="1.0" encoding="UTF-8" standalone="no"?>
<!-- Created with Inkscape (http://www.inkscape.org/) -->

<svg
   version="1.1"
   id="svg2"
   width="64.000038"
   height="67.268944"
   viewBox="0 0 64.000039 67.268943"
   sodipodi:docname="8100_8_07.svg"
   inkscape:version="1.2.2 (732a01da63, 2022-12-09)"
   xmlns:inkscape="http://www.inkscape.org/namespaces/inkscape"
   xmlns:sodipodi="http://sodipodi.sourceforge.net/DTD/sodipodi-0.dtd"
   xmlns="http://www.w3.org/2000/svg"
   xmlns:svg="http://www.w3.org/2000/svg">
  <defs
     id="defs6" />
  <sodipodi:namedview
     id="namedview4"
     pagecolor="#ffffff"
     bordercolor="#000000"
     borderopacity="0.25"
     inkscape:showpageshadow="2"
     inkscape:pageopacity="0.0"
     inkscape:pagecheckerboard="0"
     inkscape:deskcolor="#d1d1d1"
     showgrid="false"
     inkscape:zoom="5.0219998"
     inkscape:cx="7.9649545"
     inkscape:cy="52.966947"
     inkscape:window-width="1920"
     inkscape:window-height="1017"
     inkscape:window-x="-8"
     inkscape:window-y="-8"
     inkscape:window-maximized="1"
     inkscape:current-layer="g8" />
  <g
     id="g8"
     inkscape:groupmode="layer"
     inkscape:label="ink_ext_XXXXXX"
     transform="matrix(1.3333333,0,0,-1.3333333,-834.65304,4602.376)">
    <path
       d="m 637.17049,3416.6786 c 0.93994,0.085 3.2176,1.8337 2.76508,5.1504 -0.60317,4.4201 -6.91156,6.7281 -11.28735,1.4242 -4.9658,-6.0188 -2.47277,-19.802 10.32462,-18.2234 9.88484,1.2195 4.72984,4.8498 4.72984,4.8498 0,0 -7.04837,1.544 -6.53219,6.799"
       style="fill:#ffad40;fill-opacity:1;fill-rule:nonzero;stroke:none;stroke-width:0.00175394"
       id="path16" />
    <path
       d="m 638.97249,3405.0301 c -12.22475,-1.5085 -15.04663,11.0021 -10.94541,17.3714 l 5e-5,7e-4 c 0.19209,0.2982 0.3992,0.5825 0.62119,0.8513 3.8249,4.635 9.12482,3.4557 10.80212,0.1342 0.24221,-0.4785 0.40919,-1.002 0.48478,-1.5589 0.45322,-3.3167 -1.82479,-5.065 -2.76508,-5.1504 -0.51566,-5.2552 6.53289,-6.799 6.53289,-6.799 0,0 5.15482,-3.6304 -4.73054,-4.8493"
       style="fill:#ffad40;fill-opacity:1;fill-rule:nonzero;stroke:none;stroke-width:0.00175394"
       id="path18" />
    <path
       d="m 638.97249,3405.0301 c -12.22475,-1.5085 -15.04663,11.0021 -10.94541,17.3714 l 5e-5,7e-4 c 0.19209,0.2982 0.3992,0.5825 0.62119,0.8513 3.8249,4.635 9.12482,3.4557 10.80212,0.1342 0.24221,-0.4785 0.40919,-1.002 0.48478,-1.5589 0.42095,-3.0781 -1.51066,-4.8052 -2.5425,-5.1057 -0.0802,-0.024 -0.15488,-0.038 -0.22258,-0.045 -0.0307,-0.3131 -0.0349,-0.613 -0.014,-0.9001 0.3129,-4.5334 6.54692,-5.8989 6.54692,-5.8989 0,0 5.15482,-3.6304 -4.73054,-4.8493"
       style="fill:#ffad40;fill-opacity:1;fill-rule:nonzero;stroke:none;stroke-width:0.00175394"
       id="path20" />
    <path
       d="m 638.97249,3405.0301 c -4.72493,-0.5831 -8.04475,0.9279 -10.10373,3.3694 -3.26829,3.8753 -3.35814,10.094 -0.84168,14.002 l 5e-5,7e-4 c 0.19209,0.2982 0.3992,0.5825 0.62119,0.8513 3.8249,4.635 9.12482,3.4557 10.80212,0.1342 0.24221,-0.4785 0.40919,-1.002 0.48478,-1.5589 0.42095,-3.0781 -1.51066,-4.8052 -2.5425,-5.1057 -0.0802,-0.024 -0.15488,-0.038 -0.22258,-0.045 -0.0307,-0.3131 -0.0349,-0.613 -0.014,-0.9001 0.0365,-0.5332 0.1554,-1.0229 0.33658,-1.4714 1.35667,-3.3646 6.21034,-4.4275 6.21034,-4.4275 0,0 5.15482,-3.6304 -4.73054,-4.8493"
       style="fill:#ffad40;fill-opacity:1;fill-rule:nonzero;stroke:none;stroke-width:0.00175394"
       id="path22" />
    <path
       d="m 626.90622,3411.961 c 0.42884,-1.2969 1.07955,-2.5153 1.96301,-3.5615 2.05867,-2.4414 5.37815,-3.9522 10.10361,-3.3692 9.88449,1.219 4.73019,4.8491 4.73019,4.8491 0,0 -3.0429,0.666 -4.98276,2.6139 -0.51022,0.5118 -0.94432,1.1124 -1.22705,1.8131 -0.18154,0.4493 -0.3008,0.939 -0.33658,1.4719 -0.0219,0.2867 -0.0174,0.5868 0.0137,0.8999 0.0675,0.01 0.14189,0.021 0.22222,0.045 1.03184,0.3009 2.96328,2.0279 2.54286,5.1058 -0.0763,0.5573 -0.24292,1.0808 -0.48514,1.5595 -1.67676,3.3209 -6.97674,4.5004 -10.8019,-0.1344 -0.22196,-0.269 -0.42945,-0.5528 -0.62149,-0.8512 l -1.1e-4,-8e-4 c -1.83597,-2.8521 -2.28487,-6.936 -1.12054,-10.4407"
       style="fill:#ffad40;fill-opacity:1;fill-rule:nonzero;stroke:none;stroke-width:0.00175394"
       id="path24" />
    <path
       d="m 626.90622,3411.961 c 0.42884,-1.2969 1.07955,-2.5153 1.96301,-3.5615 2.05867,-2.4414 5.37815,-3.9522 10.10361,-3.3692 9.88449,1.219 4.73019,4.8491 4.73019,4.8491 0,0 -3.0429,0.666 -4.98276,2.6139 -0.21591,-0.6312 -1.23056,-2.9715 -4.52972,-3.5296 -3.50236,-0.5925 -6.01918,1.5457 -7.28433,2.9973"
       style="fill:#ff9343;fill-opacity:1;fill-rule:nonzero;stroke:none;stroke-width:0.00175394"
       id="path26" />
    <path
       d="m 637.15611,3415.7783 c -0.73157,-1.4141 -3.35248,-1.885 -5.31917,-0.4105 -1.70784,1.2804 -1.65375,5.2029 -1.04434,5.7486 1.2283,0.7912 2.4959,-1.1399 3.59439,-2.6025 1.12305,-1.4974 2.35028,-1.7682 3.00573,-1.7908 -0.0802,-0.024 -0.15488,-0.038 -0.22258,-0.045 -0.0307,-0.3131 -0.0349,-0.613 -0.014,-0.9001"
       style="fill:#ff9343;fill-opacity:1;fill-rule:nonzero;stroke:none;stroke-width:0.00175394"
       id="path28" />
    <path
       d="m 639.45044,3423.3877 c -0.10051,-0.6256 -0.27029,-1.2119 -0.53092,-1.7269 -1.35123,-2.6727 -3.43544,1.0096 -4.85087,2.0854 -2.531,1.9251 -5.07454,-0.2713 -6.04152,-1.344 0.19209,0.2982 0.3992,0.5825 0.62119,0.8513 3.8249,4.635 9.12482,3.4557 10.80212,0.1342"
       style="fill:#ffffff;fill-opacity:1;fill-rule:nonzero;stroke:none;stroke-width:0.00175394"
       id="path30" />
    <path
       d="m 634.45575,3426.0507 c -2.00137,0 -4.01219,-1.0451 -5.59953,-2.969 -2.72611,-3.3043 -3.11142,-8.8402 -0.89621,-12.8773 2.07501,-3.7818 5.97412,-5.524 10.97968,-4.907 4.45921,0.5501 5.61891,1.5547 5.80658,2.3007 0.2317,0.9211 -0.92555,1.8544 -1.15882,2.0314 -0.32518,0.077 -1.92039,0.4876 -3.4856,1.4493 -2.3152,1.4222 -3.42158,3.3677 -3.19971,5.6262 l 0.0217,0.2221 0.22222,0.02 c 0.31098,0.028 0.99519,0.3485 1.60608,1.1156 0.55495,0.6972 1.16444,1.9103 0.91626,3.7298 -0.26292,1.9263 -1.6608,3.4742 -3.64837,4.0395 -0.51548,0.1466 -1.03955,0.2185 -1.56433,0.2185 m 2.52216,-21.4177 c -5.66562,0 -8.35139,3.2357 -9.49068,5.312 -2.31544,4.2198 -1.90575,10.0148 0.953,13.4797 2.144,2.5988 5.03314,3.6928 7.72754,2.9261 2.1633,-0.6153 3.74711,-2.3759 4.03493,-4.4853 0.27396,-2.0083 -0.40814,-3.359 -1.02869,-4.1384 -0.57932,-0.7276 -1.25564,-1.1436 -1.75113,-1.2751 -0.12137,-1.9753 0.87031,-3.6253 2.94995,-4.9069 1.63941,-1.0102 3.37037,-1.3984 3.38755,-1.4022 l 0.053,-0.012 0.0445,-0.031 c 0.0719,-0.051 1.7564,-1.2557 1.41175,-2.6322 -0.33623,-1.3421 -2.38518,-2.2271 -6.26384,-2.7056 -0.7149,-0.088 -1.39034,-0.1293 -2.0279,-0.1293"
       style="fill:#000072;fill-opacity:1;fill-rule:nonzero;stroke:none;stroke-width:0.00175394"
       id="path32" />
    <path
       d="m 630.75014,3421.093 c 1.3426,1.0175 2.69569,-0.945 3.44515,-1.8481 0.42445,-0.5284 0.84399,-1.0725 1.33422,-1.5294 0.45234,-0.4248 0.99132,-0.7854 1.61853,-0.7682 l 0.0451,-0.5373 c -0.7919,-0.1108 -1.5475,0.328 -2.09508,0.8398 -0.79839,0.7488 -1.34352,1.6271 -1.98528,2.472 -0.56126,0.7305 -1.31067,1.8038 -2.36262,1.3712"
       style="fill:#000072;fill-opacity:1;fill-rule:nonzero;stroke:none;stroke-width:0.00175394"
       id="path34" />
    <path
       d="m 661.21732,3404.273 c -0.69333,-0.082 -3.16042,0.3872 -3.79447,0.4185 -0.94011,0.046 -2.75543,-0.1072 -4.71686,-0.4378 0,0 2.21364,7.6143 2.20768,8.4946 3.66976,0.8803 7.22587,-1.5185 7.22587,-1.5185 0,0 0.0309,-6.8434 -0.92222,-6.9568"
       style="fill:#777782;fill-opacity:1;fill-rule:nonzero;stroke:none;stroke-width:0.00175394"
       id="path36" />
    <path
       d="m 662.0115,3407.4534 c -0.11926,-1.6058 -0.34868,-3.1275 -0.79418,-3.1801 -0.69298,-0.083 -3.16042,0.3873 -3.79447,0.4182 -0.94011,0.046 -2.75561,-0.1074 -4.71721,-0.4378 0,0 2.21417,7.6143 2.20786,8.4948 0.64387,0.1544 1.28511,0.2084 1.90319,0.1908 2.90575,-0.079 5.3225,-1.7095 5.3225,-1.7095 0,0 0.008,-1.9441 -0.12769,-3.7764"
       style="fill:#ffad40;fill-opacity:1;fill-rule:nonzero;stroke:none;stroke-width:0.00175394"
       id="path38" />
    <path
       d="m 662.0115,3407.4534 c -0.11926,-1.6058 -0.34868,-3.1275 -0.79418,-3.1801 -0.69298,-0.083 -3.16042,0.3873 -3.79447,0.4182 -0.94011,0.046 -2.75561,-0.1074 -4.71721,-0.4378 0,0 2.21417,7.6143 2.20786,8.4948 0.64387,0.1544 1.28511,0.2084 1.90319,0.1908 0.14312,-0.8292 0.36623,-2.2946 0.52478,-4.1664 0.15224,-1.7994 1.96424,-0.9119 2.20137,0.2652 0.24555,1.2193 0.85592,1.5729 0.85592,1.5729 0,0 0.83259,-1.5954 1.61274,-3.1576"
       style="fill:#ff9343;fill-opacity:1;fill-rule:nonzero;stroke:none;stroke-width:0.00175394"
       id="path40" />
    <path
       d="m 657.05628,3404.9693 c 0.13698,0 0.26397,0 0.37973,-0.01 0.2459,-0.012 0.72858,-0.083 1.28721,-0.1651 0.86048,-0.1266 2.03545,-0.2995 2.45025,-0.2562 0.0624,0.045 0.42182,0.4325 0.60318,3.4293 0.0817,1.3528 0.0921,2.6793 0.0931,3.1129 -0.62669,0.3851 -3.62855,2.0891 -6.70618,1.4466 -0.18452,-1.3163 -1.62204,-6.3524 -2.08,-7.9399 1.52417,0.2401 2.99924,0.381 3.97267,0.381 m 4.16104,-0.6963 h 8.8e-4 -8.8e-4 m -8.51133,-0.2891 c -0.0763,0 -0.14979,0.032 -0.20135,0.09 -0.0617,0.069 -0.0835,0.1654 -0.0575,0.2545 0.88539,3.0456 2.20102,7.8007 2.19681,8.4177 -7.1e-4,0.1254 0.0849,0.2347 0.20679,0.264 3.74184,0.8976 7.29041,-1.4567 7.43967,-1.5572 0.0738,-0.05 0.11839,-0.1333 0.11874,-0.2224 0,-0.017 0.006,-1.7399 -0.10418,-3.4545 -0.20855,-3.2289 -0.63072,-3.7207 -1.0557,-3.7714 -0.47426,-0.056 -1.6059,0.1102 -2.60442,0.257 -0.52232,0.077 -1.01553,0.1493 -1.2353,0.1601 -0.97939,0.048 -2.80822,-0.1224 -4.6588,-0.4344 -0.0149,0 -0.03,0 -0.0447,0"
       style="fill:#000072;fill-opacity:1;fill-rule:nonzero;stroke:none;stroke-width:0.00175394"
       id="path42" />
    <path
       d="m 659.46023,3405.8298 c 0.34921,-0.8679 0.9366,-1.6912 2.42306,-1.5384 2.16331,0.2222 4.07387,3.7694 3.57242,6.5125 -0.37201,2.0356 -2.70036,2.4869 -4.22594,1.2886 -0.71929,-0.5649 -1.40174,-1.8805 -1.76954,-3.6189 v -2.6438"
       style="fill:#777782;fill-opacity:1;fill-rule:nonzero;stroke:none;stroke-width:0.00175394"
       id="path44" />
    <path
       d="m 664.82552,3406.907 c -0.6807,-1.4073 -1.77446,-2.4958 -2.94188,-2.6154 -1.48716,-0.1526 -2.0742,0.6707 -2.42306,1.5383 v 2.6439 c 0.0191,0.09 0.0391,0.1786 0.0591,0.2659 l 7e-4,9e-4 c 0.37797,1.6059 1.02798,2.8161 1.70938,3.3519 1.5254,1.1982 3.85411,0.7467 4.22594,-1.2884 0.23064,-1.2634 -0.0498,-2.696 -0.63019,-3.8971"
       style="fill:#ffffff;fill-opacity:1;fill-rule:nonzero;stroke:none;stroke-width:0.00175394"
       id="path46" />
    <path
       d="m 665.50359,3410.4796 c -0.008,0.073 -0.0181,0.1451 -0.0295,0.2168 0.0114,-0.072 0.0212,-0.144 0.0295,-0.2168"
       style="fill:#95f0ff;fill-opacity:1;fill-rule:nonzero;stroke:none;stroke-width:0.00175394"
       id="path48" />
    <path
       d="m 665.5292,3410.165 c -0.0112,0.2164 -0.0354,0.43 -0.0735,0.6391 0.006,-0.036 0.0126,-0.072 0.0184,-0.1077 0.0114,-0.072 0.0212,-0.144 0.0295,-0.2168 0.0118,-0.104 0.0202,-0.2089 0.0256,-0.3146"
       style="fill:#a0a0a8;fill-opacity:1;fill-rule:nonzero;stroke:none;stroke-width:0.00175394"
       id="path50" />
    <path
       d="m 659.52126,3408.7441 c 0.37798,1.6042 1.02746,2.8131 1.70851,3.3484 0.55793,0.4384 1.22355,0.6558 1.86146,0.6558 1.10603,0 2.12875,-0.6535 2.36448,-1.9442 v 0 c 0.0381,-0.2091 0.0623,-0.4227 0.0735,-0.6391 0.0102,-0.1998 0.009,-0.402 -0.002,-0.6051 -0.0107,0.2078 -0.0344,0.4132 -0.0712,0.614 -0.23573,1.2907 -1.25862,1.9444 -2.36448,1.9444 -0.63791,0 -1.30335,-0.2175 -1.86146,-0.6558 -0.62878,-0.4944 -1.2816,-1.2537 -1.67571,-2.6295 l -0.0328,-0.089"
       style="fill:#ffffff;fill-opacity:1;fill-rule:nonzero;stroke:none;stroke-width:0.00175394"
       id="path52" />
    <path
       d="m 659.46023,3405.8312 c -0.008,0.026 -0.14365,0.4862 -0.14365,1.1081 0,0.7652 0.13575,1.4915 0.14365,1.5326 v -2.6407 m 0.0595,2.9085 h 3.5e-4 c -1.8e-4,-4e-4 -1.8e-4,-6e-4 -1.8e-4,-9e-4 l -1.7e-4,-2e-4"
       style="fill:#d97d4a;fill-opacity:1;fill-rule:nonzero;stroke:none;stroke-width:0.00175394"
       id="path54" />
    <path
       d="m 661.53829,3404.2731 c -1.23582,0 -1.75727,0.7597 -2.07771,1.5568 0,0 -1.8e-4,6e-4 -3.5e-4,0 v 2.6407 c 1.7e-4,0 3.5e-4,0 3.5e-4,0 v -2.6439 c 0.32044,-0.7971 0.84189,-1.5568 2.07771,-1.5568 0.10945,0 0.22451,0.01 0.34535,0.019 0.0991,0.01 0.19785,0.027 0.29572,0.051 v 0 c -0.0979,-0.024 -0.19662,-0.041 -0.29572,-0.051 -0.12084,-0.012 -0.2359,-0.019 -0.34535,-0.019 m -2.01843,4.4668 c 0,3e-4 0,5e-4 1.8e-4,9e-4 h 10e-4 c -3.5e-4,0 -5.2e-4,0 -8.7e-4,0 l -5.3e-4,-7e-4"
       style="fill:#656580;fill-opacity:1;fill-rule:nonzero;stroke:none;stroke-width:0.00175394"
       id="path56" />
    <path
       d="m 661.53829,3404.2731 c -1.23582,0 -1.75727,0.7597 -2.07771,1.5568 v 2.6439 0 0 c 0.0293,0.1242 0.0605,0.2438 0.0935,0.3592 l 0.12734,0.3445 c -0.12786,-0.6667 0.65667,-3.8355 2.6637,-3.9346 0.0275,0 0.0551,0 0.0824,0 0.92082,0 1.74815,0.7601 2.39798,1.6662 -0.62282,-1.2879 -1.59152,-2.3087 -2.64616,-2.5644 -0.0979,-0.024 -0.19662,-0.041 -0.29572,-0.051 -0.12084,-0.012 -0.2359,-0.019 -0.34535,-0.019"
       style="fill:#d9d9ea;fill-opacity:1;fill-rule:nonzero;stroke:none;stroke-width:0.00175394"
       id="path58" />
    <path
       d="m 659.46058,3408.4738 c 0.0191,0.09 0.0391,0.1786 0.0591,0.2659 v 0 l 7e-4,9e-4 c 3.5e-4,10e-4 5.2e-4,0 8.7e-4,0 l 0.0328,0.089 c -0.033,-0.1154 -0.0642,-0.235 -0.0935,-0.3592"
       style="fill:#d9d9ea;fill-opacity:1;fill-rule:nonzero;stroke:none;stroke-width:0.00175394"
       id="path60" />
    <path
       d="m 664.10237,3406.9768 c -0.3229,-1.089 -1.18548,-1.7935 -1.9267,-1.5738 -0.74104,0.2198 -1.08007,1.2808 -0.757,2.3698 0.3229,1.089 1.18567,1.7937 1.9267,1.5738 0.74104,-0.2198 1.08008,-1.2807 0.757,-2.3698"
       style="fill:#ff999e;fill-opacity:1;fill-rule:nonzero;stroke:none;stroke-width:0.00175394"
       id="path62" />
    <path
       d="m 665.26874,3409.4336 c -0.11857,-0.4001 -0.4355,-0.6588 -0.70771,-0.5781 -0.27221,0.081 -0.39674,0.4704 -0.278,0.8705 0.11856,0.4 0.4355,0.6587 0.70771,0.5781 0.27221,-0.081 0.39674,-0.4705 0.278,-0.8705"
       style="fill:#ff999e;fill-opacity:1;fill-rule:nonzero;stroke:none;stroke-width:0.00175394"
       id="path64" />
    <path
       d="m 662.5882,3409.9084 c -0.11857,-0.4001 -0.4355,-0.659 -0.70771,-0.5781 -0.27222,0.081 -0.39675,0.4704 -0.278,0.8704 0.11856,0.3999 0.4355,0.6588 0.70771,0.5781 0.27221,-0.081 0.39674,-0.4705 0.278,-0.8704"
       style="fill:#ff999e;fill-opacity:1;fill-rule:nonzero;stroke:none;stroke-width:0.00175394"
       id="path66" />
    <path
       d="m 664.10799,3410.3319 c -0.13173,-0.4439 -0.48321,-0.731 -0.78524,-0.6414 -0.30221,0.09 -0.44024,0.522 -0.3087,0.9659 0.13173,0.4439 0.48321,0.7311 0.78542,0.6414 0.30203,-0.09 0.44024,-0.5219 0.30852,-0.9659"
       style="fill:#ff999e;fill-opacity:1;fill-rule:nonzero;stroke:none;stroke-width:0.00175394"
       id="path68" />
    <path
       d="m 659.46023,3405.8299 c 0.27747,-0.352 0.53547,-0.6854 0.84873,-0.9052 0.6137,-0.4507 1.47944,-0.4563 2.16593,-0.1599 2.05895,0.9911 3.24637,4.1759 2.60706,6.3282 -0.47111,1.398 -2.17453,1.6822 -3.35423,0.9974 -1.18952,-0.6677 -1.79305,-2.368 -2.26749,-3.6168 0.11698,1.4418 0.65685,3.3227 1.98405,4.1025 1.01167,0.6248 2.41903,0.6646 3.37317,-0.107 1.45384,-1.1578 1.06885,-3.6613 0.47111,-5.1815 -0.50987,-1.2488 -1.29405,-2.4946 -2.56811,-3.0809 -0.66247,-0.288 -1.43946,-0.3086 -2.11402,-0.041 -0.67264,0.2721 -1.0892,0.9647 -1.1462,1.6643"
       style="fill:#000072;fill-opacity:1;fill-rule:nonzero;stroke:none;stroke-width:0.00175394"
       id="path70" />
    <path
       d="m 656.93614,3411.2642 c 0.005,5.15 -2.69581,6.9959 -2.94978,12.0541 -0.1254,2.4962 -7.38372,3.6813 -9.93833,0.1852 -1.07078,-1.4654 -5.8257,-8.4319 -4.93803,-14.9516 0.49741,-3.6538 2.25521,-5.4204 5.55051,-5.9638 0.69789,-0.1152 1.43945,0.092 2.78683,0.1912 1.78778,0.1316 7.24884,0.5579 8.47888,3.2711 0,0 0.64036,0.9859 0.8596,2.2245 0.2545,1.4395 0.15032,2.9893 0.15032,2.9893"
       style="fill:#ffad40;fill-opacity:1;fill-rule:nonzero;stroke:none;stroke-width:0.00175394"
       id="path72" />
    <path
       d="m 656.78109,3413.3284 c -1.23828,-0.1807 -3.36703,-1.2625 -6.84264,-0.7395 -3.56575,0.5372 -5.39055,4.0384 -5.39055,4.0384 l 2.41728,2.1369 c 0,0 5.2341,-1.0415 8.82423,-2.0143 0.41323,-1.0462 0.78998,-2.1287 0.99168,-3.4215"
       style="fill:#b25b36;fill-opacity:1;fill-rule:nonzero;stroke:none;stroke-width:0.00175394"
       id="path74" />
    <path
       d="m 656.24929,3413.2172 c -1.28546,-0.325 -3.2895,-1.0833 -6.31066,-0.6283 -1.4007,0.211 -2.53251,0.8789 -3.39054,1.6131 0.3457,1.4154 0.95309,2.8654 1.91828,4.2533 1.6252,-0.3403 4.28645,-0.9173 6.53851,-1.4984 0.4341,-1.1681 0.90941,-2.4011 1.2039,-3.5759 0.0135,-0.053 0.027,-0.1079 0.0405,-0.1638"
       style="fill:#e0b299;fill-opacity:1;fill-rule:nonzero;stroke:none;stroke-width:0.00175394"
       id="path76" />
    <path
       d="m 646.52862,3402.69 c -0.8026,-0.094 -1.34772,-0.1873 -1.86829,-0.1017 -1.69062,0.2792 -2.97661,0.8796 -3.89479,1.8927 -0.87206,0.9604 -1.41297,2.2919 -1.65572,4.071 -0.005,0.036 -0.01,0.071 -0.0133,0.1074 0.20276,-0.5928 0.46164,-1.0741 0.78717,-1.2341 0.36973,-0.181 0.76191,-0.2771 1.29353,-0.181 0.8924,0.1621 3.97424,-3.0566 5.35143,-4.5543"
       style="fill:#ff9343;fill-opacity:1;fill-rule:nonzero;stroke:none;stroke-width:0.00175394"
       id="path78" />
    <path
       d="m 656.78582,3408.2749 c -0.21924,-1.239 -0.8596,-2.2245 -0.8596,-2.2245 -1.23004,-2.7132 -6.68952,-3.1399 -8.47836,-3.2713 -1.34825,-0.099 -2.08964,-0.306 -2.78735,-0.1908 -0.25748,0.043 -0.50549,0.092 -0.7442,0.1503 -0.0317,0.01 -0.0619,0.015 -0.093,0.023 -0.0244,0.01 -0.0479,0.012 -0.0716,0.018 -0.0479,0.013 -0.0956,0.026 -0.14277,0.039 -0.0479,0.013 -0.0944,0.026 -0.14102,0.04 -0.0451,0.014 -0.0896,0.027 -0.134,0.041 -0.0519,0.017 -0.10383,0.034 -0.15434,0.051 -0.0858,0.029 -0.16996,0.059 -0.25222,0.091 -0.0439,0.017 -0.087,0.034 -0.12944,0.051 -0.0431,0.017 -0.0856,0.035 -0.12734,0.053 -0.0417,0.018 -0.0837,0.036 -0.1247,0.055 -0.0412,0.019 -0.0823,0.038 -0.12278,0.057 -0.0403,0.019 -0.0802,0.039 -0.11997,0.059 -0.0396,0.02 -0.0795,0.041 -0.11786,0.062 -0.0391,0.021 -0.0775,0.042 -0.11594,0.063 -0.0763,0.044 -0.15171,0.088 -0.2252,0.1349 -0.0363,0.023 -0.0728,0.046 -0.10857,0.07 -0.0363,0.024 -0.0721,0.048 -0.10717,0.073 -0.0351,0.025 -0.07,0.05 -0.10435,0.075 -0.0695,0.051 -0.13699,0.1032 -0.20294,0.1572 -0.19819,0.1617 -0.38358,0.3369 -0.55547,0.5271 0.70035,3.0372 2.01878,7.679 3.52682,7.6426 2.23925,-0.054 5.16394,-3.3064 7.78152,-3.4439 3.19497,-0.1685 4.96311,1.6657 4.80807,3.8227 0.0358,-0.3916 0.0545,-0.8035 0.054,-1.2383 0,0 0.10436,-1.5496 -0.15032,-2.9894"
       style="fill:#ff9343;fill-opacity:1;fill-rule:nonzero;stroke:none;stroke-width:0.00175394"
       id="path80" />
    <path
       d="m 655.39583,3406.1346 c -1.5496,-1.8813 -5.78677,-2.575 -7.42757,-1.2302 -0.8426,0.6903 -1.91162,3.3725 -1.78955,6.6309 1.86637,-0.9578 3.96478,-2.7542 5.89534,-2.8554 2.37009,-0.1247 3.95477,0.8521 4.55199,2.2454 0.11944,-1.5868 -0.0802,-3.3953 -1.23021,-4.7907"
       style="fill:#e0b299;fill-opacity:1;fill-rule:nonzero;stroke:none;stroke-width:0.00175394"
       id="path82" />
    <path
       d="m 655.26165,3418.0577 c -1.42911,-0.1705 -2.91539,-0.2622 -3.61977,-0.1854 -4.41922,0.482 -4.13,3.8583 -5.50982,4.4199 -0.48742,0.1982 -1.50049,0.2649 -2.5069,0.612 l 7e-4,7e-4 c 0.17118,0.2508 0.31465,0.4523 0.422,0.5986 2.5546,3.4965 9.8131,2.3108 9.9385,-0.1854 0.1091,-2.1745 0.67071,-3.7552 1.27529,-5.2604"
       style="fill:#ff9343;fill-opacity:1;fill-rule:nonzero;stroke:none;stroke-width:0.00175394"
       id="path84" />
    <path
       d="m 654.63076,3417.9882 c -1.21793,-0.1247 -2.38816,-0.1813 -2.98871,-0.1159 -1.3037,0.1422 -2.19821,0.5365 -2.84594,1.0353 2.15893,2.7881 5.10466,1.3744 5.60629,-0.2297 0.07,-0.2245 0.1468,-0.4552 0.22836,-0.6897"
       style="fill:#e0b299;fill-opacity:1;fill-rule:nonzero;stroke:none;stroke-width:0.00175394"
       id="path86" />
    <path
       d="m 647.96826,3404.9044 c 1.6408,-1.3444 5.87797,-0.6507 7.42774,1.2302 1.83041,2.2215 1.25319,5.4881 0.81313,7.2464 -0.44427,1.7743 -1.30125,3.6792 -1.80673,5.2971 -0.50566,1.6178 -3.4977,3.0415 -5.66136,0.1573 -4.31504,-5.7522 -2.21242,-12.7513 -0.77278,-13.931"
       style="fill:#ffffff;fill-opacity:1;fill-rule:nonzero;stroke:none;stroke-width:0.00175394"
       id="path88" />
    <path
       d="m 654.63076,3417.9882 c -1.21793,-0.1247 -2.38816,-0.1813 -2.98871,-0.1159 -1.3037,0.1422 -2.85471,0.597 -3.50243,1.0959 0.0673,2.7977 -0.34588,4.5716 -0.17136,4.8947 0.88696,1.6409 5.10167,0.831 5.47403,-0.3601 0.0702,-0.2245 1.10691,-5.2801 1.18847,-5.5146"
       style="fill:#dfdff7;fill-opacity:1;fill-rule:nonzero;stroke:none;stroke-width:0.00175394"
       id="path90" />
    <path
       d="m 651.79184,3412.4472 c -0.57038,0 -1.18707,0.041 -1.85321,0.1417 -1.4007,0.211 -2.53251,0.8789 -3.39054,1.6131 0.0535,0.2194 0.11348,0.4395 0.17996,0.6604 0.46672,-0.278 0.97992,-0.5397 1.52084,-0.7593 0.66,-0.268 1.36123,-0.4734 2.06876,-0.5685 0.43077,-0.058 0.84207,-0.082 1.23495,-0.082 1.56767,0 2.83822,0.3829 3.84358,0.5215 v 7e-4 0 0 0 0 0 0 c 0.13102,0.018 0.25748,0.032 0.37955,0.041 0.0447,0 0.0889,0.01 0.1326,0.01 0.0421,0 0.0831,0 0.12295,0 0.0644,-0.2168 0.124,-0.4327 0.1775,-0.6465 0.0135,-0.053 0.027,-0.1079 0.0405,-0.1638 -1.00202,-0.2533 -2.44077,-0.77 -4.45745,-0.77"
       style="fill:#d9d9ea;fill-opacity:1;fill-rule:nonzero;stroke:none;stroke-width:0.00175394"
       id="path92" />
    <path
       d="m 650.67213,3404.2077 v 2e-4 c 1.42893,0.041 3.00589,0.5121 4.0658,1.3074 -1.05973,-0.7953 -2.63705,-1.2669 -4.0658,-1.3076"
       style="fill:#bf9793;fill-opacity:1;fill-rule:nonzero;stroke:none;stroke-width:0.00175394"
       id="path94" />
    <path
       d="m 650.67213,3404.2079 c 0.21696,1.467 -0.11734,3.2057 -0.47971,4.2345 -0.0824,0.234 -0.16609,0.4311 -0.2452,0.5802 -0.0721,0.1519 -0.15171,0.2942 -0.23783,0.4266 0.79804,-0.4189 1.59485,-0.729 2.36466,-0.7693 0.13663,-0.01 0.27063,-0.011 0.402,-0.011 2.14752,0 3.58715,0.9431 4.14999,2.2561 0.11944,-1.5868 -0.0802,-3.3953 -1.23021,-4.7907 -0.18434,-0.2238 -0.40639,-0.4306 -0.6579,-0.6193 v 0 c -1.05991,-0.7953 -2.63687,-1.2667 -4.0658,-1.3074 m -3.37774,6.69 c -0.002,2e-4 -0.004,2e-4 -0.005,4e-4 -0.0165,0 -0.0331,0 -0.0496,0 -0.0225,0.024 -0.0451,0.048 -0.0679,0.071 0.0409,-0.025 0.0817,-0.05 0.12277,-0.075"
       style="fill:#d9d9ea;fill-opacity:1;fill-rule:nonzero;stroke:none;stroke-width:0.00175394"
       id="path96" />
    <path
       d="m 656.93614,3411.2642 c -0.25924,1.2742 -0.44743,2.4949 -0.80857,3.6992 -0.5474,1.8083 -1.49435,3.5419 -1.98388,5.399 -0.21257,0.7866 -0.35938,1.5939 -0.43094,2.4064 -0.0235,0.2246 -0.02,0.46 -0.0563,0.6805 -0.10401,0.4723 -0.47918,0.8052 -0.88662,1.065 -1.31194,0.778 -2.93293,0.9539 -4.43535,0.8219 -1.5689,-0.1533 -3.19866,-0.7732 -4.12158,-2.1035 -2.89768,-4.1134 -5.50999,-9.5674 -4.8114,-14.7073 0.24327,-1.7989 0.96011,-3.6647 2.55689,-4.6579 0.76612,-0.492 1.66729,-0.7812 2.56741,-0.9433 0.29484,-0.062 0.57249,-0.075 0.87574,-0.05 0.62037,0.054 1.27003,0.1527 1.90162,0.1952 0.64019,0.044 1.26599,0.095 1.89461,0.1689 2.14734,0.2704 5.48491,0.8871 6.72845,2.8119 -0.091,-0.3094 -0.24871,-0.6042 -0.44866,-0.8666 -1.64466,-2.107 -5.61663,-2.5034 -8.12634,-2.7141 -0.80909,-0.055 -1.59871,-0.2436 -2.42236,-0.2185 -0.50233,0.04 -0.98992,0.1593 -1.47576,0.2933 -3.72256,1.0286 -4.74616,4.3459 -4.73072,7.8544 0.1368,4.7771 2.39131,9.4201 5.08712,13.2745 1.89986,2.6437 6.63514,2.9403 9.28937,1.3658 0.60353,-0.3637 1.18672,-0.9938 1.20092,-1.7493 0.0519,-0.9352 0.19118,-1.8638 0.43182,-2.77 0.7884,-3.0349 2.86787,-5.9829 2.20453,-9.2557"
       style="fill:#000072;fill-opacity:1;fill-rule:nonzero;stroke:none;stroke-width:0.00175394"
       id="path98" />
    <path
       d="m 648.8554,3405.7552 c 0,0 -0.002,0 -0.004,-0.01 0.003,0.01 0.004,0.01 0.004,0.01"
       style="fill:#f9d3b7;fill-opacity:1;fill-rule:nonzero;stroke:none;stroke-width:0.00175394"
       id="path100" />
    <path
       d="m 648.33781,3401.6019 c -0.28133,-0.037 -3.39825,0.087 -5.22849,2.1754 0,0 -1.56591,1.4516 -1.93213,3.467 -0.59617,3.2825 1.38491,4.6434 1.38491,4.6434 3.36387,1.2032 5.27128,-2.2884 5.27128,-2.2884 0,0 0.0561,-0.569 0.1333,-1.403 0.21047,-2.2862 0.57809,-6.5677 0.37113,-6.5944"
       style="fill:#ffad40;fill-opacity:1;fill-rule:nonzero;stroke:none;stroke-width:0.00175394"
       id="path102" />
    <path
       d="m 648.33781,3401.6019 c -0.28133,-0.037 -3.39825,0.087 -5.22849,2.1754 0,0 -1.56591,1.4516 -1.93213,3.467 0,0 0.66088,0.1298 1.46488,-0.6518 0.63142,-0.6138 1.20934,-1.1665 1.59521,-0.2546 0.38587,0.912 0.30729,1.42 0.76331,2.2141 0.18101,0.3149 1.47331,0.063 2.96609,-0.3557 0.21047,-2.2862 0.57809,-6.5677 0.37113,-6.5944"
       style="fill:#ff9343;fill-opacity:1;fill-rule:nonzero;stroke:none;stroke-width:0.00175394"
       id="path104" />
    <path
       d="m 643.10915,3403.7777 c 0.91994,-0.6981 1.90951,-1.1855 2.99835,-1.5169 0.70859,-0.2125 1.44998,-0.3949 2.19348,-0.3914 -0.0656,0 -0.16838,-0.069 -0.19153,-0.1451 0.005,0.033 0.0116,0.076 0.0131,0.12 -0.0181,2.572 -0.33693,5.1624 -0.55722,7.7284 l 0.0316,-0.1028 c -0.0612,0.092 -0.13927,0.1975 -0.21223,0.2952 -0.80664,1.0718 -1.91863,2.0065 -3.29337,2.1717 -0.50583,0.07 -1.01816,0.03 -1.52943,-0.049 0.93678,0.5606 2.18049,0.5895 3.17007,0.1138 1.0064,-0.4667 1.8276,-1.2923 2.33817,-2.2727 0.17592,-1.1727 0.22626,-2.3736 0.34588,-3.557 0.10541,-1.4526 0.26694,-2.8936 0.24485,-4.361 -0.007,-0.094 -0.0137,-0.1963 -0.0521,-0.2892 -0.0395,-0.086 -0.1005,-0.1533 -0.20345,-0.1803 -0.0442,-0.011 -0.0467,-0.01 -0.0828,-0.011 -1.95143,0.01 -4.1642,0.6878 -5.2134,2.4477"
       style="fill:#000072;fill-opacity:1;fill-rule:nonzero;stroke:none;stroke-width:0.00175394"
       id="path106" />
    <path
       d="m 648.86083,3401.7219 c 2.86243,0.8515 1.78884,5.9767 1.08639,7.3004 -0.92976,1.9582 -3.09026,2.2768 -4.42237,1.4782 -0.54109,-0.3243 -2.08386,-1.6285 -1.63643,-4.2598 0.47111,-2.7716 2.55549,-5.2227 4.97241,-4.5188"
       style="fill:#ffffff;fill-opacity:1;fill-rule:nonzero;stroke:none;stroke-width:0.00175394"
       id="path108" />
    <path
       d="m 649.70939,3409.4492 c 0,0 -1.8e-4,0 -1.8e-4,2e-4 -0.30851,0.4749 -0.69999,0.8261 -1.13006,1.0646 0.43007,-0.2387 0.82172,-0.5899 1.13024,-1.0648"
       style="fill:#ffffff;fill-opacity:1;fill-rule:nonzero;stroke:none;stroke-width:0.00175394"
       id="path110" />
    <path
       d="m 650.19242,3408.4424 c -0.0824,0.2338 -0.16609,0.431 -0.2452,0.5799 -0.0723,0.1522 -0.15189,0.2945 -0.23801,0.4271 0,-2e-4 1.8e-4,-2e-4 1.8e-4,-2e-4 0.0861,-0.1324 0.16575,-0.2747 0.23783,-0.4266 0.0791,-0.1491 0.16277,-0.3462 0.2452,-0.5802"
       style="fill:#e4e4f0;fill-opacity:1;fill-rule:nonzero;stroke:none;stroke-width:0.00175394"
       id="path112" />
    <path
       d="m 648.57757,3410.5147 c -1.7e-4,2e-4 -3.5e-4,2e-4 -5.2e-4,4e-4 1.7e-4,0 3.5e-4,-2e-4 5.2e-4,-4e-4"
       style="fill:#ffffff;fill-opacity:1;fill-rule:nonzero;stroke:none;stroke-width:0.00175394"
       id="path114" />
    <path
       d="m 647.28913,3410.8983 c -0.0165,0 -0.0331,0 -0.0496,0 v 0 c 0.0165,-9e-4 0.0331,0 0.0496,0"
       style="fill:#e4e4f0;fill-opacity:1;fill-rule:nonzero;stroke:none;stroke-width:0.00175394"
       id="path116" />
    <path
       d="m 646.171,3410.782 c 0.0742,0.022 0.14978,0.041 0.22625,0.057 v 0 c -0.0763,-0.016 -0.15206,-0.035 -0.22625,-0.057"
       style="fill:#ffc67a;fill-opacity:1;fill-rule:nonzero;stroke:none;stroke-width:0.00175394"
       id="path118" />
    <path
       d="m 646.39725,3410.8394 v 0 c 0.21118,0.045 0.43007,0.068 0.65124,0.068 0.0635,0 0.12716,0 0.191,-0.01 v 0 c -0.0638,0 -0.12733,0.01 -0.19082,0.01 -0.22135,0 -0.44007,-0.023 -0.65142,-0.068"
       style="fill:#4d4d9d;fill-opacity:1;fill-rule:nonzero;stroke:none;stroke-width:0.00175394"
       id="path120" />
    <path
       d="m 644.10942,3405.3157 c -0.0937,0.3011 -0.16715,0.6109 -0.22082,0.9252 -0.44761,2.6314 1.09533,3.9353 1.6366,4.2596 0.19889,0.1194 0.41656,0.2138 0.6458,0.2815 0.0742,0.022 0.14996,0.041 0.22625,0.057 0.21135,0.045 0.43007,0.068 0.65142,0.068 0.0635,0 0.12698,0 0.19082,-0.01 0.0165,-9e-4 0.0331,0 0.0496,0 0.43884,-0.033 0.88048,-0.1577 1.28792,-0.3832 1.7e-4,-2e-4 3.5e-4,-2e-4 5.2e-4,-4e-4 5.3e-4,-2e-4 10e-4,-5e-4 0.002,-7e-4 0.43007,-0.2385 0.82155,-0.5897 1.13006,-1.0646 0.0861,-0.1326 0.16575,-0.2749 0.23801,-0.4271 0.0791,-0.1489 0.16277,-0.3461 0.2452,-0.5799 0.10138,-0.2881 0.20065,-0.6321 0.28607,-1.0104 -0.11804,0.3987 -0.24678,0.7291 -0.36482,0.9513 -0.62142,1.309 -1.79287,1.8855 -2.89908,1.8855 -0.54916,0 -1.08201,-0.1419 -1.52382,-0.4069 -0.54127,-0.3241 -2.0835,-1.6289 -1.6366,-4.2603 0.0161,-0.096 0.0345,-0.1909 0.0553,-0.2859"
       style="fill:#ffffff;fill-opacity:1;fill-rule:nonzero;stroke:none;stroke-width:0.00175394"
       id="path122" />
    <path
       d="m 649.69203,3402.1672 c 1.7e-4,2e-4 5.2e-4,5e-4 8.7e-4,7e-4 -3.5e-4,-2e-4 -5.2e-4,-5e-4 -8.7e-4,-7e-4 m 0.004,0 c 5.3e-4,4e-4 7.1e-4,5e-4 0.001,0 -3.5e-4,-4e-4 -8.8e-4,-7e-4 -0.001,0 m 0.005,0 c 7.1e-4,5e-4 0.001,0 0.002,0 -5.2e-4,-6e-4 -10e-4,0 -0.002,0 m 0.004,0 c 0.003,0 0.005,0 0.008,0.01 -0.002,0 -0.005,0 -0.008,-0.01 m 0.008,0.01 c 0.20012,0.1744 0.36552,0.382 0.50128,0.615 v 0 c -0.13558,-0.233 -0.30133,-0.4406 -0.50128,-0.615"
       style="fill:#4ba8d8;fill-opacity:1;fill-rule:nonzero;stroke:none;stroke-width:0.00175394"
       id="path124" />
    <path
       d="m 650.21365,3402.7997 c 0.10102,0.1736 0.18539,0.3613 0.25484,0.5596 -0.0694,-0.1983 -0.15382,-0.386 -0.25484,-0.5596 v 0 m 0.25554,0.5612 c 3.6e-4,0 8.8e-4,0 10e-4,0 -5.3e-4,0 -10e-4,0 -10e-4,0 m 0.002,0.01 c 1.8e-4,9e-4 5.3e-4,0 8.8e-4,0 -3.5e-4,-7e-4 -7e-4,0 -8.8e-4,0 m 0.002,0.01 c 1.8e-4,7e-4 5.3e-4,0 7.1e-4,0 -1.8e-4,-7e-4 -5.3e-4,0 -7.1e-4,0 m 0.002,0.01 c 1.8e-4,5e-4 3.5e-4,0 5.3e-4,0 -1.8e-4,-5e-4 -3.5e-4,-8e-4 -5.3e-4,0 m 0.002,0.01 c 1.8e-4,4e-4 3.5e-4,7e-4 3.5e-4,9e-4 0,-3e-4 -1.7e-4,-5e-4 -3.5e-4,-9e-4 m 0.002,0.01 c 0,1e-4 0,3e-4 1.8e-4,5e-4 -1.8e-4,-2e-4 -1.8e-4,-4e-4 -1.8e-4,-5e-4"
       style="fill:#000072;fill-opacity:1;fill-rule:nonzero;stroke:none;stroke-width:0.00175394"
       id="path126" />
    <path
       d="m 648.02298,3401.6 c -1.62976,0 -3.02151,1.3908 -3.73045,3.1921 0.79383,-1.3298 1.9816,-2.2261 3.31968,-2.2261 0.31342,0 0.6351,0.049 0.96186,0.1533 1.73429,0.5534 2.1412,2.6928 1.91512,4.6651 0.27204,-1.226 0.39709,-2.797 -0.009,-3.9919 -1.8e-4,-2e-4 -1.8e-4,-4e-4 -1.8e-4,-5e-4 -7e-4,0 -10e-4,0 -0.002,-0.01 0,-2e-4 -1.7e-4,-5e-4 -3.5e-4,-9e-4 -3.5e-4,0 -8.7e-4,0 -10e-4,0 -1.8e-4,-5e-4 -3.5e-4,0 -5.3e-4,0 -5.2e-4,0 -10e-4,0 -0.002,0 -1.8e-4,-9e-4 -5.3e-4,0 -7.1e-4,0 -3.5e-4,0 -7e-4,0 -8.7e-4,0 -3.5e-4,-7e-4 -7e-4,0 -8.8e-4,0 -3.5e-4,0 -7e-4,0 -10e-4,0 -5.3e-4,0 -0.001,0 -0.001,0 -3.5e-4,-7e-4 -3.5e-4,0 -7e-4,0 -0.0694,-0.1983 -0.15382,-0.386 -0.25484,-0.5596 -0.13576,-0.233 -0.30116,-0.4406 -0.50128,-0.615 -3.5e-4,-3e-4 -5.3e-4,-5e-4 -8.8e-4,-7e-4 -0.002,0 -0.005,0 -0.008,-0.01 -5.2e-4,-6e-4 -10e-4,-9e-4 -0.002,0 -7e-4,-6e-4 -10e-4,0 -0.002,0 -10e-4,0 -0.002,0 -0.003,0 -5.2e-4,-6e-4 -7e-4,-7e-4 -10e-4,0 -8.7e-4,-9e-4 -0.002,0 -0.003,0 -3.5e-4,-2e-4 -7e-4,-5e-4 -8.7e-4,-7e-4 -0.23012,-0.1959 -0.50496,-0.3482 -0.83085,-0.4452 -0.28466,-0.083 -0.56494,-0.122 -0.8382,-0.122"
       style="fill:#d9d9ea;fill-opacity:1;fill-rule:nonzero;stroke:none;stroke-width:0.00175394"
       id="path128" />
    <path
       d="m 647.04779,3410.6377 c -0.49408,0 -0.97887,-0.1253 -1.38438,-0.3686 -0.20311,-0.1217 -1.9709,-1.2679 -1.50927,-3.9833 0.29133,-1.7127 1.19584,-3.2301 2.36045,-3.9595 0.72789,-0.4559 1.49155,-0.5722 2.26995,-0.3459 0.62229,0.1854 1.07955,0.6172 1.35877,1.2833 0.72929,1.7405 0.0958,4.6336 -0.43427,5.6323 -0.002,0 -0.004,0.01 -0.005,0.011 -0.48496,1.0217 -1.25319,1.4377 -1.81217,1.6066 -0.27554,0.083 -0.56108,0.1244 -0.84364,0.1244 z m 1.81304,-8.9158 h 8.8e-4 z m -0.83662,-0.3912 c -0.61634,0 -1.22495,0.181 -1.79586,0.5385 -1.29107,0.8087 -2.28959,2.4664 -2.60582,4.3263 -0.52163,3.0685 1.5282,4.3951 1.76358,4.5362 0.76577,0.459 1.7606,0.5703 2.6616,0.2978 0.93572,-0.2829 1.69571,-0.9528 2.1405,-1.886 0.58617,-1.1101 1.256,-4.1705 0.45234,-6.0881 -0.34482,-0.8228 -0.91766,-1.3584 -1.70289,-1.5919 l -0.001,-5e-4 c -0.30343,-0.088 -0.60861,-0.1323 -0.91204,-0.1323"
       style="fill:#000072;fill-opacity:1;fill-rule:nonzero;stroke:none;stroke-width:0.00175394"
       id="path130" />
    <path
       d="m 649.47348,3405.6021 c 0.26029,-1.1867 -0.30395,-2.3187 -1.2602,-2.5283 -0.95607,-0.2098 -1.94231,0.5821 -2.20259,1.7688 -0.26011,1.1866 0.30395,2.3186 1.2602,2.5283 0.95625,0.2096 1.94249,-0.5823 2.20259,-1.7688"
       style="fill:#ff999e;fill-opacity:1;fill-rule:nonzero;stroke:none;stroke-width:0.00175394"
       id="path132" />
    <path
       d="m 649.37702,3408.5229 c 0.0956,-0.4358 -0.11173,-0.8517 -0.46287,-0.9287 -0.35131,-0.077 -0.7135,0.2138 -0.80909,0.6497 -0.0956,0.4358 0.11173,0.8517 0.46287,0.9287 0.35131,0.077 0.7135,-0.2138 0.80909,-0.6497"
       style="fill:#ff999e;fill-opacity:1;fill-rule:nonzero;stroke:none;stroke-width:0.00175394"
       id="path134" />
    <path
       d="m 646.10154,3407.4683 c 0.0956,-0.4359 -0.11173,-0.8517 -0.46286,-0.9287 -0.35132,-0.077 -0.71351,0.2138 -0.80909,0.6498 -0.0956,0.4359 0.11155,0.8515 0.46286,0.9287 0.35114,0.077 0.7135,-0.214 0.80909,-0.6498"
       style="fill:#ff999e;fill-opacity:1;fill-rule:nonzero;stroke:none;stroke-width:0.00175394"
       id="path136" />
    <path
       d="m 647.56275,3408.7066 c 0.10593,-0.4836 -0.12401,-0.9451 -0.51373,-1.0305 -0.38973,-0.086 -0.79173,0.2373 -0.89767,0.7209 -0.10611,0.4837 0.12383,0.945 0.51355,1.0306 0.38973,0.085 0.79173,-0.2373 0.89785,-0.721"
       style="fill:#ff999e;fill-opacity:1;fill-rule:nonzero;stroke:none;stroke-width:0.00175394"
       id="path138" />
    <path
       d="m 660.48575,3441.1055 c 1.19917,4.3068 0.27555,9.5923 -0.93625,10.0409 -1.52715,0.5657 -5.26128,-2.177 -7.22639,-4.8259 l 8.16264,-5.215"
       style="fill:#ffad40;fill-opacity:1;fill-rule:nonzero;stroke:none;stroke-width:0.00175394"
       id="path140" />
    <path
       d="m 652.32346,3446.3206 1.54206,-0.9848 6.62023,-4.2303 c 0.96116,3.4503 0.55916,7.5282 -0.26186,9.245 -0.20416,0.4258 -0.4334,0.7066 -0.67456,0.7959 -1.52698,0.5655 -5.26076,-2.1768 -7.22587,-4.8258"
       style="fill:#ffad40;fill-opacity:1;fill-rule:nonzero;stroke:none;stroke-width:0.00175394"
       id="path142" />
    <path
       d="m 653.86552,3445.3358 6.62023,-4.2303 c 0.96116,3.4503 0.55916,7.5282 -0.26186,9.245 -0.79348,0.045 -3.80517,-0.3275 -6.35837,-5.0147"
       style="fill:#ff9343;fill-opacity:1;fill-rule:nonzero;stroke:none;stroke-width:0.00175394"
       id="path144" />
    <path
       d="m 660.48575,3440.8357 c -0.0239,0 -0.0482,0 -0.0724,0.01 -0.14348,0.04 -0.22731,0.1886 -0.18732,0.332 0.53109,1.9078 0.68719,4.2268 0.42813,6.3626 -0.24274,2 -0.78646,3.2009 -1.19829,3.3534 -1.27265,0.4716 -4.89278,-2.006 -6.9163,-4.7339 -0.0886,-0.1196 -0.25748,-0.1447 -0.37709,-0.056 -0.11962,0.089 -0.1447,0.2575 -0.056,0.3771 2.03212,2.7393 5.84693,5.544 7.53667,4.9182 1.46068,-0.5409 2.29187,-6.0942 1.10235,-10.3663 -0.0333,-0.1192 -0.14172,-0.1973 -0.25976,-0.1973"
       style="fill:#000072;fill-opacity:1;fill-rule:nonzero;stroke:none;stroke-width:0.00175394"
       id="path146" />
    <path
       d="m 659.28746,3449.3209 c -0.38393,0.3015 -1.58257,-0.1491 -2.84628,-1.5061 -0.78875,-0.847 -1.43981,-1.7531 -1.5589,-2.3497 0.89293,-0.4817 2.97573,-1.7247 5.04853,-3.1263 0.57143,2.9302 -0.0165,6.4898 -0.64335,6.9821"
       style="fill:#fff3e9;fill-opacity:1;fill-rule:nonzero;stroke:none;stroke-width:0.00175394"
       id="path148" />
    <path
       d="m 654.8821,3445.4654 c 0.89311,-0.4818 2.97591,-1.7248 5.04836,-3.1262 0.009,0.044 0.0174,0.089 0.0249,0.1338 0.13979,0.7639 0.20206,1.5656 0.20749,2.3422 0.0144,2.1388 -0.40621,4.0818 -0.85258,4.4859 -0.007,0.01 -0.0149,0.014 -0.0228,0.02 -0.38411,0.3019 -1.58292,-0.1491 -2.84664,-1.5057 -0.78804,-0.8472 -1.4391,-1.7536 -1.55872,-2.3498"
       style="fill:#ffffff;fill-opacity:1;fill-rule:nonzero;stroke:none;stroke-width:0.00175394"
       id="path150" />
    <path
       d="m 659.87626,3444.1398 c -0.44182,0.4739 -0.9238,0.9087 -1.44261,1.2967 0.026,0.2822 -0.0665,0.4737 -0.16136,0.5928 -0.17154,0.2149 -0.44147,0.3145 -0.70667,0.356 0.10577,0.1746 0.1889,0.3852 0.16891,0.6062 -0.0133,0.148 -0.08,0.3624 -0.3222,0.5429 -0.16627,0.1241 -0.42077,0.1811 -0.68965,0.1859 1.03939,1.0855 1.90302,1.4226 2.25504,1.4226 0.0621,0 0.10839,-0.01 0.13681,-0.029 -0.64879,-0.6477 -1.34405,-1.6299 -0.84505,-2.8428 0.36798,-0.895 1.06534,-1.2576 1.62695,-1.4009 -7e-4,-0.2401 -0.007,-0.4839 -0.0202,-0.7301"
       style="fill:#d9d9ea;fill-opacity:1;fill-rule:nonzero;stroke:none;stroke-width:0.00175394"
       id="path152" />
    <path
       d="m 655.20535,3445.6003 c 0.4683,-0.2596 1.11831,-0.6416 1.80515,-1.0611 0.67018,0.4183 0.81506,0.6942 0.84628,0.7975 0.0486,0.1608 0.044,0.2787 -0.0133,0.3506 -0.10348,0.1299 -0.41498,0.1971 -0.79278,0.1708 -0.0202,0 -0.0328,0 -0.0374,0 -0.10857,0 -0.20749,0.067 -0.25011,0.167 -0.0716,0.1673 0.0407,0.2877 0.0947,0.3457 0.23117,0.248 0.34237,0.441 0.33044,0.573 -0.002,0.022 -0.007,0.081 -0.10383,0.1526 -0.1319,0.099 -0.59862,0.1084 -0.91784,-0.01 -0.48373,-0.5809 -0.82294,-1.1074 -0.96133,-1.4878 m 1.80445,-1.6564 c -0.0496,0 -0.0995,0.013 -0.14347,0.04 -0.83189,0.5106 -1.62239,0.9738 -2.11455,1.2388 -0.10611,0.057 -0.16241,0.177 -0.13873,0.2952 0.12488,0.6256 0.70964,1.4196 1.17829,1.9756 0.0272,0.032 0.0616,0.058 0.10033,0.075 0.44076,0.1917 1.17356,0.2249 1.52066,-0.034 0.24222,-0.1805 0.30887,-0.3949 0.3222,-0.5429 0.02,-0.221 -0.0631,-0.4316 -0.16891,-0.6062 0.2652,-0.041 0.53513,-0.1411 0.70667,-0.356 0.12137,-0.1522 0.23871,-0.4234 0.10944,-0.8512 -0.11593,-0.3843 -0.51899,-0.7756 -1.23267,-1.1962 -0.043,-0.025 -0.091,-0.038 -0.13926,-0.038"
       style="fill:#512717;fill-opacity:1;fill-rule:nonzero;stroke:none;stroke-width:0.00175394"
       id="path154" />
    <path
       d="m 655.19974,3445.5985 c 0.86767,-0.4818 2.65546,-1.5483 4.53743,-2.8047 0.46111,2.9201 -0.18276,5.9746 -0.61615,6.3151 h -1.8e-4 c -0.17574,0.1383 -1.20566,-0.1067 -2.48235,-1.4779 -0.73823,-0.7926 -1.25932,-1.5319 -1.43875,-2.0325 m 4.91769,-3.7113 -0.33781,0.2284 c -2.1398,1.4468 -4.21804,2.6766 -5.02538,3.1121 l -0.1754,0.095 0.0389,0.1954 c 0.16242,0.8136 1.0885,1.9035 1.62608,2.4809 1.24354,1.3355 2.62371,1.9951 3.21023,1.5344 0.7812,-0.6137 1.30037,-4.3793 0.74121,-7.2457 l -0.0779,-0.4001"
       style="fill:#000072;fill-opacity:1;fill-rule:nonzero;stroke:none;stroke-width:0.00175394"
       id="path156" />
    <path
       d="m 656.88299,3446.3964 c -0.30448,0.1528 -0.61809,0.291 -0.94028,0.4134 0.0707,0.091 0.1454,0.184 0.22397,0.2783 0.15838,0.057 0.35307,0.084 0.52531,0.084 0.17469,0 0.32606,-0.027 0.39253,-0.077 0.0966,-0.072 0.1019,-0.1307 0.10383,-0.1526 0.0116,-0.1273 -0.0912,-0.3108 -0.30536,-0.5458"
       style="fill:#b9b9d8;fill-opacity:1;fill-rule:nonzero;stroke:none;stroke-width:0.00175394"
       id="path158" />
    <path
       d="m 658.15565,3445.6373 c -0.25204,0.1761 -0.51233,0.3413 -0.78033,0.4948 0.30957,-0.023 0.71613,-0.1242 0.78033,-0.4948 m -1.02097,0.6284 c -0.0833,0.045 -0.16697,0.088 -0.25169,0.1307 0.21416,0.235 0.31694,0.4185 0.30536,0.5458 -0.002,0.022 -0.007,0.081 -0.10383,0.1526 -0.0665,0.05 -0.21784,0.077 -0.39253,0.077 -0.17224,0 -0.36693,-0.026 -0.52531,-0.084 -0.0786,-0.094 -0.15329,-0.1873 -0.22397,-0.2783 -0.002,7e-4 -0.004,0 -0.005,0 0.15452,0.1991 0.32851,0.4069 0.51916,0.62 0.0772,0.01 0.15523,0.014 0.23135,0.014 0.22924,0 0.44111,-0.042 0.56056,-0.1308 0.44672,-0.3329 0.0912,-0.8163 -0.11366,-1.0489"
       style="fill:#452125;fill-opacity:1;fill-rule:nonzero;stroke:none;stroke-width:0.00175394"
       id="path160" />
    <path
       d="m 655.93727,3446.8119 c -0.0579,0.022 -0.11576,0.043 -0.17417,0.064 -0.0302,0.011 -0.0605,0.021 -0.0909,0.032 0.10296,0.135 0.2131,0.272 0.32869,0.4092 0.13014,0.057 0.2908,0.095 0.45549,0.1145 -0.19065,-0.2131 -0.36464,-0.4209 -0.51916,-0.62"
       style="fill:#000072;fill-opacity:1;fill-rule:nonzero;stroke:none;stroke-width:0.00175394"
       id="path162" />
    <path
       d="m 655.19974,3445.598 c 0.469,-0.2598 1.12147,-0.6432 1.81076,-1.0641 0.67352,0.4199 0.81927,0.6975 0.85066,0.8014 0.0491,0.1624 0.0442,0.2816 -0.014,0.355 -0.10453,0.131 -0.41779,0.1989 -0.79681,0.1724 -0.0198,0 -0.0318,0 -0.0368,0 h -0.17591 l -0.0702,0.1623 c -0.0703,0.1645 0.0405,0.2836 0.0938,0.3408 0.23222,0.249 0.34377,0.443 0.33167,0.5765 -0.003,0.035 -0.0175,0.09 -0.10576,0.1559 -0.13277,0.099 -0.60265,0.1093 -0.9231,-0.01 -0.48601,-0.5835 -0.82628,-1.1123 -0.96431,-1.494 z m 1.80726,-1.6945 -0.13821,0.085 c -0.83207,0.5108 -1.62257,0.974 -2.11473,1.239 l -0.17574,0.095 0.0391,0.1957 c 0.12488,0.6246 0.70912,1.4181 1.17742,1.9735 l 0.0407,0.048 0.0579,0.025 c 0.43971,0.1914 1.1704,0.2245 1.51628,-0.034 0.24064,-0.1795 0.30711,-0.3926 0.32027,-0.5395 0.0202,-0.2224 -0.0647,-0.4343 -0.17189,-0.6092 0.2666,-0.041 0.53864,-0.14 0.7107,-0.3557 0.12067,-0.1512 0.23731,-0.4209 0.10857,-0.8468 -0.11559,-0.3832 -0.51794,-0.7736 -1.23057,-1.1937 l -0.13978,-0.082"
       style="fill:#000072;fill-opacity:1;fill-rule:nonzero;stroke:none;stroke-width:0.00175394"
       id="path164" />
    <path
       d="m 648.77612,3446.4311 c -2.82138,3.345 -6.47887,5.5905 -8.13809,4.978 -1.31809,-0.4863 -2.08035,-5.0629 -0.75823,-12.7434 l 8.89632,7.7654"
       style="fill:#ffad40;fill-opacity:1;fill-rule:nonzero;stroke:none;stroke-width:0.00175394"
       id="path166" />
    <path
       d="m 639.8798,3438.6654 8.89667,7.7654 c -0.0237,0.027 -0.0465,0.056 -0.0702,0.083 -2.81173,3.2995 -6.42239,5.5027 -8.06846,4.8958 -0.20328,-0.075 -0.39306,-0.2473 -0.56442,-0.5136 -0.93923,-1.4587 -1.31177,-5.7343 -0.19363,-12.2305"
       style="fill:#ffad40;fill-opacity:1;fill-rule:nonzero;stroke:none;stroke-width:0.00175394"
       id="path168" />
    <path
       d="m 639.82806,3438.9701 c 0.0168,-0.1004 0.0342,-0.2025 0.0517,-0.3047 l 2.77087,2.4188 6.1258,5.3466 c -0.0237,0.027 -0.0465,0.056 -0.0702,0.083 -2.81173,3.2995 -6.42239,5.5027 -8.06846,4.8958 -0.20328,-0.075 -0.39306,-0.2473 -0.56442,-0.5136 -0.003,0 -0.005,-0.01 -0.008,-0.013 -0.91836,-1.4472 -1.28879,-5.6063 -0.23713,-11.9129"
       style="fill:#ffad40;fill-opacity:1;fill-rule:nonzero;stroke:none;stroke-width:0.00175394"
       id="path170" />
    <path
       d="m 647.32772,3447.0752 c -2.15138,2.4988 -4.75756,3.9868 -6.41292,3.9868 -0.13137,0 -0.25713,-0.01 -0.37587,-0.028 0.0638,0.055 0.12874,0.094 0.19398,0.1184 0.15944,0.059 0.34097,0.087 0.54162,0.087 1.53136,0 4.16981,-1.6531 6.44449,-4.04 -0.13119,-0.039 -0.26169,-0.08 -0.3913,-0.124"
       style="fill:#ffd6a0;fill-opacity:1;fill-rule:nonzero;stroke:none;stroke-width:0.00175394"
       id="path172" />
    <path
       d="m 639.82806,3438.9701 2.82261,2.1141 c 0.36903,1.2236 0.73297,3.0673 0.32132,4.81 -0.60125,2.5403 -1.51593,5.1635 -2.9068,4.9888 -0.91836,-1.4472 -1.28879,-5.6063 -0.23713,-11.9129"
       style="fill:#ff9343;fill-opacity:1;fill-rule:nonzero;stroke:none;stroke-width:0.00175394"
       id="path174" />
    <path
       d="m 639.87945,3438.3914 c -0.13102,0 -0.24696,0.094 -0.26993,0.2279 -1.19128,6.9206 -0.79857,12.4078 0.93362,13.0472 1.78568,0.6591 5.49403,-1.563 8.44257,-5.0586 0.0977,-0.1157 0.083,-0.2889 -0.0328,-0.3864 -0.11576,-0.098 -0.2887,-0.083 -0.3864,0.033 -2.71579,3.2197 -6.3033,5.4625 -7.83361,4.8977 -1.03307,-0.3813 -1.93266,-4.5986 -0.58283,-12.4398 0.0256,-0.1492 -0.0745,-0.291 -0.2238,-0.3167 -0.0158,0 -0.0314,0 -0.0468,0"
       style="fill:#000072;fill-opacity:1;fill-rule:nonzero;stroke:none;stroke-width:0.00175394"
       id="path176" />
    <path
       d="m 646.64088,3446.8158 c 3.7201,1.1448 15.4585,2.172 16.61066,-12.4681 0.22766,-0.3529 1.02395,-2.0793 0.55757,-4.5379 -0.8575,-3.6556 -4.80736,-7.0831 -12.65395,-7.2312 -3.89339,-0.047 -12.10638,1.176 -13.81682,7.7659 -1.06972,4.1216 0.24889,8.873 2.84682,12.6729 0,0 0.89819,1.1026 2.74298,2.0704 1.84462,0.9676 3.71274,1.728 3.71274,1.728"
       style="fill:#ffad40;fill-opacity:1;fill-rule:nonzero;stroke:none;stroke-width:0.00175394"
       id="path178" />
    <path
       d="m 663.80929,3429.8096 c -0.85768,-3.6554 -4.80772,-7.0828 -12.65396,-7.2308 -3.89356,-0.047 -12.10655,1.1758 -13.81664,7.7657 -0.19153,0.7376 -0.30641,1.4946 -0.35131,2.2633 -0.20574,3.5274 1.06482,7.2897 3.1976,10.4095 0,0 0.89855,1.103 2.74316,2.0703 1.84444,0.968 3.71291,1.7283 3.71291,1.7283 3.72028,1.1447 15.45815,2.1718 16.61049,-12.4682 0.0488,-0.076 0.1233,-0.2141 0.20573,-0.409 h 7.1e-4 c 0.30448,-0.7161 0.71736,-2.1964 0.35131,-4.1291"
       style="fill:#ffad40;fill-opacity:1;fill-rule:nonzero;stroke:none;stroke-width:0.00175394"
       id="path180" />
    <path
       d="m 663.80929,3429.8096 c -0.85768,-3.6554 -4.80772,-7.0828 -12.65396,-7.2308 -3.89356,-0.047 -12.10655,1.1758 -13.81664,7.7657 -0.19153,0.7376 -0.30641,1.4946 -0.35131,2.2633 1.07657,1.0427 2.78929,1.5887 4.55971,1.5907 4.28697,0 4.14876,-1.7829 6.6704,-1.8115 1.09551,-0.012 1.93828,0.4237 2.81612,0.86 0.93222,0.4632 1.90408,0.9264 3.26022,0.8522 1.99247,-0.1098 2.30608,-0.9798 3.50331,-1.3739 1.15181,-0.3786 1.88671,0.082 2.79192,0.542 0.73736,0.375 1.58767,0.7498 2.86821,0.6714 h 7.1e-4 c 0.30448,-0.7161 0.71736,-2.1964 0.35131,-4.1291"
       style="fill:#ffffff;fill-opacity:1;fill-rule:nonzero;stroke:none;stroke-width:0.00175394"
       id="path182" />
    <path
       d="m 650.94258,3422.854 c -0.56266,0 -1.11182,0.021 -1.63905,0.061 -3.84042,0.2971 -8.16072,1.6471 -10.41874,4.7477 3.59575,-2.9491 8.96455,-3.6685 12.12146,-3.6685 0.0823,0 0.16312,3e-4 0.24239,0 0.34571,0.01 0.68492,0.019 1.01746,0.036 0.37114,0.7654 1.21829,1.7158 2.25767,1.9607 0.17838,0.042 0.35009,0.061 0.51443,0.061 0.68474,0 1.24459,-0.3308 1.6594,-0.7063 -0.31343,0.1735 -0.64878,0.2936 -1.00237,0.348 -0.0854,0.013 -0.18627,0.021 -0.29765,0.021 -0.61124,0 -1.54083,-0.2394 -2.01334,-1.1788 -0.26274,-0.5223 -0.34711,-1.0455 -0.31922,-1.5827 -0.71806,-0.069 -1.43068,-0.1007 -2.12244,-0.1007 m 7.10345,1.2662 c -0.19767,0.2674 -0.41498,0.5109 -0.64966,0.7228 1.99528,0.5684 3.61311,1.3903 4.87822,2.3722 -1.04464,-1.4013 -2.53829,-2.4057 -4.22856,-3.095"
       style="fill:#d9d9ea;fill-opacity:1;fill-rule:nonzero;stroke:none;stroke-width:0.00175394"
       id="path184" />
    <path
       d="m 660.09322,3431.3273 c 0.0575,-1.2102 1.45612,-2.127 3.12289,-2.0472 0.16101,0.01 0.31851,0.024 0.47216,0.05 0.0502,0.164 0.09,0.3238 0.12049,0.4797 0.33273,1.6763 0.0426,3.0459 -0.24081,3.8427 -0.18241,0.016 -0.37043,0.02 -0.56144,0.011 -1.66676,-0.08 -2.97134,-1.126 -2.91329,-2.336"
       style="fill:#ff8080;fill-opacity:1;fill-rule:nonzero;stroke:none;stroke-width:0.00175394"
       id="path186" />
    <path
       d="m 646.30763,3431.2175 c -0.0786,-1.3304 -1.70781,-2.3165 -3.6389,-2.2024 -1.93108,0.1141 -3.43263,1.2852 -3.35405,2.6158 0.0786,1.3303 1.70781,2.3164 3.63889,2.2024 1.93091,-0.1142 3.43263,-1.2853 3.35406,-2.6158"
       style="fill:#ff8080;fill-opacity:1;fill-rule:nonzero;stroke:none;stroke-width:0.00175394"
       id="path188" />
    <path
       d="m 646.64088,3446.8158 c 2.84751,1.1923 6.23594,1.0928 9.12222,0.06 3.00923,-1.0774 5.29163,-3.5235 6.45467,-6.4685 0.78453,-1.9306 1.15777,-3.9885 1.31755,-6.0374 l -0.0445,0.1319 c 0.29326,-0.495 0.44989,-1.0284 0.57547,-1.5802 0.22223,-1.0441 0.21258,-2.1248 0.0121,-3.1702 -0.14101,-0.5746 -0.34044,-1.1243 -0.60546,-1.6447 -2.56829,-4.9078 -9.14993,-6.0877 -14.2125,-5.7297 -4.19173,0.3653 -8.85335,1.7648 -11.18977,5.5387 -1.67431,2.8176 -1.68378,6.3716 -0.84697,9.4552 0.57827,2.0572 1.5375,4.0437 2.96152,5.6462 -1.89987,-3.6576 -3.52243,-7.7796 -2.72843,-11.9553 0.96818,-5.5646 6.81879,-7.7582 11.8468,-8.1472 5.23831,-0.3947 12.63185,1.0429 14.21215,6.8607 0.21468,0.9911 0.21153,2.0373 0.002,3.0281 -0.0814,0.3694 -0.19065,0.733 -0.34307,1.0773 -0.0598,0.167 -0.1775,0.2848 -0.20626,0.4445 -0.80015,9.8697 -6.64515,14.1484 -16.32705,12.4903"
       style="fill:#000072;fill-opacity:1;fill-rule:nonzero;stroke:none;stroke-width:0.00175394"
       id="path190" />
    <path
       d="m 640.9625,3450.2966 c 1.14533,0.1135 3.80956,-2.2508 4.18683,-3.5171 0.28922,-0.9715 -1.59994,-0.8426 -4.54112,-3.1506 -0.84049,2.1789 -0.1447,6.6181 0.35429,6.6677"
       style="fill:#fff3e9;fill-opacity:1;fill-rule:nonzero;stroke:none;stroke-width:0.00175394"
       id="path192" />
    <path
       d="m 640.60821,3443.6292 c 0.014,0.011 0.0281,0.022 0.0421,0.033 2.91663,2.2738 4.78685,2.1508 4.49868,3.1174 -0.37657,1.2667 -3.0408,3.6307 -4.18612,3.5175 -0.064,-0.01 -0.13155,-0.086 -0.19838,-0.2224 -0.45462,-0.9306 -0.88819,-4.5465 -0.15627,-6.445"
       style="fill:#ffffff;fill-opacity:1;fill-rule:nonzero;stroke:none;stroke-width:0.00175394"
       id="path194" />
    <path
       d="m 640.6503,3443.6617 c -0.048,0.1455 -0.0898,0.3009 -0.12681,0.4618 0.84856,1.3628 2.4485,1.8839 2.26328,3.5861 -0.14136,1.294 -1.36017,1.8751 -2.11244,2.1128 0.0177,0.055 0.0495,0.1429 0.0901,0.2518 0.0668,0.1368 0.13436,0.2163 0.19838,0.2224 0.0267,0 0.0542,0 0.0824,0 1.18549,0 3.73589,-2.2842 4.10369,-3.5214 0.0196,-0.066 0.0293,-0.1272 0.0291,-0.1842 -0.002,-0.7768 -1.81041,-0.8148 -4.52779,-2.9332 v 0"
       style="fill:#d9d9ea;fill-opacity:1;fill-rule:nonzero;stroke:none;stroke-width:0.00175394"
       id="path196" />
    <path
       d="m 640.9625,3450.2966 h 8.8e-4 z m 0.0824,-0.2653 c -0.3578,-0.4719 -0.88872,-3.9048 -0.30063,-5.9585 1.29739,0.9703 2.38571,1.4803 3.12394,1.8262 0.95204,0.4464 1.09551,0.559 1.02255,0.8035 -0.35377,1.1879 -2.84331,3.3288 -3.84007,3.3288 -0.002,0 -0.004,0 -0.006,0 z m -0.43673,-6.672 c -0.0239,0 -0.0479,0 -0.0716,0.01 -0.0824,0.023 -0.14926,0.083 -0.17996,0.163 -0.79681,2.0656 -0.26309,5.9776 0.22539,6.7712 0.0987,0.1602 0.21783,0.2482 0.35394,0.2617 0.86188,0.086 2.0935,-0.884 2.58355,-1.3048 0.76138,-0.6536 1.65712,-1.6283 1.88811,-2.4037 0.21732,-0.7293 -0.42357,-1.0298 -1.31071,-1.4454 -0.81874,-0.384 -1.94003,-0.9095 -3.32231,-1.9941 -0.0481,-0.038 -0.10682,-0.057 -0.16645,-0.057"
       style="fill:#512717;fill-opacity:1;fill-rule:nonzero;stroke:none;stroke-width:0.00175394"
       id="path198" />
    <path
       d="m 641.04511,3450.0311 c -0.35797,-0.4713 -0.88907,-3.9036 -0.3008,-5.9578 1.06798,0.7989 1.98616,1.2813 2.68195,1.6173 0.15592,0.075 0.30185,0.1433 0.43743,0.2068 0.9559,0.4473 1.09972,0.56 1.02676,0.8047 -0.0758,0.2557 -0.27186,0.5885 -0.5674,0.9626 -0.96905,1.2254 -2.55707,2.3664 -3.2746,2.3664 z m -0.4369,-6.6715 c -0.0239,0 -0.0481,0 -0.0716,0.01 -0.0824,0.023 -0.14926,0.083 -0.17996,0.1629 -0.79646,2.0649 -0.26309,5.9767 0.22539,6.7704 0.0987,0.1605 0.21783,0.2487 0.35412,0.2622 1.06481,0.1058 2.92802,-1.4505 3.8099,-2.5658 0.34254,-0.4336 0.56494,-0.8182 0.66123,-1.1432 0.21767,-0.7297 -0.42533,-1.0305 -1.3151,-1.4469 -0.134,-0.063 -0.278,-0.1301 -0.43182,-0.2041 -0.73578,-0.3554 -1.72886,-0.8798 -2.88575,-1.7876 -0.0481,-0.038 -0.10682,-0.058 -0.16645,-0.058"
       style="fill:#000072;fill-opacity:1;fill-rule:nonzero;stroke:none;stroke-width:0.00175394"
       id="path200" />
    <path
       d="m 642.69013,3445.8992 c -0.0128,0.6584 0.77665,0.7294 1.23372,0.8941 0.003,0 -10e-4,-7e-4 -0.006,0 -0.002,0 -0.006,0 -0.008,-0.01 -0.0702,-0.055 -0.0472,-0.171 0.0128,-0.205 -0.30939,0.1163 -0.66,0.2219 -0.83978,0.5369 -0.19627,0.3395 0.009,0.7901 0.33377,0.9645 0.4127,0.1999 0.80103,0.1192 1.19829,0.011 0.0544,-0.017 0.0994,-0.049 0.1319,-0.091 0.28045,-0.369 0.58318,-0.7824 0.68596,-1.2551 0.0958,-0.4364 -0.2466,-0.7731 -0.57704,-0.9533 -0.39008,-0.2239 -0.80102,-0.39 -1.19443,-0.5879 -0.10278,-0.051 -0.22328,-0.03 -0.30186,0.045 -0.006,0.01 -0.0417,0.027 -0.0929,0.048 -0.26608,0.09 -0.5653,0.2696 -0.57635,0.6032 z m 0.5546,0.034 c 0.003,-0.018 8.7e-4,-0.011 0.003,-0.016 0.13733,-0.1059 0.3222,-0.1212 0.47988,-0.2694 l -0.30186,0.045 0.78892,0.3711 c 0.20539,0.1145 0.75367,0.322 0.68702,0.5872 -0.0989,0.3803 -0.33675,0.6958 -0.57915,1.0136 l 0.13435,-0.091 c -0.25344,0.074 -0.59756,0.1079 -0.82207,0.011 -0.4148,-0.2629 -0.0346,-0.5798 0.2773,-0.7074 0.0246,-0.011 0.13172,-0.053 0.15294,-0.068 0.0684,-0.036 0.0959,-0.1416 0.0433,-0.2061 -0.0233,-0.032 -0.053,-0.046 -0.0837,-0.06 -0.24309,-0.085 -0.50934,-0.2112 -0.67403,-0.3941 -0.0674,-0.07 -0.11296,-0.144 -0.10594,-0.2156"
       style="fill:#000072;fill-opacity:1;fill-rule:nonzero;stroke:none;stroke-width:0.00175394"
       id="path202" />
    <path
       d="m 655.71592,3433.3838 c -7e-4,-0.4541 -0.50759,-0.8544 -0.89714,-1.0948 -0.26958,-0.1667 -0.61107,-0.166 -0.88012,0 -0.38867,0.2419 -0.89398,0.6439 -0.89328,1.098 10e-4,0.7375 2.67195,0.7326 2.67054,0"
       style="fill:#000072;fill-opacity:1;fill-rule:nonzero;stroke:none;stroke-width:0.00175394"
       id="path204" />
    <path
       d="m 654.58954,3433.3194 c -0.0568,0 -0.11365,0.01 -0.16381,0.024 -0.14383,0.045 -0.33097,0.1194 -0.3308,0.2035 0,0.068 0.24398,0.1013 0.48935,0.1013 0.24853,0 0.49882,-0.035 0.49865,-0.1031 -1.8e-4,-0.084 -0.1875,-0.1579 -0.33167,-0.2022 -0.0495,-0.015 -0.10559,-0.023 -0.16172,-0.023"
       style="fill:#5959a3;fill-opacity:1;fill-rule:nonzero;stroke:none;stroke-width:0.00175394"
       id="path206" />
    <path
       d="m 654.77493,3432.6152 c -0.12207,-0.6183 -0.62212,-1.1922 -0.68105,-1.1855 -0.0395,0 0.0435,0.7707 -0.14698,1.249"
       style="fill:#000072;fill-opacity:1;fill-rule:nonzero;stroke:none;stroke-width:0.00175394"
       id="path208" />
    <path
       d="m 644.78135,3435.9485 c 0.36131,-0.7398 0.76542,-1.4869 1.37982,-2.0072 0.81401,-0.6968 2.04948,-0.9122 3.05326,-0.5731 1.13339,0.3783 1.74218,1.3626 2.12823,2.4767 0.32833,-0.8914 0.13628,-1.9543 -0.50005,-2.6956 -0.98992,-1.1869 -2.79946,-1.325 -4.13035,-0.67 -1.31124,0.6161 -1.96353,2.0859 -1.93091,3.4692"
       style="fill:#000072;fill-opacity:1;fill-rule:nonzero;stroke:none;stroke-width:0.00175394"
       id="path210" />
    <path
       d="m 660.8718,3435.7209 c 0.49496,-1.4696 -0.12944,-3.2366 -1.86497,-3.3355 -0.95151,-0.08 -1.87302,0.4664 -2.28239,1.3104 -0.33922,0.6781 -0.40551,1.4386 -0.24959,2.16 0.11313,-0.2824 0.25993,-0.6897 0.39253,-0.954 0.35745,-0.7947 1.01097,-1.5465 1.88619,-1.5784 0.39533,-0.027 0.79944,0.053 1.1155,0.2996 0.61546,0.503 0.80769,1.3326 1.00273,2.0979"
       style="fill:#000072;fill-opacity:1;fill-rule:nonzero;stroke:none;stroke-width:0.00175394"
       id="path212" />
    <path
       d="m 655.98042,3426.8586 c -0.39148,0.3306 -0.86662,0.4401 -1.3586,0.3811 -0.85435,-0.1377 -1.50506,-0.7486 -2.11876,-1.3324 0.16171,0.3197 0.35552,0.631 0.60967,0.8967 0.37131,0.4122 0.88644,0.7446 1.45121,0.834 0.56915,0.1 1.27897,-0.1733 1.41648,-0.7794"
       style="fill:#000072;fill-opacity:1;fill-rule:nonzero;stroke:none;stroke-width:0.00175394"
       id="path214" />
    <path
       d="m 648.38218,3439.9914 c 0.43937,0.1668 1.09586,0.5916 1.94144,0.3299 0.98343,-0.3043 0.82926,-1.5424 0.28922,-1.6512 -1.00606,-0.2026 -1.28528,0.9028 -2.23066,1.3213"
       style="fill:#ffffff;fill-opacity:1;fill-rule:nonzero;stroke:none;stroke-width:0.00175394"
       id="path216" />
    <path
       d="m 658.3349,3439.489 c -0.44831,0.4033 -1.15163,0.6416 -1.6829,0.3984 -0.57775,-0.2647 -0.68702,-1.0984 -0.22608,-1.2966 0.82154,-0.3532 0.99886,0.6583 1.90898,0.8982"
       style="fill:#ffffff;fill-opacity:1;fill-rule:nonzero;stroke:none;stroke-width:0.00175394"
       id="path218" />
    <path
       d="m 654.82931,3417.3293 c -0.37535,3.0004 -2.19979,5.1078 -1.20426,7.0871 0.50566,1.0054 1.58539,1.0803 2.02931,1.0122 2.17664,-0.3339 3.64222,-3.4312 3.4079,-5.8839 -0.2652,-2.7746 -2.6723,-2.7737 -4.23295,-2.2154"
       style="fill:#777782;fill-opacity:1;fill-rule:nonzero;stroke:none;stroke-width:0.00175394"
       id="path220" />
    <path
       d="m 659.06208,3419.545 c -0.0168,-0.1754 -0.0421,-0.3388 -0.0751,-0.4925 l -7.1e-4,-7e-4 c -0.4904,-2.2792 -2.69527,-2.2456 -4.15735,-1.7224 -0.12401,0.9907 -0.40604,1.8845 -0.69228,2.708 -0.58021,1.6704 -1.17795,3.0537 -0.51145,4.379 0.50583,1.0054 1.58538,1.0803 2.02948,1.0122 2.17611,-0.3338 3.6417,-3.431 3.40737,-5.8836"
       style="fill:#ffad40;fill-opacity:1;fill-rule:nonzero;stroke:none;stroke-width:0.00175394"
       id="path222" />
    <path
       d="m 659.09541,3419.5447 c -0.0161,-0.1752 -0.0417,-0.3384 -0.0747,-0.4922 l -7e-4,-5e-4 c -0.49005,-2.2798 -2.69493,-2.2461 -4.15701,-1.7224 -0.1247,0.9903 -0.40656,1.8841 -0.69298,2.7078 -0.0633,0.1834 -0.12733,0.3634 -0.18942,0.54 -0.50619,1.4337 -0.91468,2.6591 -0.3215,3.8388 0.50548,1.0057 1.58538,1.0805 2.02966,1.0124 1.27862,-0.1961 2.31204,-1.3461 2.89908,-2.7596 0.41182,-0.9915 0.60476,-2.1125 0.50759,-3.1243"
       style="fill:#ffad40;fill-opacity:1;fill-rule:nonzero;stroke:none;stroke-width:0.00175394"
       id="path224" />
    <path
       d="m 658.58782,3422.669 c -0.005,-0.6215 -0.25818,-1.3341 -1.2139,-1.8564 -1.67238,-0.9147 -3.39264,-0.2359 -3.39264,-0.2359 l -7e-4,7e-4 c -0.50619,1.4337 -0.91468,2.6591 -0.3215,3.8388 0.50548,1.0057 1.58538,1.0805 2.02966,1.0124 1.27862,-0.1961 2.31204,-1.3461 2.89908,-2.7596"
       style="fill:#ffffff;fill-opacity:1;fill-rule:nonzero;stroke:none;stroke-width:0.00175394"
       id="path226" />
    <path
       d="m 653.60067,3423.0636 c -0.0107,0.4253 0.0642,0.8321 0.2652,1.2316 0.35412,0.7037 1.05587,0.8831 1.51926,0.8831 0.0854,0 0.16277,-0.01 0.22836,-0.016 0.19416,-0.03 0.38219,-0.084 0.56354,-0.1603 -0.0403,0.01 -0.0808,0.015 -0.12172,0.022 -0.078,0.012 -0.17434,0.02 -0.28309,0.02 -0.55582,0 -1.43893,-0.2038 -1.89232,-1.105 -0.14505,-0.2881 -0.23433,-0.5789 -0.27923,-0.8743"
       style="fill:#ffffff;fill-opacity:1;fill-rule:nonzero;stroke:none;stroke-width:0.00175394"
       id="path228" />
    <path
       d="m 658.98631,3419.0518 c -0.4904,-2.2792 -2.69527,-2.2456 -4.15735,-1.7224 -0.12401,0.9907 -0.40604,1.8845 -0.69228,2.708 0.63685,-0.01 1.57486,-0.1165 2.40412,-0.6187 1.02482,-0.6216 1.86671,-1.0734 2.44551,-0.3669"
       style="fill:#ff9343;fill-opacity:1;fill-rule:nonzero;stroke:none;stroke-width:0.00175394"
       id="path230" />
    <path
       d="m 655.07416,3417.5313 c 0.54442,-0.1724 1.79866,-0.4641 2.72807,0.1263 0.57143,0.3631 0.90503,1.0066 0.9915,1.9127 0.21784,2.2783 -1.15234,5.2806 -3.18024,5.5917 -0.42094,0.065 -1.32825,-0.033 -1.74762,-0.8668 -0.5567,-1.1071 -0.14628,-2.2673 0.37359,-3.7362 0.31606,-0.8935 0.67246,-1.9004 0.8347,-3.0277 m 1.37333,-0.7629 c -0.75946,0 -1.43279,0.2083 -1.70886,0.3071 -0.0958,0.034 -0.16417,0.1194 -0.1768,0.2203 -0.14224,1.1376 -0.50811,2.1713 -0.83084,3.0832 -0.54021,1.5272 -1.00693,2.8461 -0.34675,4.1584 0.55863,1.1106 1.75604,1.2427 2.31099,1.1578 2.34536,-0.3599 3.88006,-3.6156 3.63538,-6.1761 -0.10313,-1.0803 -0.52022,-1.8597 -1.23933,-2.3166 -0.51618,-0.328 -1.10182,-0.4341 -1.64379,-0.4341"
       style="fill:#000072;fill-opacity:1;fill-rule:nonzero;stroke:none;stroke-width:0.00175394"
       id="path232" />
    <path
       d="m 657.33866,3414.4995 c -0.30378,-0.3787 -0.69368,-0.4503 -1.43033,-0.4769 -1.30212,-0.046 -3.13446,-0.8181 -5.5905,-0.4876 -2.44622,0.3283 -4.81526,1.9733 -5.67749,2.9794 -0.033,0.039 -0.0639,0.077 -0.0926,0.1129 l 1.58398,5.6649 c 0.20135,-0.091 0.48128,-0.2848 0.82435,-0.5332 l 7e-4,-7e-4 c 1.11831,-0.811 2.90084,-2.1985 4.77036,-2.4623 0.51302,-0.072 1.06832,-0.039 1.63695,0 1.01272,0.06 2.06824,0.1201 3.00449,-0.4189 0.53793,-0.3101 0.89714,-0.8861 1.1034,-1.5273 v 0 c 0.34869,-1.0824 0.26169,-2.3522 -0.1333,-2.844"
       style="fill:#ffad40;fill-opacity:1;fill-rule:nonzero;stroke:none;stroke-width:0.00175394"
       id="path234" />
    <path
       d="m 657.33884,3414.4993 c -0.30396,-0.3789 -0.69368,-0.4504 -1.43034,-0.4767 -0.16259,-0.01 -0.33307,-0.023 -0.51232,-0.048 v -7e-4 c -1.25722,-0.1733 -2.9289,-0.7288 -5.07853,-0.4396 -2.44621,0.3289 -4.8149,1.9737 -5.67696,2.9794 -0.0331,0.039 -0.064,0.077 -0.0931,0.1133 l 1.58416,5.6649 c 0.20153,-0.091 0.48128,-0.2852 0.82435,-0.5332 l 7e-4,-7e-4 c 1.11831,-0.8108 2.90049,-2.1987 4.77036,-2.4623 0.51267,-0.072 1.06744,-0.039 1.63572,-0.01 0.47497,0.028 0.95958,0.056 1.43683,0.023 h 5.2e-4 c 0.54004,-0.038 1.07113,-0.155 1.56872,-0.4416 0.53776,-0.31 0.89714,-0.8856 1.1034,-1.5267 v 0 c 0.34851,-1.0825 0.26152,-2.3525 -0.13347,-2.8445"
       style="fill:#ffad40;fill-opacity:1;fill-rule:nonzero;stroke:none;stroke-width:0.00175394"
       id="path236" />
    <path
       d="m 656.61359,3418.7033 c -0.077,0.062 -0.15856,0.1189 -0.24468,0.1686 -0.49759,0.2866 -1.02868,0.4037 -1.56872,0.4416 h -5.2e-4 c -0.15558,0.011 -0.31168,0.015 -0.46813,0.015 -0.32378,0 -0.64843,-0.019 -0.9687,-0.038 -0.0293,0 -0.0584,0 -0.0877,-0.01 0.0296,0 0.0593,0 0.0889,0.01 0.32079,0.019 0.6458,0.038 0.9701,0.038 0.6993,0 1.39473,-0.089 2.03439,-0.4569 0.0863,-0.05 0.16785,-0.1063 0.24503,-0.1689 m -5.13483,0.6342 c -1.2474,0.2414 -2.44376,0.9538 -3.41597,1.6252 0.97221,-0.6714 2.16875,-1.3838 3.41597,-1.6252"
       style="fill:#ffc67a;fill-opacity:1;fill-rule:nonzero;stroke:none;stroke-width:0.00175394"
       id="path238" />
    <path
       d="m 656.61359,3418.7033 c -0.077,0.062 -0.15856,0.1189 -0.24468,0.1686 -0.49759,0.2866 -1.02868,0.4037 -1.56872,0.4416 0.20118,-0.045 0.40849,-0.2589 0.58775,-0.5916 -0.33658,0.062 -0.68597,0.08 -1.04938,0.08 -0.25169,0 -0.50987,-0.01 -0.77524,-0.017 -0.2652,-0.01 -0.53741,-0.017 -0.81664,-0.017 -0.4134,0 -0.84241,0.019 -1.28826,0.085 -2.42237,0.3564 -4.45536,2.8489 -4.50166,2.9064 0.31904,-0.2315 0.69228,-0.5097 1.10603,-0.7956 0.97221,-0.6714 2.16857,-1.3838 3.41597,-1.6252 0.0826,-0.016 0.1654,-0.03 0.24836,-0.042 0.2238,-0.032 0.4555,-0.043 0.6928,-0.043 0.27853,0 0.56495,0.016 0.85522,0.033 0.0293,0 0.0584,0 0.0877,0.01 0.32027,0.019 0.64492,0.038 0.9687,0.038 0.15645,0 0.31255,0 0.46813,-0.015 h 5.2e-4 c 0.54004,-0.038 1.07113,-0.155 1.56872,-0.4416 0.0861,-0.05 0.16768,-0.1062 0.24468,-0.1686 v 0"
       style="fill:#ffc67a;fill-opacity:1;fill-rule:nonzero;stroke:none;stroke-width:0.00175394"
       id="path240" />
    <path
       d="m 657.33866,3414.4995 c -0.30378,-0.3787 -0.69368,-0.4503 -1.43033,-0.4769 -1.30212,-0.046 -3.13446,-0.8181 -5.5905,-0.4876 -2.44622,0.3283 -4.81526,1.9733 -5.67749,2.9794 0.88959,-0.1249 3.55821,-2.05 5.87112,-2.24 1.2546,-0.1034 2.24241,0.037 3.16183,0.1767 0.79593,0.1212 1.54066,0.2424 2.36273,0.2055 1.31036,-0.059 1.54118,1.5814 1.43594,2.6869 0.34869,-1.0824 0.26169,-2.3522 -0.1333,-2.844"
       style="fill:#ff9343;fill-opacity:1;fill-rule:nonzero;stroke:none;stroke-width:0.00175394"
       id="path242" />
    <path
       d="m 657.33884,3414.4993 c -0.30396,-0.3789 -0.69368,-0.4504 -1.43034,-0.4767 -0.16259,-0.01 -0.33307,-0.023 -0.51232,-0.048 0.10243,0.2264 0.18732,0.4569 0.25607,0.6882 0.12611,0 0.25415,0 0.38359,-0.01 1.31037,-0.059 1.54154,1.5806 1.43647,2.6868 0.34851,-1.0825 0.26152,-2.3525 -0.13347,-2.8445"
       style="fill:#f9d3b7;fill-opacity:1;fill-rule:nonzero;stroke:none;stroke-width:0.00175394"
       id="path244" />
    <path
       d="m 657.33884,3414.4993 c -0.30396,-0.3789 -0.69368,-0.4504 -1.43034,-0.4767 -0.16259,-0.01 -0.33307,-0.023 -0.51232,-0.048 1.0792,2.3808 0.19486,5.1606 -0.59599,5.3386 0.54004,-0.038 1.07113,-0.155 1.56872,-0.4416 0.53776,-0.31 0.89714,-0.8856 1.1034,-1.5267 v 0 c 0.34851,-1.0825 0.26152,-2.3525 -0.13347,-2.8445"
       style="fill:#ffffff;fill-opacity:1;fill-rule:nonzero;stroke:none;stroke-width:0.00175394"
       id="path246" />
    <path
       d="m 655.39618,3413.9749 c 0.10243,0.2264 0.18732,0.4569 0.25607,0.6882 1.8e-4,0 3.6e-4,0 5.3e-4,0 -0.0689,-0.2313 -0.15382,-0.4616 -0.2566,-0.6882"
       style="fill:#d4b4ad;fill-opacity:1;fill-rule:nonzero;stroke:none;stroke-width:0.00175394"
       id="path248" />
    <path
       d="m 655.39618,3413.9749 v 0 c 0.10278,0.2266 0.18767,0.4569 0.2566,0.6882 0.0288,2e-4 0.0579,4e-4 0.0868,4e-4 0.0979,0 0.19662,0 0.29624,-0.01 0.0231,0 0.0459,0 0.0684,0 1.25003,0 1.47138,1.6017 1.36807,2.6884 0.14874,-0.462 0.21819,-0.9581 0.21819,-1.4133 0,-0.6114 -0.12523,-1.1492 -0.35166,-1.4312 -0.12681,-0.158 -0.26853,-0.2626 -0.4441,-0.3327 -0.14698,-0.059 -0.31799,-0.093 -0.52372,-0.1147 -0.13751,-0.015 -0.29063,-0.023 -0.46252,-0.029 -0.16259,-0.01 -0.33307,-0.023 -0.51232,-0.048"
       style="fill:#d9d9ea;fill-opacity:1;fill-rule:nonzero;stroke:none;stroke-width:0.00175394"
       id="path250" />
    <path
       d="m 646.13188,3422.292 c 0.59108,-0.2138 1.10744,-0.591 1.64449,-0.9052 0.52759,-0.3259 1.05675,-0.6402 1.59591,-0.9206 1.07815,-0.5744 2.1577,-1.038 3.40071,-0.9336 1.52558,0.095 3.57137,0.3118 4.5427,-1.1988 0.62124,-0.99 0.80979,-2.2391 0.55056,-3.3755 -0.26379,-1.0471 -1.04605,-1.2251 -2.00352,-1.2432 -0.9559,-0.075 -1.8818,-0.3585 -2.85208,-0.4706 -1.26547,-0.1703 -2.58671,-0.1327 -3.82078,0.2245 -1.22407,0.3678 -2.38991,0.9365 -3.38492,1.7375 -0.48567,0.4043 -0.95502,0.8598 -1.2574,1.4207 0.47076,-0.4012 0.98694,-0.7423 1.50979,-1.0676 2.20558,-1.3914 4.24558,-2.0762 6.87298,-1.7031 1.07095,0.1312 2.14471,0.4653 3.24531,0.4837 0.57424,0.022 0.98519,0.1617 1.12743,0.7689 0.3001,1.2487 -0.0716,3.1931 -1.39719,3.6796 -1.29879,0.5311 -2.71,0.078 -4.08386,0.224 -1.61801,0.1782 -3.04466,1.0538 -4.25716,2.0793 -0.48759,0.3915 -0.92169,0.8407 -1.43297,1.2"
       style="fill:#000072;fill-opacity:1;fill-rule:nonzero;stroke:none;stroke-width:0.00175394"
       id="path252" />
    <path
       d="m 654.92156,3425.6692 c 0.81523,-0.087 1.42438,-0.7682 1.72798,-1.4829 -0.39516,0.5158 -0.98606,0.9861 -1.66378,0.9508 -0.0132,0 -0.0365,0 -0.0384,-0.01 l -0.0258,0.5386"
       style="fill:#000072;fill-opacity:1;fill-rule:nonzero;stroke:none;stroke-width:0.00175394"
       id="path254" />
    <path
       d="m 654.16807,3425.2481 c 0.65861,-0.3555 1.17023,-0.9832 1.3672,-1.7027 -0.31624,0.5542 -0.84084,0.9761 -1.44577,1.1681 -0.0358,0.011 -0.0789,0.023 -0.10384,0.027 l 0.18241,0.5074"
       style="fill:#000072;fill-opacity:1;fill-rule:nonzero;stroke:none;stroke-width:0.00175394"
       id="path256" />
    <path
       d="m 664.82412,3435.9305 c 0,0 1.58293,-0.137 2.42762,0.9394 0.37885,-0.1986 0.79927,-0.318 1.24372,-0.3401 0.73367,-0.036 1.46682,-0.036 2.20066,0 1.70816,0.084 3.06659,1.6148 3.07115,3.4865 v 0.065 c -0.005,1.8716 -1.36299,3.4028 -3.07115,3.487 -0.73384,0.036 -1.46699,0.036 -2.20066,0 -1.70816,-0.084 -3.06676,-1.6154 -3.07114,-3.487 v -0.065 c 0.001,-0.6611 0.17188,-1.2793 0.46759,-1.8068 -0.13154,-0.7663 -0.42287,-1.7634 -1.06779,-2.279"
       style="fill:#ffffff;fill-opacity:1;fill-rule:nonzero;stroke:none;stroke-width:0.00175394"
       id="path258" />
    <path
       d="m 669.39102,3438.7962 c -0.27537,0.023 -0.50899,-0.1722 -0.53179,-0.4444 -0.0223,-0.2677 0.17977,-0.5039 0.45058,-0.5267 0.26765,-0.022 0.50373,0.1773 0.52618,0.445 0.0223,0.2676 -0.17714,0.5037 -0.44497,0.5261"
       style="fill:#000072;fill-opacity:1;fill-rule:nonzero;stroke:none;stroke-width:0.00175394"
       id="path260" />
    <path
       d="m 669.69778,3442.1282 c -0.55371,0.046 -1.05008,-0.2175 -1.29633,-0.6907 -0.0382,-0.076 -0.0416,-0.1647 -0.01,-0.2428 0.0316,-0.077 0.0949,-0.1364 0.17119,-0.1624 l 0.18346,-0.067 h 0.005 c 0.0214,-0.01 0.0433,-0.01 0.0654,-0.012 0.1268,-0.011 0.2466,0.053 0.30606,0.1624 0.0584,0.1003 0.19521,0.2633 0.46023,0.241 0.30676,-0.026 0.42708,-0.2687 0.40902,-0.4839 -0.0188,-0.2257 -0.16996,-0.3664 -0.36149,-0.5446 -0.22134,-0.2061 -0.49689,-0.4625 -0.58739,-0.9245 l -10e-4,-0.01 c -0.0123,-0.083 0.0102,-0.1675 0.0617,-0.2324 0.0503,-0.064 0.12243,-0.102 0.20276,-0.1089 l 0.22749,-0.019 c 0.14294,-0.012 0.27659,0.086 0.31079,0.2289 h 0.001 c 0.0554,0.2666 0.2231,0.4243 0.41726,0.6069 0.24046,0.2259 0.51285,0.4822 0.55442,0.9771 0.054,0.6471 -0.44813,1.2192 -1.11972,1.2755"
       style="fill:#000072;fill-opacity:1;fill-rule:nonzero;stroke:none;stroke-width:0.00175394"
       id="path262" />
    <path
       d="m 669.59588,3443.3723 c -0.36412,0 -0.72806,-0.01 -1.08955,-0.026 -1.59924,-0.079 -2.85523,-1.5132 -2.85944,-3.2653 v -0.064 c 10e-4,-0.6004 0.15294,-1.1876 0.43919,-1.6978 0.0249,-0.045 0.0338,-0.096 0.0252,-0.1467 -0.10769,-0.6263 -0.32395,-1.4215 -0.75735,-2.0045 0.4983,0.052 1.2481,0.2352 1.72272,0.8399 0.0661,0.085 0.18329,0.1096 0.27835,0.06 0.36043,-0.1889 0.74788,-0.2948 1.15146,-0.3148 0.72262,-0.036 1.45577,-0.036 2.17856,0 1.59924,0.079 2.85541,1.5129 2.85962,3.2646 v 0.064 c -0.004,1.7515 -1.26038,3.1858 -2.85962,3.2647 -0.36131,0.018 -0.72525,0.026 -1.08919,0.026 z m -4.77176,-7.4418 h 8.7e-4 z m 0.18416,-0.2289 c -0.11628,0 -0.18977,0.01 -0.20328,0.01 -0.0907,0.01 -0.1675,0.07 -0.19381,0.1571 -0.0265,0.087 0.003,0.1816 0.074,0.2384 0.57248,0.4579 0.84504,1.3612 0.97396,2.067 -0.29817,0.5595 -0.4562,1.1955 -0.45743,1.8446 v 0.065 c 0.005,1.9896 1.44682,3.6187 3.28267,3.7094 0.73753,0.036 1.48523,0.036 2.22241,0 1.8362,-0.091 3.27811,-1.7198 3.28302,-3.7089 v -0.065 c -0.005,-1.9893 -1.44682,-3.618 -3.28284,-3.7087 -0.73736,-0.037 -1.48524,-0.037 -2.22259,0 -0.40902,0.02 -0.80348,0.1164 -1.17514,0.2862 -0.737,-0.8031 -1.84602,-0.8922 -2.30099,-0.8922"
       style="fill:#000072;fill-opacity:1;fill-rule:nonzero;stroke:none;stroke-width:0.00175394"
       id="path264" />
  </g>
</svg>
